%TF.GenerationSoftware,KiCad,Pcbnew,8.0.8*%
%TF.CreationDate,2025-02-24T19:59:05+00:00*%
%TF.ProjectId,jacks-n-dac,6a61636b-732d-46e2-9d64-61632e6b6963,rev?*%
%TF.SameCoordinates,Original*%
%TF.FileFunction,Legend,Top*%
%TF.FilePolarity,Positive*%
%FSLAX46Y46*%
G04 Gerber Fmt 4.6, Leading zero omitted, Abs format (unit mm)*
G04 Created by KiCad (PCBNEW 8.0.8) date 2025-02-24 19:59:05*
%MOMM*%
%LPD*%
G01*
G04 APERTURE LIST*
%ADD10C,0.250000*%
%ADD11C,0.200000*%
%ADD12C,0.150000*%
%ADD13C,0.120000*%
G04 APERTURE END LIST*
D10*
X142705996Y-76137436D02*
X142658377Y-76185056D01*
X142658377Y-76185056D02*
X142515520Y-76232675D01*
X142515520Y-76232675D02*
X142420282Y-76232675D01*
X142420282Y-76232675D02*
X142277425Y-76185056D01*
X142277425Y-76185056D02*
X142182187Y-76089817D01*
X142182187Y-76089817D02*
X142134568Y-75994579D01*
X142134568Y-75994579D02*
X142086949Y-75804103D01*
X142086949Y-75804103D02*
X142086949Y-75661246D01*
X142086949Y-75661246D02*
X142134568Y-75470770D01*
X142134568Y-75470770D02*
X142182187Y-75375532D01*
X142182187Y-75375532D02*
X142277425Y-75280294D01*
X142277425Y-75280294D02*
X142420282Y-75232675D01*
X142420282Y-75232675D02*
X142515520Y-75232675D01*
X142515520Y-75232675D02*
X142658377Y-75280294D01*
X142658377Y-75280294D02*
X142705996Y-75327913D01*
X143610758Y-76232675D02*
X143134568Y-76232675D01*
X143134568Y-76232675D02*
X143134568Y-75232675D01*
X144134568Y-75232675D02*
X144325044Y-75232675D01*
X144325044Y-75232675D02*
X144420282Y-75280294D01*
X144420282Y-75280294D02*
X144515520Y-75375532D01*
X144515520Y-75375532D02*
X144563139Y-75566008D01*
X144563139Y-75566008D02*
X144563139Y-75899341D01*
X144563139Y-75899341D02*
X144515520Y-76089817D01*
X144515520Y-76089817D02*
X144420282Y-76185056D01*
X144420282Y-76185056D02*
X144325044Y-76232675D01*
X144325044Y-76232675D02*
X144134568Y-76232675D01*
X144134568Y-76232675D02*
X144039330Y-76185056D01*
X144039330Y-76185056D02*
X143944092Y-76089817D01*
X143944092Y-76089817D02*
X143896473Y-75899341D01*
X143896473Y-75899341D02*
X143896473Y-75566008D01*
X143896473Y-75566008D02*
X143944092Y-75375532D01*
X143944092Y-75375532D02*
X144039330Y-75280294D01*
X144039330Y-75280294D02*
X144134568Y-75232675D01*
X145563139Y-76137436D02*
X145515520Y-76185056D01*
X145515520Y-76185056D02*
X145372663Y-76232675D01*
X145372663Y-76232675D02*
X145277425Y-76232675D01*
X145277425Y-76232675D02*
X145134568Y-76185056D01*
X145134568Y-76185056D02*
X145039330Y-76089817D01*
X145039330Y-76089817D02*
X144991711Y-75994579D01*
X144991711Y-75994579D02*
X144944092Y-75804103D01*
X144944092Y-75804103D02*
X144944092Y-75661246D01*
X144944092Y-75661246D02*
X144991711Y-75470770D01*
X144991711Y-75470770D02*
X145039330Y-75375532D01*
X145039330Y-75375532D02*
X145134568Y-75280294D01*
X145134568Y-75280294D02*
X145277425Y-75232675D01*
X145277425Y-75232675D02*
X145372663Y-75232675D01*
X145372663Y-75232675D02*
X145515520Y-75280294D01*
X145515520Y-75280294D02*
X145563139Y-75327913D01*
X145991711Y-76232675D02*
X145991711Y-75232675D01*
X146563139Y-76232675D02*
X146134568Y-75661246D01*
X146563139Y-75232675D02*
X145991711Y-75804103D01*
X142325044Y-76842619D02*
X142515520Y-76842619D01*
X142515520Y-76842619D02*
X142610758Y-76890238D01*
X142610758Y-76890238D02*
X142705996Y-76985476D01*
X142705996Y-76985476D02*
X142753615Y-77175952D01*
X142753615Y-77175952D02*
X142753615Y-77509285D01*
X142753615Y-77509285D02*
X142705996Y-77699761D01*
X142705996Y-77699761D02*
X142610758Y-77795000D01*
X142610758Y-77795000D02*
X142515520Y-77842619D01*
X142515520Y-77842619D02*
X142325044Y-77842619D01*
X142325044Y-77842619D02*
X142229806Y-77795000D01*
X142229806Y-77795000D02*
X142134568Y-77699761D01*
X142134568Y-77699761D02*
X142086949Y-77509285D01*
X142086949Y-77509285D02*
X142086949Y-77175952D01*
X142086949Y-77175952D02*
X142134568Y-76985476D01*
X142134568Y-76985476D02*
X142229806Y-76890238D01*
X142229806Y-76890238D02*
X142325044Y-76842619D01*
X143182187Y-76842619D02*
X143182187Y-77652142D01*
X143182187Y-77652142D02*
X143229806Y-77747380D01*
X143229806Y-77747380D02*
X143277425Y-77795000D01*
X143277425Y-77795000D02*
X143372663Y-77842619D01*
X143372663Y-77842619D02*
X143563139Y-77842619D01*
X143563139Y-77842619D02*
X143658377Y-77795000D01*
X143658377Y-77795000D02*
X143705996Y-77747380D01*
X143705996Y-77747380D02*
X143753615Y-77652142D01*
X143753615Y-77652142D02*
X143753615Y-76842619D01*
X144086949Y-76842619D02*
X144658377Y-76842619D01*
X144372663Y-77842619D02*
X144372663Y-76842619D01*
X118215908Y-76232675D02*
X118215908Y-75232675D01*
X118215908Y-75232675D02*
X118596860Y-75232675D01*
X118596860Y-75232675D02*
X118692098Y-75280294D01*
X118692098Y-75280294D02*
X118739717Y-75327913D01*
X118739717Y-75327913D02*
X118787336Y-75423151D01*
X118787336Y-75423151D02*
X118787336Y-75566008D01*
X118787336Y-75566008D02*
X118739717Y-75661246D01*
X118739717Y-75661246D02*
X118692098Y-75708865D01*
X118692098Y-75708865D02*
X118596860Y-75756484D01*
X118596860Y-75756484D02*
X118215908Y-75756484D01*
X119215908Y-76232675D02*
X119215908Y-75232675D01*
X119549241Y-75232675D02*
X120120669Y-75232675D01*
X119834955Y-76232675D02*
X119834955Y-75232675D01*
X121025431Y-76137436D02*
X120977812Y-76185056D01*
X120977812Y-76185056D02*
X120834955Y-76232675D01*
X120834955Y-76232675D02*
X120739717Y-76232675D01*
X120739717Y-76232675D02*
X120596860Y-76185056D01*
X120596860Y-76185056D02*
X120501622Y-76089817D01*
X120501622Y-76089817D02*
X120454003Y-75994579D01*
X120454003Y-75994579D02*
X120406384Y-75804103D01*
X120406384Y-75804103D02*
X120406384Y-75661246D01*
X120406384Y-75661246D02*
X120454003Y-75470770D01*
X120454003Y-75470770D02*
X120501622Y-75375532D01*
X120501622Y-75375532D02*
X120596860Y-75280294D01*
X120596860Y-75280294D02*
X120739717Y-75232675D01*
X120739717Y-75232675D02*
X120834955Y-75232675D01*
X120834955Y-75232675D02*
X120977812Y-75280294D01*
X120977812Y-75280294D02*
X121025431Y-75327913D01*
X121454003Y-76232675D02*
X121454003Y-75232675D01*
X121454003Y-75708865D02*
X122025431Y-75708865D01*
X122025431Y-76232675D02*
X122025431Y-75232675D01*
X119834955Y-76842619D02*
X120025431Y-76842619D01*
X120025431Y-76842619D02*
X120120669Y-76890238D01*
X120120669Y-76890238D02*
X120215907Y-76985476D01*
X120215907Y-76985476D02*
X120263526Y-77175952D01*
X120263526Y-77175952D02*
X120263526Y-77509285D01*
X120263526Y-77509285D02*
X120215907Y-77699761D01*
X120215907Y-77699761D02*
X120120669Y-77795000D01*
X120120669Y-77795000D02*
X120025431Y-77842619D01*
X120025431Y-77842619D02*
X119834955Y-77842619D01*
X119834955Y-77842619D02*
X119739717Y-77795000D01*
X119739717Y-77795000D02*
X119644479Y-77699761D01*
X119644479Y-77699761D02*
X119596860Y-77509285D01*
X119596860Y-77509285D02*
X119596860Y-77175952D01*
X119596860Y-77175952D02*
X119644479Y-76985476D01*
X119644479Y-76985476D02*
X119739717Y-76890238D01*
X119739717Y-76890238D02*
X119834955Y-76842619D01*
X120692098Y-76842619D02*
X120692098Y-77652142D01*
X120692098Y-77652142D02*
X120739717Y-77747380D01*
X120739717Y-77747380D02*
X120787336Y-77795000D01*
X120787336Y-77795000D02*
X120882574Y-77842619D01*
X120882574Y-77842619D02*
X121073050Y-77842619D01*
X121073050Y-77842619D02*
X121168288Y-77795000D01*
X121168288Y-77795000D02*
X121215907Y-77747380D01*
X121215907Y-77747380D02*
X121263526Y-77652142D01*
X121263526Y-77652142D02*
X121263526Y-76842619D01*
X121596860Y-76842619D02*
X122168288Y-76842619D01*
X121882574Y-77842619D02*
X121882574Y-76842619D01*
D11*
X149250476Y-88791790D02*
X149174286Y-88753695D01*
X149174286Y-88753695D02*
X149060000Y-88753695D01*
X149060000Y-88753695D02*
X148945714Y-88791790D01*
X148945714Y-88791790D02*
X148869524Y-88867980D01*
X148869524Y-88867980D02*
X148831429Y-88944171D01*
X148831429Y-88944171D02*
X148793333Y-89096552D01*
X148793333Y-89096552D02*
X148793333Y-89210838D01*
X148793333Y-89210838D02*
X148831429Y-89363219D01*
X148831429Y-89363219D02*
X148869524Y-89439409D01*
X148869524Y-89439409D02*
X148945714Y-89515600D01*
X148945714Y-89515600D02*
X149060000Y-89553695D01*
X149060000Y-89553695D02*
X149136191Y-89553695D01*
X149136191Y-89553695D02*
X149250476Y-89515600D01*
X149250476Y-89515600D02*
X149288572Y-89477504D01*
X149288572Y-89477504D02*
X149288572Y-89210838D01*
X149288572Y-89210838D02*
X149136191Y-89210838D01*
X149631429Y-89553695D02*
X149631429Y-88753695D01*
X149631429Y-88753695D02*
X150088572Y-89553695D01*
X150088572Y-89553695D02*
X150088572Y-88753695D01*
X150469524Y-89553695D02*
X150469524Y-88753695D01*
X150469524Y-88753695D02*
X150660000Y-88753695D01*
X150660000Y-88753695D02*
X150774286Y-88791790D01*
X150774286Y-88791790D02*
X150850476Y-88867980D01*
X150850476Y-88867980D02*
X150888571Y-88944171D01*
X150888571Y-88944171D02*
X150926667Y-89096552D01*
X150926667Y-89096552D02*
X150926667Y-89210838D01*
X150926667Y-89210838D02*
X150888571Y-89363219D01*
X150888571Y-89363219D02*
X150850476Y-89439409D01*
X150850476Y-89439409D02*
X150774286Y-89515600D01*
X150774286Y-89515600D02*
X150660000Y-89553695D01*
X150660000Y-89553695D02*
X150469524Y-89553695D01*
X134010476Y-88791790D02*
X133934286Y-88753695D01*
X133934286Y-88753695D02*
X133820000Y-88753695D01*
X133820000Y-88753695D02*
X133705714Y-88791790D01*
X133705714Y-88791790D02*
X133629524Y-88867980D01*
X133629524Y-88867980D02*
X133591429Y-88944171D01*
X133591429Y-88944171D02*
X133553333Y-89096552D01*
X133553333Y-89096552D02*
X133553333Y-89210838D01*
X133553333Y-89210838D02*
X133591429Y-89363219D01*
X133591429Y-89363219D02*
X133629524Y-89439409D01*
X133629524Y-89439409D02*
X133705714Y-89515600D01*
X133705714Y-89515600D02*
X133820000Y-89553695D01*
X133820000Y-89553695D02*
X133896191Y-89553695D01*
X133896191Y-89553695D02*
X134010476Y-89515600D01*
X134010476Y-89515600D02*
X134048572Y-89477504D01*
X134048572Y-89477504D02*
X134048572Y-89210838D01*
X134048572Y-89210838D02*
X133896191Y-89210838D01*
X134391429Y-89553695D02*
X134391429Y-88753695D01*
X134391429Y-88753695D02*
X134848572Y-89553695D01*
X134848572Y-89553695D02*
X134848572Y-88753695D01*
X135229524Y-89553695D02*
X135229524Y-88753695D01*
X135229524Y-88753695D02*
X135420000Y-88753695D01*
X135420000Y-88753695D02*
X135534286Y-88791790D01*
X135534286Y-88791790D02*
X135610476Y-88867980D01*
X135610476Y-88867980D02*
X135648571Y-88944171D01*
X135648571Y-88944171D02*
X135686667Y-89096552D01*
X135686667Y-89096552D02*
X135686667Y-89210838D01*
X135686667Y-89210838D02*
X135648571Y-89363219D01*
X135648571Y-89363219D02*
X135610476Y-89439409D01*
X135610476Y-89439409D02*
X135534286Y-89515600D01*
X135534286Y-89515600D02*
X135420000Y-89553695D01*
X135420000Y-89553695D02*
X135229524Y-89553695D01*
X146500952Y-90277600D02*
X146615238Y-90315695D01*
X146615238Y-90315695D02*
X146805714Y-90315695D01*
X146805714Y-90315695D02*
X146881905Y-90277600D01*
X146881905Y-90277600D02*
X146920000Y-90239504D01*
X146920000Y-90239504D02*
X146958095Y-90163314D01*
X146958095Y-90163314D02*
X146958095Y-90087123D01*
X146958095Y-90087123D02*
X146920000Y-90010933D01*
X146920000Y-90010933D02*
X146881905Y-89972838D01*
X146881905Y-89972838D02*
X146805714Y-89934742D01*
X146805714Y-89934742D02*
X146653333Y-89896647D01*
X146653333Y-89896647D02*
X146577143Y-89858552D01*
X146577143Y-89858552D02*
X146539048Y-89820457D01*
X146539048Y-89820457D02*
X146500952Y-89744266D01*
X146500952Y-89744266D02*
X146500952Y-89668076D01*
X146500952Y-89668076D02*
X146539048Y-89591885D01*
X146539048Y-89591885D02*
X146577143Y-89553790D01*
X146577143Y-89553790D02*
X146653333Y-89515695D01*
X146653333Y-89515695D02*
X146843810Y-89515695D01*
X146843810Y-89515695D02*
X146958095Y-89553790D01*
X147300953Y-90315695D02*
X147300953Y-89515695D01*
X147300953Y-89515695D02*
X147491429Y-89515695D01*
X147491429Y-89515695D02*
X147605715Y-89553790D01*
X147605715Y-89553790D02*
X147681905Y-89629980D01*
X147681905Y-89629980D02*
X147720000Y-89706171D01*
X147720000Y-89706171D02*
X147758096Y-89858552D01*
X147758096Y-89858552D02*
X147758096Y-89972838D01*
X147758096Y-89972838D02*
X147720000Y-90125219D01*
X147720000Y-90125219D02*
X147681905Y-90201409D01*
X147681905Y-90201409D02*
X147605715Y-90277600D01*
X147605715Y-90277600D02*
X147491429Y-90315695D01*
X147491429Y-90315695D02*
X147300953Y-90315695D01*
X148100953Y-90315695D02*
X148100953Y-89515695D01*
X143427618Y-89515600D02*
X143541904Y-89553695D01*
X143541904Y-89553695D02*
X143732380Y-89553695D01*
X143732380Y-89553695D02*
X143808571Y-89515600D01*
X143808571Y-89515600D02*
X143846666Y-89477504D01*
X143846666Y-89477504D02*
X143884761Y-89401314D01*
X143884761Y-89401314D02*
X143884761Y-89325123D01*
X143884761Y-89325123D02*
X143846666Y-89248933D01*
X143846666Y-89248933D02*
X143808571Y-89210838D01*
X143808571Y-89210838D02*
X143732380Y-89172742D01*
X143732380Y-89172742D02*
X143579999Y-89134647D01*
X143579999Y-89134647D02*
X143503809Y-89096552D01*
X143503809Y-89096552D02*
X143465714Y-89058457D01*
X143465714Y-89058457D02*
X143427618Y-88982266D01*
X143427618Y-88982266D02*
X143427618Y-88906076D01*
X143427618Y-88906076D02*
X143465714Y-88829885D01*
X143465714Y-88829885D02*
X143503809Y-88791790D01*
X143503809Y-88791790D02*
X143579999Y-88753695D01*
X143579999Y-88753695D02*
X143770476Y-88753695D01*
X143770476Y-88753695D02*
X143884761Y-88791790D01*
X144684762Y-89477504D02*
X144646666Y-89515600D01*
X144646666Y-89515600D02*
X144532381Y-89553695D01*
X144532381Y-89553695D02*
X144456190Y-89553695D01*
X144456190Y-89553695D02*
X144341904Y-89515600D01*
X144341904Y-89515600D02*
X144265714Y-89439409D01*
X144265714Y-89439409D02*
X144227619Y-89363219D01*
X144227619Y-89363219D02*
X144189523Y-89210838D01*
X144189523Y-89210838D02*
X144189523Y-89096552D01*
X144189523Y-89096552D02*
X144227619Y-88944171D01*
X144227619Y-88944171D02*
X144265714Y-88867980D01*
X144265714Y-88867980D02*
X144341904Y-88791790D01*
X144341904Y-88791790D02*
X144456190Y-88753695D01*
X144456190Y-88753695D02*
X144532381Y-88753695D01*
X144532381Y-88753695D02*
X144646666Y-88791790D01*
X144646666Y-88791790D02*
X144684762Y-88829885D01*
X145408571Y-89553695D02*
X145027619Y-89553695D01*
X145027619Y-89553695D02*
X145027619Y-88753695D01*
X145675238Y-89553695D02*
X145675238Y-88753695D01*
X146132381Y-89553695D02*
X145789523Y-89096552D01*
X146132381Y-88753695D02*
X145675238Y-89210838D01*
X139547619Y-88753695D02*
X139166667Y-88753695D01*
X139166667Y-88753695D02*
X139128571Y-89134647D01*
X139128571Y-89134647D02*
X139166667Y-89096552D01*
X139166667Y-89096552D02*
X139242857Y-89058457D01*
X139242857Y-89058457D02*
X139433333Y-89058457D01*
X139433333Y-89058457D02*
X139509524Y-89096552D01*
X139509524Y-89096552D02*
X139547619Y-89134647D01*
X139547619Y-89134647D02*
X139585714Y-89210838D01*
X139585714Y-89210838D02*
X139585714Y-89401314D01*
X139585714Y-89401314D02*
X139547619Y-89477504D01*
X139547619Y-89477504D02*
X139509524Y-89515600D01*
X139509524Y-89515600D02*
X139433333Y-89553695D01*
X139433333Y-89553695D02*
X139242857Y-89553695D01*
X139242857Y-89553695D02*
X139166667Y-89515600D01*
X139166667Y-89515600D02*
X139128571Y-89477504D01*
X139814286Y-88753695D02*
X140080953Y-89553695D01*
X140080953Y-89553695D02*
X140347619Y-88753695D01*
X142106667Y-90239504D02*
X142068571Y-90277600D01*
X142068571Y-90277600D02*
X141954286Y-90315695D01*
X141954286Y-90315695D02*
X141878095Y-90315695D01*
X141878095Y-90315695D02*
X141763809Y-90277600D01*
X141763809Y-90277600D02*
X141687619Y-90201409D01*
X141687619Y-90201409D02*
X141649524Y-90125219D01*
X141649524Y-90125219D02*
X141611428Y-89972838D01*
X141611428Y-89972838D02*
X141611428Y-89858552D01*
X141611428Y-89858552D02*
X141649524Y-89706171D01*
X141649524Y-89706171D02*
X141687619Y-89629980D01*
X141687619Y-89629980D02*
X141763809Y-89553790D01*
X141763809Y-89553790D02*
X141878095Y-89515695D01*
X141878095Y-89515695D02*
X141954286Y-89515695D01*
X141954286Y-89515695D02*
X142068571Y-89553790D01*
X142068571Y-89553790D02*
X142106667Y-89591885D01*
X142411428Y-90277600D02*
X142525714Y-90315695D01*
X142525714Y-90315695D02*
X142716190Y-90315695D01*
X142716190Y-90315695D02*
X142792381Y-90277600D01*
X142792381Y-90277600D02*
X142830476Y-90239504D01*
X142830476Y-90239504D02*
X142868571Y-90163314D01*
X142868571Y-90163314D02*
X142868571Y-90087123D01*
X142868571Y-90087123D02*
X142830476Y-90010933D01*
X142830476Y-90010933D02*
X142792381Y-89972838D01*
X142792381Y-89972838D02*
X142716190Y-89934742D01*
X142716190Y-89934742D02*
X142563809Y-89896647D01*
X142563809Y-89896647D02*
X142487619Y-89858552D01*
X142487619Y-89858552D02*
X142449524Y-89820457D01*
X142449524Y-89820457D02*
X142411428Y-89744266D01*
X142411428Y-89744266D02*
X142411428Y-89668076D01*
X142411428Y-89668076D02*
X142449524Y-89591885D01*
X142449524Y-89591885D02*
X142487619Y-89553790D01*
X142487619Y-89553790D02*
X142563809Y-89515695D01*
X142563809Y-89515695D02*
X142754286Y-89515695D01*
X142754286Y-89515695D02*
X142868571Y-89553790D01*
X131184762Y-90239504D02*
X131146666Y-90277600D01*
X131146666Y-90277600D02*
X131032381Y-90315695D01*
X131032381Y-90315695D02*
X130956190Y-90315695D01*
X130956190Y-90315695D02*
X130841904Y-90277600D01*
X130841904Y-90277600D02*
X130765714Y-90201409D01*
X130765714Y-90201409D02*
X130727619Y-90125219D01*
X130727619Y-90125219D02*
X130689523Y-89972838D01*
X130689523Y-89972838D02*
X130689523Y-89858552D01*
X130689523Y-89858552D02*
X130727619Y-89706171D01*
X130727619Y-89706171D02*
X130765714Y-89629980D01*
X130765714Y-89629980D02*
X130841904Y-89553790D01*
X130841904Y-89553790D02*
X130956190Y-89515695D01*
X130956190Y-89515695D02*
X131032381Y-89515695D01*
X131032381Y-89515695D02*
X131146666Y-89553790D01*
X131146666Y-89553790D02*
X131184762Y-89591885D01*
X131908571Y-90315695D02*
X131527619Y-90315695D01*
X131527619Y-90315695D02*
X131527619Y-89515695D01*
X132175238Y-90315695D02*
X132175238Y-89515695D01*
X132632381Y-90315695D02*
X132289523Y-89858552D01*
X132632381Y-89515695D02*
X132175238Y-89972838D01*
X133127619Y-89515695D02*
X133280000Y-89515695D01*
X133280000Y-89515695D02*
X133356190Y-89553790D01*
X133356190Y-89553790D02*
X133432381Y-89629980D01*
X133432381Y-89629980D02*
X133470476Y-89782361D01*
X133470476Y-89782361D02*
X133470476Y-90049028D01*
X133470476Y-90049028D02*
X133432381Y-90201409D01*
X133432381Y-90201409D02*
X133356190Y-90277600D01*
X133356190Y-90277600D02*
X133280000Y-90315695D01*
X133280000Y-90315695D02*
X133127619Y-90315695D01*
X133127619Y-90315695D02*
X133051428Y-90277600D01*
X133051428Y-90277600D02*
X132975238Y-90201409D01*
X132975238Y-90201409D02*
X132937142Y-90049028D01*
X132937142Y-90049028D02*
X132937142Y-89782361D01*
X132937142Y-89782361D02*
X132975238Y-89629980D01*
X132975238Y-89629980D02*
X133051428Y-89553790D01*
X133051428Y-89553790D02*
X133127619Y-89515695D01*
X129101904Y-88791790D02*
X129025714Y-88753695D01*
X129025714Y-88753695D02*
X128911428Y-88753695D01*
X128911428Y-88753695D02*
X128797142Y-88791790D01*
X128797142Y-88791790D02*
X128720952Y-88867980D01*
X128720952Y-88867980D02*
X128682857Y-88944171D01*
X128682857Y-88944171D02*
X128644761Y-89096552D01*
X128644761Y-89096552D02*
X128644761Y-89210838D01*
X128644761Y-89210838D02*
X128682857Y-89363219D01*
X128682857Y-89363219D02*
X128720952Y-89439409D01*
X128720952Y-89439409D02*
X128797142Y-89515600D01*
X128797142Y-89515600D02*
X128911428Y-89553695D01*
X128911428Y-89553695D02*
X128987619Y-89553695D01*
X128987619Y-89553695D02*
X129101904Y-89515600D01*
X129101904Y-89515600D02*
X129140000Y-89477504D01*
X129140000Y-89477504D02*
X129140000Y-89210838D01*
X129140000Y-89210838D02*
X128987619Y-89210838D01*
X129444761Y-89325123D02*
X129825714Y-89325123D01*
X129368571Y-89553695D02*
X129635238Y-88753695D01*
X129635238Y-88753695D02*
X129901904Y-89553695D01*
X130054285Y-88753695D02*
X130511428Y-88753695D01*
X130282856Y-89553695D02*
X130282856Y-88753695D01*
X126561905Y-90315695D02*
X126295238Y-89934742D01*
X126104762Y-90315695D02*
X126104762Y-89515695D01*
X126104762Y-89515695D02*
X126409524Y-89515695D01*
X126409524Y-89515695D02*
X126485714Y-89553790D01*
X126485714Y-89553790D02*
X126523809Y-89591885D01*
X126523809Y-89591885D02*
X126561905Y-89668076D01*
X126561905Y-89668076D02*
X126561905Y-89782361D01*
X126561905Y-89782361D02*
X126523809Y-89858552D01*
X126523809Y-89858552D02*
X126485714Y-89896647D01*
X126485714Y-89896647D02*
X126409524Y-89934742D01*
X126409524Y-89934742D02*
X126104762Y-89934742D01*
X126866666Y-90277600D02*
X126980952Y-90315695D01*
X126980952Y-90315695D02*
X127171428Y-90315695D01*
X127171428Y-90315695D02*
X127247619Y-90277600D01*
X127247619Y-90277600D02*
X127285714Y-90239504D01*
X127285714Y-90239504D02*
X127323809Y-90163314D01*
X127323809Y-90163314D02*
X127323809Y-90087123D01*
X127323809Y-90087123D02*
X127285714Y-90010933D01*
X127285714Y-90010933D02*
X127247619Y-89972838D01*
X127247619Y-89972838D02*
X127171428Y-89934742D01*
X127171428Y-89934742D02*
X127019047Y-89896647D01*
X127019047Y-89896647D02*
X126942857Y-89858552D01*
X126942857Y-89858552D02*
X126904762Y-89820457D01*
X126904762Y-89820457D02*
X126866666Y-89744266D01*
X126866666Y-89744266D02*
X126866666Y-89668076D01*
X126866666Y-89668076D02*
X126904762Y-89591885D01*
X126904762Y-89591885D02*
X126942857Y-89553790D01*
X126942857Y-89553790D02*
X127019047Y-89515695D01*
X127019047Y-89515695D02*
X127209524Y-89515695D01*
X127209524Y-89515695D02*
X127323809Y-89553790D01*
X127552381Y-89515695D02*
X128009524Y-89515695D01*
X127780952Y-90315695D02*
X127780952Y-89515695D01*
X123793334Y-89477504D02*
X123755238Y-89515600D01*
X123755238Y-89515600D02*
X123640953Y-89553695D01*
X123640953Y-89553695D02*
X123564762Y-89553695D01*
X123564762Y-89553695D02*
X123450476Y-89515600D01*
X123450476Y-89515600D02*
X123374286Y-89439409D01*
X123374286Y-89439409D02*
X123336191Y-89363219D01*
X123336191Y-89363219D02*
X123298095Y-89210838D01*
X123298095Y-89210838D02*
X123298095Y-89096552D01*
X123298095Y-89096552D02*
X123336191Y-88944171D01*
X123336191Y-88944171D02*
X123374286Y-88867980D01*
X123374286Y-88867980D02*
X123450476Y-88791790D01*
X123450476Y-88791790D02*
X123564762Y-88753695D01*
X123564762Y-88753695D02*
X123640953Y-88753695D01*
X123640953Y-88753695D02*
X123755238Y-88791790D01*
X123755238Y-88791790D02*
X123793334Y-88829885D01*
X124517143Y-89553695D02*
X124136191Y-89553695D01*
X124136191Y-89553695D02*
X124136191Y-88753695D01*
X124783810Y-89553695D02*
X124783810Y-88753695D01*
X125240953Y-89553695D02*
X124898095Y-89096552D01*
X125240953Y-88753695D02*
X124783810Y-89210838D01*
X125583810Y-89553695D02*
X125583810Y-88753695D01*
D10*
X155283812Y-62920238D02*
X155188574Y-62872619D01*
X155188574Y-62872619D02*
X155045717Y-62872619D01*
X155045717Y-62872619D02*
X154902860Y-62920238D01*
X154902860Y-62920238D02*
X154807622Y-63015476D01*
X154807622Y-63015476D02*
X154760003Y-63110714D01*
X154760003Y-63110714D02*
X154712384Y-63301190D01*
X154712384Y-63301190D02*
X154712384Y-63444047D01*
X154712384Y-63444047D02*
X154760003Y-63634523D01*
X154760003Y-63634523D02*
X154807622Y-63729761D01*
X154807622Y-63729761D02*
X154902860Y-63825000D01*
X154902860Y-63825000D02*
X155045717Y-63872619D01*
X155045717Y-63872619D02*
X155140955Y-63872619D01*
X155140955Y-63872619D02*
X155283812Y-63825000D01*
X155283812Y-63825000D02*
X155331431Y-63777380D01*
X155331431Y-63777380D02*
X155331431Y-63444047D01*
X155331431Y-63444047D02*
X155140955Y-63444047D01*
X155760003Y-63872619D02*
X155760003Y-62872619D01*
X155760003Y-62872619D02*
X156331431Y-63872619D01*
X156331431Y-63872619D02*
X156331431Y-62872619D01*
X156807622Y-63872619D02*
X156807622Y-62872619D01*
X156807622Y-62872619D02*
X157045717Y-62872619D01*
X157045717Y-62872619D02*
X157188574Y-62920238D01*
X157188574Y-62920238D02*
X157283812Y-63015476D01*
X157283812Y-63015476D02*
X157331431Y-63110714D01*
X157331431Y-63110714D02*
X157379050Y-63301190D01*
X157379050Y-63301190D02*
X157379050Y-63444047D01*
X157379050Y-63444047D02*
X157331431Y-63634523D01*
X157331431Y-63634523D02*
X157283812Y-63729761D01*
X157283812Y-63729761D02*
X157188574Y-63825000D01*
X157188574Y-63825000D02*
X157045717Y-63872619D01*
X157045717Y-63872619D02*
X156807622Y-63872619D01*
X153807622Y-66031666D02*
X154569527Y-66031666D01*
X155569526Y-66412619D02*
X154998098Y-66412619D01*
X155283812Y-66412619D02*
X155283812Y-65412619D01*
X155283812Y-65412619D02*
X155188574Y-65555476D01*
X155188574Y-65555476D02*
X155093336Y-65650714D01*
X155093336Y-65650714D02*
X154998098Y-65698333D01*
X155950479Y-65507857D02*
X155998098Y-65460238D01*
X155998098Y-65460238D02*
X156093336Y-65412619D01*
X156093336Y-65412619D02*
X156331431Y-65412619D01*
X156331431Y-65412619D02*
X156426669Y-65460238D01*
X156426669Y-65460238D02*
X156474288Y-65507857D01*
X156474288Y-65507857D02*
X156521907Y-65603095D01*
X156521907Y-65603095D02*
X156521907Y-65698333D01*
X156521907Y-65698333D02*
X156474288Y-65841190D01*
X156474288Y-65841190D02*
X155902860Y-66412619D01*
X155902860Y-66412619D02*
X156521907Y-66412619D01*
X156807622Y-65412619D02*
X157140955Y-66412619D01*
X157140955Y-66412619D02*
X157474288Y-65412619D01*
X154061622Y-60951666D02*
X154823527Y-60951666D01*
X154442574Y-61332619D02*
X154442574Y-60570714D01*
X155823526Y-61332619D02*
X155252098Y-61332619D01*
X155537812Y-61332619D02*
X155537812Y-60332619D01*
X155537812Y-60332619D02*
X155442574Y-60475476D01*
X155442574Y-60475476D02*
X155347336Y-60570714D01*
X155347336Y-60570714D02*
X155252098Y-60618333D01*
X156204479Y-60427857D02*
X156252098Y-60380238D01*
X156252098Y-60380238D02*
X156347336Y-60332619D01*
X156347336Y-60332619D02*
X156585431Y-60332619D01*
X156585431Y-60332619D02*
X156680669Y-60380238D01*
X156680669Y-60380238D02*
X156728288Y-60427857D01*
X156728288Y-60427857D02*
X156775907Y-60523095D01*
X156775907Y-60523095D02*
X156775907Y-60618333D01*
X156775907Y-60618333D02*
X156728288Y-60761190D01*
X156728288Y-60761190D02*
X156156860Y-61332619D01*
X156156860Y-61332619D02*
X156775907Y-61332619D01*
X157061622Y-60332619D02*
X157394955Y-61332619D01*
X157394955Y-61332619D02*
X157728288Y-60332619D01*
X152209523Y-50426619D02*
X151733333Y-50426619D01*
X151733333Y-50426619D02*
X151685714Y-50902809D01*
X151685714Y-50902809D02*
X151733333Y-50855190D01*
X151733333Y-50855190D02*
X151828571Y-50807571D01*
X151828571Y-50807571D02*
X152066666Y-50807571D01*
X152066666Y-50807571D02*
X152161904Y-50855190D01*
X152161904Y-50855190D02*
X152209523Y-50902809D01*
X152209523Y-50902809D02*
X152257142Y-50998047D01*
X152257142Y-50998047D02*
X152257142Y-51236142D01*
X152257142Y-51236142D02*
X152209523Y-51331380D01*
X152209523Y-51331380D02*
X152161904Y-51379000D01*
X152161904Y-51379000D02*
X152066666Y-51426619D01*
X152066666Y-51426619D02*
X151828571Y-51426619D01*
X151828571Y-51426619D02*
X151733333Y-51379000D01*
X151733333Y-51379000D02*
X151685714Y-51331380D01*
X152542857Y-50426619D02*
X152876190Y-51426619D01*
X152876190Y-51426619D02*
X153209523Y-50426619D01*
X126295907Y-48197436D02*
X126248288Y-48245056D01*
X126248288Y-48245056D02*
X126105431Y-48292675D01*
X126105431Y-48292675D02*
X126010193Y-48292675D01*
X126010193Y-48292675D02*
X125867336Y-48245056D01*
X125867336Y-48245056D02*
X125772098Y-48149817D01*
X125772098Y-48149817D02*
X125724479Y-48054579D01*
X125724479Y-48054579D02*
X125676860Y-47864103D01*
X125676860Y-47864103D02*
X125676860Y-47721246D01*
X125676860Y-47721246D02*
X125724479Y-47530770D01*
X125724479Y-47530770D02*
X125772098Y-47435532D01*
X125772098Y-47435532D02*
X125867336Y-47340294D01*
X125867336Y-47340294D02*
X126010193Y-47292675D01*
X126010193Y-47292675D02*
X126105431Y-47292675D01*
X126105431Y-47292675D02*
X126248288Y-47340294D01*
X126248288Y-47340294D02*
X126295907Y-47387913D01*
X126581622Y-47292675D02*
X126914955Y-48292675D01*
X126914955Y-48292675D02*
X127248288Y-47292675D01*
X124914955Y-48902619D02*
X125105431Y-48902619D01*
X125105431Y-48902619D02*
X125200669Y-48950238D01*
X125200669Y-48950238D02*
X125295907Y-49045476D01*
X125295907Y-49045476D02*
X125343526Y-49235952D01*
X125343526Y-49235952D02*
X125343526Y-49569285D01*
X125343526Y-49569285D02*
X125295907Y-49759761D01*
X125295907Y-49759761D02*
X125200669Y-49855000D01*
X125200669Y-49855000D02*
X125105431Y-49902619D01*
X125105431Y-49902619D02*
X124914955Y-49902619D01*
X124914955Y-49902619D02*
X124819717Y-49855000D01*
X124819717Y-49855000D02*
X124724479Y-49759761D01*
X124724479Y-49759761D02*
X124676860Y-49569285D01*
X124676860Y-49569285D02*
X124676860Y-49235952D01*
X124676860Y-49235952D02*
X124724479Y-49045476D01*
X124724479Y-49045476D02*
X124819717Y-48950238D01*
X124819717Y-48950238D02*
X124914955Y-48902619D01*
X125772098Y-48902619D02*
X125772098Y-49712142D01*
X125772098Y-49712142D02*
X125819717Y-49807380D01*
X125819717Y-49807380D02*
X125867336Y-49855000D01*
X125867336Y-49855000D02*
X125962574Y-49902619D01*
X125962574Y-49902619D02*
X126153050Y-49902619D01*
X126153050Y-49902619D02*
X126248288Y-49855000D01*
X126248288Y-49855000D02*
X126295907Y-49807380D01*
X126295907Y-49807380D02*
X126343526Y-49712142D01*
X126343526Y-49712142D02*
X126343526Y-48902619D01*
X126676860Y-48902619D02*
X127248288Y-48902619D01*
X126962574Y-49902619D02*
X126962574Y-48902619D01*
X101002377Y-55468294D02*
X100907139Y-55420675D01*
X100907139Y-55420675D02*
X100764282Y-55420675D01*
X100764282Y-55420675D02*
X100621425Y-55468294D01*
X100621425Y-55468294D02*
X100526187Y-55563532D01*
X100526187Y-55563532D02*
X100478568Y-55658770D01*
X100478568Y-55658770D02*
X100430949Y-55849246D01*
X100430949Y-55849246D02*
X100430949Y-55992103D01*
X100430949Y-55992103D02*
X100478568Y-56182579D01*
X100478568Y-56182579D02*
X100526187Y-56277817D01*
X100526187Y-56277817D02*
X100621425Y-56373056D01*
X100621425Y-56373056D02*
X100764282Y-56420675D01*
X100764282Y-56420675D02*
X100859520Y-56420675D01*
X100859520Y-56420675D02*
X101002377Y-56373056D01*
X101002377Y-56373056D02*
X101049996Y-56325436D01*
X101049996Y-56325436D02*
X101049996Y-55992103D01*
X101049996Y-55992103D02*
X100859520Y-55992103D01*
X101430949Y-56134960D02*
X101907139Y-56134960D01*
X101335711Y-56420675D02*
X101669044Y-55420675D01*
X101669044Y-55420675D02*
X102002377Y-56420675D01*
X102192854Y-55420675D02*
X102764282Y-55420675D01*
X102478568Y-56420675D02*
X102478568Y-55420675D01*
X103097616Y-55896865D02*
X103430949Y-55896865D01*
X103573806Y-56420675D02*
X103097616Y-56420675D01*
X103097616Y-56420675D02*
X103097616Y-55420675D01*
X103097616Y-55420675D02*
X103573806Y-55420675D01*
X100669044Y-57030619D02*
X100859520Y-57030619D01*
X100859520Y-57030619D02*
X100954758Y-57078238D01*
X100954758Y-57078238D02*
X101049996Y-57173476D01*
X101049996Y-57173476D02*
X101097615Y-57363952D01*
X101097615Y-57363952D02*
X101097615Y-57697285D01*
X101097615Y-57697285D02*
X101049996Y-57887761D01*
X101049996Y-57887761D02*
X100954758Y-57983000D01*
X100954758Y-57983000D02*
X100859520Y-58030619D01*
X100859520Y-58030619D02*
X100669044Y-58030619D01*
X100669044Y-58030619D02*
X100573806Y-57983000D01*
X100573806Y-57983000D02*
X100478568Y-57887761D01*
X100478568Y-57887761D02*
X100430949Y-57697285D01*
X100430949Y-57697285D02*
X100430949Y-57363952D01*
X100430949Y-57363952D02*
X100478568Y-57173476D01*
X100478568Y-57173476D02*
X100573806Y-57078238D01*
X100573806Y-57078238D02*
X100669044Y-57030619D01*
X101526187Y-57030619D02*
X101526187Y-57840142D01*
X101526187Y-57840142D02*
X101573806Y-57935380D01*
X101573806Y-57935380D02*
X101621425Y-57983000D01*
X101621425Y-57983000D02*
X101716663Y-58030619D01*
X101716663Y-58030619D02*
X101907139Y-58030619D01*
X101907139Y-58030619D02*
X102002377Y-57983000D01*
X102002377Y-57983000D02*
X102049996Y-57935380D01*
X102049996Y-57935380D02*
X102097615Y-57840142D01*
X102097615Y-57840142D02*
X102097615Y-57030619D01*
X102430949Y-57030619D02*
X103002377Y-57030619D01*
X102716663Y-58030619D02*
X102716663Y-57030619D01*
X101049996Y-71660675D02*
X100716663Y-71184484D01*
X100478568Y-71660675D02*
X100478568Y-70660675D01*
X100478568Y-70660675D02*
X100859520Y-70660675D01*
X100859520Y-70660675D02*
X100954758Y-70708294D01*
X100954758Y-70708294D02*
X101002377Y-70755913D01*
X101002377Y-70755913D02*
X101049996Y-70851151D01*
X101049996Y-70851151D02*
X101049996Y-70994008D01*
X101049996Y-70994008D02*
X101002377Y-71089246D01*
X101002377Y-71089246D02*
X100954758Y-71136865D01*
X100954758Y-71136865D02*
X100859520Y-71184484D01*
X100859520Y-71184484D02*
X100478568Y-71184484D01*
X101430949Y-71613056D02*
X101573806Y-71660675D01*
X101573806Y-71660675D02*
X101811901Y-71660675D01*
X101811901Y-71660675D02*
X101907139Y-71613056D01*
X101907139Y-71613056D02*
X101954758Y-71565436D01*
X101954758Y-71565436D02*
X102002377Y-71470198D01*
X102002377Y-71470198D02*
X102002377Y-71374960D01*
X102002377Y-71374960D02*
X101954758Y-71279722D01*
X101954758Y-71279722D02*
X101907139Y-71232103D01*
X101907139Y-71232103D02*
X101811901Y-71184484D01*
X101811901Y-71184484D02*
X101621425Y-71136865D01*
X101621425Y-71136865D02*
X101526187Y-71089246D01*
X101526187Y-71089246D02*
X101478568Y-71041627D01*
X101478568Y-71041627D02*
X101430949Y-70946389D01*
X101430949Y-70946389D02*
X101430949Y-70851151D01*
X101430949Y-70851151D02*
X101478568Y-70755913D01*
X101478568Y-70755913D02*
X101526187Y-70708294D01*
X101526187Y-70708294D02*
X101621425Y-70660675D01*
X101621425Y-70660675D02*
X101859520Y-70660675D01*
X101859520Y-70660675D02*
X102002377Y-70708294D01*
X102288092Y-70660675D02*
X102859520Y-70660675D01*
X102573806Y-71660675D02*
X102573806Y-70660675D01*
X100478568Y-73270619D02*
X100478568Y-72270619D01*
X100954758Y-73270619D02*
X100954758Y-72270619D01*
X100954758Y-72270619D02*
X101526186Y-73270619D01*
X101526186Y-73270619D02*
X101526186Y-72270619D01*
X101049996Y-86805436D02*
X101002377Y-86853056D01*
X101002377Y-86853056D02*
X100859520Y-86900675D01*
X100859520Y-86900675D02*
X100764282Y-86900675D01*
X100764282Y-86900675D02*
X100621425Y-86853056D01*
X100621425Y-86853056D02*
X100526187Y-86757817D01*
X100526187Y-86757817D02*
X100478568Y-86662579D01*
X100478568Y-86662579D02*
X100430949Y-86472103D01*
X100430949Y-86472103D02*
X100430949Y-86329246D01*
X100430949Y-86329246D02*
X100478568Y-86138770D01*
X100478568Y-86138770D02*
X100526187Y-86043532D01*
X100526187Y-86043532D02*
X100621425Y-85948294D01*
X100621425Y-85948294D02*
X100764282Y-85900675D01*
X100764282Y-85900675D02*
X100859520Y-85900675D01*
X100859520Y-85900675D02*
X101002377Y-85948294D01*
X101002377Y-85948294D02*
X101049996Y-85995913D01*
X101621425Y-86900675D02*
X101526187Y-86853056D01*
X101526187Y-86853056D02*
X101478568Y-86757817D01*
X101478568Y-86757817D02*
X101478568Y-85900675D01*
X102145235Y-86900675D02*
X102049997Y-86853056D01*
X102049997Y-86853056D02*
X102002378Y-86805436D01*
X102002378Y-86805436D02*
X101954759Y-86710198D01*
X101954759Y-86710198D02*
X101954759Y-86424484D01*
X101954759Y-86424484D02*
X102002378Y-86329246D01*
X102002378Y-86329246D02*
X102049997Y-86281627D01*
X102049997Y-86281627D02*
X102145235Y-86234008D01*
X102145235Y-86234008D02*
X102288092Y-86234008D01*
X102288092Y-86234008D02*
X102383330Y-86281627D01*
X102383330Y-86281627D02*
X102430949Y-86329246D01*
X102430949Y-86329246D02*
X102478568Y-86424484D01*
X102478568Y-86424484D02*
X102478568Y-86710198D01*
X102478568Y-86710198D02*
X102430949Y-86805436D01*
X102430949Y-86805436D02*
X102383330Y-86853056D01*
X102383330Y-86853056D02*
X102288092Y-86900675D01*
X102288092Y-86900675D02*
X102145235Y-86900675D01*
X103335711Y-86853056D02*
X103240473Y-86900675D01*
X103240473Y-86900675D02*
X103049997Y-86900675D01*
X103049997Y-86900675D02*
X102954759Y-86853056D01*
X102954759Y-86853056D02*
X102907140Y-86805436D01*
X102907140Y-86805436D02*
X102859521Y-86710198D01*
X102859521Y-86710198D02*
X102859521Y-86424484D01*
X102859521Y-86424484D02*
X102907140Y-86329246D01*
X102907140Y-86329246D02*
X102954759Y-86281627D01*
X102954759Y-86281627D02*
X103049997Y-86234008D01*
X103049997Y-86234008D02*
X103240473Y-86234008D01*
X103240473Y-86234008D02*
X103335711Y-86281627D01*
X103764283Y-86900675D02*
X103764283Y-85900675D01*
X103859521Y-86519722D02*
X104145235Y-86900675D01*
X104145235Y-86234008D02*
X103764283Y-86614960D01*
X100478568Y-88510619D02*
X100478568Y-87510619D01*
X100954758Y-88510619D02*
X100954758Y-87510619D01*
X100954758Y-87510619D02*
X101526186Y-88510619D01*
X101526186Y-88510619D02*
X101526186Y-87510619D01*
D12*
X113654819Y-54776666D02*
X113178628Y-55109999D01*
X113654819Y-55348094D02*
X112654819Y-55348094D01*
X112654819Y-55348094D02*
X112654819Y-54967142D01*
X112654819Y-54967142D02*
X112702438Y-54871904D01*
X112702438Y-54871904D02*
X112750057Y-54824285D01*
X112750057Y-54824285D02*
X112845295Y-54776666D01*
X112845295Y-54776666D02*
X112988152Y-54776666D01*
X112988152Y-54776666D02*
X113083390Y-54824285D01*
X113083390Y-54824285D02*
X113131009Y-54871904D01*
X113131009Y-54871904D02*
X113178628Y-54967142D01*
X113178628Y-54967142D02*
X113178628Y-55348094D01*
X113654819Y-54300475D02*
X113654819Y-54109999D01*
X113654819Y-54109999D02*
X113607200Y-54014761D01*
X113607200Y-54014761D02*
X113559580Y-53967142D01*
X113559580Y-53967142D02*
X113416723Y-53871904D01*
X113416723Y-53871904D02*
X113226247Y-53824285D01*
X113226247Y-53824285D02*
X112845295Y-53824285D01*
X112845295Y-53824285D02*
X112750057Y-53871904D01*
X112750057Y-53871904D02*
X112702438Y-53919523D01*
X112702438Y-53919523D02*
X112654819Y-54014761D01*
X112654819Y-54014761D02*
X112654819Y-54205237D01*
X112654819Y-54205237D02*
X112702438Y-54300475D01*
X112702438Y-54300475D02*
X112750057Y-54348094D01*
X112750057Y-54348094D02*
X112845295Y-54395713D01*
X112845295Y-54395713D02*
X113083390Y-54395713D01*
X113083390Y-54395713D02*
X113178628Y-54348094D01*
X113178628Y-54348094D02*
X113226247Y-54300475D01*
X113226247Y-54300475D02*
X113273866Y-54205237D01*
X113273866Y-54205237D02*
X113273866Y-54014761D01*
X113273866Y-54014761D02*
X113226247Y-53919523D01*
X113226247Y-53919523D02*
X113178628Y-53871904D01*
X113178628Y-53871904D02*
X113083390Y-53824285D01*
X133804819Y-70016666D02*
X133328628Y-70349999D01*
X133804819Y-70588094D02*
X132804819Y-70588094D01*
X132804819Y-70588094D02*
X132804819Y-70207142D01*
X132804819Y-70207142D02*
X132852438Y-70111904D01*
X132852438Y-70111904D02*
X132900057Y-70064285D01*
X132900057Y-70064285D02*
X132995295Y-70016666D01*
X132995295Y-70016666D02*
X133138152Y-70016666D01*
X133138152Y-70016666D02*
X133233390Y-70064285D01*
X133233390Y-70064285D02*
X133281009Y-70111904D01*
X133281009Y-70111904D02*
X133328628Y-70207142D01*
X133328628Y-70207142D02*
X133328628Y-70588094D01*
X132804819Y-69683332D02*
X132804819Y-69064285D01*
X132804819Y-69064285D02*
X133185771Y-69397618D01*
X133185771Y-69397618D02*
X133185771Y-69254761D01*
X133185771Y-69254761D02*
X133233390Y-69159523D01*
X133233390Y-69159523D02*
X133281009Y-69111904D01*
X133281009Y-69111904D02*
X133376247Y-69064285D01*
X133376247Y-69064285D02*
X133614342Y-69064285D01*
X133614342Y-69064285D02*
X133709580Y-69111904D01*
X133709580Y-69111904D02*
X133757200Y-69159523D01*
X133757200Y-69159523D02*
X133804819Y-69254761D01*
X133804819Y-69254761D02*
X133804819Y-69540475D01*
X133804819Y-69540475D02*
X133757200Y-69635713D01*
X133757200Y-69635713D02*
X133709580Y-69683332D01*
X131169580Y-70016666D02*
X131217200Y-70064285D01*
X131217200Y-70064285D02*
X131264819Y-70207142D01*
X131264819Y-70207142D02*
X131264819Y-70302380D01*
X131264819Y-70302380D02*
X131217200Y-70445237D01*
X131217200Y-70445237D02*
X131121961Y-70540475D01*
X131121961Y-70540475D02*
X131026723Y-70588094D01*
X131026723Y-70588094D02*
X130836247Y-70635713D01*
X130836247Y-70635713D02*
X130693390Y-70635713D01*
X130693390Y-70635713D02*
X130502914Y-70588094D01*
X130502914Y-70588094D02*
X130407676Y-70540475D01*
X130407676Y-70540475D02*
X130312438Y-70445237D01*
X130312438Y-70445237D02*
X130264819Y-70302380D01*
X130264819Y-70302380D02*
X130264819Y-70207142D01*
X130264819Y-70207142D02*
X130312438Y-70064285D01*
X130312438Y-70064285D02*
X130360057Y-70016666D01*
X130360057Y-69635713D02*
X130312438Y-69588094D01*
X130312438Y-69588094D02*
X130264819Y-69492856D01*
X130264819Y-69492856D02*
X130264819Y-69254761D01*
X130264819Y-69254761D02*
X130312438Y-69159523D01*
X130312438Y-69159523D02*
X130360057Y-69111904D01*
X130360057Y-69111904D02*
X130455295Y-69064285D01*
X130455295Y-69064285D02*
X130550533Y-69064285D01*
X130550533Y-69064285D02*
X130693390Y-69111904D01*
X130693390Y-69111904D02*
X131264819Y-69683332D01*
X131264819Y-69683332D02*
X131264819Y-69064285D01*
X128262142Y-76654819D02*
X127928809Y-76178628D01*
X127690714Y-76654819D02*
X127690714Y-75654819D01*
X127690714Y-75654819D02*
X128071666Y-75654819D01*
X128071666Y-75654819D02*
X128166904Y-75702438D01*
X128166904Y-75702438D02*
X128214523Y-75750057D01*
X128214523Y-75750057D02*
X128262142Y-75845295D01*
X128262142Y-75845295D02*
X128262142Y-75988152D01*
X128262142Y-75988152D02*
X128214523Y-76083390D01*
X128214523Y-76083390D02*
X128166904Y-76131009D01*
X128166904Y-76131009D02*
X128071666Y-76178628D01*
X128071666Y-76178628D02*
X127690714Y-76178628D01*
X129214523Y-76654819D02*
X128643095Y-76654819D01*
X128928809Y-76654819D02*
X128928809Y-75654819D01*
X128928809Y-75654819D02*
X128833571Y-75797676D01*
X128833571Y-75797676D02*
X128738333Y-75892914D01*
X128738333Y-75892914D02*
X128643095Y-75940533D01*
X129547857Y-75654819D02*
X130166904Y-75654819D01*
X130166904Y-75654819D02*
X129833571Y-76035771D01*
X129833571Y-76035771D02*
X129976428Y-76035771D01*
X129976428Y-76035771D02*
X130071666Y-76083390D01*
X130071666Y-76083390D02*
X130119285Y-76131009D01*
X130119285Y-76131009D02*
X130166904Y-76226247D01*
X130166904Y-76226247D02*
X130166904Y-76464342D01*
X130166904Y-76464342D02*
X130119285Y-76559580D01*
X130119285Y-76559580D02*
X130071666Y-76607200D01*
X130071666Y-76607200D02*
X129976428Y-76654819D01*
X129976428Y-76654819D02*
X129690714Y-76654819D01*
X129690714Y-76654819D02*
X129595476Y-76607200D01*
X129595476Y-76607200D02*
X129547857Y-76559580D01*
X128724819Y-52236666D02*
X128248628Y-52569999D01*
X128724819Y-52808094D02*
X127724819Y-52808094D01*
X127724819Y-52808094D02*
X127724819Y-52427142D01*
X127724819Y-52427142D02*
X127772438Y-52331904D01*
X127772438Y-52331904D02*
X127820057Y-52284285D01*
X127820057Y-52284285D02*
X127915295Y-52236666D01*
X127915295Y-52236666D02*
X128058152Y-52236666D01*
X128058152Y-52236666D02*
X128153390Y-52284285D01*
X128153390Y-52284285D02*
X128201009Y-52331904D01*
X128201009Y-52331904D02*
X128248628Y-52427142D01*
X128248628Y-52427142D02*
X128248628Y-52808094D01*
X128058152Y-51379523D02*
X128724819Y-51379523D01*
X127677200Y-51617618D02*
X128391485Y-51855713D01*
X128391485Y-51855713D02*
X128391485Y-51236666D01*
X133804819Y-52236666D02*
X133328628Y-52569999D01*
X133804819Y-52808094D02*
X132804819Y-52808094D01*
X132804819Y-52808094D02*
X132804819Y-52427142D01*
X132804819Y-52427142D02*
X132852438Y-52331904D01*
X132852438Y-52331904D02*
X132900057Y-52284285D01*
X132900057Y-52284285D02*
X132995295Y-52236666D01*
X132995295Y-52236666D02*
X133138152Y-52236666D01*
X133138152Y-52236666D02*
X133233390Y-52284285D01*
X133233390Y-52284285D02*
X133281009Y-52331904D01*
X133281009Y-52331904D02*
X133328628Y-52427142D01*
X133328628Y-52427142D02*
X133328628Y-52808094D01*
X132804819Y-51379523D02*
X132804819Y-51569999D01*
X132804819Y-51569999D02*
X132852438Y-51665237D01*
X132852438Y-51665237D02*
X132900057Y-51712856D01*
X132900057Y-51712856D02*
X133042914Y-51808094D01*
X133042914Y-51808094D02*
X133233390Y-51855713D01*
X133233390Y-51855713D02*
X133614342Y-51855713D01*
X133614342Y-51855713D02*
X133709580Y-51808094D01*
X133709580Y-51808094D02*
X133757200Y-51760475D01*
X133757200Y-51760475D02*
X133804819Y-51665237D01*
X133804819Y-51665237D02*
X133804819Y-51474761D01*
X133804819Y-51474761D02*
X133757200Y-51379523D01*
X133757200Y-51379523D02*
X133709580Y-51331904D01*
X133709580Y-51331904D02*
X133614342Y-51284285D01*
X133614342Y-51284285D02*
X133376247Y-51284285D01*
X133376247Y-51284285D02*
X133281009Y-51331904D01*
X133281009Y-51331904D02*
X133233390Y-51379523D01*
X133233390Y-51379523D02*
X133185771Y-51474761D01*
X133185771Y-51474761D02*
X133185771Y-51665237D01*
X133185771Y-51665237D02*
X133233390Y-51760475D01*
X133233390Y-51760475D02*
X133281009Y-51808094D01*
X133281009Y-51808094D02*
X133376247Y-51855713D01*
X136344819Y-70016666D02*
X135868628Y-70349999D01*
X136344819Y-70588094D02*
X135344819Y-70588094D01*
X135344819Y-70588094D02*
X135344819Y-70207142D01*
X135344819Y-70207142D02*
X135392438Y-70111904D01*
X135392438Y-70111904D02*
X135440057Y-70064285D01*
X135440057Y-70064285D02*
X135535295Y-70016666D01*
X135535295Y-70016666D02*
X135678152Y-70016666D01*
X135678152Y-70016666D02*
X135773390Y-70064285D01*
X135773390Y-70064285D02*
X135821009Y-70111904D01*
X135821009Y-70111904D02*
X135868628Y-70207142D01*
X135868628Y-70207142D02*
X135868628Y-70588094D01*
X135440057Y-69635713D02*
X135392438Y-69588094D01*
X135392438Y-69588094D02*
X135344819Y-69492856D01*
X135344819Y-69492856D02*
X135344819Y-69254761D01*
X135344819Y-69254761D02*
X135392438Y-69159523D01*
X135392438Y-69159523D02*
X135440057Y-69111904D01*
X135440057Y-69111904D02*
X135535295Y-69064285D01*
X135535295Y-69064285D02*
X135630533Y-69064285D01*
X135630533Y-69064285D02*
X135773390Y-69111904D01*
X135773390Y-69111904D02*
X136344819Y-69683332D01*
X136344819Y-69683332D02*
X136344819Y-69064285D01*
X124819580Y-61126666D02*
X124867200Y-61174285D01*
X124867200Y-61174285D02*
X124914819Y-61317142D01*
X124914819Y-61317142D02*
X124914819Y-61412380D01*
X124914819Y-61412380D02*
X124867200Y-61555237D01*
X124867200Y-61555237D02*
X124771961Y-61650475D01*
X124771961Y-61650475D02*
X124676723Y-61698094D01*
X124676723Y-61698094D02*
X124486247Y-61745713D01*
X124486247Y-61745713D02*
X124343390Y-61745713D01*
X124343390Y-61745713D02*
X124152914Y-61698094D01*
X124152914Y-61698094D02*
X124057676Y-61650475D01*
X124057676Y-61650475D02*
X123962438Y-61555237D01*
X123962438Y-61555237D02*
X123914819Y-61412380D01*
X123914819Y-61412380D02*
X123914819Y-61317142D01*
X123914819Y-61317142D02*
X123962438Y-61174285D01*
X123962438Y-61174285D02*
X124010057Y-61126666D01*
X124248152Y-60269523D02*
X124914819Y-60269523D01*
X123867200Y-60507618D02*
X124581485Y-60745713D01*
X124581485Y-60745713D02*
X124581485Y-60126666D01*
X136824819Y-86693333D02*
X137539104Y-86693333D01*
X137539104Y-86693333D02*
X137681961Y-86740952D01*
X137681961Y-86740952D02*
X137777200Y-86836190D01*
X137777200Y-86836190D02*
X137824819Y-86979047D01*
X137824819Y-86979047D02*
X137824819Y-87074285D01*
X137824819Y-85693333D02*
X137824819Y-86264761D01*
X137824819Y-85979047D02*
X136824819Y-85979047D01*
X136824819Y-85979047D02*
X136967676Y-86074285D01*
X136967676Y-86074285D02*
X137062914Y-86169523D01*
X137062914Y-86169523D02*
X137110533Y-86264761D01*
X114133333Y-80464819D02*
X113800000Y-79988628D01*
X113561905Y-80464819D02*
X113561905Y-79464819D01*
X113561905Y-79464819D02*
X113942857Y-79464819D01*
X113942857Y-79464819D02*
X114038095Y-79512438D01*
X114038095Y-79512438D02*
X114085714Y-79560057D01*
X114085714Y-79560057D02*
X114133333Y-79655295D01*
X114133333Y-79655295D02*
X114133333Y-79798152D01*
X114133333Y-79798152D02*
X114085714Y-79893390D01*
X114085714Y-79893390D02*
X114038095Y-79941009D01*
X114038095Y-79941009D02*
X113942857Y-79988628D01*
X113942857Y-79988628D02*
X113561905Y-79988628D01*
X114704762Y-79893390D02*
X114609524Y-79845771D01*
X114609524Y-79845771D02*
X114561905Y-79798152D01*
X114561905Y-79798152D02*
X114514286Y-79702914D01*
X114514286Y-79702914D02*
X114514286Y-79655295D01*
X114514286Y-79655295D02*
X114561905Y-79560057D01*
X114561905Y-79560057D02*
X114609524Y-79512438D01*
X114609524Y-79512438D02*
X114704762Y-79464819D01*
X114704762Y-79464819D02*
X114895238Y-79464819D01*
X114895238Y-79464819D02*
X114990476Y-79512438D01*
X114990476Y-79512438D02*
X115038095Y-79560057D01*
X115038095Y-79560057D02*
X115085714Y-79655295D01*
X115085714Y-79655295D02*
X115085714Y-79702914D01*
X115085714Y-79702914D02*
X115038095Y-79798152D01*
X115038095Y-79798152D02*
X114990476Y-79845771D01*
X114990476Y-79845771D02*
X114895238Y-79893390D01*
X114895238Y-79893390D02*
X114704762Y-79893390D01*
X114704762Y-79893390D02*
X114609524Y-79941009D01*
X114609524Y-79941009D02*
X114561905Y-79988628D01*
X114561905Y-79988628D02*
X114514286Y-80083866D01*
X114514286Y-80083866D02*
X114514286Y-80274342D01*
X114514286Y-80274342D02*
X114561905Y-80369580D01*
X114561905Y-80369580D02*
X114609524Y-80417200D01*
X114609524Y-80417200D02*
X114704762Y-80464819D01*
X114704762Y-80464819D02*
X114895238Y-80464819D01*
X114895238Y-80464819D02*
X114990476Y-80417200D01*
X114990476Y-80417200D02*
X115038095Y-80369580D01*
X115038095Y-80369580D02*
X115085714Y-80274342D01*
X115085714Y-80274342D02*
X115085714Y-80083866D01*
X115085714Y-80083866D02*
X115038095Y-79988628D01*
X115038095Y-79988628D02*
X114990476Y-79941009D01*
X114990476Y-79941009D02*
X114895238Y-79893390D01*
X136344819Y-52236666D02*
X135868628Y-52569999D01*
X136344819Y-52808094D02*
X135344819Y-52808094D01*
X135344819Y-52808094D02*
X135344819Y-52427142D01*
X135344819Y-52427142D02*
X135392438Y-52331904D01*
X135392438Y-52331904D02*
X135440057Y-52284285D01*
X135440057Y-52284285D02*
X135535295Y-52236666D01*
X135535295Y-52236666D02*
X135678152Y-52236666D01*
X135678152Y-52236666D02*
X135773390Y-52284285D01*
X135773390Y-52284285D02*
X135821009Y-52331904D01*
X135821009Y-52331904D02*
X135868628Y-52427142D01*
X135868628Y-52427142D02*
X135868628Y-52808094D01*
X135344819Y-51331904D02*
X135344819Y-51808094D01*
X135344819Y-51808094D02*
X135821009Y-51855713D01*
X135821009Y-51855713D02*
X135773390Y-51808094D01*
X135773390Y-51808094D02*
X135725771Y-51712856D01*
X135725771Y-51712856D02*
X135725771Y-51474761D01*
X135725771Y-51474761D02*
X135773390Y-51379523D01*
X135773390Y-51379523D02*
X135821009Y-51331904D01*
X135821009Y-51331904D02*
X135916247Y-51284285D01*
X135916247Y-51284285D02*
X136154342Y-51284285D01*
X136154342Y-51284285D02*
X136249580Y-51331904D01*
X136249580Y-51331904D02*
X136297200Y-51379523D01*
X136297200Y-51379523D02*
X136344819Y-51474761D01*
X136344819Y-51474761D02*
X136344819Y-51712856D01*
X136344819Y-51712856D02*
X136297200Y-51808094D01*
X136297200Y-51808094D02*
X136249580Y-51855713D01*
X131169580Y-52236666D02*
X131217200Y-52284285D01*
X131217200Y-52284285D02*
X131264819Y-52427142D01*
X131264819Y-52427142D02*
X131264819Y-52522380D01*
X131264819Y-52522380D02*
X131217200Y-52665237D01*
X131217200Y-52665237D02*
X131121961Y-52760475D01*
X131121961Y-52760475D02*
X131026723Y-52808094D01*
X131026723Y-52808094D02*
X130836247Y-52855713D01*
X130836247Y-52855713D02*
X130693390Y-52855713D01*
X130693390Y-52855713D02*
X130502914Y-52808094D01*
X130502914Y-52808094D02*
X130407676Y-52760475D01*
X130407676Y-52760475D02*
X130312438Y-52665237D01*
X130312438Y-52665237D02*
X130264819Y-52522380D01*
X130264819Y-52522380D02*
X130264819Y-52427142D01*
X130264819Y-52427142D02*
X130312438Y-52284285D01*
X130312438Y-52284285D02*
X130360057Y-52236666D01*
X130264819Y-51903332D02*
X130264819Y-51284285D01*
X130264819Y-51284285D02*
X130645771Y-51617618D01*
X130645771Y-51617618D02*
X130645771Y-51474761D01*
X130645771Y-51474761D02*
X130693390Y-51379523D01*
X130693390Y-51379523D02*
X130741009Y-51331904D01*
X130741009Y-51331904D02*
X130836247Y-51284285D01*
X130836247Y-51284285D02*
X131074342Y-51284285D01*
X131074342Y-51284285D02*
X131169580Y-51331904D01*
X131169580Y-51331904D02*
X131217200Y-51379523D01*
X131217200Y-51379523D02*
X131264819Y-51474761D01*
X131264819Y-51474761D02*
X131264819Y-51760475D01*
X131264819Y-51760475D02*
X131217200Y-51855713D01*
X131217200Y-51855713D02*
X131169580Y-51903332D01*
X140644819Y-64276904D02*
X141454342Y-64276904D01*
X141454342Y-64276904D02*
X141549580Y-64229285D01*
X141549580Y-64229285D02*
X141597200Y-64181666D01*
X141597200Y-64181666D02*
X141644819Y-64086428D01*
X141644819Y-64086428D02*
X141644819Y-63895952D01*
X141644819Y-63895952D02*
X141597200Y-63800714D01*
X141597200Y-63800714D02*
X141549580Y-63753095D01*
X141549580Y-63753095D02*
X141454342Y-63705476D01*
X141454342Y-63705476D02*
X140644819Y-63705476D01*
X140740057Y-63276904D02*
X140692438Y-63229285D01*
X140692438Y-63229285D02*
X140644819Y-63134047D01*
X140644819Y-63134047D02*
X140644819Y-62895952D01*
X140644819Y-62895952D02*
X140692438Y-62800714D01*
X140692438Y-62800714D02*
X140740057Y-62753095D01*
X140740057Y-62753095D02*
X140835295Y-62705476D01*
X140835295Y-62705476D02*
X140930533Y-62705476D01*
X140930533Y-62705476D02*
X141073390Y-62753095D01*
X141073390Y-62753095D02*
X141644819Y-63324523D01*
X141644819Y-63324523D02*
X141644819Y-62705476D01*
X107541905Y-52564819D02*
X107541905Y-51564819D01*
X107541905Y-51564819D02*
X107780000Y-51564819D01*
X107780000Y-51564819D02*
X107922857Y-51612438D01*
X107922857Y-51612438D02*
X108018095Y-51707676D01*
X108018095Y-51707676D02*
X108065714Y-51802914D01*
X108065714Y-51802914D02*
X108113333Y-51993390D01*
X108113333Y-51993390D02*
X108113333Y-52136247D01*
X108113333Y-52136247D02*
X108065714Y-52326723D01*
X108065714Y-52326723D02*
X108018095Y-52421961D01*
X108018095Y-52421961D02*
X107922857Y-52517200D01*
X107922857Y-52517200D02*
X107780000Y-52564819D01*
X107780000Y-52564819D02*
X107541905Y-52564819D01*
X108446667Y-51564819D02*
X109065714Y-51564819D01*
X109065714Y-51564819D02*
X108732381Y-51945771D01*
X108732381Y-51945771D02*
X108875238Y-51945771D01*
X108875238Y-51945771D02*
X108970476Y-51993390D01*
X108970476Y-51993390D02*
X109018095Y-52041009D01*
X109018095Y-52041009D02*
X109065714Y-52136247D01*
X109065714Y-52136247D02*
X109065714Y-52374342D01*
X109065714Y-52374342D02*
X109018095Y-52469580D01*
X109018095Y-52469580D02*
X108970476Y-52517200D01*
X108970476Y-52517200D02*
X108875238Y-52564819D01*
X108875238Y-52564819D02*
X108589524Y-52564819D01*
X108589524Y-52564819D02*
X108494286Y-52517200D01*
X108494286Y-52517200D02*
X108446667Y-52469580D01*
X116514819Y-49696666D02*
X116038628Y-50029999D01*
X116514819Y-50268094D02*
X115514819Y-50268094D01*
X115514819Y-50268094D02*
X115514819Y-49887142D01*
X115514819Y-49887142D02*
X115562438Y-49791904D01*
X115562438Y-49791904D02*
X115610057Y-49744285D01*
X115610057Y-49744285D02*
X115705295Y-49696666D01*
X115705295Y-49696666D02*
X115848152Y-49696666D01*
X115848152Y-49696666D02*
X115943390Y-49744285D01*
X115943390Y-49744285D02*
X115991009Y-49791904D01*
X115991009Y-49791904D02*
X116038628Y-49887142D01*
X116038628Y-49887142D02*
X116038628Y-50268094D01*
X115514819Y-49363332D02*
X115514819Y-48696666D01*
X115514819Y-48696666D02*
X116514819Y-49125237D01*
X131341905Y-78734819D02*
X131341905Y-77734819D01*
X131341905Y-77734819D02*
X131580000Y-77734819D01*
X131580000Y-77734819D02*
X131722857Y-77782438D01*
X131722857Y-77782438D02*
X131818095Y-77877676D01*
X131818095Y-77877676D02*
X131865714Y-77972914D01*
X131865714Y-77972914D02*
X131913333Y-78163390D01*
X131913333Y-78163390D02*
X131913333Y-78306247D01*
X131913333Y-78306247D02*
X131865714Y-78496723D01*
X131865714Y-78496723D02*
X131818095Y-78591961D01*
X131818095Y-78591961D02*
X131722857Y-78687200D01*
X131722857Y-78687200D02*
X131580000Y-78734819D01*
X131580000Y-78734819D02*
X131341905Y-78734819D01*
X132770476Y-78068152D02*
X132770476Y-78734819D01*
X132532381Y-77687200D02*
X132294286Y-78401485D01*
X132294286Y-78401485D02*
X132913333Y-78401485D01*
X108404819Y-81287857D02*
X107928628Y-81621190D01*
X108404819Y-81859285D02*
X107404819Y-81859285D01*
X107404819Y-81859285D02*
X107404819Y-81478333D01*
X107404819Y-81478333D02*
X107452438Y-81383095D01*
X107452438Y-81383095D02*
X107500057Y-81335476D01*
X107500057Y-81335476D02*
X107595295Y-81287857D01*
X107595295Y-81287857D02*
X107738152Y-81287857D01*
X107738152Y-81287857D02*
X107833390Y-81335476D01*
X107833390Y-81335476D02*
X107881009Y-81383095D01*
X107881009Y-81383095D02*
X107928628Y-81478333D01*
X107928628Y-81478333D02*
X107928628Y-81859285D01*
X108404819Y-80335476D02*
X108404819Y-80906904D01*
X108404819Y-80621190D02*
X107404819Y-80621190D01*
X107404819Y-80621190D02*
X107547676Y-80716428D01*
X107547676Y-80716428D02*
X107642914Y-80811666D01*
X107642914Y-80811666D02*
X107690533Y-80906904D01*
X108404819Y-79383095D02*
X108404819Y-79954523D01*
X108404819Y-79668809D02*
X107404819Y-79668809D01*
X107404819Y-79668809D02*
X107547676Y-79764047D01*
X107547676Y-79764047D02*
X107642914Y-79859285D01*
X107642914Y-79859285D02*
X107690533Y-79954523D01*
X111664761Y-66730057D02*
X111569523Y-66682438D01*
X111569523Y-66682438D02*
X111474285Y-66587200D01*
X111474285Y-66587200D02*
X111331428Y-66444342D01*
X111331428Y-66444342D02*
X111236190Y-66396723D01*
X111236190Y-66396723D02*
X111140952Y-66396723D01*
X111188571Y-66634819D02*
X111093333Y-66587200D01*
X111093333Y-66587200D02*
X110998095Y-66491961D01*
X110998095Y-66491961D02*
X110950476Y-66301485D01*
X110950476Y-66301485D02*
X110950476Y-65968152D01*
X110950476Y-65968152D02*
X110998095Y-65777676D01*
X110998095Y-65777676D02*
X111093333Y-65682438D01*
X111093333Y-65682438D02*
X111188571Y-65634819D01*
X111188571Y-65634819D02*
X111379047Y-65634819D01*
X111379047Y-65634819D02*
X111474285Y-65682438D01*
X111474285Y-65682438D02*
X111569523Y-65777676D01*
X111569523Y-65777676D02*
X111617142Y-65968152D01*
X111617142Y-65968152D02*
X111617142Y-66301485D01*
X111617142Y-66301485D02*
X111569523Y-66491961D01*
X111569523Y-66491961D02*
X111474285Y-66587200D01*
X111474285Y-66587200D02*
X111379047Y-66634819D01*
X111379047Y-66634819D02*
X111188571Y-66634819D01*
X111998095Y-65730057D02*
X112045714Y-65682438D01*
X112045714Y-65682438D02*
X112140952Y-65634819D01*
X112140952Y-65634819D02*
X112379047Y-65634819D01*
X112379047Y-65634819D02*
X112474285Y-65682438D01*
X112474285Y-65682438D02*
X112521904Y-65730057D01*
X112521904Y-65730057D02*
X112569523Y-65825295D01*
X112569523Y-65825295D02*
X112569523Y-65920533D01*
X112569523Y-65920533D02*
X112521904Y-66063390D01*
X112521904Y-66063390D02*
X111950476Y-66634819D01*
X111950476Y-66634819D02*
X112569523Y-66634819D01*
X140059580Y-61126666D02*
X140107200Y-61174285D01*
X140107200Y-61174285D02*
X140154819Y-61317142D01*
X140154819Y-61317142D02*
X140154819Y-61412380D01*
X140154819Y-61412380D02*
X140107200Y-61555237D01*
X140107200Y-61555237D02*
X140011961Y-61650475D01*
X140011961Y-61650475D02*
X139916723Y-61698094D01*
X139916723Y-61698094D02*
X139726247Y-61745713D01*
X139726247Y-61745713D02*
X139583390Y-61745713D01*
X139583390Y-61745713D02*
X139392914Y-61698094D01*
X139392914Y-61698094D02*
X139297676Y-61650475D01*
X139297676Y-61650475D02*
X139202438Y-61555237D01*
X139202438Y-61555237D02*
X139154819Y-61412380D01*
X139154819Y-61412380D02*
X139154819Y-61317142D01*
X139154819Y-61317142D02*
X139202438Y-61174285D01*
X139202438Y-61174285D02*
X139250057Y-61126666D01*
X140154819Y-60174285D02*
X140154819Y-60745713D01*
X140154819Y-60459999D02*
X139154819Y-60459999D01*
X139154819Y-60459999D02*
X139297676Y-60555237D01*
X139297676Y-60555237D02*
X139392914Y-60650475D01*
X139392914Y-60650475D02*
X139440533Y-60745713D01*
X104434819Y-69222857D02*
X103958628Y-69556190D01*
X104434819Y-69794285D02*
X103434819Y-69794285D01*
X103434819Y-69794285D02*
X103434819Y-69413333D01*
X103434819Y-69413333D02*
X103482438Y-69318095D01*
X103482438Y-69318095D02*
X103530057Y-69270476D01*
X103530057Y-69270476D02*
X103625295Y-69222857D01*
X103625295Y-69222857D02*
X103768152Y-69222857D01*
X103768152Y-69222857D02*
X103863390Y-69270476D01*
X103863390Y-69270476D02*
X103911009Y-69318095D01*
X103911009Y-69318095D02*
X103958628Y-69413333D01*
X103958628Y-69413333D02*
X103958628Y-69794285D01*
X104434819Y-68270476D02*
X104434819Y-68841904D01*
X104434819Y-68556190D02*
X103434819Y-68556190D01*
X103434819Y-68556190D02*
X103577676Y-68651428D01*
X103577676Y-68651428D02*
X103672914Y-68746666D01*
X103672914Y-68746666D02*
X103720533Y-68841904D01*
X103768152Y-67413333D02*
X104434819Y-67413333D01*
X103387200Y-67651428D02*
X104101485Y-67889523D01*
X104101485Y-67889523D02*
X104101485Y-67270476D01*
X128724819Y-70016666D02*
X128248628Y-70349999D01*
X128724819Y-70588094D02*
X127724819Y-70588094D01*
X127724819Y-70588094D02*
X127724819Y-70207142D01*
X127724819Y-70207142D02*
X127772438Y-70111904D01*
X127772438Y-70111904D02*
X127820057Y-70064285D01*
X127820057Y-70064285D02*
X127915295Y-70016666D01*
X127915295Y-70016666D02*
X128058152Y-70016666D01*
X128058152Y-70016666D02*
X128153390Y-70064285D01*
X128153390Y-70064285D02*
X128201009Y-70111904D01*
X128201009Y-70111904D02*
X128248628Y-70207142D01*
X128248628Y-70207142D02*
X128248628Y-70588094D01*
X128724819Y-69064285D02*
X128724819Y-69635713D01*
X128724819Y-69349999D02*
X127724819Y-69349999D01*
X127724819Y-69349999D02*
X127867676Y-69445237D01*
X127867676Y-69445237D02*
X127962914Y-69540475D01*
X127962914Y-69540475D02*
X128010533Y-69635713D01*
X122834819Y-52808094D02*
X121834819Y-52808094D01*
X121834819Y-52808094D02*
X121834819Y-52569999D01*
X121834819Y-52569999D02*
X121882438Y-52427142D01*
X121882438Y-52427142D02*
X121977676Y-52331904D01*
X121977676Y-52331904D02*
X122072914Y-52284285D01*
X122072914Y-52284285D02*
X122263390Y-52236666D01*
X122263390Y-52236666D02*
X122406247Y-52236666D01*
X122406247Y-52236666D02*
X122596723Y-52284285D01*
X122596723Y-52284285D02*
X122691961Y-52331904D01*
X122691961Y-52331904D02*
X122787200Y-52427142D01*
X122787200Y-52427142D02*
X122834819Y-52569999D01*
X122834819Y-52569999D02*
X122834819Y-52808094D01*
X122834819Y-51284285D02*
X122834819Y-51855713D01*
X122834819Y-51569999D02*
X121834819Y-51569999D01*
X121834819Y-51569999D02*
X121977676Y-51665237D01*
X121977676Y-51665237D02*
X122072914Y-51760475D01*
X122072914Y-51760475D02*
X122120533Y-51855713D01*
X115562142Y-65224819D02*
X115228809Y-64748628D01*
X114990714Y-65224819D02*
X114990714Y-64224819D01*
X114990714Y-64224819D02*
X115371666Y-64224819D01*
X115371666Y-64224819D02*
X115466904Y-64272438D01*
X115466904Y-64272438D02*
X115514523Y-64320057D01*
X115514523Y-64320057D02*
X115562142Y-64415295D01*
X115562142Y-64415295D02*
X115562142Y-64558152D01*
X115562142Y-64558152D02*
X115514523Y-64653390D01*
X115514523Y-64653390D02*
X115466904Y-64701009D01*
X115466904Y-64701009D02*
X115371666Y-64748628D01*
X115371666Y-64748628D02*
X114990714Y-64748628D01*
X116514523Y-65224819D02*
X115943095Y-65224819D01*
X116228809Y-65224819D02*
X116228809Y-64224819D01*
X116228809Y-64224819D02*
X116133571Y-64367676D01*
X116133571Y-64367676D02*
X116038333Y-64462914D01*
X116038333Y-64462914D02*
X115943095Y-64510533D01*
X117371666Y-64224819D02*
X117181190Y-64224819D01*
X117181190Y-64224819D02*
X117085952Y-64272438D01*
X117085952Y-64272438D02*
X117038333Y-64320057D01*
X117038333Y-64320057D02*
X116943095Y-64462914D01*
X116943095Y-64462914D02*
X116895476Y-64653390D01*
X116895476Y-64653390D02*
X116895476Y-65034342D01*
X116895476Y-65034342D02*
X116943095Y-65129580D01*
X116943095Y-65129580D02*
X116990714Y-65177200D01*
X116990714Y-65177200D02*
X117085952Y-65224819D01*
X117085952Y-65224819D02*
X117276428Y-65224819D01*
X117276428Y-65224819D02*
X117371666Y-65177200D01*
X117371666Y-65177200D02*
X117419285Y-65129580D01*
X117419285Y-65129580D02*
X117466904Y-65034342D01*
X117466904Y-65034342D02*
X117466904Y-64796247D01*
X117466904Y-64796247D02*
X117419285Y-64701009D01*
X117419285Y-64701009D02*
X117371666Y-64653390D01*
X117371666Y-64653390D02*
X117276428Y-64605771D01*
X117276428Y-64605771D02*
X117085952Y-64605771D01*
X117085952Y-64605771D02*
X116990714Y-64653390D01*
X116990714Y-64653390D02*
X116943095Y-64701009D01*
X116943095Y-64701009D02*
X116895476Y-64796247D01*
X111664761Y-81970057D02*
X111569523Y-81922438D01*
X111569523Y-81922438D02*
X111474285Y-81827200D01*
X111474285Y-81827200D02*
X111331428Y-81684342D01*
X111331428Y-81684342D02*
X111236190Y-81636723D01*
X111236190Y-81636723D02*
X111140952Y-81636723D01*
X111188571Y-81874819D02*
X111093333Y-81827200D01*
X111093333Y-81827200D02*
X110998095Y-81731961D01*
X110998095Y-81731961D02*
X110950476Y-81541485D01*
X110950476Y-81541485D02*
X110950476Y-81208152D01*
X110950476Y-81208152D02*
X110998095Y-81017676D01*
X110998095Y-81017676D02*
X111093333Y-80922438D01*
X111093333Y-80922438D02*
X111188571Y-80874819D01*
X111188571Y-80874819D02*
X111379047Y-80874819D01*
X111379047Y-80874819D02*
X111474285Y-80922438D01*
X111474285Y-80922438D02*
X111569523Y-81017676D01*
X111569523Y-81017676D02*
X111617142Y-81208152D01*
X111617142Y-81208152D02*
X111617142Y-81541485D01*
X111617142Y-81541485D02*
X111569523Y-81731961D01*
X111569523Y-81731961D02*
X111474285Y-81827200D01*
X111474285Y-81827200D02*
X111379047Y-81874819D01*
X111379047Y-81874819D02*
X111188571Y-81874819D01*
X112569523Y-81874819D02*
X111998095Y-81874819D01*
X112283809Y-81874819D02*
X112283809Y-80874819D01*
X112283809Y-80874819D02*
X112188571Y-81017676D01*
X112188571Y-81017676D02*
X112093333Y-81112914D01*
X112093333Y-81112914D02*
X111998095Y-81160533D01*
X121584819Y-86693333D02*
X122299104Y-86693333D01*
X122299104Y-86693333D02*
X122441961Y-86740952D01*
X122441961Y-86740952D02*
X122537200Y-86836190D01*
X122537200Y-86836190D02*
X122584819Y-86979047D01*
X122584819Y-86979047D02*
X122584819Y-87074285D01*
X121584819Y-86312380D02*
X121584819Y-85645714D01*
X121584819Y-85645714D02*
X122584819Y-86074285D01*
X108404819Y-66047857D02*
X107928628Y-66381190D01*
X108404819Y-66619285D02*
X107404819Y-66619285D01*
X107404819Y-66619285D02*
X107404819Y-66238333D01*
X107404819Y-66238333D02*
X107452438Y-66143095D01*
X107452438Y-66143095D02*
X107500057Y-66095476D01*
X107500057Y-66095476D02*
X107595295Y-66047857D01*
X107595295Y-66047857D02*
X107738152Y-66047857D01*
X107738152Y-66047857D02*
X107833390Y-66095476D01*
X107833390Y-66095476D02*
X107881009Y-66143095D01*
X107881009Y-66143095D02*
X107928628Y-66238333D01*
X107928628Y-66238333D02*
X107928628Y-66619285D01*
X108404819Y-65095476D02*
X108404819Y-65666904D01*
X108404819Y-65381190D02*
X107404819Y-65381190D01*
X107404819Y-65381190D02*
X107547676Y-65476428D01*
X107547676Y-65476428D02*
X107642914Y-65571666D01*
X107642914Y-65571666D02*
X107690533Y-65666904D01*
X107404819Y-64190714D02*
X107404819Y-64666904D01*
X107404819Y-64666904D02*
X107881009Y-64714523D01*
X107881009Y-64714523D02*
X107833390Y-64666904D01*
X107833390Y-64666904D02*
X107785771Y-64571666D01*
X107785771Y-64571666D02*
X107785771Y-64333571D01*
X107785771Y-64333571D02*
X107833390Y-64238333D01*
X107833390Y-64238333D02*
X107881009Y-64190714D01*
X107881009Y-64190714D02*
X107976247Y-64143095D01*
X107976247Y-64143095D02*
X108214342Y-64143095D01*
X108214342Y-64143095D02*
X108309580Y-64190714D01*
X108309580Y-64190714D02*
X108357200Y-64238333D01*
X108357200Y-64238333D02*
X108404819Y-64333571D01*
X108404819Y-64333571D02*
X108404819Y-64571666D01*
X108404819Y-64571666D02*
X108357200Y-64666904D01*
X108357200Y-64666904D02*
X108309580Y-64714523D01*
X106354819Y-50172857D02*
X105878628Y-50506190D01*
X106354819Y-50744285D02*
X105354819Y-50744285D01*
X105354819Y-50744285D02*
X105354819Y-50363333D01*
X105354819Y-50363333D02*
X105402438Y-50268095D01*
X105402438Y-50268095D02*
X105450057Y-50220476D01*
X105450057Y-50220476D02*
X105545295Y-50172857D01*
X105545295Y-50172857D02*
X105688152Y-50172857D01*
X105688152Y-50172857D02*
X105783390Y-50220476D01*
X105783390Y-50220476D02*
X105831009Y-50268095D01*
X105831009Y-50268095D02*
X105878628Y-50363333D01*
X105878628Y-50363333D02*
X105878628Y-50744285D01*
X106354819Y-49220476D02*
X106354819Y-49791904D01*
X106354819Y-49506190D02*
X105354819Y-49506190D01*
X105354819Y-49506190D02*
X105497676Y-49601428D01*
X105497676Y-49601428D02*
X105592914Y-49696666D01*
X105592914Y-49696666D02*
X105640533Y-49791904D01*
X105450057Y-48839523D02*
X105402438Y-48791904D01*
X105402438Y-48791904D02*
X105354819Y-48696666D01*
X105354819Y-48696666D02*
X105354819Y-48458571D01*
X105354819Y-48458571D02*
X105402438Y-48363333D01*
X105402438Y-48363333D02*
X105450057Y-48315714D01*
X105450057Y-48315714D02*
X105545295Y-48268095D01*
X105545295Y-48268095D02*
X105640533Y-48268095D01*
X105640533Y-48268095D02*
X105783390Y-48315714D01*
X105783390Y-48315714D02*
X106354819Y-48887142D01*
X106354819Y-48887142D02*
X106354819Y-48268095D01*
X104434819Y-84462857D02*
X103958628Y-84796190D01*
X104434819Y-85034285D02*
X103434819Y-85034285D01*
X103434819Y-85034285D02*
X103434819Y-84653333D01*
X103434819Y-84653333D02*
X103482438Y-84558095D01*
X103482438Y-84558095D02*
X103530057Y-84510476D01*
X103530057Y-84510476D02*
X103625295Y-84462857D01*
X103625295Y-84462857D02*
X103768152Y-84462857D01*
X103768152Y-84462857D02*
X103863390Y-84510476D01*
X103863390Y-84510476D02*
X103911009Y-84558095D01*
X103911009Y-84558095D02*
X103958628Y-84653333D01*
X103958628Y-84653333D02*
X103958628Y-85034285D01*
X104434819Y-83510476D02*
X104434819Y-84081904D01*
X104434819Y-83796190D02*
X103434819Y-83796190D01*
X103434819Y-83796190D02*
X103577676Y-83891428D01*
X103577676Y-83891428D02*
X103672914Y-83986666D01*
X103672914Y-83986666D02*
X103720533Y-84081904D01*
X103434819Y-82891428D02*
X103434819Y-82796190D01*
X103434819Y-82796190D02*
X103482438Y-82700952D01*
X103482438Y-82700952D02*
X103530057Y-82653333D01*
X103530057Y-82653333D02*
X103625295Y-82605714D01*
X103625295Y-82605714D02*
X103815771Y-82558095D01*
X103815771Y-82558095D02*
X104053866Y-82558095D01*
X104053866Y-82558095D02*
X104244342Y-82605714D01*
X104244342Y-82605714D02*
X104339580Y-82653333D01*
X104339580Y-82653333D02*
X104387200Y-82700952D01*
X104387200Y-82700952D02*
X104434819Y-82796190D01*
X104434819Y-82796190D02*
X104434819Y-82891428D01*
X104434819Y-82891428D02*
X104387200Y-82986666D01*
X104387200Y-82986666D02*
X104339580Y-83034285D01*
X104339580Y-83034285D02*
X104244342Y-83081904D01*
X104244342Y-83081904D02*
X104053866Y-83129523D01*
X104053866Y-83129523D02*
X103815771Y-83129523D01*
X103815771Y-83129523D02*
X103625295Y-83081904D01*
X103625295Y-83081904D02*
X103530057Y-83034285D01*
X103530057Y-83034285D02*
X103482438Y-82986666D01*
X103482438Y-82986666D02*
X103434819Y-82891428D01*
X125404819Y-64276904D02*
X126214342Y-64276904D01*
X126214342Y-64276904D02*
X126309580Y-64229285D01*
X126309580Y-64229285D02*
X126357200Y-64181666D01*
X126357200Y-64181666D02*
X126404819Y-64086428D01*
X126404819Y-64086428D02*
X126404819Y-63895952D01*
X126404819Y-63895952D02*
X126357200Y-63800714D01*
X126357200Y-63800714D02*
X126309580Y-63753095D01*
X126309580Y-63753095D02*
X126214342Y-63705476D01*
X126214342Y-63705476D02*
X125404819Y-63705476D01*
X126404819Y-62705476D02*
X126404819Y-63276904D01*
X126404819Y-62991190D02*
X125404819Y-62991190D01*
X125404819Y-62991190D02*
X125547676Y-63086428D01*
X125547676Y-63086428D02*
X125642914Y-63181666D01*
X125642914Y-63181666D02*
X125690533Y-63276904D01*
D13*
%TO.C,R9*%
X114107500Y-54864724D02*
X114107500Y-54355276D01*
X115152500Y-54864724D02*
X115152500Y-54355276D01*
%TO.C,D2*%
X109584000Y-51090000D02*
X109740000Y-51090000D01*
X111900000Y-51090000D02*
X112056000Y-51090000D01*
X109584484Y-51090000D02*
G75*
G02*
X109739939Y-47858603I1235516J1560000D01*
G01*
X109740000Y-50570961D02*
G75*
G02*
X109739951Y-48489090I1080000J1040961D01*
G01*
X111900049Y-48489090D02*
G75*
G02*
X111900000Y-50570961I-1080049J-1040910D01*
G01*
X111900061Y-47858603D02*
G75*
G02*
X112055516Y-51090000I-1080061J-1671397D01*
G01*
%TO.C,R3*%
X132827500Y-72135276D02*
X132827500Y-72644724D01*
X133872500Y-72135276D02*
X133872500Y-72644724D01*
%TO.C,C2*%
X130300000Y-72536267D02*
X130300000Y-72243733D01*
X131320000Y-72536267D02*
X131320000Y-72243733D01*
%TO.C,R13*%
X132334724Y-75677500D02*
X131825276Y-75677500D01*
X132334724Y-76722500D02*
X131825276Y-76722500D01*
%TO.C,R4*%
X127747500Y-54864724D02*
X127747500Y-54355276D01*
X128792500Y-54864724D02*
X128792500Y-54355276D01*
%TO.C,R6*%
X132827500Y-54864724D02*
X132827500Y-54355276D01*
X133872500Y-54864724D02*
X133872500Y-54355276D01*
%TO.C,R2*%
X135367500Y-72644724D02*
X135367500Y-72135276D01*
X136412500Y-72644724D02*
X136412500Y-72135276D01*
%TO.C,C4*%
X123950000Y-63810267D02*
X123950000Y-63517733D01*
X124970000Y-63810267D02*
X124970000Y-63517733D01*
%TO.C,J1*%
X138370000Y-87690000D02*
X138370000Y-86360000D01*
X139700000Y-87690000D02*
X138370000Y-87690000D01*
X140970000Y-85030000D02*
X151190000Y-85030000D01*
X140970000Y-87690000D02*
X140970000Y-85030000D01*
X140970000Y-87690000D02*
X151190000Y-87690000D01*
X151190000Y-87690000D02*
X151190000Y-85030000D01*
%TO.C,R8*%
X112014724Y-79487500D02*
X111505276Y-79487500D01*
X112014724Y-80532500D02*
X111505276Y-80532500D01*
%TO.C,R5*%
X135367500Y-54355276D02*
X135367500Y-54864724D01*
X136412500Y-54355276D02*
X136412500Y-54864724D01*
%TO.C,C3*%
X130300000Y-54756267D02*
X130300000Y-54463733D01*
X131320000Y-54756267D02*
X131320000Y-54463733D01*
%TO.C,U2*%
X142190000Y-61265000D02*
X142190000Y-62515000D01*
X142190000Y-64515000D02*
X142190000Y-65765000D01*
X142190000Y-65765000D02*
X152470000Y-65765000D01*
X152470000Y-61265000D02*
X142190000Y-61265000D01*
X152470000Y-65765000D02*
X152470000Y-61265000D01*
X142190000Y-62515000D02*
G75*
G02*
X142190000Y-64515000I0J-1000000D01*
G01*
%TO.C,J9*%
X128210000Y-46930000D02*
X128210000Y-49590000D01*
X130810000Y-46930000D02*
X128210000Y-46930000D01*
X130810000Y-46930000D02*
X130810000Y-49590000D01*
X130810000Y-49590000D02*
X128210000Y-49590000D01*
X132080000Y-46930000D02*
X133410000Y-46930000D01*
X133410000Y-46930000D02*
X133410000Y-48260000D01*
%TO.C,D3*%
X103770000Y-52960000D02*
X103770000Y-56260000D01*
X103770000Y-52960000D02*
X110780000Y-52960000D01*
X103770000Y-56260000D02*
X110780000Y-56260000D01*
%TO.C,J8*%
X123130000Y-72330000D02*
X124460000Y-72330000D01*
X123130000Y-73660000D02*
X123130000Y-72330000D01*
X123130000Y-74930000D02*
X123130000Y-77530000D01*
X123130000Y-74930000D02*
X125790000Y-74930000D01*
X123130000Y-77530000D02*
X125790000Y-77530000D01*
X125790000Y-74930000D02*
X125790000Y-77530000D01*
%TO.C,R7*%
X114107500Y-49275276D02*
X114107500Y-49784724D01*
X115152500Y-49275276D02*
X115152500Y-49784724D01*
%TO.C,D4*%
X127370000Y-79130000D02*
X127370000Y-83430000D01*
X127370000Y-79130000D02*
X134780000Y-79130000D01*
X127370000Y-83430000D02*
X134780000Y-83430000D01*
%TO.C,J6*%
X138370000Y-72330000D02*
X139700000Y-72330000D01*
X138370000Y-73660000D02*
X138370000Y-72330000D01*
X138370000Y-74930000D02*
X138370000Y-77530000D01*
X138370000Y-74930000D02*
X141030000Y-74930000D01*
X138370000Y-77530000D02*
X141030000Y-77530000D01*
X141030000Y-74930000D02*
X141030000Y-77530000D01*
%TO.C,R11*%
X107427500Y-84074724D02*
X107427500Y-83565276D01*
X108472500Y-84074724D02*
X108472500Y-83565276D01*
%TO.C,J2*%
X158690000Y-59630000D02*
X160020000Y-59630000D01*
X158690000Y-60960000D02*
X158690000Y-59630000D01*
X158690000Y-62230000D02*
X158690000Y-67370000D01*
X158690000Y-62230000D02*
X161350000Y-62230000D01*
X158690000Y-67370000D02*
X161350000Y-67370000D01*
X161350000Y-62230000D02*
X161350000Y-67370000D01*
%TO.C,Q2*%
X111760000Y-67020000D02*
X111110000Y-67020000D01*
X111760000Y-67020000D02*
X112410000Y-67020000D01*
X111760000Y-70140000D02*
X111110000Y-70140000D01*
X111760000Y-70140000D02*
X112410000Y-70140000D01*
X110597500Y-67070000D02*
X110357500Y-66740000D01*
X110837500Y-66740000D01*
X110597500Y-67070000D01*
G36*
X110597500Y-67070000D02*
G01*
X110357500Y-66740000D01*
X110837500Y-66740000D01*
X110597500Y-67070000D01*
G37*
%TO.C,C1*%
X139190000Y-63517733D02*
X139190000Y-63810267D01*
X140210000Y-63517733D02*
X140210000Y-63810267D01*
%TO.C,J4*%
X100270000Y-49470000D02*
X101600000Y-49470000D01*
X100270000Y-50800000D02*
X100270000Y-49470000D01*
X100270000Y-52070000D02*
X100270000Y-54670000D01*
X100270000Y-52070000D02*
X102930000Y-52070000D01*
X100270000Y-54670000D02*
X102930000Y-54670000D01*
X102930000Y-52070000D02*
X102930000Y-54670000D01*
%TO.C,R14*%
X104887500Y-68834724D02*
X104887500Y-68325276D01*
X105932500Y-68834724D02*
X105932500Y-68325276D01*
%TO.C,R1*%
X127747500Y-72135276D02*
X127747500Y-72644724D01*
X128792500Y-72135276D02*
X128792500Y-72644724D01*
%TO.C,D1*%
X117230000Y-47360000D02*
X117230000Y-54770000D01*
X121530000Y-47360000D02*
X117230000Y-47360000D01*
X121530000Y-47360000D02*
X121530000Y-54770000D01*
%TO.C,R16*%
X112014724Y-64247500D02*
X111505276Y-64247500D01*
X112014724Y-65292500D02*
X111505276Y-65292500D01*
%TO.C,Q1*%
X111760000Y-82260000D02*
X111110000Y-82260000D01*
X111760000Y-82260000D02*
X112410000Y-82260000D01*
X111760000Y-85380000D02*
X111110000Y-85380000D01*
X111760000Y-85380000D02*
X112410000Y-85380000D01*
X110597500Y-82310000D02*
X110357500Y-81980000D01*
X110837500Y-81980000D01*
X110597500Y-82310000D01*
G36*
X110597500Y-82310000D02*
G01*
X110357500Y-81980000D01*
X110837500Y-81980000D01*
X110597500Y-82310000D01*
G37*
%TO.C,J5*%
X100270000Y-79950000D02*
X101600000Y-79950000D01*
X100270000Y-81280000D02*
X100270000Y-79950000D01*
X100270000Y-82550000D02*
X100270000Y-85150000D01*
X100270000Y-82550000D02*
X102930000Y-82550000D01*
X100270000Y-85150000D02*
X102930000Y-85150000D01*
X102930000Y-82550000D02*
X102930000Y-85150000D01*
%TO.C,J3*%
X151070000Y-49590000D02*
X151070000Y-48260000D01*
X152400000Y-49590000D02*
X151070000Y-49590000D01*
X153670000Y-46930000D02*
X156270000Y-46930000D01*
X153670000Y-49590000D02*
X153670000Y-46930000D01*
X153670000Y-49590000D02*
X156270000Y-49590000D01*
X156270000Y-49590000D02*
X156270000Y-46930000D01*
%TO.C,J7*%
X123130000Y-87690000D02*
X123130000Y-86360000D01*
X124460000Y-87690000D02*
X123130000Y-87690000D01*
X125730000Y-85030000D02*
X135950000Y-85030000D01*
X125730000Y-87690000D02*
X125730000Y-85030000D01*
X125730000Y-87690000D02*
X135950000Y-87690000D01*
X135950000Y-87690000D02*
X135950000Y-85030000D01*
%TO.C,R15*%
X107427500Y-68834724D02*
X107427500Y-68325276D01*
X108472500Y-68834724D02*
X108472500Y-68325276D01*
%TO.C,R12*%
X103947500Y-49275276D02*
X103947500Y-49784724D01*
X104992500Y-49275276D02*
X104992500Y-49784724D01*
%TO.C,R10*%
X104887500Y-84074724D02*
X104887500Y-83565276D01*
X105932500Y-84074724D02*
X105932500Y-83565276D01*
%TO.C,J10*%
X100270000Y-64710000D02*
X101600000Y-64710000D01*
X100270000Y-66040000D02*
X100270000Y-64710000D01*
X100270000Y-67310000D02*
X100270000Y-69910000D01*
X100270000Y-67310000D02*
X102930000Y-67310000D01*
X100270000Y-69910000D02*
X102930000Y-69910000D01*
X102930000Y-67310000D02*
X102930000Y-69910000D01*
%TO.C,U1*%
X126950000Y-61265000D02*
X126950000Y-62515000D01*
X126950000Y-64515000D02*
X126950000Y-65765000D01*
X126950000Y-65765000D02*
X137230000Y-65765000D01*
X137230000Y-61265000D02*
X126950000Y-61265000D01*
X137230000Y-65765000D02*
X137230000Y-61265000D01*
X126950000Y-62515000D02*
G75*
G02*
X126950000Y-64515000I0J-1000000D01*
G01*
%TD*%
M02*
