%TF.GenerationSoftware,KiCad,Pcbnew,8.0.8*%
%TF.CreationDate,2025-02-24T19:59:05+00:00*%
%TF.ProjectId,jacks-n-dac,6a61636b-732d-46e2-9d64-61632e6b6963,rev?*%
%TF.SameCoordinates,Original*%
%TF.FileFunction,Copper,L2,Bot*%
%TF.FilePolarity,Positive*%
%FSLAX46Y46*%
G04 Gerber Fmt 4.6, Leading zero omitted, Abs format (unit mm)*
G04 Created by KiCad (PCBNEW 8.0.8) date 2025-02-24 19:59:05*
%MOMM*%
%LPD*%
G01*
G04 APERTURE LIST*
%TA.AperFunction,ComponentPad*%
%ADD10R,1.800000X1.800000*%
%TD*%
%TA.AperFunction,ComponentPad*%
%ADD11C,1.800000*%
%TD*%
%TA.AperFunction,ComponentPad*%
%ADD12C,5.600000*%
%TD*%
%TA.AperFunction,ComponentPad*%
%ADD13R,1.700000X1.700000*%
%TD*%
%TA.AperFunction,ComponentPad*%
%ADD14O,1.700000X1.700000*%
%TD*%
%TA.AperFunction,ComponentPad*%
%ADD15R,1.600000X2.400000*%
%TD*%
%TA.AperFunction,ComponentPad*%
%ADD16O,1.600000X2.400000*%
%TD*%
%TA.AperFunction,ViaPad*%
%ADD17C,0.600000*%
%TD*%
%TA.AperFunction,Conductor*%
%ADD18C,0.600000*%
%TD*%
%TA.AperFunction,Conductor*%
%ADD19C,0.200000*%
%TD*%
G04 APERTURE END LIST*
D10*
%TO.P,D2,1,K*%
%TO.N,Net-(D2-K)*%
X110820000Y-50800000D03*
D11*
%TO.P,D2,2,A*%
%TO.N,Net-(D2-A)*%
X110820000Y-48260000D03*
%TD*%
D12*
%TO.P,H1,1,1*%
%TO.N,GND*%
X160000000Y-87000000D03*
%TD*%
D13*
%TO.P,J1,1,Pin_1*%
%TO.N,+5V*%
X139700000Y-86360000D03*
D14*
%TO.P,J1,2,Pin_2*%
%TO.N,/CS_DAC*%
X142240000Y-86360000D03*
%TO.P,J1,3,Pin_3*%
%TO.N,/SCLK*%
X144780000Y-86360000D03*
%TO.P,J1,4,Pin_4*%
%TO.N,/MOSI*%
X147320000Y-86360000D03*
%TO.P,J1,5,Pin_5*%
%TO.N,GND*%
X149860000Y-86360000D03*
%TD*%
D15*
%TO.P,U2,1,Vdd*%
%TO.N,+5V*%
X143520000Y-67325000D03*
D16*
%TO.P,U2,2,~{CS}*%
%TO.N,/CS_DAC*%
X146060000Y-67325000D03*
%TO.P,U2,3,SCK*%
%TO.N,/SCLK*%
X148600000Y-67325000D03*
%TO.P,U2,4,SDI*%
%TO.N,/MOSI*%
X151140000Y-67325000D03*
%TO.P,U2,5,~{LDAC}*%
%TO.N,GND*%
X151140000Y-59705000D03*
%TO.P,U2,6,VB*%
%TO.N,Net-(U1B-+)*%
X148600000Y-59705000D03*
%TO.P,U2,7,Vss*%
%TO.N,GND*%
X146060000Y-59705000D03*
%TO.P,U2,8,VA*%
%TO.N,Net-(U1A-+)*%
X143520000Y-59705000D03*
%TD*%
D13*
%TO.P,J9,1*%
%TO.N,GND*%
X132080000Y-48260000D03*
D14*
%TO.P,J9,2*%
%TO.N,/CV*%
X129540000Y-48260000D03*
%TD*%
D12*
%TO.P,H3,1,1*%
%TO.N,GND*%
X143510000Y-51435000D03*
%TD*%
D13*
%TO.P,J8,1*%
%TO.N,GND*%
X124460000Y-73660000D03*
D14*
%TO.P,J8,2*%
%TO.N,/PITCH*%
X124460000Y-76200000D03*
%TD*%
D13*
%TO.P,J6,1*%
%TO.N,GND*%
X139700000Y-73660000D03*
D14*
%TO.P,J6,2*%
%TO.N,Net-(J6-Pad2)*%
X139700000Y-76200000D03*
%TD*%
D13*
%TO.P,J2,1,Pin_1*%
%TO.N,+12V*%
X160020000Y-60960000D03*
D14*
%TO.P,J2,2,Pin_2*%
%TO.N,GND*%
X160020000Y-63500000D03*
%TO.P,J2,3,Pin_3*%
%TO.N,-12V*%
X160020000Y-66040000D03*
%TD*%
D13*
%TO.P,J4,1*%
%TO.N,GND*%
X101600000Y-50800000D03*
D14*
%TO.P,J4,2*%
%TO.N,Net-(J4-Pad2)*%
X101600000Y-53340000D03*
%TD*%
D13*
%TO.P,J5,1*%
%TO.N,GND*%
X101600000Y-81280000D03*
D14*
%TO.P,J5,2*%
%TO.N,Net-(J5-Pad2)*%
X101600000Y-83820000D03*
%TD*%
D13*
%TO.P,J3,1,Pin_1*%
%TO.N,+5V*%
X152400000Y-48260000D03*
D14*
%TO.P,J3,2,Pin_2*%
%TO.N,GND*%
X154940000Y-48260000D03*
%TD*%
D13*
%TO.P,J7,1,Pin_1*%
%TO.N,/CLKIN*%
X124460000Y-86360000D03*
D14*
%TO.P,J7,2,Pin_2*%
%TO.N,/RSTIN*%
X127000000Y-86360000D03*
%TO.P,J7,3,Pin_3*%
%TO.N,/GATE*%
X129540000Y-86360000D03*
%TO.P,J7,4,Pin_4*%
%TO.N,/CLKOUT*%
X132080000Y-86360000D03*
%TO.P,J7,5,Pin_5*%
%TO.N,GND*%
X134620000Y-86360000D03*
%TD*%
D12*
%TO.P,H2,1,1*%
%TO.N,GND*%
X106680000Y-60960000D03*
%TD*%
D13*
%TO.P,J10,1*%
%TO.N,GND*%
X101600000Y-66040000D03*
D14*
%TO.P,J10,2*%
%TO.N,Net-(J10-Pad2)*%
X101600000Y-68580000D03*
%TD*%
D15*
%TO.P,U1,1*%
%TO.N,Net-(C2-Pad2)*%
X128280000Y-67325000D03*
D16*
%TO.P,U1,2,-*%
%TO.N,Net-(U1A--)*%
X130820000Y-67325000D03*
%TO.P,U1,3,+*%
%TO.N,Net-(U1A-+)*%
X133360000Y-67325000D03*
%TO.P,U1,4,V-*%
%TO.N,-12V*%
X135900000Y-67325000D03*
%TO.P,U1,5,+*%
%TO.N,Net-(U1B-+)*%
X135900000Y-59705000D03*
%TO.P,U1,6,-*%
%TO.N,Net-(U1B--)*%
X133360000Y-59705000D03*
%TO.P,U1,7*%
%TO.N,Net-(C3-Pad2)*%
X130820000Y-59705000D03*
%TO.P,U1,8,V+*%
%TO.N,+12V*%
X128280000Y-59705000D03*
%TD*%
D17*
%TO.N,GND*%
X134620000Y-46990000D03*
X134620000Y-48260000D03*
X134620000Y-49530000D03*
X134620000Y-50800000D03*
X133350000Y-50800000D03*
X132080000Y-50800000D03*
X130810000Y-50800000D03*
X102870000Y-48260000D03*
X101600000Y-48260000D03*
X100330000Y-48260000D03*
X102870000Y-63500000D03*
X101600000Y-63500000D03*
X100330000Y-63500000D03*
X102870000Y-78740000D03*
X101600000Y-78740000D03*
X100330000Y-78740000D03*
X152400000Y-90170000D03*
X152400000Y-88900000D03*
X152400000Y-87630000D03*
X152400000Y-86360000D03*
X152400000Y-85090000D03*
X152400000Y-83820000D03*
X162560000Y-67310000D03*
X162560000Y-66040000D03*
X162560000Y-59690000D03*
X162560000Y-60960000D03*
X162560000Y-64770000D03*
X162560000Y-63500000D03*
X162560000Y-62230000D03*
X157480000Y-46990000D03*
X157480000Y-48260000D03*
X157480000Y-49530000D03*
X157480000Y-50800000D03*
X156210000Y-50800000D03*
X154940000Y-50800000D03*
X153670000Y-50800000D03*
X120000000Y-58000000D03*
X107000000Y-71000000D03*
X110000000Y-86000000D03*
X111000000Y-78000000D03*
X110000000Y-77000000D03*
X138000000Y-80000000D03*
X107000000Y-86000000D03*
X112000000Y-57000000D03*
X138000000Y-81000000D03*
X108000000Y-71000000D03*
X114000000Y-63000000D03*
X118000000Y-58000000D03*
X112000000Y-63000000D03*
X111000000Y-71000000D03*
X110000000Y-71000000D03*
X138000000Y-83000000D03*
X122000000Y-84000000D03*
X112000000Y-86000000D03*
X113000000Y-57000000D03*
X138000000Y-82000000D03*
X108000000Y-75000000D03*
X108000000Y-86000000D03*
X111000000Y-57000000D03*
X109000000Y-71000000D03*
X107000000Y-74000000D03*
X115000000Y-57000000D03*
X114000000Y-66000000D03*
X109000000Y-86000000D03*
X119000000Y-58000000D03*
X114000000Y-57000000D03*
X110000000Y-57000000D03*
X138000000Y-79000000D03*
X114000000Y-65000000D03*
X106000000Y-71000000D03*
X123000000Y-84000000D03*
X121000000Y-58000000D03*
X109000000Y-76000000D03*
X113000000Y-63000000D03*
X117000000Y-58000000D03*
X114000000Y-64000000D03*
X111000000Y-86000000D03*
X121000000Y-84000000D03*
X116000000Y-57000000D03*
X138000000Y-84000000D03*
%TO.N,/CLKIN*%
X119380000Y-86360000D03*
%TO.N,Net-(U1A-+)*%
X135890000Y-64770000D03*
%TO.N,Net-(J10-Pad2)*%
X109220000Y-69850000D03*
%TD*%
D18*
%TO.N,+12V*%
X158242000Y-60960000D02*
X160020000Y-60960000D01*
X156210000Y-62992000D02*
X158242000Y-60960000D01*
X131567000Y-62992000D02*
X156210000Y-62992000D01*
X128280000Y-59705000D02*
X131567000Y-62992000D01*
%TO.N,-12V*%
X159605000Y-65625000D02*
X160020000Y-66040000D01*
X137600000Y-65625000D02*
X159605000Y-65625000D01*
X135900000Y-67325000D02*
X137600000Y-65625000D01*
D19*
%TO.N,/CLKIN*%
X119380000Y-86360000D02*
X124460000Y-86360000D01*
%TO.N,Net-(U1A-+)*%
X135890000Y-64770000D02*
X134620000Y-64770000D01*
X134620000Y-64770000D02*
X133360000Y-66030000D01*
X133360000Y-66030000D02*
X133360000Y-67325000D01*
%TO.N,Net-(J10-Pad2)*%
X107950000Y-68580000D02*
X109220000Y-69850000D01*
X101600000Y-68580000D02*
X107950000Y-68580000D01*
%TD*%
%TA.AperFunction,Conductor*%
%TO.N,GND*%
G36*
X163458692Y-45519407D02*
G01*
X163494656Y-45568907D01*
X163499501Y-45599500D01*
X163499549Y-86934108D01*
X163499549Y-86936488D01*
X163480642Y-86994679D01*
X163431142Y-87030643D01*
X163369956Y-87030643D01*
X163320456Y-86994679D01*
X163301694Y-86941848D01*
X163285474Y-86642682D01*
X163227581Y-86289550D01*
X163131853Y-85944770D01*
X163131851Y-85944765D01*
X162999395Y-85612326D01*
X162831784Y-85296177D01*
X162630967Y-84999995D01*
X162630960Y-84999985D01*
X162503556Y-84849995D01*
X161294250Y-86059300D01*
X161220412Y-85957670D01*
X161042330Y-85779588D01*
X160940696Y-85705747D01*
X162152742Y-84493702D01*
X162139511Y-84481170D01*
X161854641Y-84264617D01*
X161854636Y-84264614D01*
X161548019Y-84080128D01*
X161223255Y-83929876D01*
X160884131Y-83815612D01*
X160534669Y-83738689D01*
X160534670Y-83738689D01*
X160178922Y-83700000D01*
X159821078Y-83700000D01*
X159465329Y-83738689D01*
X159115869Y-83815612D01*
X159115867Y-83815612D01*
X158776744Y-83929876D01*
X158451980Y-84080128D01*
X158145363Y-84264614D01*
X158145358Y-84264617D01*
X157860495Y-84481164D01*
X157860473Y-84481183D01*
X157847256Y-84493702D01*
X159059301Y-85705747D01*
X158957670Y-85779588D01*
X158779588Y-85957670D01*
X158705747Y-86059301D01*
X157496441Y-84849995D01*
X157369039Y-84999985D01*
X157369032Y-84999995D01*
X157168215Y-85296177D01*
X157000604Y-85612326D01*
X156868148Y-85944765D01*
X156868146Y-85944770D01*
X156772418Y-86289550D01*
X156714525Y-86642682D01*
X156695153Y-87000000D01*
X156714525Y-87357317D01*
X156772418Y-87710449D01*
X156868146Y-88055229D01*
X156868148Y-88055234D01*
X157000604Y-88387673D01*
X157168215Y-88703822D01*
X157369032Y-89000004D01*
X157369039Y-89000014D01*
X157496441Y-89150002D01*
X158705746Y-87940696D01*
X158779588Y-88042330D01*
X158957670Y-88220412D01*
X159059300Y-88294251D01*
X157847256Y-89506296D01*
X157860488Y-89518829D01*
X158145358Y-89735382D01*
X158145363Y-89735385D01*
X158451980Y-89919871D01*
X158776744Y-90070123D01*
X159115868Y-90184387D01*
X159465330Y-90261310D01*
X159465329Y-90261310D01*
X159821078Y-90300000D01*
X160014307Y-90300000D01*
X160072498Y-90318907D01*
X160108462Y-90368407D01*
X160108462Y-90429593D01*
X160072498Y-90479093D01*
X160018683Y-90497903D01*
X159984940Y-90499396D01*
X159980071Y-90499492D01*
X159913218Y-90499159D01*
X159907823Y-90499499D01*
X99599500Y-90499499D01*
X99541309Y-90480592D01*
X99505345Y-90431092D01*
X99500500Y-90400499D01*
X99500500Y-86359999D01*
X118824750Y-86359999D01*
X118824750Y-86360000D01*
X118843669Y-86503708D01*
X118843670Y-86503709D01*
X118898527Y-86636149D01*
X118899139Y-86637625D01*
X118987379Y-86752621D01*
X119102375Y-86840861D01*
X119236291Y-86896330D01*
X119380000Y-86915250D01*
X119523709Y-86896330D01*
X119657625Y-86840861D01*
X119772621Y-86752621D01*
X119773385Y-86751624D01*
X119775223Y-86749231D01*
X119825649Y-86714576D01*
X119853764Y-86710500D01*
X123260500Y-86710500D01*
X123318691Y-86729407D01*
X123354655Y-86778907D01*
X123359500Y-86809500D01*
X123359500Y-87234672D01*
X123359501Y-87234684D01*
X123374033Y-87307736D01*
X123374035Y-87307742D01*
X123429397Y-87390599D01*
X123429400Y-87390602D01*
X123477924Y-87423024D01*
X123512260Y-87445966D01*
X123567808Y-87457015D01*
X123585315Y-87460498D01*
X123585320Y-87460498D01*
X123585326Y-87460500D01*
X123585327Y-87460500D01*
X125334673Y-87460500D01*
X125334674Y-87460500D01*
X125407740Y-87445966D01*
X125490601Y-87390601D01*
X125545966Y-87307740D01*
X125560500Y-87234674D01*
X125560500Y-86360000D01*
X125894785Y-86360000D01*
X125913603Y-86563083D01*
X125969418Y-86759250D01*
X126060327Y-86941821D01*
X126183236Y-87104579D01*
X126333959Y-87241981D01*
X126507363Y-87349348D01*
X126697544Y-87423024D01*
X126898024Y-87460500D01*
X127101976Y-87460500D01*
X127302456Y-87423024D01*
X127492637Y-87349348D01*
X127666041Y-87241981D01*
X127816764Y-87104579D01*
X127939673Y-86941821D01*
X128030582Y-86759250D01*
X128086397Y-86563083D01*
X128105215Y-86360000D01*
X128434785Y-86360000D01*
X128453603Y-86563083D01*
X128509418Y-86759250D01*
X128600327Y-86941821D01*
X128723236Y-87104579D01*
X128873959Y-87241981D01*
X129047363Y-87349348D01*
X129237544Y-87423024D01*
X129438024Y-87460500D01*
X129641976Y-87460500D01*
X129842456Y-87423024D01*
X130032637Y-87349348D01*
X130206041Y-87241981D01*
X130356764Y-87104579D01*
X130479673Y-86941821D01*
X130570582Y-86759250D01*
X130626397Y-86563083D01*
X130645215Y-86360000D01*
X130974785Y-86360000D01*
X130993603Y-86563083D01*
X131049418Y-86759250D01*
X131140327Y-86941821D01*
X131263236Y-87104579D01*
X131413959Y-87241981D01*
X131587363Y-87349348D01*
X131777544Y-87423024D01*
X131978024Y-87460500D01*
X132181976Y-87460500D01*
X132382456Y-87423024D01*
X132572637Y-87349348D01*
X132746041Y-87241981D01*
X132896764Y-87104579D01*
X133019673Y-86941821D01*
X133110582Y-86759250D01*
X133125167Y-86707987D01*
X133159275Y-86657194D01*
X133216728Y-86636149D01*
X133275577Y-86652892D01*
X133313346Y-86701029D01*
X133316014Y-86709458D01*
X133346569Y-86823489D01*
X133446399Y-87037577D01*
X133581886Y-87231073D01*
X133748926Y-87398113D01*
X133942422Y-87533600D01*
X134156509Y-87633430D01*
X134370000Y-87690634D01*
X134370000Y-86793012D01*
X134427007Y-86825925D01*
X134554174Y-86860000D01*
X134685826Y-86860000D01*
X134812993Y-86825925D01*
X134870000Y-86793012D01*
X134870000Y-87690633D01*
X135083490Y-87633430D01*
X135297577Y-87533600D01*
X135491073Y-87398113D01*
X135658113Y-87231073D01*
X135793600Y-87037577D01*
X135893430Y-86823489D01*
X135950636Y-86610000D01*
X135053012Y-86610000D01*
X135085925Y-86552993D01*
X135120000Y-86425826D01*
X135120000Y-86294174D01*
X135085925Y-86167007D01*
X135053012Y-86110000D01*
X135950636Y-86110000D01*
X135893429Y-85896505D01*
X135793605Y-85682432D01*
X135793601Y-85682424D01*
X135658113Y-85488926D01*
X135654514Y-85485327D01*
X138599500Y-85485327D01*
X138599500Y-87234672D01*
X138599501Y-87234684D01*
X138614033Y-87307736D01*
X138614035Y-87307742D01*
X138669397Y-87390599D01*
X138669400Y-87390602D01*
X138717924Y-87423024D01*
X138752260Y-87445966D01*
X138807808Y-87457015D01*
X138825315Y-87460498D01*
X138825320Y-87460498D01*
X138825326Y-87460500D01*
X138825327Y-87460500D01*
X140574673Y-87460500D01*
X140574674Y-87460500D01*
X140647740Y-87445966D01*
X140730601Y-87390601D01*
X140785966Y-87307740D01*
X140800500Y-87234674D01*
X140800500Y-86360000D01*
X141134785Y-86360000D01*
X141153603Y-86563083D01*
X141209418Y-86759250D01*
X141300327Y-86941821D01*
X141423236Y-87104579D01*
X141573959Y-87241981D01*
X141747363Y-87349348D01*
X141937544Y-87423024D01*
X142138024Y-87460500D01*
X142341976Y-87460500D01*
X142542456Y-87423024D01*
X142732637Y-87349348D01*
X142906041Y-87241981D01*
X143056764Y-87104579D01*
X143179673Y-86941821D01*
X143270582Y-86759250D01*
X143326397Y-86563083D01*
X143345215Y-86360000D01*
X143674785Y-86360000D01*
X143693603Y-86563083D01*
X143749418Y-86759250D01*
X143840327Y-86941821D01*
X143963236Y-87104579D01*
X144113959Y-87241981D01*
X144287363Y-87349348D01*
X144477544Y-87423024D01*
X144678024Y-87460500D01*
X144881976Y-87460500D01*
X145082456Y-87423024D01*
X145272637Y-87349348D01*
X145446041Y-87241981D01*
X145596764Y-87104579D01*
X145719673Y-86941821D01*
X145810582Y-86759250D01*
X145866397Y-86563083D01*
X145885215Y-86360000D01*
X146214785Y-86360000D01*
X146233603Y-86563083D01*
X146289418Y-86759250D01*
X146380327Y-86941821D01*
X146503236Y-87104579D01*
X146653959Y-87241981D01*
X146827363Y-87349348D01*
X147017544Y-87423024D01*
X147218024Y-87460500D01*
X147421976Y-87460500D01*
X147622456Y-87423024D01*
X147812637Y-87349348D01*
X147986041Y-87241981D01*
X148136764Y-87104579D01*
X148259673Y-86941821D01*
X148350582Y-86759250D01*
X148365167Y-86707987D01*
X148399275Y-86657194D01*
X148456728Y-86636149D01*
X148515577Y-86652892D01*
X148553346Y-86701029D01*
X148556014Y-86709458D01*
X148586569Y-86823489D01*
X148686399Y-87037577D01*
X148821886Y-87231073D01*
X148988926Y-87398113D01*
X149182422Y-87533600D01*
X149396509Y-87633430D01*
X149610000Y-87690634D01*
X149610000Y-86793012D01*
X149667007Y-86825925D01*
X149794174Y-86860000D01*
X149925826Y-86860000D01*
X150052993Y-86825925D01*
X150110000Y-86793012D01*
X150110000Y-87690633D01*
X150323490Y-87633430D01*
X150537577Y-87533600D01*
X150731073Y-87398113D01*
X150898113Y-87231073D01*
X151033600Y-87037577D01*
X151133430Y-86823489D01*
X151190636Y-86610000D01*
X150293012Y-86610000D01*
X150325925Y-86552993D01*
X150360000Y-86425826D01*
X150360000Y-86294174D01*
X150325925Y-86167007D01*
X150293012Y-86110000D01*
X151190636Y-86110000D01*
X151133429Y-85896505D01*
X151033605Y-85682432D01*
X151033601Y-85682424D01*
X150898113Y-85488926D01*
X150731073Y-85321886D01*
X150537577Y-85186399D01*
X150323489Y-85086569D01*
X150110000Y-85029364D01*
X150110000Y-85926988D01*
X150052993Y-85894075D01*
X149925826Y-85860000D01*
X149794174Y-85860000D01*
X149667007Y-85894075D01*
X149610000Y-85926988D01*
X149610000Y-85029364D01*
X149396505Y-85086570D01*
X149182432Y-85186394D01*
X149182424Y-85186398D01*
X148988926Y-85321886D01*
X148821886Y-85488926D01*
X148686398Y-85682424D01*
X148686394Y-85682432D01*
X148586570Y-85896505D01*
X148556014Y-86010541D01*
X148522689Y-86061856D01*
X148465568Y-86083782D01*
X148406467Y-86067946D01*
X148367962Y-86020396D01*
X148365172Y-86012028D01*
X148350582Y-85960750D01*
X148259673Y-85778179D01*
X148136764Y-85615421D01*
X147986041Y-85478019D01*
X147812637Y-85370652D01*
X147622456Y-85296976D01*
X147622455Y-85296975D01*
X147622453Y-85296975D01*
X147421976Y-85259500D01*
X147218024Y-85259500D01*
X147017546Y-85296975D01*
X146953243Y-85321886D01*
X146827363Y-85370652D01*
X146760164Y-85412260D01*
X146653959Y-85478019D01*
X146503237Y-85615420D01*
X146380328Y-85778177D01*
X146380323Y-85778186D01*
X146289419Y-85960747D01*
X146289418Y-85960750D01*
X146233603Y-86156917D01*
X146214785Y-86360000D01*
X145885215Y-86360000D01*
X145866397Y-86156917D01*
X145810582Y-85960750D01*
X145719673Y-85778179D01*
X145596764Y-85615421D01*
X145446041Y-85478019D01*
X145272637Y-85370652D01*
X145082456Y-85296976D01*
X145082455Y-85296975D01*
X145082453Y-85296975D01*
X144881976Y-85259500D01*
X144678024Y-85259500D01*
X144477546Y-85296975D01*
X144413243Y-85321886D01*
X144287363Y-85370652D01*
X144220164Y-85412260D01*
X144113959Y-85478019D01*
X143963237Y-85615420D01*
X143840328Y-85778177D01*
X143840323Y-85778186D01*
X143749419Y-85960747D01*
X143749418Y-85960750D01*
X143693603Y-86156917D01*
X143674785Y-86360000D01*
X143345215Y-86360000D01*
X143326397Y-86156917D01*
X143270582Y-85960750D01*
X143179673Y-85778179D01*
X143056764Y-85615421D01*
X142906041Y-85478019D01*
X142732637Y-85370652D01*
X142542456Y-85296976D01*
X142542455Y-85296975D01*
X142542453Y-85296975D01*
X142341976Y-85259500D01*
X142138024Y-85259500D01*
X141937546Y-85296975D01*
X141873243Y-85321886D01*
X141747363Y-85370652D01*
X141680164Y-85412260D01*
X141573959Y-85478019D01*
X141423237Y-85615420D01*
X141300328Y-85778177D01*
X141300323Y-85778186D01*
X141209419Y-85960747D01*
X141209418Y-85960750D01*
X141153603Y-86156917D01*
X141134785Y-86360000D01*
X140800500Y-86360000D01*
X140800500Y-85485326D01*
X140785966Y-85412260D01*
X140730601Y-85329399D01*
X140730599Y-85329397D01*
X140647742Y-85274035D01*
X140647740Y-85274034D01*
X140647737Y-85274033D01*
X140647736Y-85274033D01*
X140574684Y-85259501D01*
X140574674Y-85259500D01*
X138825326Y-85259500D01*
X138825325Y-85259500D01*
X138825315Y-85259501D01*
X138752263Y-85274033D01*
X138752257Y-85274035D01*
X138669400Y-85329397D01*
X138669397Y-85329400D01*
X138614035Y-85412257D01*
X138614033Y-85412263D01*
X138599501Y-85485315D01*
X138599500Y-85485327D01*
X135654514Y-85485327D01*
X135491073Y-85321886D01*
X135297577Y-85186399D01*
X135083489Y-85086569D01*
X134870000Y-85029364D01*
X134870000Y-85926988D01*
X134812993Y-85894075D01*
X134685826Y-85860000D01*
X134554174Y-85860000D01*
X134427007Y-85894075D01*
X134370000Y-85926988D01*
X134370000Y-85029364D01*
X134156505Y-85086570D01*
X133942432Y-85186394D01*
X133942424Y-85186398D01*
X133748926Y-85321886D01*
X133581886Y-85488926D01*
X133446398Y-85682424D01*
X133446394Y-85682432D01*
X133346570Y-85896505D01*
X133316014Y-86010541D01*
X133282689Y-86061856D01*
X133225568Y-86083782D01*
X133166467Y-86067946D01*
X133127962Y-86020396D01*
X133125172Y-86012028D01*
X133110582Y-85960750D01*
X133019673Y-85778179D01*
X132896764Y-85615421D01*
X132746041Y-85478019D01*
X132572637Y-85370652D01*
X132382456Y-85296976D01*
X132382455Y-85296975D01*
X132382453Y-85296975D01*
X132181976Y-85259500D01*
X131978024Y-85259500D01*
X131777546Y-85296975D01*
X131713243Y-85321886D01*
X131587363Y-85370652D01*
X131520164Y-85412260D01*
X131413959Y-85478019D01*
X131263237Y-85615420D01*
X131140328Y-85778177D01*
X131140323Y-85778186D01*
X131049419Y-85960747D01*
X131049418Y-85960750D01*
X130993603Y-86156917D01*
X130974785Y-86360000D01*
X130645215Y-86360000D01*
X130626397Y-86156917D01*
X130570582Y-85960750D01*
X130479673Y-85778179D01*
X130356764Y-85615421D01*
X130206041Y-85478019D01*
X130032637Y-85370652D01*
X129842456Y-85296976D01*
X129842455Y-85296975D01*
X129842453Y-85296975D01*
X129641976Y-85259500D01*
X129438024Y-85259500D01*
X129237546Y-85296975D01*
X129173243Y-85321886D01*
X129047363Y-85370652D01*
X128980164Y-85412260D01*
X128873959Y-85478019D01*
X128723237Y-85615420D01*
X128600328Y-85778177D01*
X128600323Y-85778186D01*
X128509419Y-85960747D01*
X128509418Y-85960750D01*
X128453603Y-86156917D01*
X128434785Y-86360000D01*
X128105215Y-86360000D01*
X128086397Y-86156917D01*
X128030582Y-85960750D01*
X127939673Y-85778179D01*
X127816764Y-85615421D01*
X127666041Y-85478019D01*
X127492637Y-85370652D01*
X127302456Y-85296976D01*
X127302455Y-85296975D01*
X127302453Y-85296975D01*
X127101976Y-85259500D01*
X126898024Y-85259500D01*
X126697546Y-85296975D01*
X126633243Y-85321886D01*
X126507363Y-85370652D01*
X126440164Y-85412260D01*
X126333959Y-85478019D01*
X126183237Y-85615420D01*
X126060328Y-85778177D01*
X126060323Y-85778186D01*
X125969419Y-85960747D01*
X125969418Y-85960750D01*
X125913603Y-86156917D01*
X125894785Y-86360000D01*
X125560500Y-86360000D01*
X125560500Y-85485326D01*
X125545966Y-85412260D01*
X125490601Y-85329399D01*
X125490599Y-85329397D01*
X125407742Y-85274035D01*
X125407740Y-85274034D01*
X125407737Y-85274033D01*
X125407736Y-85274033D01*
X125334684Y-85259501D01*
X125334674Y-85259500D01*
X123585326Y-85259500D01*
X123585325Y-85259500D01*
X123585315Y-85259501D01*
X123512263Y-85274033D01*
X123512257Y-85274035D01*
X123429400Y-85329397D01*
X123429397Y-85329400D01*
X123374035Y-85412257D01*
X123374033Y-85412263D01*
X123359501Y-85485315D01*
X123359500Y-85485327D01*
X123359500Y-85910500D01*
X123340593Y-85968691D01*
X123291093Y-86004655D01*
X123260500Y-86009500D01*
X119853764Y-86009500D01*
X119795573Y-85990593D01*
X119775223Y-85970769D01*
X119772623Y-85967381D01*
X119772621Y-85967380D01*
X119772621Y-85967379D01*
X119657625Y-85879139D01*
X119657621Y-85879137D01*
X119523709Y-85823670D01*
X119523708Y-85823669D01*
X119380000Y-85804750D01*
X119236291Y-85823669D01*
X119236290Y-85823670D01*
X119102378Y-85879137D01*
X119102374Y-85879139D01*
X118987381Y-85967377D01*
X118987377Y-85967381D01*
X118899139Y-86082374D01*
X118899137Y-86082378D01*
X118843670Y-86216290D01*
X118843669Y-86216291D01*
X118824750Y-86359999D01*
X99500500Y-86359999D01*
X99500500Y-82177824D01*
X100249999Y-82177824D01*
X100256401Y-82237370D01*
X100256403Y-82237381D01*
X100306646Y-82372088D01*
X100306647Y-82372090D01*
X100392807Y-82487184D01*
X100392815Y-82487192D01*
X100507909Y-82573352D01*
X100507911Y-82573353D01*
X100642618Y-82623596D01*
X100642629Y-82623598D01*
X100702176Y-82630000D01*
X101095703Y-82630000D01*
X101153894Y-82648907D01*
X101189858Y-82698407D01*
X101189858Y-82759593D01*
X101153894Y-82809093D01*
X101131469Y-82821313D01*
X101107363Y-82830652D01*
X100933959Y-82938019D01*
X100783237Y-83075420D01*
X100660328Y-83238177D01*
X100660323Y-83238186D01*
X100569419Y-83420747D01*
X100569418Y-83420750D01*
X100513603Y-83616917D01*
X100494785Y-83820000D01*
X100513603Y-84023083D01*
X100569418Y-84219250D01*
X100660327Y-84401821D01*
X100783236Y-84564579D01*
X100933959Y-84701981D01*
X101107363Y-84809348D01*
X101297544Y-84883024D01*
X101498024Y-84920500D01*
X101701976Y-84920500D01*
X101902456Y-84883024D01*
X102092637Y-84809348D01*
X102266041Y-84701981D01*
X102416764Y-84564579D01*
X102539673Y-84401821D01*
X102630582Y-84219250D01*
X102686397Y-84023083D01*
X102705215Y-83820000D01*
X102686397Y-83616917D01*
X102630582Y-83420750D01*
X102539673Y-83238179D01*
X102416764Y-83075421D01*
X102266041Y-82938019D01*
X102092637Y-82830652D01*
X102068532Y-82821314D01*
X102021103Y-82782663D01*
X102005449Y-82723514D01*
X102027552Y-82666461D01*
X102078969Y-82633295D01*
X102104297Y-82630000D01*
X102497824Y-82630000D01*
X102557370Y-82623598D01*
X102557381Y-82623596D01*
X102692088Y-82573353D01*
X102692090Y-82573352D01*
X102807184Y-82487192D01*
X102807192Y-82487184D01*
X102893352Y-82372090D01*
X102893353Y-82372088D01*
X102943596Y-82237381D01*
X102943598Y-82237370D01*
X102950000Y-82177824D01*
X102950000Y-81530001D01*
X102949999Y-81530000D01*
X102033012Y-81530000D01*
X102065925Y-81472993D01*
X102100000Y-81345826D01*
X102100000Y-81214174D01*
X102065925Y-81087007D01*
X102033012Y-81030000D01*
X102949999Y-81030000D01*
X102950000Y-81029999D01*
X102950000Y-80382175D01*
X102943598Y-80322629D01*
X102943596Y-80322618D01*
X102893353Y-80187911D01*
X102893352Y-80187909D01*
X102807192Y-80072815D01*
X102807184Y-80072807D01*
X102692090Y-79986647D01*
X102692088Y-79986646D01*
X102557381Y-79936403D01*
X102557370Y-79936401D01*
X102497824Y-79930000D01*
X101850001Y-79930000D01*
X101850000Y-79930001D01*
X101850000Y-80846988D01*
X101792993Y-80814075D01*
X101665826Y-80780000D01*
X101534174Y-80780000D01*
X101407007Y-80814075D01*
X101350000Y-80846988D01*
X101350000Y-79930001D01*
X101349999Y-79930000D01*
X100702176Y-79930000D01*
X100642629Y-79936401D01*
X100642618Y-79936403D01*
X100507911Y-79986646D01*
X100507909Y-79986647D01*
X100392815Y-80072807D01*
X100392807Y-80072815D01*
X100306647Y-80187909D01*
X100306646Y-80187911D01*
X100256403Y-80322618D01*
X100256401Y-80322629D01*
X100250000Y-80382175D01*
X100250000Y-81029999D01*
X100250001Y-81030000D01*
X101166988Y-81030000D01*
X101134075Y-81087007D01*
X101100000Y-81214174D01*
X101100000Y-81345826D01*
X101134075Y-81472993D01*
X101166988Y-81530000D01*
X100250001Y-81530000D01*
X100250000Y-81530001D01*
X100250000Y-82177824D01*
X100249999Y-82177824D01*
X99500500Y-82177824D01*
X99500500Y-74557824D01*
X123109999Y-74557824D01*
X123116401Y-74617370D01*
X123116403Y-74617381D01*
X123166646Y-74752088D01*
X123166647Y-74752090D01*
X123252807Y-74867184D01*
X123252815Y-74867192D01*
X123367909Y-74953352D01*
X123367911Y-74953353D01*
X123502618Y-75003596D01*
X123502629Y-75003598D01*
X123562176Y-75010000D01*
X123955703Y-75010000D01*
X124013894Y-75028907D01*
X124049858Y-75078407D01*
X124049858Y-75139593D01*
X124013894Y-75189093D01*
X123991469Y-75201313D01*
X123967363Y-75210652D01*
X123793959Y-75318019D01*
X123643237Y-75455420D01*
X123520328Y-75618177D01*
X123520323Y-75618186D01*
X123429419Y-75800747D01*
X123429418Y-75800750D01*
X123373603Y-75996917D01*
X123354785Y-76200000D01*
X123373603Y-76403083D01*
X123429418Y-76599250D01*
X123520327Y-76781821D01*
X123643236Y-76944579D01*
X123793959Y-77081981D01*
X123967363Y-77189348D01*
X124157544Y-77263024D01*
X124358024Y-77300500D01*
X124561976Y-77300500D01*
X124762456Y-77263024D01*
X124952637Y-77189348D01*
X125126041Y-77081981D01*
X125276764Y-76944579D01*
X125399673Y-76781821D01*
X125490582Y-76599250D01*
X125546397Y-76403083D01*
X125565215Y-76200000D01*
X125546397Y-75996917D01*
X125490582Y-75800750D01*
X125399673Y-75618179D01*
X125276764Y-75455421D01*
X125126041Y-75318019D01*
X124952637Y-75210652D01*
X124928532Y-75201314D01*
X124881103Y-75162663D01*
X124865449Y-75103514D01*
X124887552Y-75046461D01*
X124938969Y-75013295D01*
X124964297Y-75010000D01*
X125357824Y-75010000D01*
X125417370Y-75003598D01*
X125417381Y-75003596D01*
X125552088Y-74953353D01*
X125552090Y-74953352D01*
X125667184Y-74867192D01*
X125667192Y-74867184D01*
X125753352Y-74752090D01*
X125753353Y-74752088D01*
X125803596Y-74617381D01*
X125803598Y-74617370D01*
X125810000Y-74557824D01*
X138349999Y-74557824D01*
X138356401Y-74617370D01*
X138356403Y-74617381D01*
X138406646Y-74752088D01*
X138406647Y-74752090D01*
X138492807Y-74867184D01*
X138492815Y-74867192D01*
X138607909Y-74953352D01*
X138607911Y-74953353D01*
X138742618Y-75003596D01*
X138742629Y-75003598D01*
X138802176Y-75010000D01*
X139195703Y-75010000D01*
X139253894Y-75028907D01*
X139289858Y-75078407D01*
X139289858Y-75139593D01*
X139253894Y-75189093D01*
X139231469Y-75201313D01*
X139207363Y-75210652D01*
X139033959Y-75318019D01*
X138883237Y-75455420D01*
X138760328Y-75618177D01*
X138760323Y-75618186D01*
X138669419Y-75800747D01*
X138669418Y-75800750D01*
X138613603Y-75996917D01*
X138594785Y-76200000D01*
X138613603Y-76403083D01*
X138669418Y-76599250D01*
X138760327Y-76781821D01*
X138883236Y-76944579D01*
X139033959Y-77081981D01*
X139207363Y-77189348D01*
X139397544Y-77263024D01*
X139598024Y-77300500D01*
X139801976Y-77300500D01*
X140002456Y-77263024D01*
X140192637Y-77189348D01*
X140366041Y-77081981D01*
X140516764Y-76944579D01*
X140639673Y-76781821D01*
X140730582Y-76599250D01*
X140786397Y-76403083D01*
X140805215Y-76200000D01*
X140786397Y-75996917D01*
X140730582Y-75800750D01*
X140639673Y-75618179D01*
X140516764Y-75455421D01*
X140366041Y-75318019D01*
X140192637Y-75210652D01*
X140168532Y-75201314D01*
X140121103Y-75162663D01*
X140105449Y-75103514D01*
X140127552Y-75046461D01*
X140178969Y-75013295D01*
X140204297Y-75010000D01*
X140597824Y-75010000D01*
X140657370Y-75003598D01*
X140657381Y-75003596D01*
X140792088Y-74953353D01*
X140792090Y-74953352D01*
X140907184Y-74867192D01*
X140907192Y-74867184D01*
X140993352Y-74752090D01*
X140993353Y-74752088D01*
X141043596Y-74617381D01*
X141043598Y-74617370D01*
X141050000Y-74557824D01*
X141050000Y-73910001D01*
X141049999Y-73910000D01*
X140133012Y-73910000D01*
X140165925Y-73852993D01*
X140200000Y-73725826D01*
X140200000Y-73594174D01*
X140165925Y-73467007D01*
X140133012Y-73410000D01*
X141049999Y-73410000D01*
X141050000Y-73409999D01*
X141050000Y-72762175D01*
X141043598Y-72702629D01*
X141043596Y-72702618D01*
X140993353Y-72567911D01*
X140993352Y-72567909D01*
X140907192Y-72452815D01*
X140907184Y-72452807D01*
X140792090Y-72366647D01*
X140792088Y-72366646D01*
X140657381Y-72316403D01*
X140657370Y-72316401D01*
X140597824Y-72310000D01*
X139950001Y-72310000D01*
X139950000Y-72310001D01*
X139950000Y-73226988D01*
X139892993Y-73194075D01*
X139765826Y-73160000D01*
X139634174Y-73160000D01*
X139507007Y-73194075D01*
X139450000Y-73226988D01*
X139450000Y-72310001D01*
X139449999Y-72310000D01*
X138802176Y-72310000D01*
X138742629Y-72316401D01*
X138742618Y-72316403D01*
X138607911Y-72366646D01*
X138607909Y-72366647D01*
X138492815Y-72452807D01*
X138492807Y-72452815D01*
X138406647Y-72567909D01*
X138406646Y-72567911D01*
X138356403Y-72702618D01*
X138356401Y-72702629D01*
X138350000Y-72762175D01*
X138350000Y-73409999D01*
X138350001Y-73410000D01*
X139266988Y-73410000D01*
X139234075Y-73467007D01*
X139200000Y-73594174D01*
X139200000Y-73725826D01*
X139234075Y-73852993D01*
X139266988Y-73910000D01*
X138350001Y-73910000D01*
X138350000Y-73910001D01*
X138350000Y-74557824D01*
X138349999Y-74557824D01*
X125810000Y-74557824D01*
X125810000Y-73910001D01*
X125809999Y-73910000D01*
X124893012Y-73910000D01*
X124925925Y-73852993D01*
X124960000Y-73725826D01*
X124960000Y-73594174D01*
X124925925Y-73467007D01*
X124893012Y-73410000D01*
X125809999Y-73410000D01*
X125810000Y-73409999D01*
X125810000Y-72762175D01*
X125803598Y-72702629D01*
X125803596Y-72702618D01*
X125753353Y-72567911D01*
X125753352Y-72567909D01*
X125667192Y-72452815D01*
X125667184Y-72452807D01*
X125552090Y-72366647D01*
X125552088Y-72366646D01*
X125417381Y-72316403D01*
X125417370Y-72316401D01*
X125357824Y-72310000D01*
X124710001Y-72310000D01*
X124710000Y-72310001D01*
X124710000Y-73226988D01*
X124652993Y-73194075D01*
X124525826Y-73160000D01*
X124394174Y-73160000D01*
X124267007Y-73194075D01*
X124210000Y-73226988D01*
X124210000Y-72310001D01*
X124209999Y-72310000D01*
X123562176Y-72310000D01*
X123502629Y-72316401D01*
X123502618Y-72316403D01*
X123367911Y-72366646D01*
X123367909Y-72366647D01*
X123252815Y-72452807D01*
X123252807Y-72452815D01*
X123166647Y-72567909D01*
X123166646Y-72567911D01*
X123116403Y-72702618D01*
X123116401Y-72702629D01*
X123110000Y-72762175D01*
X123110000Y-73409999D01*
X123110001Y-73410000D01*
X124026988Y-73410000D01*
X123994075Y-73467007D01*
X123960000Y-73594174D01*
X123960000Y-73725826D01*
X123994075Y-73852993D01*
X124026988Y-73910000D01*
X123110001Y-73910000D01*
X123110000Y-73910001D01*
X123110000Y-74557824D01*
X123109999Y-74557824D01*
X99500500Y-74557824D01*
X99500500Y-66937824D01*
X100249999Y-66937824D01*
X100256401Y-66997370D01*
X100256403Y-66997381D01*
X100306646Y-67132088D01*
X100306647Y-67132090D01*
X100392807Y-67247184D01*
X100392815Y-67247192D01*
X100507909Y-67333352D01*
X100507911Y-67333353D01*
X100642618Y-67383596D01*
X100642629Y-67383598D01*
X100702176Y-67390000D01*
X101095703Y-67390000D01*
X101153894Y-67408907D01*
X101189858Y-67458407D01*
X101189858Y-67519593D01*
X101153894Y-67569093D01*
X101131469Y-67581313D01*
X101107363Y-67590652D01*
X100933959Y-67698019D01*
X100783237Y-67835420D01*
X100660328Y-67998177D01*
X100660323Y-67998186D01*
X100643776Y-68031418D01*
X100569418Y-68180750D01*
X100513603Y-68376917D01*
X100494785Y-68580000D01*
X100513603Y-68783083D01*
X100569418Y-68979250D01*
X100660327Y-69161821D01*
X100783236Y-69324579D01*
X100933959Y-69461981D01*
X101107363Y-69569348D01*
X101297544Y-69643024D01*
X101498024Y-69680500D01*
X101701976Y-69680500D01*
X101902456Y-69643024D01*
X102092637Y-69569348D01*
X102266041Y-69461981D01*
X102416764Y-69324579D01*
X102539673Y-69161821D01*
X102627534Y-68985372D01*
X102670397Y-68941709D01*
X102716155Y-68930500D01*
X107763810Y-68930500D01*
X107822001Y-68949407D01*
X107833814Y-68959496D01*
X108637158Y-69762840D01*
X108664935Y-69817357D01*
X108665307Y-69845763D01*
X108664750Y-69849994D01*
X108664750Y-69850000D01*
X108683669Y-69993708D01*
X108683670Y-69993709D01*
X108739139Y-70127625D01*
X108827379Y-70242621D01*
X108942375Y-70330861D01*
X109076291Y-70386330D01*
X109220000Y-70405250D01*
X109363709Y-70386330D01*
X109497625Y-70330861D01*
X109612621Y-70242621D01*
X109700861Y-70127625D01*
X109756330Y-69993709D01*
X109775250Y-69850000D01*
X109756330Y-69706291D01*
X109700861Y-69572375D01*
X109612621Y-69457379D01*
X109497625Y-69369139D01*
X109497621Y-69369137D01*
X109363709Y-69313670D01*
X109363708Y-69313669D01*
X109220000Y-69294750D01*
X109219995Y-69294750D01*
X109215763Y-69295307D01*
X109155603Y-69284155D01*
X109132840Y-69267158D01*
X108796182Y-68930500D01*
X108165212Y-68299530D01*
X108085288Y-68253386D01*
X107996144Y-68229500D01*
X107996142Y-68229500D01*
X102716155Y-68229500D01*
X102657964Y-68210593D01*
X102627534Y-68174628D01*
X102539676Y-67998186D01*
X102539673Y-67998179D01*
X102416764Y-67835421D01*
X102266041Y-67698019D01*
X102092637Y-67590652D01*
X102068532Y-67581314D01*
X102021103Y-67542663D01*
X102005449Y-67483514D01*
X102027552Y-67426461D01*
X102078969Y-67393295D01*
X102104297Y-67390000D01*
X102497824Y-67390000D01*
X102557370Y-67383598D01*
X102557381Y-67383596D01*
X102692088Y-67333353D01*
X102692090Y-67333352D01*
X102807184Y-67247192D01*
X102807192Y-67247184D01*
X102893352Y-67132090D01*
X102893353Y-67132088D01*
X102943596Y-66997381D01*
X102943598Y-66997370D01*
X102950000Y-66937824D01*
X102950000Y-66290001D01*
X102949999Y-66290000D01*
X102033012Y-66290000D01*
X102065925Y-66232993D01*
X102100000Y-66105826D01*
X102100000Y-66100327D01*
X127229500Y-66100327D01*
X127229500Y-68549672D01*
X127229501Y-68549684D01*
X127244033Y-68622736D01*
X127244035Y-68622742D01*
X127299397Y-68705599D01*
X127299399Y-68705601D01*
X127382260Y-68760966D01*
X127437808Y-68772015D01*
X127455315Y-68775498D01*
X127455320Y-68775498D01*
X127455326Y-68775500D01*
X127455327Y-68775500D01*
X129104673Y-68775500D01*
X129104674Y-68775500D01*
X129177740Y-68760966D01*
X129260601Y-68705601D01*
X129315966Y-68622740D01*
X129330500Y-68549674D01*
X129330500Y-66821532D01*
X129769500Y-66821532D01*
X129769500Y-67828467D01*
X129809869Y-68031418D01*
X129889058Y-68222597D01*
X129940463Y-68299530D01*
X130004023Y-68394655D01*
X130150345Y-68540977D01*
X130322402Y-68655941D01*
X130513580Y-68735130D01*
X130716535Y-68775500D01*
X130716536Y-68775500D01*
X130923464Y-68775500D01*
X130923465Y-68775500D01*
X131126420Y-68735130D01*
X131317598Y-68655941D01*
X131489655Y-68540977D01*
X131635977Y-68394655D01*
X131750941Y-68222598D01*
X131830130Y-68031420D01*
X131870500Y-67828465D01*
X131870500Y-66821535D01*
X131870499Y-66821532D01*
X132309500Y-66821532D01*
X132309500Y-67828467D01*
X132349869Y-68031418D01*
X132429058Y-68222597D01*
X132480463Y-68299530D01*
X132544023Y-68394655D01*
X132690345Y-68540977D01*
X132862402Y-68655941D01*
X133053580Y-68735130D01*
X133256535Y-68775500D01*
X133256536Y-68775500D01*
X133463464Y-68775500D01*
X133463465Y-68775500D01*
X133666420Y-68735130D01*
X133857598Y-68655941D01*
X134029655Y-68540977D01*
X134175977Y-68394655D01*
X134290941Y-68222598D01*
X134370130Y-68031420D01*
X134410500Y-67828465D01*
X134410500Y-66821535D01*
X134370130Y-66618580D01*
X134290941Y-66427402D01*
X134175977Y-66255345D01*
X134029655Y-66109023D01*
X134029651Y-66109020D01*
X134029650Y-66109019D01*
X133978296Y-66074705D01*
X133940417Y-66026655D01*
X133938015Y-65965517D01*
X133963295Y-65922386D01*
X134736187Y-65149496D01*
X134790703Y-65121719D01*
X134806190Y-65120500D01*
X135416236Y-65120500D01*
X135474427Y-65139407D01*
X135494777Y-65159231D01*
X135497376Y-65162618D01*
X135497377Y-65162619D01*
X135497379Y-65162621D01*
X135612375Y-65250861D01*
X135746291Y-65306330D01*
X135890000Y-65325250D01*
X136033709Y-65306330D01*
X136167625Y-65250861D01*
X136282621Y-65162621D01*
X136370861Y-65047625D01*
X136426330Y-64913709D01*
X136445250Y-64770000D01*
X136442175Y-64746647D01*
X136426330Y-64626291D01*
X136370861Y-64492375D01*
X136282621Y-64377379D01*
X136167625Y-64289139D01*
X136167621Y-64289137D01*
X136033709Y-64233670D01*
X136033708Y-64233669D01*
X135890000Y-64214750D01*
X135746291Y-64233669D01*
X135746290Y-64233670D01*
X135612378Y-64289137D01*
X135612374Y-64289139D01*
X135497376Y-64377381D01*
X135494777Y-64380769D01*
X135444351Y-64415424D01*
X135416236Y-64419500D01*
X134573856Y-64419500D01*
X134545927Y-64426983D01*
X134490069Y-64441950D01*
X134484712Y-64443385D01*
X134484708Y-64443387D01*
X134404790Y-64489528D01*
X134404788Y-64489530D01*
X133079530Y-65814788D01*
X133036664Y-65889034D01*
X133036663Y-65889036D01*
X133030140Y-65900334D01*
X133028080Y-65899144D01*
X132995076Y-65937784D01*
X132981239Y-65944834D01*
X132862402Y-65994058D01*
X132690348Y-66109020D01*
X132544020Y-66255348D01*
X132429058Y-66427402D01*
X132349869Y-66618581D01*
X132309500Y-66821532D01*
X131870499Y-66821532D01*
X131830130Y-66618580D01*
X131750941Y-66427402D01*
X131635977Y-66255345D01*
X131489655Y-66109023D01*
X131489651Y-66109020D01*
X131317597Y-65994058D01*
X131126418Y-65914869D01*
X130923467Y-65874500D01*
X130923465Y-65874500D01*
X130716535Y-65874500D01*
X130716532Y-65874500D01*
X130513581Y-65914869D01*
X130322402Y-65994058D01*
X130150348Y-66109020D01*
X130004020Y-66255348D01*
X129889058Y-66427402D01*
X129809869Y-66618581D01*
X129769500Y-66821532D01*
X129330500Y-66821532D01*
X129330500Y-66100326D01*
X129315966Y-66027260D01*
X129315562Y-66026655D01*
X129260602Y-65944400D01*
X129260599Y-65944397D01*
X129177742Y-65889035D01*
X129177740Y-65889034D01*
X129177737Y-65889033D01*
X129177736Y-65889033D01*
X129104684Y-65874501D01*
X129104674Y-65874500D01*
X127455326Y-65874500D01*
X127455325Y-65874500D01*
X127455315Y-65874501D01*
X127382263Y-65889033D01*
X127382257Y-65889035D01*
X127299400Y-65944397D01*
X127299397Y-65944400D01*
X127244035Y-66027257D01*
X127244033Y-66027263D01*
X127229501Y-66100315D01*
X127229500Y-66100327D01*
X102100000Y-66100327D01*
X102100000Y-65974174D01*
X102065925Y-65847007D01*
X102033012Y-65790000D01*
X102949999Y-65790000D01*
X102950000Y-65789999D01*
X102950000Y-65142175D01*
X102943598Y-65082629D01*
X102943596Y-65082618D01*
X102893353Y-64947911D01*
X102893352Y-64947909D01*
X102807192Y-64832815D01*
X102807184Y-64832807D01*
X102692090Y-64746647D01*
X102692088Y-64746646D01*
X102557381Y-64696403D01*
X102557370Y-64696401D01*
X102497824Y-64690000D01*
X101850001Y-64690000D01*
X101850000Y-64690001D01*
X101850000Y-65606988D01*
X101792993Y-65574075D01*
X101665826Y-65540000D01*
X101534174Y-65540000D01*
X101407007Y-65574075D01*
X101350000Y-65606988D01*
X101350000Y-64690001D01*
X101349999Y-64690000D01*
X100702176Y-64690000D01*
X100642629Y-64696401D01*
X100642618Y-64696403D01*
X100507911Y-64746646D01*
X100507909Y-64746647D01*
X100392815Y-64832807D01*
X100392807Y-64832815D01*
X100306647Y-64947909D01*
X100306646Y-64947911D01*
X100256403Y-65082618D01*
X100256401Y-65082629D01*
X100250000Y-65142175D01*
X100250000Y-65789999D01*
X100250001Y-65790000D01*
X101166988Y-65790000D01*
X101134075Y-65847007D01*
X101100000Y-65974174D01*
X101100000Y-66105826D01*
X101134075Y-66232993D01*
X101166988Y-66290000D01*
X100250001Y-66290000D01*
X100250000Y-66290001D01*
X100250000Y-66937824D01*
X100249999Y-66937824D01*
X99500500Y-66937824D01*
X99500500Y-60960000D01*
X103375153Y-60960000D01*
X103394525Y-61317317D01*
X103452418Y-61670449D01*
X103548146Y-62015229D01*
X103548148Y-62015234D01*
X103680604Y-62347673D01*
X103848215Y-62663822D01*
X104049032Y-62960004D01*
X104049039Y-62960014D01*
X104176441Y-63110002D01*
X105385746Y-61900696D01*
X105459588Y-62002330D01*
X105637670Y-62180412D01*
X105739300Y-62254251D01*
X104527256Y-63466296D01*
X104540488Y-63478829D01*
X104825358Y-63695382D01*
X104825363Y-63695385D01*
X105131980Y-63879871D01*
X105456744Y-64030123D01*
X105795868Y-64144387D01*
X106145330Y-64221310D01*
X106145329Y-64221310D01*
X106501078Y-64260000D01*
X106858922Y-64260000D01*
X107214670Y-64221310D01*
X107564130Y-64144387D01*
X107564132Y-64144387D01*
X107903255Y-64030123D01*
X108228019Y-63879871D01*
X108534636Y-63695385D01*
X108534641Y-63695382D01*
X108819500Y-63478839D01*
X108819512Y-63478828D01*
X108832742Y-63466296D01*
X107620698Y-62254252D01*
X107722330Y-62180412D01*
X107900412Y-62002330D01*
X107974252Y-61900698D01*
X109183557Y-63110003D01*
X109310962Y-62960011D01*
X109310966Y-62960007D01*
X109511784Y-62663822D01*
X109679395Y-62347673D01*
X109811851Y-62015234D01*
X109811853Y-62015229D01*
X109907581Y-61670449D01*
X109965474Y-61317317D01*
X109984846Y-60960000D01*
X109965474Y-60602682D01*
X109907581Y-60249550D01*
X109811853Y-59904770D01*
X109811851Y-59904765D01*
X109679395Y-59572326D01*
X109511784Y-59256177D01*
X109474734Y-59201532D01*
X127229500Y-59201532D01*
X127229500Y-60208467D01*
X127269869Y-60411418D01*
X127349058Y-60602597D01*
X127351629Y-60606445D01*
X127464023Y-60774655D01*
X127610345Y-60920977D01*
X127782402Y-61035941D01*
X127973580Y-61115130D01*
X128176535Y-61155500D01*
X128176536Y-61155500D01*
X128383464Y-61155500D01*
X128383465Y-61155500D01*
X128586420Y-61115130D01*
X128755248Y-61045198D01*
X128816240Y-61040398D01*
X128863134Y-61066659D01*
X131228985Y-63432510D01*
X131354515Y-63504984D01*
X131494525Y-63542500D01*
X131494526Y-63542500D01*
X156282474Y-63542500D01*
X156282475Y-63542500D01*
X156422485Y-63504984D01*
X156548015Y-63432510D01*
X158441029Y-61539496D01*
X158495546Y-61511719D01*
X158511033Y-61510500D01*
X158820500Y-61510500D01*
X158878691Y-61529407D01*
X158914655Y-61578907D01*
X158919500Y-61609500D01*
X158919500Y-61834672D01*
X158919501Y-61834684D01*
X158934033Y-61907736D01*
X158934035Y-61907742D01*
X158989397Y-61990599D01*
X158989400Y-61990602D01*
X159072257Y-62045964D01*
X159072260Y-62045966D01*
X159127808Y-62057015D01*
X159145315Y-62060498D01*
X159145320Y-62060498D01*
X159145326Y-62060500D01*
X159145327Y-62060500D01*
X159466085Y-62060500D01*
X159524276Y-62079407D01*
X159560240Y-62128907D01*
X159560240Y-62190093D01*
X159524276Y-62239593D01*
X159507924Y-62249224D01*
X159342432Y-62326394D01*
X159342424Y-62326398D01*
X159148926Y-62461886D01*
X158981886Y-62628926D01*
X158846398Y-62822424D01*
X158846394Y-62822432D01*
X158746570Y-63036505D01*
X158689364Y-63250000D01*
X159586988Y-63250000D01*
X159554075Y-63307007D01*
X159520000Y-63434174D01*
X159520000Y-63565826D01*
X159554075Y-63692993D01*
X159586988Y-63750000D01*
X158689364Y-63750000D01*
X158746569Y-63963489D01*
X158846399Y-64177577D01*
X158981886Y-64371073D01*
X159148926Y-64538113D01*
X159342422Y-64673600D01*
X159556509Y-64773430D01*
X159669518Y-64803711D01*
X159720832Y-64837035D01*
X159742759Y-64894156D01*
X159726924Y-64953257D01*
X159679658Y-64991653D01*
X159527362Y-65050652D01*
X159527359Y-65050654D01*
X159512795Y-65059672D01*
X159460679Y-65074500D01*
X137527525Y-65074500D01*
X137387515Y-65112016D01*
X137305736Y-65159231D01*
X137261982Y-65184492D01*
X136483133Y-65963339D01*
X136428617Y-65991116D01*
X136375245Y-65984799D01*
X136206420Y-65914870D01*
X136003467Y-65874500D01*
X136003465Y-65874500D01*
X135796535Y-65874500D01*
X135796532Y-65874500D01*
X135593581Y-65914869D01*
X135402402Y-65994058D01*
X135230348Y-66109020D01*
X135084020Y-66255348D01*
X134969058Y-66427402D01*
X134889869Y-66618581D01*
X134849500Y-66821532D01*
X134849500Y-67828467D01*
X134889869Y-68031418D01*
X134969058Y-68222597D01*
X135020463Y-68299530D01*
X135084023Y-68394655D01*
X135230345Y-68540977D01*
X135402402Y-68655941D01*
X135593580Y-68735130D01*
X135796535Y-68775500D01*
X135796536Y-68775500D01*
X136003464Y-68775500D01*
X136003465Y-68775500D01*
X136206420Y-68735130D01*
X136397598Y-68655941D01*
X136569655Y-68540977D01*
X136715977Y-68394655D01*
X136830941Y-68222598D01*
X136910130Y-68031420D01*
X136950500Y-67828465D01*
X136950500Y-67094033D01*
X136969407Y-67035842D01*
X136979496Y-67024029D01*
X137799029Y-66204496D01*
X137853546Y-66176719D01*
X137869033Y-66175500D01*
X142370500Y-66175500D01*
X142428691Y-66194407D01*
X142464655Y-66243907D01*
X142469500Y-66274500D01*
X142469500Y-68549672D01*
X142469501Y-68549684D01*
X142484033Y-68622736D01*
X142484035Y-68622742D01*
X142539397Y-68705599D01*
X142539399Y-68705601D01*
X142622260Y-68760966D01*
X142677808Y-68772015D01*
X142695315Y-68775498D01*
X142695320Y-68775498D01*
X142695326Y-68775500D01*
X142695327Y-68775500D01*
X144344673Y-68775500D01*
X144344674Y-68775500D01*
X144417740Y-68760966D01*
X144500601Y-68705601D01*
X144555966Y-68622740D01*
X144570500Y-68549674D01*
X144570500Y-66274500D01*
X144589407Y-66216309D01*
X144638907Y-66180345D01*
X144669500Y-66175500D01*
X145112158Y-66175500D01*
X145170349Y-66194407D01*
X145206313Y-66243907D01*
X145206313Y-66305093D01*
X145194474Y-66329501D01*
X145129058Y-66427402D01*
X145049869Y-66618581D01*
X145009500Y-66821532D01*
X145009500Y-67828467D01*
X145049869Y-68031418D01*
X145129058Y-68222597D01*
X145180463Y-68299530D01*
X145244023Y-68394655D01*
X145390345Y-68540977D01*
X145562402Y-68655941D01*
X145753580Y-68735130D01*
X145956535Y-68775500D01*
X145956536Y-68775500D01*
X146163464Y-68775500D01*
X146163465Y-68775500D01*
X146366420Y-68735130D01*
X146557598Y-68655941D01*
X146729655Y-68540977D01*
X146875977Y-68394655D01*
X146990941Y-68222598D01*
X147070130Y-68031420D01*
X147110500Y-67828465D01*
X147110500Y-66821535D01*
X147070130Y-66618580D01*
X146990941Y-66427402D01*
X146925525Y-66329500D01*
X146908918Y-66270613D01*
X146930096Y-66213209D01*
X146980970Y-66179217D01*
X147007842Y-66175500D01*
X147652158Y-66175500D01*
X147710349Y-66194407D01*
X147746313Y-66243907D01*
X147746313Y-66305093D01*
X147734474Y-66329501D01*
X147669058Y-66427402D01*
X147589869Y-66618581D01*
X147549500Y-66821532D01*
X147549500Y-67828467D01*
X147589869Y-68031418D01*
X147669058Y-68222597D01*
X147720463Y-68299530D01*
X147784023Y-68394655D01*
X147930345Y-68540977D01*
X148102402Y-68655941D01*
X148293580Y-68735130D01*
X148496535Y-68775500D01*
X148496536Y-68775500D01*
X148703464Y-68775500D01*
X148703465Y-68775500D01*
X148906420Y-68735130D01*
X149097598Y-68655941D01*
X149269655Y-68540977D01*
X149415977Y-68394655D01*
X149530941Y-68222598D01*
X149610130Y-68031420D01*
X149650500Y-67828465D01*
X149650500Y-66821535D01*
X149610130Y-66618580D01*
X149530941Y-66427402D01*
X149465525Y-66329500D01*
X149448918Y-66270613D01*
X149470096Y-66213209D01*
X149520970Y-66179217D01*
X149547842Y-66175500D01*
X150192158Y-66175500D01*
X150250349Y-66194407D01*
X150286313Y-66243907D01*
X150286313Y-66305093D01*
X150274474Y-66329501D01*
X150209058Y-66427402D01*
X150129869Y-66618581D01*
X150089500Y-66821532D01*
X150089500Y-67828467D01*
X150129869Y-68031418D01*
X150209058Y-68222597D01*
X150260463Y-68299530D01*
X150324023Y-68394655D01*
X150470345Y-68540977D01*
X150642402Y-68655941D01*
X150833580Y-68735130D01*
X151036535Y-68775500D01*
X151036536Y-68775500D01*
X151243464Y-68775500D01*
X151243465Y-68775500D01*
X151446420Y-68735130D01*
X151637598Y-68655941D01*
X151809655Y-68540977D01*
X151955977Y-68394655D01*
X152070941Y-68222598D01*
X152150130Y-68031420D01*
X152190500Y-67828465D01*
X152190500Y-66821535D01*
X152150130Y-66618580D01*
X152070941Y-66427402D01*
X152005525Y-66329500D01*
X151988918Y-66270613D01*
X152010096Y-66213209D01*
X152060970Y-66179217D01*
X152087842Y-66175500D01*
X158839613Y-66175500D01*
X158897804Y-66194407D01*
X158933768Y-66243907D01*
X158934823Y-66247372D01*
X158989418Y-66439250D01*
X159080327Y-66621821D01*
X159203236Y-66784579D01*
X159353959Y-66921981D01*
X159527363Y-67029348D01*
X159717544Y-67103024D01*
X159918024Y-67140500D01*
X160121976Y-67140500D01*
X160322456Y-67103024D01*
X160512637Y-67029348D01*
X160686041Y-66921981D01*
X160836764Y-66784579D01*
X160959673Y-66621821D01*
X161050582Y-66439250D01*
X161106397Y-66243083D01*
X161125215Y-66040000D01*
X161106397Y-65836917D01*
X161050582Y-65640750D01*
X160959673Y-65458179D01*
X160836764Y-65295421D01*
X160686041Y-65158019D01*
X160512637Y-65050652D01*
X160360340Y-64991652D01*
X160312910Y-64953001D01*
X160297256Y-64893852D01*
X160319359Y-64836799D01*
X160370481Y-64803711D01*
X160483490Y-64773430D01*
X160697577Y-64673600D01*
X160891073Y-64538113D01*
X161058113Y-64371073D01*
X161193600Y-64177577D01*
X161293430Y-63963489D01*
X161350636Y-63750000D01*
X160453012Y-63750000D01*
X160485925Y-63692993D01*
X160520000Y-63565826D01*
X160520000Y-63434174D01*
X160485925Y-63307007D01*
X160453012Y-63250000D01*
X161350636Y-63250000D01*
X161293429Y-63036505D01*
X161193605Y-62822432D01*
X161193601Y-62822424D01*
X161058113Y-62628926D01*
X160891073Y-62461886D01*
X160697577Y-62326399D01*
X160532076Y-62249225D01*
X160487328Y-62207496D01*
X160475653Y-62147435D01*
X160501511Y-62091982D01*
X160555025Y-62062319D01*
X160573915Y-62060500D01*
X160894673Y-62060500D01*
X160894674Y-62060500D01*
X160967740Y-62045966D01*
X161050601Y-61990601D01*
X161105966Y-61907740D01*
X161120500Y-61834674D01*
X161120500Y-60085326D01*
X161105966Y-60012260D01*
X161082390Y-59976975D01*
X161050602Y-59929400D01*
X161050599Y-59929397D01*
X160967742Y-59874035D01*
X160967740Y-59874034D01*
X160967737Y-59874033D01*
X160967736Y-59874033D01*
X160894684Y-59859501D01*
X160894674Y-59859500D01*
X159145326Y-59859500D01*
X159145325Y-59859500D01*
X159145315Y-59859501D01*
X159072263Y-59874033D01*
X159072257Y-59874035D01*
X158989400Y-59929397D01*
X158989397Y-59929400D01*
X158934035Y-60012257D01*
X158934033Y-60012263D01*
X158919501Y-60085315D01*
X158919500Y-60085327D01*
X158919500Y-60310500D01*
X158900593Y-60368691D01*
X158851093Y-60404655D01*
X158820500Y-60409500D01*
X158169521Y-60409500D01*
X158162361Y-60411419D01*
X158162360Y-60411420D01*
X158095937Y-60429218D01*
X158029514Y-60447016D01*
X157903985Y-60519490D01*
X156010971Y-62412504D01*
X155956454Y-62440281D01*
X155940967Y-62441500D01*
X131836033Y-62441500D01*
X131777842Y-62422593D01*
X131766029Y-62412504D01*
X130678029Y-61324504D01*
X130650252Y-61269987D01*
X130659823Y-61209555D01*
X130703088Y-61166290D01*
X130748033Y-61155500D01*
X130923464Y-61155500D01*
X130923465Y-61155500D01*
X131126420Y-61115130D01*
X131317598Y-61035941D01*
X131489655Y-60920977D01*
X131635977Y-60774655D01*
X131750941Y-60602598D01*
X131830130Y-60411420D01*
X131870500Y-60208465D01*
X131870500Y-59201535D01*
X131870499Y-59201532D01*
X132309500Y-59201532D01*
X132309500Y-60208467D01*
X132349869Y-60411418D01*
X132429058Y-60602597D01*
X132431629Y-60606445D01*
X132544023Y-60774655D01*
X132690345Y-60920977D01*
X132862402Y-61035941D01*
X133053580Y-61115130D01*
X133256535Y-61155500D01*
X133256536Y-61155500D01*
X133463464Y-61155500D01*
X133463465Y-61155500D01*
X133666420Y-61115130D01*
X133857598Y-61035941D01*
X134029655Y-60920977D01*
X134175977Y-60774655D01*
X134290941Y-60602598D01*
X134370130Y-60411420D01*
X134410500Y-60208465D01*
X134410500Y-59201535D01*
X134410499Y-59201532D01*
X134849500Y-59201532D01*
X134849500Y-60208467D01*
X134889869Y-60411418D01*
X134969058Y-60602597D01*
X134971629Y-60606445D01*
X135084023Y-60774655D01*
X135230345Y-60920977D01*
X135402402Y-61035941D01*
X135593580Y-61115130D01*
X135796535Y-61155500D01*
X135796536Y-61155500D01*
X136003464Y-61155500D01*
X136003465Y-61155500D01*
X136206420Y-61115130D01*
X136397598Y-61035941D01*
X136569655Y-60920977D01*
X136715977Y-60774655D01*
X136830941Y-60602598D01*
X136910130Y-60411420D01*
X136950500Y-60208465D01*
X136950500Y-59201535D01*
X136950499Y-59201532D01*
X142469500Y-59201532D01*
X142469500Y-60208467D01*
X142509869Y-60411418D01*
X142589058Y-60602597D01*
X142591629Y-60606445D01*
X142704023Y-60774655D01*
X142850345Y-60920977D01*
X143022402Y-61035941D01*
X143213580Y-61115130D01*
X143416535Y-61155500D01*
X143416536Y-61155500D01*
X143623464Y-61155500D01*
X143623465Y-61155500D01*
X143826420Y-61115130D01*
X144017598Y-61035941D01*
X144189655Y-60920977D01*
X144335977Y-60774655D01*
X144450941Y-60602598D01*
X144530130Y-60411420D01*
X144567944Y-60221313D01*
X144597841Y-60167930D01*
X144653406Y-60142314D01*
X144713415Y-60154251D01*
X144754948Y-60199181D01*
X144762823Y-60225141D01*
X144792008Y-60409412D01*
X144855243Y-60604027D01*
X144948138Y-60786346D01*
X145068414Y-60951891D01*
X145213108Y-61096585D01*
X145378653Y-61216861D01*
X145560972Y-61309756D01*
X145755589Y-61372991D01*
X145755585Y-61372991D01*
X145809999Y-61381608D01*
X145810000Y-61381607D01*
X145810000Y-60020686D01*
X145814394Y-60025080D01*
X145905606Y-60077741D01*
X146007339Y-60105000D01*
X146112661Y-60105000D01*
X146214394Y-60077741D01*
X146305606Y-60025080D01*
X146310000Y-60020686D01*
X146310000Y-61381608D01*
X146364412Y-61372991D01*
X146559027Y-61309756D01*
X146741346Y-61216861D01*
X146906891Y-61096585D01*
X147051585Y-60951891D01*
X147171861Y-60786346D01*
X147264756Y-60604027D01*
X147327991Y-60409412D01*
X147357176Y-60225141D01*
X147384953Y-60170625D01*
X147439469Y-60142847D01*
X147499902Y-60152418D01*
X147543166Y-60195682D01*
X147552055Y-60221314D01*
X147589869Y-60411418D01*
X147669058Y-60602597D01*
X147671629Y-60606445D01*
X147784023Y-60774655D01*
X147930345Y-60920977D01*
X148102402Y-61035941D01*
X148293580Y-61115130D01*
X148496535Y-61155500D01*
X148496536Y-61155500D01*
X148703464Y-61155500D01*
X148703465Y-61155500D01*
X148906420Y-61115130D01*
X149097598Y-61035941D01*
X149269655Y-60920977D01*
X149415977Y-60774655D01*
X149530941Y-60602598D01*
X149610130Y-60411420D01*
X149647944Y-60221313D01*
X149677841Y-60167930D01*
X149733406Y-60142314D01*
X149793415Y-60154251D01*
X149834948Y-60199181D01*
X149842823Y-60225141D01*
X149872008Y-60409412D01*
X149935243Y-60604027D01*
X150028138Y-60786346D01*
X150148414Y-60951891D01*
X150293108Y-61096585D01*
X150458653Y-61216861D01*
X150640972Y-61309756D01*
X150835589Y-61372991D01*
X150835585Y-61372991D01*
X150889999Y-61381608D01*
X150890000Y-61381607D01*
X150890000Y-60020686D01*
X150894394Y-60025080D01*
X150985606Y-60077741D01*
X151087339Y-60105000D01*
X151192661Y-60105000D01*
X151294394Y-60077741D01*
X151385606Y-60025080D01*
X151390000Y-60020686D01*
X151390000Y-61381608D01*
X151444412Y-61372991D01*
X151639027Y-61309756D01*
X151821346Y-61216861D01*
X151986891Y-61096585D01*
X152131585Y-60951891D01*
X152251861Y-60786346D01*
X152344756Y-60604027D01*
X152407991Y-60409412D01*
X152440000Y-60207315D01*
X152440000Y-59955001D01*
X152439999Y-59955000D01*
X151455686Y-59955000D01*
X151460080Y-59950606D01*
X151512741Y-59859394D01*
X151540000Y-59757661D01*
X151540000Y-59652339D01*
X151512741Y-59550606D01*
X151460080Y-59459394D01*
X151455686Y-59455000D01*
X152439999Y-59455000D01*
X152440000Y-59454999D01*
X152440000Y-59202684D01*
X152407991Y-59000587D01*
X152344756Y-58805972D01*
X152251861Y-58623653D01*
X152131585Y-58458108D01*
X151986891Y-58313414D01*
X151821346Y-58193138D01*
X151639027Y-58100243D01*
X151444414Y-58037009D01*
X151390000Y-58028390D01*
X151390000Y-59389314D01*
X151385606Y-59384920D01*
X151294394Y-59332259D01*
X151192661Y-59305000D01*
X151087339Y-59305000D01*
X150985606Y-59332259D01*
X150894394Y-59384920D01*
X150890000Y-59389314D01*
X150890000Y-58028391D01*
X150889999Y-58028390D01*
X150835585Y-58037009D01*
X150640972Y-58100243D01*
X150458653Y-58193138D01*
X150293108Y-58313414D01*
X150148414Y-58458108D01*
X150028138Y-58623653D01*
X149935243Y-58805972D01*
X149872008Y-59000587D01*
X149842823Y-59184858D01*
X149815046Y-59239375D01*
X149760529Y-59267152D01*
X149700097Y-59257581D01*
X149656832Y-59214316D01*
X149647944Y-59188685D01*
X149610130Y-58998581D01*
X149530941Y-58807402D01*
X149415979Y-58635348D01*
X149415977Y-58635345D01*
X149269655Y-58489023D01*
X149269651Y-58489020D01*
X149097597Y-58374058D01*
X148906418Y-58294869D01*
X148703467Y-58254500D01*
X148703465Y-58254500D01*
X148496535Y-58254500D01*
X148496532Y-58254500D01*
X148293581Y-58294869D01*
X148102402Y-58374058D01*
X147930348Y-58489020D01*
X147784020Y-58635348D01*
X147669058Y-58807402D01*
X147589869Y-58998581D01*
X147552055Y-59188685D01*
X147522158Y-59242069D01*
X147466593Y-59267685D01*
X147406583Y-59255748D01*
X147365051Y-59210818D01*
X147357176Y-59184858D01*
X147327991Y-59000587D01*
X147264756Y-58805972D01*
X147171861Y-58623653D01*
X147051585Y-58458108D01*
X146906891Y-58313414D01*
X146741346Y-58193138D01*
X146559027Y-58100243D01*
X146364414Y-58037009D01*
X146310000Y-58028390D01*
X146310000Y-59389314D01*
X146305606Y-59384920D01*
X146214394Y-59332259D01*
X146112661Y-59305000D01*
X146007339Y-59305000D01*
X145905606Y-59332259D01*
X145814394Y-59384920D01*
X145810000Y-59389314D01*
X145810000Y-58028391D01*
X145809999Y-58028390D01*
X145755585Y-58037009D01*
X145560972Y-58100243D01*
X145378653Y-58193138D01*
X145213108Y-58313414D01*
X145068414Y-58458108D01*
X144948138Y-58623653D01*
X144855243Y-58805972D01*
X144792008Y-59000587D01*
X144762823Y-59184858D01*
X144735046Y-59239375D01*
X144680529Y-59267152D01*
X144620097Y-59257581D01*
X144576832Y-59214316D01*
X144567944Y-59188685D01*
X144530130Y-58998581D01*
X144450941Y-58807402D01*
X144335979Y-58635348D01*
X144335977Y-58635345D01*
X144189655Y-58489023D01*
X144189651Y-58489020D01*
X144017597Y-58374058D01*
X143826418Y-58294869D01*
X143623467Y-58254500D01*
X143623465Y-58254500D01*
X143416535Y-58254500D01*
X143416532Y-58254500D01*
X143213581Y-58294869D01*
X143022402Y-58374058D01*
X142850348Y-58489020D01*
X142704020Y-58635348D01*
X142589058Y-58807402D01*
X142509869Y-58998581D01*
X142469500Y-59201532D01*
X136950499Y-59201532D01*
X136910130Y-58998580D01*
X136830941Y-58807402D01*
X136715977Y-58635345D01*
X136569655Y-58489023D01*
X136569651Y-58489020D01*
X136397597Y-58374058D01*
X136206418Y-58294869D01*
X136003467Y-58254500D01*
X136003465Y-58254500D01*
X135796535Y-58254500D01*
X135796532Y-58254500D01*
X135593581Y-58294869D01*
X135402402Y-58374058D01*
X135230348Y-58489020D01*
X135084020Y-58635348D01*
X134969058Y-58807402D01*
X134889869Y-58998581D01*
X134849500Y-59201532D01*
X134410499Y-59201532D01*
X134370130Y-58998580D01*
X134290941Y-58807402D01*
X134175977Y-58635345D01*
X134029655Y-58489023D01*
X134029651Y-58489020D01*
X133857597Y-58374058D01*
X133666418Y-58294869D01*
X133463467Y-58254500D01*
X133463465Y-58254500D01*
X133256535Y-58254500D01*
X133256532Y-58254500D01*
X133053581Y-58294869D01*
X132862402Y-58374058D01*
X132690348Y-58489020D01*
X132544020Y-58635348D01*
X132429058Y-58807402D01*
X132349869Y-58998581D01*
X132309500Y-59201532D01*
X131870499Y-59201532D01*
X131830130Y-58998580D01*
X131750941Y-58807402D01*
X131635977Y-58635345D01*
X131489655Y-58489023D01*
X131489651Y-58489020D01*
X131317597Y-58374058D01*
X131126418Y-58294869D01*
X130923467Y-58254500D01*
X130923465Y-58254500D01*
X130716535Y-58254500D01*
X130716532Y-58254500D01*
X130513581Y-58294869D01*
X130322402Y-58374058D01*
X130150348Y-58489020D01*
X130004020Y-58635348D01*
X129889058Y-58807402D01*
X129809869Y-58998581D01*
X129769500Y-59201532D01*
X129769500Y-60176967D01*
X129750593Y-60235158D01*
X129701093Y-60271122D01*
X129639907Y-60271122D01*
X129600496Y-60246971D01*
X129359496Y-60005971D01*
X129331719Y-59951454D01*
X129330500Y-59935967D01*
X129330500Y-59201536D01*
X129330499Y-59201532D01*
X129327182Y-59184858D01*
X129290130Y-58998580D01*
X129210941Y-58807402D01*
X129095977Y-58635345D01*
X128949655Y-58489023D01*
X128949651Y-58489020D01*
X128777597Y-58374058D01*
X128586418Y-58294869D01*
X128383467Y-58254500D01*
X128383465Y-58254500D01*
X128176535Y-58254500D01*
X128176532Y-58254500D01*
X127973581Y-58294869D01*
X127782402Y-58374058D01*
X127610348Y-58489020D01*
X127464020Y-58635348D01*
X127349058Y-58807402D01*
X127269869Y-58998581D01*
X127229500Y-59201532D01*
X109474734Y-59201532D01*
X109310967Y-58959995D01*
X109310960Y-58959985D01*
X109183556Y-58809995D01*
X107974250Y-60019300D01*
X107900412Y-59917670D01*
X107722330Y-59739588D01*
X107620696Y-59665747D01*
X108832742Y-58453702D01*
X108819511Y-58441170D01*
X108534641Y-58224617D01*
X108534636Y-58224614D01*
X108228019Y-58040128D01*
X107903255Y-57889876D01*
X107564131Y-57775612D01*
X107214669Y-57698689D01*
X107214670Y-57698689D01*
X106858922Y-57660000D01*
X106501078Y-57660000D01*
X106145329Y-57698689D01*
X105795869Y-57775612D01*
X105795867Y-57775612D01*
X105456744Y-57889876D01*
X105131980Y-58040128D01*
X104825363Y-58224614D01*
X104825358Y-58224617D01*
X104540495Y-58441164D01*
X104540473Y-58441183D01*
X104527256Y-58453702D01*
X105739301Y-59665747D01*
X105637670Y-59739588D01*
X105459588Y-59917670D01*
X105385747Y-60019301D01*
X104176441Y-58809995D01*
X104049039Y-58959985D01*
X104049032Y-58959995D01*
X103848215Y-59256177D01*
X103680604Y-59572326D01*
X103548148Y-59904765D01*
X103548146Y-59904770D01*
X103452418Y-60249550D01*
X103394525Y-60602682D01*
X103375153Y-60960000D01*
X99500500Y-60960000D01*
X99500500Y-51697824D01*
X100249999Y-51697824D01*
X100256401Y-51757370D01*
X100256403Y-51757381D01*
X100306646Y-51892088D01*
X100306647Y-51892090D01*
X100392807Y-52007184D01*
X100392815Y-52007192D01*
X100507909Y-52093352D01*
X100507911Y-52093353D01*
X100642618Y-52143596D01*
X100642629Y-52143598D01*
X100702176Y-52150000D01*
X101095703Y-52150000D01*
X101153894Y-52168907D01*
X101189858Y-52218407D01*
X101189858Y-52279593D01*
X101153894Y-52329093D01*
X101131469Y-52341313D01*
X101107363Y-52350652D01*
X100933959Y-52458019D01*
X100783237Y-52595420D01*
X100660328Y-52758177D01*
X100660323Y-52758186D01*
X100580856Y-52917779D01*
X100569418Y-52940750D01*
X100513603Y-53136917D01*
X100494785Y-53340000D01*
X100513603Y-53543083D01*
X100569418Y-53739250D01*
X100660327Y-53921821D01*
X100783236Y-54084579D01*
X100933959Y-54221981D01*
X101107363Y-54329348D01*
X101297544Y-54403024D01*
X101498024Y-54440500D01*
X101701976Y-54440500D01*
X101902456Y-54403024D01*
X102092637Y-54329348D01*
X102266041Y-54221981D01*
X102416764Y-54084579D01*
X102539673Y-53921821D01*
X102630582Y-53739250D01*
X102686397Y-53543083D01*
X102705215Y-53340000D01*
X102686397Y-53136917D01*
X102630582Y-52940750D01*
X102539673Y-52758179D01*
X102416764Y-52595421D01*
X102266041Y-52458019D01*
X102092637Y-52350652D01*
X102068532Y-52341314D01*
X102021103Y-52302663D01*
X102005449Y-52243514D01*
X102027552Y-52186461D01*
X102078969Y-52153295D01*
X102104297Y-52150000D01*
X102497824Y-52150000D01*
X102557370Y-52143598D01*
X102557381Y-52143596D01*
X102692088Y-52093353D01*
X102692090Y-52093352D01*
X102807184Y-52007192D01*
X102807192Y-52007184D01*
X102893352Y-51892090D01*
X102893353Y-51892088D01*
X102943596Y-51757381D01*
X102943598Y-51757370D01*
X102950000Y-51697824D01*
X102950000Y-51050001D01*
X102949999Y-51050000D01*
X102033012Y-51050000D01*
X102065925Y-50992993D01*
X102100000Y-50865826D01*
X102100000Y-50734174D01*
X102065925Y-50607007D01*
X102033012Y-50550000D01*
X102949999Y-50550000D01*
X102950000Y-50549999D01*
X102950000Y-49902175D01*
X102947113Y-49875327D01*
X109669500Y-49875327D01*
X109669500Y-51724672D01*
X109669501Y-51724684D01*
X109684033Y-51797736D01*
X109684035Y-51797742D01*
X109739397Y-51880599D01*
X109739400Y-51880602D01*
X109822257Y-51935964D01*
X109822260Y-51935966D01*
X109877808Y-51947015D01*
X109895315Y-51950498D01*
X109895320Y-51950498D01*
X109895326Y-51950500D01*
X109895327Y-51950500D01*
X111744673Y-51950500D01*
X111744674Y-51950500D01*
X111817740Y-51935966D01*
X111900601Y-51880601D01*
X111955966Y-51797740D01*
X111970500Y-51724674D01*
X111970500Y-51435000D01*
X140205153Y-51435000D01*
X140224525Y-51792317D01*
X140282418Y-52145449D01*
X140378146Y-52490229D01*
X140378148Y-52490234D01*
X140510604Y-52822673D01*
X140678215Y-53138822D01*
X140879032Y-53435004D01*
X140879039Y-53435014D01*
X141006441Y-53585002D01*
X142215746Y-52375696D01*
X142289588Y-52477330D01*
X142467670Y-52655412D01*
X142569300Y-52729251D01*
X141357256Y-53941296D01*
X141370488Y-53953829D01*
X141655358Y-54170382D01*
X141655363Y-54170385D01*
X141961980Y-54354871D01*
X142286744Y-54505123D01*
X142625868Y-54619387D01*
X142975330Y-54696310D01*
X142975329Y-54696310D01*
X143331078Y-54735000D01*
X143688922Y-54735000D01*
X144044670Y-54696310D01*
X144394130Y-54619387D01*
X144394132Y-54619387D01*
X144733255Y-54505123D01*
X145058019Y-54354871D01*
X145364636Y-54170385D01*
X145364641Y-54170382D01*
X145649500Y-53953839D01*
X145649512Y-53953828D01*
X145662742Y-53941296D01*
X144450698Y-52729252D01*
X144552330Y-52655412D01*
X144730412Y-52477330D01*
X144804252Y-52375698D01*
X146013557Y-53585003D01*
X146140962Y-53435011D01*
X146140966Y-53435007D01*
X146341784Y-53138822D01*
X146509395Y-52822673D01*
X146641851Y-52490234D01*
X146641853Y-52490229D01*
X146737581Y-52145449D01*
X146795474Y-51792317D01*
X146814846Y-51435000D01*
X146795474Y-51077682D01*
X146737581Y-50724550D01*
X146641853Y-50379770D01*
X146641851Y-50379765D01*
X146509395Y-50047326D01*
X146341784Y-49731177D01*
X146140967Y-49434995D01*
X146140960Y-49434985D01*
X146013556Y-49284995D01*
X144804250Y-50494300D01*
X144730412Y-50392670D01*
X144552330Y-50214588D01*
X144450696Y-50140747D01*
X145662742Y-48928702D01*
X145649511Y-48916170D01*
X145364641Y-48699617D01*
X145364636Y-48699614D01*
X145058019Y-48515128D01*
X144733255Y-48364876D01*
X144394131Y-48250612D01*
X144044669Y-48173689D01*
X144044670Y-48173689D01*
X143688922Y-48135000D01*
X143331078Y-48135000D01*
X142975329Y-48173689D01*
X142625869Y-48250612D01*
X142625867Y-48250612D01*
X142286744Y-48364876D01*
X141961980Y-48515128D01*
X141655363Y-48699614D01*
X141655358Y-48699617D01*
X141370495Y-48916164D01*
X141370473Y-48916183D01*
X141357256Y-48928702D01*
X142569301Y-50140747D01*
X142467670Y-50214588D01*
X142289588Y-50392670D01*
X142215747Y-50494301D01*
X141006441Y-49284995D01*
X140879039Y-49434985D01*
X140879032Y-49434995D01*
X140678215Y-49731177D01*
X140510604Y-50047326D01*
X140378148Y-50379765D01*
X140378146Y-50379770D01*
X140282418Y-50724550D01*
X140224525Y-51077682D01*
X140205153Y-51435000D01*
X111970500Y-51435000D01*
X111970500Y-49875326D01*
X111955966Y-49802260D01*
X111900601Y-49719399D01*
X111900599Y-49719397D01*
X111817742Y-49664035D01*
X111817740Y-49664034D01*
X111817737Y-49664033D01*
X111817736Y-49664033D01*
X111744684Y-49649501D01*
X111744674Y-49649500D01*
X109895326Y-49649500D01*
X109895325Y-49649500D01*
X109895315Y-49649501D01*
X109822263Y-49664033D01*
X109822257Y-49664035D01*
X109739400Y-49719397D01*
X109739397Y-49719400D01*
X109684035Y-49802257D01*
X109684033Y-49802263D01*
X109669501Y-49875315D01*
X109669500Y-49875327D01*
X102947113Y-49875327D01*
X102943598Y-49842629D01*
X102943596Y-49842618D01*
X102893353Y-49707911D01*
X102893352Y-49707909D01*
X102807192Y-49592815D01*
X102807184Y-49592807D01*
X102692090Y-49506647D01*
X102692088Y-49506646D01*
X102557381Y-49456403D01*
X102557370Y-49456401D01*
X102497824Y-49450000D01*
X101850001Y-49450000D01*
X101850000Y-49450001D01*
X101850000Y-50366988D01*
X101792993Y-50334075D01*
X101665826Y-50300000D01*
X101534174Y-50300000D01*
X101407007Y-50334075D01*
X101350000Y-50366988D01*
X101350000Y-49450001D01*
X101349999Y-49450000D01*
X100702176Y-49450000D01*
X100642629Y-49456401D01*
X100642618Y-49456403D01*
X100507911Y-49506646D01*
X100507909Y-49506647D01*
X100392815Y-49592807D01*
X100392807Y-49592815D01*
X100306647Y-49707909D01*
X100306646Y-49707911D01*
X100256403Y-49842618D01*
X100256401Y-49842629D01*
X100250000Y-49902175D01*
X100250000Y-50549999D01*
X100250001Y-50550000D01*
X101166988Y-50550000D01*
X101134075Y-50607007D01*
X101100000Y-50734174D01*
X101100000Y-50865826D01*
X101134075Y-50992993D01*
X101166988Y-51050000D01*
X100250001Y-51050000D01*
X100250000Y-51050001D01*
X100250000Y-51697824D01*
X100249999Y-51697824D01*
X99500500Y-51697824D01*
X99500500Y-48260000D01*
X109664571Y-48260000D01*
X109684244Y-48472310D01*
X109742595Y-48677389D01*
X109837634Y-48868255D01*
X109966128Y-49038407D01*
X109966135Y-49038413D01*
X110123692Y-49182047D01*
X110123699Y-49182053D01*
X110180738Y-49217370D01*
X110304981Y-49294298D01*
X110503802Y-49371321D01*
X110713390Y-49410500D01*
X110926610Y-49410500D01*
X111136198Y-49371321D01*
X111335019Y-49294298D01*
X111516302Y-49182052D01*
X111673872Y-49038407D01*
X111802366Y-48868255D01*
X111897405Y-48677389D01*
X111955756Y-48472310D01*
X111975429Y-48260000D01*
X128434785Y-48260000D01*
X128453603Y-48463083D01*
X128509418Y-48659250D01*
X128600327Y-48841821D01*
X128723236Y-49004579D01*
X128873959Y-49141981D01*
X129047363Y-49249348D01*
X129237544Y-49323024D01*
X129438024Y-49360500D01*
X129641976Y-49360500D01*
X129842456Y-49323024D01*
X130032637Y-49249348D01*
X130206041Y-49141981D01*
X130356764Y-49004579D01*
X130479673Y-48841821D01*
X130542379Y-48715888D01*
X130585241Y-48672227D01*
X130645582Y-48662097D01*
X130700353Y-48689369D01*
X130728634Y-48743627D01*
X130730000Y-48760017D01*
X130730000Y-49157824D01*
X130729999Y-49157824D01*
X130736401Y-49217370D01*
X130736403Y-49217381D01*
X130786646Y-49352088D01*
X130786647Y-49352090D01*
X130872807Y-49467184D01*
X130872815Y-49467192D01*
X130987909Y-49553352D01*
X130987911Y-49553353D01*
X131122618Y-49603596D01*
X131122629Y-49603598D01*
X131182176Y-49610000D01*
X131829999Y-49610000D01*
X131830000Y-49609999D01*
X131830000Y-48693012D01*
X131887007Y-48725925D01*
X132014174Y-48760000D01*
X132145826Y-48760000D01*
X132272993Y-48725925D01*
X132330000Y-48693012D01*
X132330000Y-49609999D01*
X132330001Y-49610000D01*
X132977824Y-49610000D01*
X133037370Y-49603598D01*
X133037381Y-49603596D01*
X133172088Y-49553353D01*
X133172090Y-49553352D01*
X133287184Y-49467192D01*
X133287192Y-49467184D01*
X133373352Y-49352090D01*
X133373353Y-49352088D01*
X133423596Y-49217381D01*
X133423598Y-49217370D01*
X133430000Y-49157824D01*
X133430000Y-48510001D01*
X133429999Y-48510000D01*
X132513012Y-48510000D01*
X132545925Y-48452993D01*
X132580000Y-48325826D01*
X132580000Y-48194174D01*
X132545925Y-48067007D01*
X132513012Y-48010000D01*
X133429999Y-48010000D01*
X133430000Y-48009999D01*
X133430000Y-47385327D01*
X151299500Y-47385327D01*
X151299500Y-49134672D01*
X151299501Y-49134684D01*
X151314033Y-49207736D01*
X151314035Y-49207742D01*
X151369397Y-49290599D01*
X151369400Y-49290602D01*
X151417924Y-49323024D01*
X151452260Y-49345966D01*
X151507808Y-49357015D01*
X151525315Y-49360498D01*
X151525320Y-49360498D01*
X151525326Y-49360500D01*
X151525327Y-49360500D01*
X153274673Y-49360500D01*
X153274674Y-49360500D01*
X153347740Y-49345966D01*
X153430601Y-49290601D01*
X153485966Y-49207740D01*
X153500500Y-49134674D01*
X153500500Y-48813915D01*
X153519407Y-48755724D01*
X153568907Y-48719760D01*
X153630093Y-48719760D01*
X153679593Y-48755724D01*
X153689225Y-48772076D01*
X153766399Y-48937577D01*
X153901886Y-49131073D01*
X154068926Y-49298113D01*
X154262422Y-49433600D01*
X154476509Y-49533430D01*
X154690000Y-49590634D01*
X154690000Y-48693012D01*
X154747007Y-48725925D01*
X154874174Y-48760000D01*
X155005826Y-48760000D01*
X155132993Y-48725925D01*
X155190000Y-48693012D01*
X155190000Y-49590633D01*
X155403490Y-49533430D01*
X155617577Y-49433600D01*
X155811073Y-49298113D01*
X155978113Y-49131073D01*
X156113600Y-48937577D01*
X156213430Y-48723489D01*
X156270636Y-48510000D01*
X155373012Y-48510000D01*
X155405925Y-48452993D01*
X155440000Y-48325826D01*
X155440000Y-48194174D01*
X155405925Y-48067007D01*
X155373012Y-48010000D01*
X156270636Y-48010000D01*
X156213429Y-47796505D01*
X156113605Y-47582432D01*
X156113601Y-47582424D01*
X155978113Y-47388926D01*
X155811073Y-47221886D01*
X155617577Y-47086399D01*
X155403489Y-46986569D01*
X155190000Y-46929364D01*
X155190000Y-47826988D01*
X155132993Y-47794075D01*
X155005826Y-47760000D01*
X154874174Y-47760000D01*
X154747007Y-47794075D01*
X154690000Y-47826988D01*
X154690000Y-46929364D01*
X154476505Y-46986570D01*
X154262432Y-47086394D01*
X154262424Y-47086398D01*
X154068926Y-47221886D01*
X153901886Y-47388926D01*
X153766398Y-47582424D01*
X153766394Y-47582432D01*
X153689224Y-47747924D01*
X153647496Y-47792672D01*
X153587435Y-47804347D01*
X153531982Y-47778489D01*
X153502319Y-47724975D01*
X153500500Y-47706085D01*
X153500500Y-47385327D01*
X153500498Y-47385315D01*
X153495895Y-47362175D01*
X153485966Y-47312260D01*
X153430601Y-47229399D01*
X153430599Y-47229397D01*
X153347742Y-47174035D01*
X153347740Y-47174034D01*
X153347737Y-47174033D01*
X153347736Y-47174033D01*
X153274684Y-47159501D01*
X153274674Y-47159500D01*
X151525326Y-47159500D01*
X151525325Y-47159500D01*
X151525315Y-47159501D01*
X151452263Y-47174033D01*
X151452257Y-47174035D01*
X151369400Y-47229397D01*
X151369397Y-47229400D01*
X151314035Y-47312257D01*
X151314033Y-47312263D01*
X151299501Y-47385315D01*
X151299500Y-47385327D01*
X133430000Y-47385327D01*
X133430000Y-47362175D01*
X133423598Y-47302629D01*
X133423596Y-47302618D01*
X133373353Y-47167911D01*
X133373352Y-47167909D01*
X133287192Y-47052815D01*
X133287184Y-47052807D01*
X133172090Y-46966647D01*
X133172088Y-46966646D01*
X133037381Y-46916403D01*
X133037370Y-46916401D01*
X132977824Y-46910000D01*
X132330001Y-46910000D01*
X132330000Y-46910001D01*
X132330000Y-47826988D01*
X132272993Y-47794075D01*
X132145826Y-47760000D01*
X132014174Y-47760000D01*
X131887007Y-47794075D01*
X131830000Y-47826988D01*
X131830000Y-46910001D01*
X131829999Y-46910000D01*
X131182176Y-46910000D01*
X131122629Y-46916401D01*
X131122618Y-46916403D01*
X130987911Y-46966646D01*
X130987909Y-46966647D01*
X130872815Y-47052807D01*
X130872807Y-47052815D01*
X130786647Y-47167909D01*
X130786646Y-47167911D01*
X130736403Y-47302618D01*
X130736401Y-47302629D01*
X130730000Y-47362175D01*
X130730000Y-47759982D01*
X130711093Y-47818173D01*
X130661593Y-47854137D01*
X130600407Y-47854137D01*
X130550907Y-47818173D01*
X130542379Y-47804110D01*
X130479676Y-47678186D01*
X130479673Y-47678179D01*
X130356764Y-47515421D01*
X130206041Y-47378019D01*
X130032637Y-47270652D01*
X129842456Y-47196976D01*
X129842455Y-47196975D01*
X129842453Y-47196975D01*
X129641976Y-47159500D01*
X129438024Y-47159500D01*
X129237546Y-47196975D01*
X129173243Y-47221886D01*
X129047363Y-47270652D01*
X128938676Y-47337948D01*
X128873959Y-47378019D01*
X128723237Y-47515420D01*
X128600328Y-47678177D01*
X128600323Y-47678186D01*
X128509419Y-47860747D01*
X128509418Y-47860750D01*
X128453603Y-48056917D01*
X128434785Y-48260000D01*
X111975429Y-48260000D01*
X111955756Y-48047690D01*
X111897405Y-47842611D01*
X111802366Y-47651745D01*
X111673872Y-47481593D01*
X111568261Y-47385315D01*
X111516307Y-47337952D01*
X111516300Y-47337946D01*
X111335024Y-47225705D01*
X111335019Y-47225702D01*
X111185842Y-47167911D01*
X111136198Y-47148679D01*
X111136197Y-47148678D01*
X111136195Y-47148678D01*
X110926610Y-47109500D01*
X110713390Y-47109500D01*
X110503804Y-47148678D01*
X110304980Y-47225702D01*
X110304975Y-47225705D01*
X110123699Y-47337946D01*
X110123692Y-47337952D01*
X109966135Y-47481586D01*
X109966131Y-47481589D01*
X109966128Y-47481593D01*
X109966125Y-47481597D01*
X109837635Y-47651743D01*
X109837630Y-47651752D01*
X109742596Y-47842608D01*
X109742595Y-47842611D01*
X109737435Y-47860747D01*
X109684244Y-48047688D01*
X109665441Y-48250612D01*
X109664571Y-48260000D01*
X99500500Y-48260000D01*
X99500500Y-45599500D01*
X99519407Y-45541309D01*
X99568907Y-45505345D01*
X99599500Y-45500500D01*
X163400501Y-45500500D01*
X163458692Y-45519407D01*
G37*
%TD.AperFunction*%
%TA.AperFunction,Conductor*%
G36*
X162503557Y-89150003D02*
G01*
X162542995Y-89148401D01*
X162601906Y-89164929D01*
X162639850Y-89212928D01*
X162642335Y-89274063D01*
X162620214Y-89313975D01*
X162471648Y-89477122D01*
X162464739Y-89483997D01*
X162317542Y-89616698D01*
X162261662Y-89641618D01*
X162201806Y-89628934D01*
X162160837Y-89583490D01*
X162152262Y-89541828D01*
X162152742Y-89506296D01*
X160940698Y-88294252D01*
X161042330Y-88220412D01*
X161220412Y-88042330D01*
X161294252Y-87940698D01*
X162503557Y-89150003D01*
G37*
%TD.AperFunction*%
%TD*%
M02*
