%TF.GenerationSoftware,KiCad,Pcbnew,8.0.8*%
%TF.CreationDate,2025-02-24T20:51:07+00:00*%
%TF.ProjectId,7-segment,372d7365-676d-4656-9e74-2e6b69636164,rev?*%
%TF.SameCoordinates,Original*%
%TF.FileFunction,Copper,L1,Top*%
%TF.FilePolarity,Positive*%
%FSLAX46Y46*%
G04 Gerber Fmt 4.6, Leading zero omitted, Abs format (unit mm)*
G04 Created by KiCad (PCBNEW 8.0.8) date 2025-02-24 20:51:07*
%MOMM*%
%LPD*%
G01*
G04 APERTURE LIST*
G04 Aperture macros list*
%AMRoundRect*
0 Rectangle with rounded corners*
0 $1 Rounding radius*
0 $2 $3 $4 $5 $6 $7 $8 $9 X,Y pos of 4 corners*
0 Add a 4 corners polygon primitive as box body*
4,1,4,$2,$3,$4,$5,$6,$7,$8,$9,$2,$3,0*
0 Add four circle primitives for the rounded corners*
1,1,$1+$1,$2,$3*
1,1,$1+$1,$4,$5*
1,1,$1+$1,$6,$7*
1,1,$1+$1,$8,$9*
0 Add four rect primitives between the rounded corners*
20,1,$1+$1,$2,$3,$4,$5,0*
20,1,$1+$1,$4,$5,$6,$7,0*
20,1,$1+$1,$6,$7,$8,$9,0*
20,1,$1+$1,$8,$9,$2,$3,0*%
G04 Aperture macros list end*
%TA.AperFunction,ComponentPad*%
%ADD10C,5.600000*%
%TD*%
%TA.AperFunction,SMDPad,CuDef*%
%ADD11RoundRect,0.237500X0.250000X0.237500X-0.250000X0.237500X-0.250000X-0.237500X0.250000X-0.237500X0*%
%TD*%
%TA.AperFunction,SMDPad,CuDef*%
%ADD12RoundRect,0.237500X0.237500X-0.250000X0.237500X0.250000X-0.237500X0.250000X-0.237500X-0.250000X0*%
%TD*%
%TA.AperFunction,SMDPad,CuDef*%
%ADD13RoundRect,0.150000X0.150000X-0.587500X0.150000X0.587500X-0.150000X0.587500X-0.150000X-0.587500X0*%
%TD*%
%TA.AperFunction,ComponentPad*%
%ADD14R,1.700000X1.700000*%
%TD*%
%TA.AperFunction,ComponentPad*%
%ADD15O,1.700000X1.700000*%
%TD*%
%TA.AperFunction,SMDPad,CuDef*%
%ADD16RoundRect,0.150000X0.150000X-0.850000X0.150000X0.850000X-0.150000X0.850000X-0.150000X-0.850000X0*%
%TD*%
%TA.AperFunction,ComponentPad*%
%ADD17C,1.500000*%
%TD*%
%TA.AperFunction,ViaPad*%
%ADD18C,0.600000*%
%TD*%
%TA.AperFunction,Conductor*%
%ADD19C,0.200000*%
%TD*%
%TA.AperFunction,Conductor*%
%ADD20C,0.600000*%
%TD*%
G04 APERTURE END LIST*
D10*
%TO.P,H1,1,1*%
%TO.N,GND*%
X124460000Y-55880000D03*
%TD*%
D11*
%TO.P,R2,1*%
%TO.N,/DIG2*%
X120292500Y-41910000D03*
%TO.P,R2,2*%
%TO.N,Net-(Q2-B)*%
X118467500Y-41910000D03*
%TD*%
D10*
%TO.P,H2,1,1*%
%TO.N,GND*%
X66040000Y-55880000D03*
%TD*%
D12*
%TO.P,R5,1*%
%TO.N,Net-(U1-B)*%
X101600000Y-52982500D03*
%TO.P,R5,2*%
%TO.N,Net-(U2-QB)*%
X101600000Y-51157500D03*
%TD*%
D13*
%TO.P,Q2,1,B*%
%TO.N,Net-(Q2-B)*%
X118430000Y-46657500D03*
%TO.P,Q2,2,E*%
%TO.N,+5V*%
X120330000Y-46657500D03*
%TO.P,Q2,3,C*%
%TO.N,Net-(Q2-C)*%
X119380000Y-44782500D03*
%TD*%
D11*
%TO.P,R1,1*%
%TO.N,/DIG3*%
X115212500Y-41910000D03*
%TO.P,R1,2*%
%TO.N,Net-(Q1-B)*%
X113387500Y-41910000D03*
%TD*%
%TO.P,R3,1*%
%TO.N,/DIG1*%
X125372500Y-41910000D03*
%TO.P,R3,2*%
%TO.N,Net-(Q3-B)*%
X123547500Y-41910000D03*
%TD*%
D12*
%TO.P,R10,1*%
%TO.N,Net-(U1-G)*%
X114300000Y-52982500D03*
%TO.P,R10,2*%
%TO.N,Net-(U2-QG)*%
X114300000Y-51157500D03*
%TD*%
D10*
%TO.P,H3,1,1*%
%TO.N,GND*%
X66040000Y-38100000D03*
%TD*%
D12*
%TO.P,R11,1*%
%TO.N,Net-(U1-DP)*%
X116840000Y-52982500D03*
%TO.P,R11,2*%
%TO.N,Net-(U2-QH)*%
X116840000Y-51157500D03*
%TD*%
%TO.P,R7,1*%
%TO.N,Net-(U1-D)*%
X106680000Y-52982500D03*
%TO.P,R7,2*%
%TO.N,Net-(U2-QD)*%
X106680000Y-51157500D03*
%TD*%
D13*
%TO.P,Q3,1,B*%
%TO.N,Net-(Q3-B)*%
X123510000Y-46657500D03*
%TO.P,Q3,2,E*%
%TO.N,+5V*%
X125410000Y-46657500D03*
%TO.P,Q3,3,C*%
%TO.N,Net-(Q3-C)*%
X124460000Y-44782500D03*
%TD*%
D12*
%TO.P,R6,1*%
%TO.N,Net-(U1-C)*%
X104140000Y-52982500D03*
%TO.P,R6,2*%
%TO.N,Net-(U2-QC)*%
X104140000Y-51157500D03*
%TD*%
%TO.P,R9,1*%
%TO.N,Net-(U1-F)*%
X111760000Y-52982500D03*
%TO.P,R9,2*%
%TO.N,Net-(U2-QF)*%
X111760000Y-51157500D03*
%TD*%
%TO.P,R8,1*%
%TO.N,Net-(U1-E)*%
X109220000Y-52982500D03*
%TO.P,R8,2*%
%TO.N,Net-(U2-QE)*%
X109220000Y-51157500D03*
%TD*%
D14*
%TO.P,J1,1,Pin_1*%
%TO.N,+5V*%
X116840000Y-36322000D03*
D15*
%TO.P,J1,2,Pin_2*%
%TO.N,/DIG1*%
X114300000Y-36322000D03*
%TO.P,J1,3,Pin_3*%
%TO.N,/DIG2*%
X111760000Y-36322000D03*
%TO.P,J1,4,Pin_4*%
%TO.N,/DIG3*%
X109220000Y-36322000D03*
%TO.P,J1,5,Pin_5*%
%TO.N,/SRCLK*%
X106680000Y-36322000D03*
%TO.P,J1,6,Pin_6*%
%TO.N,/RCLK*%
X104140000Y-36322000D03*
%TO.P,J1,7,Pin_7*%
%TO.N,/SER*%
X101600000Y-36322000D03*
%TO.P,J1,8,Pin_8*%
%TO.N,GND*%
X99060000Y-36322000D03*
%TD*%
D12*
%TO.P,R4,1*%
%TO.N,Net-(U1-A)*%
X99060000Y-52982500D03*
%TO.P,R4,2*%
%TO.N,Net-(U2-QA)*%
X99060000Y-51157500D03*
%TD*%
D13*
%TO.P,Q1,1,B*%
%TO.N,Net-(Q1-B)*%
X113350000Y-46657500D03*
%TO.P,Q1,2,E*%
%TO.N,+5V*%
X115250000Y-46657500D03*
%TO.P,Q1,3,C*%
%TO.N,Net-(Q1-C)*%
X114300000Y-44782500D03*
%TD*%
D16*
%TO.P,U2,1,QB*%
%TO.N,Net-(U2-QB)*%
X99695000Y-46950000D03*
%TO.P,U2,2,QC*%
%TO.N,Net-(U2-QC)*%
X100965000Y-46950000D03*
%TO.P,U2,3,QD*%
%TO.N,Net-(U2-QD)*%
X102235000Y-46950000D03*
%TO.P,U2,4,QE*%
%TO.N,Net-(U2-QE)*%
X103505000Y-46950000D03*
%TO.P,U2,5,QF*%
%TO.N,Net-(U2-QF)*%
X104775000Y-46950000D03*
%TO.P,U2,6,QG*%
%TO.N,Net-(U2-QG)*%
X106045000Y-46950000D03*
%TO.P,U2,7,QH*%
%TO.N,Net-(U2-QH)*%
X107315000Y-46950000D03*
%TO.P,U2,8,GND*%
%TO.N,GND*%
X108585000Y-46950000D03*
%TO.P,U2,9,QH'*%
%TO.N,unconnected-(U2-QH'-Pad9)*%
X108585000Y-41950000D03*
%TO.P,U2,10,~{SRCLR}*%
%TO.N,+5V*%
X107315000Y-41950000D03*
%TO.P,U2,11,SRCLK*%
%TO.N,/SRCLK*%
X106045000Y-41950000D03*
%TO.P,U2,12,RCLK*%
%TO.N,/RCLK*%
X104775000Y-41950000D03*
%TO.P,U2,13,~{OE}*%
%TO.N,GND*%
X103505000Y-41950000D03*
%TO.P,U2,14,SER*%
%TO.N,/SER*%
X102235000Y-41950000D03*
%TO.P,U2,15,QA*%
%TO.N,Net-(U2-QA)*%
X100965000Y-41950000D03*
%TO.P,U2,16,VCC*%
%TO.N,+5V*%
X99695000Y-41950000D03*
%TD*%
D17*
%TO.P,U1,1,E*%
%TO.N,Net-(U1-E)*%
X95250000Y-55880000D03*
%TO.P,U1,2,D*%
%TO.N,Net-(U1-D)*%
X92710000Y-55880000D03*
%TO.P,U1,3,DP*%
%TO.N,Net-(U1-DP)*%
X90170000Y-55880000D03*
%TO.P,U1,4,C*%
%TO.N,Net-(U1-C)*%
X87630000Y-55880000D03*
%TO.P,U1,5,G*%
%TO.N,Net-(U1-G)*%
X85090000Y-55880000D03*
%TO.P,U1,6,NC*%
%TO.N,unconnected-(U1-NC-Pad6)*%
X82550000Y-55880000D03*
%TO.P,U1,7,B*%
%TO.N,Net-(U1-B)*%
X82550000Y-40640000D03*
%TO.P,U1,8,DIG3*%
%TO.N,Net-(Q1-C)*%
X85090000Y-40640000D03*
%TO.P,U1,9,DIG2*%
%TO.N,Net-(Q2-C)*%
X87630000Y-40640000D03*
%TO.P,U1,10,F*%
%TO.N,Net-(U1-F)*%
X90170000Y-40640000D03*
%TO.P,U1,11,A*%
%TO.N,Net-(U1-A)*%
X92710000Y-40640000D03*
%TO.P,U1,12,DIG1*%
%TO.N,Net-(Q3-C)*%
X95250000Y-40640000D03*
%TD*%
D18*
%TO.N,GND*%
X66040000Y-43180000D03*
X86360000Y-38100000D03*
X101600000Y-59690000D03*
X123190000Y-38100000D03*
X63500000Y-50800000D03*
X121920000Y-49530000D03*
X83820000Y-35560000D03*
X68580000Y-50800000D03*
X99060000Y-59690000D03*
X114300000Y-59690000D03*
X63500000Y-43180000D03*
X78740000Y-38100000D03*
X68580000Y-45720000D03*
X76200000Y-38100000D03*
X93980000Y-59690000D03*
X66040000Y-50800000D03*
X116840000Y-59690000D03*
X73660000Y-35560000D03*
X63500000Y-48260000D03*
X73660000Y-59690000D03*
X81280000Y-59690000D03*
X83820000Y-38100000D03*
X88900000Y-35560000D03*
X76200000Y-59690000D03*
X116840000Y-57150000D03*
X106680000Y-59690000D03*
X96520000Y-35560000D03*
X104140000Y-59690000D03*
X111760000Y-59690000D03*
X76200000Y-35560000D03*
X71120000Y-59690000D03*
X93980000Y-35560000D03*
X96520000Y-38100000D03*
X63500000Y-45720000D03*
X119380000Y-59690000D03*
X88900000Y-38100000D03*
X110490000Y-46990000D03*
X96520000Y-59690000D03*
X124460000Y-49530000D03*
X83820000Y-59690000D03*
X88900000Y-59690000D03*
X93980000Y-38100000D03*
X127000000Y-49530000D03*
X91440000Y-59690000D03*
X66040000Y-45720000D03*
X81280000Y-38100000D03*
X109220000Y-59690000D03*
X119380000Y-57150000D03*
X119380000Y-54610000D03*
X78740000Y-59690000D03*
X81280000Y-35560000D03*
X111760000Y-57150000D03*
X68580000Y-43180000D03*
X71120000Y-35560000D03*
X110490000Y-45720000D03*
X73660000Y-38100000D03*
X66040000Y-48260000D03*
X86360000Y-35560000D03*
X68580000Y-48260000D03*
X120650000Y-40640000D03*
X125730000Y-38100000D03*
X114300000Y-57150000D03*
X110490000Y-41910000D03*
X119380000Y-52070000D03*
X91440000Y-38100000D03*
X91440000Y-35560000D03*
X86360000Y-59690000D03*
X71120000Y-38100000D03*
X102870000Y-38100000D03*
X78740000Y-35560000D03*
%TO.N,+5V*%
X125410000Y-48260000D03*
X107315000Y-40132000D03*
X99695000Y-40132000D03*
X120330000Y-48260000D03*
X115250000Y-48260000D03*
%TO.N,Net-(Q1-C)*%
X113284000Y-48260000D03*
%TO.N,Net-(Q2-C)*%
X119380000Y-49060000D03*
%TO.N,Net-(Q3-C)*%
X125984000Y-43180000D03*
%TD*%
D19*
%TO.N,/DIG3*%
X115212500Y-39812500D02*
X113792000Y-38392000D01*
X109220000Y-36322000D02*
X111290000Y-38392000D01*
X111290000Y-38392000D02*
X113792000Y-38392000D01*
X115212500Y-41910000D02*
X115212500Y-39812500D01*
D20*
%TO.N,+5V*%
X115250000Y-46657500D02*
X115250000Y-48260000D01*
X125410000Y-46657500D02*
X125410000Y-48260000D01*
X107315000Y-41950000D02*
X107315000Y-40132000D01*
X120330000Y-46657500D02*
X120330000Y-48260000D01*
X99695000Y-41950000D02*
X99695000Y-40132000D01*
D19*
%TO.N,/DIG1*%
X115570000Y-37592000D02*
X121054500Y-37592000D01*
X114300000Y-36322000D02*
X115570000Y-37592000D01*
X121054500Y-37592000D02*
X125372500Y-41910000D01*
%TO.N,/RCLK*%
X104775000Y-36957000D02*
X104140000Y-36322000D01*
X104775000Y-41950000D02*
X104775000Y-36957000D01*
%TO.N,/DIG2*%
X113430000Y-37992000D02*
X116374500Y-37992000D01*
X116374500Y-37992000D02*
X120292500Y-41910000D01*
X111760000Y-36322000D02*
X113430000Y-37992000D01*
%TO.N,/SER*%
X102235000Y-36957000D02*
X101600000Y-36322000D01*
X102235000Y-41950000D02*
X102235000Y-36957000D01*
%TO.N,/SRCLK*%
X106045000Y-36957000D02*
X106680000Y-36322000D01*
X106045000Y-41950000D02*
X106045000Y-36957000D01*
%TO.N,Net-(Q1-C)*%
X114300000Y-47244000D02*
X113284000Y-48260000D01*
X114300000Y-44782500D02*
X114300000Y-47244000D01*
%TO.N,Net-(Q1-B)*%
X113387500Y-46620000D02*
X113350000Y-46657500D01*
X113387500Y-41910000D02*
X113387500Y-46620000D01*
%TO.N,Net-(Q2-B)*%
X118467500Y-46620000D02*
X118430000Y-46657500D01*
X118467500Y-41910000D02*
X118467500Y-46620000D01*
%TO.N,Net-(Q2-C)*%
X119380000Y-44782500D02*
X119380000Y-49060000D01*
%TO.N,Net-(Q3-B)*%
X123547500Y-41910000D02*
X123547500Y-46620000D01*
X123547500Y-46620000D02*
X123510000Y-46657500D01*
%TO.N,Net-(Q3-C)*%
X125984000Y-43258500D02*
X125984000Y-43180000D01*
X124460000Y-44782500D02*
X125984000Y-43258500D01*
%TO.N,Net-(U2-QA)*%
X100965000Y-41950000D02*
X100965000Y-42949999D01*
X99060000Y-44854999D02*
X99060000Y-51157500D01*
X100965000Y-42949999D02*
X99060000Y-44854999D01*
%TO.N,Net-(U1-A)*%
X92710000Y-50234314D02*
X92710000Y-40640000D01*
X99060000Y-52982500D02*
X95458186Y-52982500D01*
X95458186Y-52982500D02*
X92710000Y-50234314D01*
%TO.N,Net-(U2-QB)*%
X99695000Y-47879000D02*
X101600000Y-49784000D01*
X101600000Y-49784000D02*
X101600000Y-51157500D01*
X99695000Y-46950000D02*
X99695000Y-47879000D01*
%TO.N,Net-(U1-B)*%
X100812500Y-53770000D02*
X95680000Y-53770000D01*
X95680000Y-53770000D02*
X82550000Y-40640000D01*
X101600000Y-52982500D02*
X100812500Y-53770000D01*
%TO.N,Net-(U2-QC)*%
X100965000Y-47879000D02*
X104140000Y-51054000D01*
X104140000Y-51054000D02*
X104140000Y-51157500D01*
X100965000Y-46950000D02*
X100965000Y-47879000D01*
%TO.N,Net-(U1-C)*%
X89340000Y-54170000D02*
X87630000Y-55880000D01*
X102952500Y-54170000D02*
X89340000Y-54170000D01*
X104140000Y-52982500D02*
X102952500Y-54170000D01*
%TO.N,Net-(U2-QD)*%
X105513500Y-51157500D02*
X106680000Y-51157500D01*
X102235000Y-47879000D02*
X105513500Y-51157500D01*
X102235000Y-46950000D02*
X102235000Y-47879000D01*
%TO.N,Net-(U1-D)*%
X105092500Y-54570000D02*
X94020000Y-54570000D01*
X106680000Y-52982500D02*
X105092500Y-54570000D01*
X94020000Y-54570000D02*
X92710000Y-55880000D01*
%TO.N,Net-(U1-E)*%
X107232500Y-54970000D02*
X96160000Y-54970000D01*
X96160000Y-54970000D02*
X95250000Y-55880000D01*
X109220000Y-52982500D02*
X107232500Y-54970000D01*
%TO.N,Net-(U2-QE)*%
X105739001Y-50184000D02*
X108246500Y-50184000D01*
X108246500Y-50184000D02*
X109220000Y-51157500D01*
X103505000Y-46950000D02*
X103505000Y-47949999D01*
X103505000Y-47949999D02*
X105739001Y-50184000D01*
%TO.N,Net-(U1-F)*%
X92924925Y-39370000D02*
X91440000Y-39370000D01*
X93980000Y-40425075D02*
X92924925Y-39370000D01*
X93980000Y-47331722D02*
X93980000Y-40425075D01*
X91440000Y-39370000D02*
X90170000Y-40640000D01*
X111760000Y-52982500D02*
X110972500Y-52195000D01*
X98843278Y-52195000D02*
X93980000Y-47331722D01*
X110972500Y-52195000D02*
X98843278Y-52195000D01*
%TO.N,Net-(U2-QF)*%
X104775000Y-46950000D02*
X104775000Y-47949999D01*
X104775000Y-47949999D02*
X106609001Y-49784000D01*
X106609001Y-49784000D02*
X110386500Y-49784000D01*
X110386500Y-49784000D02*
X111760000Y-51157500D01*
%TO.N,Net-(U1-G)*%
X86868000Y-57658000D02*
X85090000Y-55880000D01*
X114300000Y-53340000D02*
X109982000Y-57658000D01*
X114300000Y-52982500D02*
X114300000Y-53340000D01*
X109982000Y-57658000D02*
X86868000Y-57658000D01*
%TO.N,Net-(U2-QG)*%
X107479001Y-49384000D02*
X110552186Y-49384000D01*
X106045000Y-46950000D02*
X106045000Y-47949999D01*
X113512500Y-50370000D02*
X114300000Y-51157500D01*
X110552186Y-49384000D02*
X111538186Y-50370000D01*
X111538186Y-50370000D02*
X113512500Y-50370000D01*
X106045000Y-47949999D02*
X107479001Y-49384000D01*
%TO.N,Net-(U2-QH)*%
X108349001Y-48984000D02*
X110717872Y-48984000D01*
X110717872Y-48984000D02*
X111703872Y-49970000D01*
X111703872Y-49970000D02*
X115652500Y-49970000D01*
X107315000Y-46950000D02*
X107315000Y-47949999D01*
X107315000Y-47949999D02*
X108349001Y-48984000D01*
X115652500Y-49970000D02*
X116840000Y-51157500D01*
%TO.N,Net-(U1-DP)*%
X113833278Y-52195000D02*
X113525000Y-52503278D01*
X108858000Y-57258000D02*
X91548000Y-57258000D01*
X116840000Y-52982500D02*
X116052500Y-52195000D01*
X116052500Y-52195000D02*
X113833278Y-52195000D01*
X91548000Y-57258000D02*
X90170000Y-55880000D01*
X113525000Y-52503278D02*
X113525000Y-52591000D01*
X113525000Y-52591000D02*
X108858000Y-57258000D01*
%TD*%
%TA.AperFunction,Conductor*%
%TO.N,GND*%
G36*
X124462153Y-33520594D02*
G01*
X124854826Y-33537738D01*
X124863405Y-33538488D01*
X125250956Y-33589511D01*
X125259425Y-33591004D01*
X125641055Y-33675610D01*
X125649365Y-33677836D01*
X126022167Y-33795381D01*
X126030273Y-33798331D01*
X126391390Y-33947910D01*
X126399205Y-33951554D01*
X126745910Y-34132038D01*
X126753391Y-34136356D01*
X127024434Y-34309030D01*
X127083053Y-34346374D01*
X127090127Y-34351328D01*
X127400220Y-34589270D01*
X127406821Y-34594809D01*
X127695028Y-34858901D01*
X127701098Y-34864971D01*
X127965188Y-35153176D01*
X127970729Y-35159779D01*
X128208671Y-35469872D01*
X128213625Y-35476946D01*
X128423643Y-35806609D01*
X128427961Y-35814089D01*
X128608442Y-36160788D01*
X128612092Y-36168616D01*
X128761666Y-36529722D01*
X128764620Y-36537837D01*
X128882158Y-36910618D01*
X128884393Y-36918960D01*
X128968991Y-37300556D01*
X128970491Y-37309062D01*
X129021509Y-37696581D01*
X129022262Y-37705185D01*
X129039406Y-38097846D01*
X129039500Y-38102164D01*
X129039500Y-55877835D01*
X129039406Y-55882153D01*
X129022262Y-56274814D01*
X129021509Y-56283418D01*
X128970491Y-56670937D01*
X128968991Y-56679443D01*
X128884393Y-57061039D01*
X128882158Y-57069381D01*
X128764620Y-57442162D01*
X128761666Y-57450277D01*
X128612092Y-57811383D01*
X128608442Y-57819211D01*
X128427961Y-58165910D01*
X128423643Y-58173390D01*
X128213625Y-58503053D01*
X128208671Y-58510127D01*
X127970729Y-58820220D01*
X127965179Y-58826834D01*
X127701109Y-59115016D01*
X127695016Y-59121109D01*
X127630749Y-59180000D01*
X127406836Y-59385178D01*
X127400220Y-59390729D01*
X127090127Y-59628671D01*
X127083053Y-59633625D01*
X126753390Y-59843643D01*
X126745910Y-59847961D01*
X126399211Y-60028442D01*
X126391383Y-60032092D01*
X126030277Y-60181666D01*
X126022162Y-60184620D01*
X125649381Y-60302158D01*
X125641039Y-60304393D01*
X125259443Y-60388991D01*
X125250937Y-60390491D01*
X124863418Y-60441509D01*
X124854814Y-60442262D01*
X124462153Y-60459406D01*
X124457835Y-60459500D01*
X66042165Y-60459500D01*
X66037847Y-60459406D01*
X65645185Y-60442262D01*
X65636581Y-60441509D01*
X65249062Y-60390491D01*
X65240556Y-60388991D01*
X64858960Y-60304393D01*
X64850618Y-60302158D01*
X64477837Y-60184620D01*
X64469722Y-60181666D01*
X64108616Y-60032092D01*
X64100788Y-60028442D01*
X63754089Y-59847961D01*
X63746609Y-59843643D01*
X63416946Y-59633625D01*
X63409872Y-59628671D01*
X63099779Y-59390729D01*
X63093176Y-59385188D01*
X62804971Y-59121098D01*
X62798901Y-59115028D01*
X62534809Y-58826821D01*
X62529270Y-58820220D01*
X62291328Y-58510127D01*
X62286374Y-58503053D01*
X62076356Y-58173390D01*
X62072038Y-58165910D01*
X62001289Y-58030003D01*
X61891554Y-57819205D01*
X61887907Y-57811383D01*
X61738333Y-57450277D01*
X61735379Y-57442162D01*
X61617836Y-57069365D01*
X61615610Y-57061055D01*
X61531004Y-56679425D01*
X61529511Y-56670956D01*
X61478488Y-56283405D01*
X61477738Y-56274826D01*
X61460594Y-55882153D01*
X61460547Y-55880000D01*
X62735153Y-55880000D01*
X62754525Y-56237317D01*
X62812418Y-56590449D01*
X62908146Y-56935229D01*
X62908148Y-56935234D01*
X63040604Y-57267673D01*
X63208215Y-57583822D01*
X63409032Y-57880004D01*
X63409039Y-57880014D01*
X63536441Y-58030002D01*
X64745746Y-56820696D01*
X64819588Y-56922330D01*
X64997670Y-57100412D01*
X65099300Y-57174251D01*
X63887256Y-58386296D01*
X63900488Y-58398829D01*
X64185358Y-58615382D01*
X64185363Y-58615385D01*
X64491980Y-58799871D01*
X64816744Y-58950123D01*
X65155868Y-59064387D01*
X65505330Y-59141310D01*
X65505329Y-59141310D01*
X65861078Y-59180000D01*
X66218922Y-59180000D01*
X66574670Y-59141310D01*
X66924130Y-59064387D01*
X66924132Y-59064387D01*
X67263255Y-58950123D01*
X67588019Y-58799871D01*
X67894636Y-58615385D01*
X67894641Y-58615382D01*
X68179500Y-58398839D01*
X68179512Y-58398828D01*
X68192742Y-58386296D01*
X66980698Y-57174252D01*
X67082330Y-57100412D01*
X67260412Y-56922330D01*
X67334252Y-56820698D01*
X68543557Y-58030003D01*
X68670962Y-57880011D01*
X68670966Y-57880007D01*
X68871784Y-57583822D01*
X69039395Y-57267673D01*
X69171851Y-56935234D01*
X69171853Y-56935229D01*
X69267581Y-56590449D01*
X69325474Y-56237317D01*
X69344846Y-55880000D01*
X69344846Y-55879996D01*
X81544659Y-55879996D01*
X81544659Y-55880003D01*
X81563974Y-56076126D01*
X81563975Y-56076129D01*
X81621187Y-56264730D01*
X81621188Y-56264732D01*
X81663464Y-56343824D01*
X81714090Y-56438538D01*
X81714092Y-56438540D01*
X81714093Y-56438542D01*
X81839112Y-56590878D01*
X81839121Y-56590887D01*
X81947027Y-56679443D01*
X81991462Y-56715910D01*
X82165273Y-56808814D01*
X82353868Y-56866024D01*
X82353870Y-56866024D01*
X82353873Y-56866025D01*
X82549997Y-56885341D01*
X82550000Y-56885341D01*
X82550003Y-56885341D01*
X82746126Y-56866025D01*
X82746127Y-56866024D01*
X82746132Y-56866024D01*
X82934727Y-56808814D01*
X83108538Y-56715910D01*
X83260883Y-56590883D01*
X83385910Y-56438538D01*
X83478814Y-56264727D01*
X83536024Y-56076132D01*
X83555341Y-55880000D01*
X83555128Y-55877835D01*
X83536025Y-55683873D01*
X83536024Y-55683870D01*
X83536024Y-55683868D01*
X83478814Y-55495273D01*
X83385910Y-55321462D01*
X83327648Y-55250470D01*
X83260887Y-55169121D01*
X83260878Y-55169112D01*
X83108542Y-55044093D01*
X83108540Y-55044092D01*
X83108538Y-55044090D01*
X83067618Y-55022218D01*
X82934732Y-54951188D01*
X82934730Y-54951187D01*
X82915079Y-54945226D01*
X82746132Y-54893976D01*
X82746129Y-54893975D01*
X82746126Y-54893974D01*
X82550003Y-54874659D01*
X82549997Y-54874659D01*
X82353873Y-54893974D01*
X82353870Y-54893975D01*
X82165269Y-54951187D01*
X82165267Y-54951188D01*
X81991467Y-55044087D01*
X81991457Y-55044093D01*
X81839121Y-55169112D01*
X81839112Y-55169121D01*
X81714093Y-55321457D01*
X81714087Y-55321467D01*
X81621188Y-55495267D01*
X81621187Y-55495269D01*
X81563975Y-55683870D01*
X81563974Y-55683873D01*
X81544659Y-55879996D01*
X69344846Y-55879996D01*
X69325474Y-55522682D01*
X69267581Y-55169550D01*
X69171853Y-54824770D01*
X69171851Y-54824765D01*
X69039395Y-54492326D01*
X68871784Y-54176177D01*
X68670967Y-53879995D01*
X68670960Y-53879985D01*
X68543556Y-53729995D01*
X67334250Y-54939300D01*
X67260412Y-54837670D01*
X67082330Y-54659588D01*
X66980696Y-54585747D01*
X68192742Y-53373702D01*
X68179511Y-53361170D01*
X67894641Y-53144617D01*
X67894636Y-53144614D01*
X67588019Y-52960128D01*
X67263255Y-52809876D01*
X66924131Y-52695612D01*
X66574669Y-52618689D01*
X66574670Y-52618689D01*
X66218922Y-52580000D01*
X65861078Y-52580000D01*
X65505329Y-52618689D01*
X65155869Y-52695612D01*
X65155867Y-52695612D01*
X64816744Y-52809876D01*
X64491980Y-52960128D01*
X64185363Y-53144614D01*
X64185358Y-53144617D01*
X63900495Y-53361164D01*
X63900473Y-53361183D01*
X63887256Y-53373702D01*
X65099301Y-54585747D01*
X64997670Y-54659588D01*
X64819588Y-54837670D01*
X64745747Y-54939301D01*
X63536441Y-53729995D01*
X63409039Y-53879985D01*
X63409032Y-53879995D01*
X63208215Y-54176177D01*
X63040604Y-54492326D01*
X62908148Y-54824765D01*
X62908146Y-54824770D01*
X62812418Y-55169550D01*
X62754525Y-55522682D01*
X62735153Y-55880000D01*
X61460547Y-55880000D01*
X61460500Y-55877835D01*
X61460500Y-38102164D01*
X61460547Y-38100000D01*
X62735153Y-38100000D01*
X62754525Y-38457317D01*
X62812418Y-38810449D01*
X62908146Y-39155229D01*
X62908148Y-39155234D01*
X63040604Y-39487673D01*
X63208215Y-39803822D01*
X63409032Y-40100004D01*
X63409039Y-40100014D01*
X63536441Y-40250002D01*
X64745746Y-39040696D01*
X64819588Y-39142330D01*
X64997670Y-39320412D01*
X65099300Y-39394251D01*
X63887256Y-40606296D01*
X63900488Y-40618829D01*
X64185358Y-40835382D01*
X64185363Y-40835385D01*
X64491980Y-41019871D01*
X64816744Y-41170123D01*
X65155868Y-41284387D01*
X65505330Y-41361310D01*
X65505329Y-41361310D01*
X65861078Y-41400000D01*
X66218922Y-41400000D01*
X66574670Y-41361310D01*
X66924130Y-41284387D01*
X66924132Y-41284387D01*
X67263255Y-41170123D01*
X67588019Y-41019871D01*
X67894636Y-40835385D01*
X67894641Y-40835382D01*
X68151668Y-40639996D01*
X81544659Y-40639996D01*
X81544659Y-40640003D01*
X81563974Y-40836126D01*
X81563975Y-40836129D01*
X81621187Y-41024730D01*
X81621188Y-41024732D01*
X81681814Y-41138154D01*
X81714090Y-41198538D01*
X81714092Y-41198540D01*
X81714093Y-41198542D01*
X81839112Y-41350878D01*
X81839121Y-41350887D01*
X81961489Y-41451312D01*
X81991462Y-41475910D01*
X82124353Y-41546942D01*
X82163190Y-41567701D01*
X82165273Y-41568814D01*
X82353868Y-41626024D01*
X82353870Y-41626024D01*
X82353873Y-41626025D01*
X82549997Y-41645341D01*
X82550000Y-41645341D01*
X82550003Y-41645341D01*
X82746126Y-41626025D01*
X82746127Y-41626024D01*
X82746132Y-41626024D01*
X82915082Y-41574773D01*
X82976255Y-41575974D01*
X83013824Y-41599506D01*
X95064814Y-53650496D01*
X95092591Y-53705013D01*
X95083020Y-53765445D01*
X95039755Y-53808710D01*
X94994810Y-53819500D01*
X89293856Y-53819500D01*
X89204712Y-53843386D01*
X89141304Y-53879995D01*
X89124785Y-53889532D01*
X88093822Y-54920493D01*
X88039306Y-54948270D01*
X87995081Y-54945226D01*
X87826132Y-54893975D01*
X87826126Y-54893974D01*
X87630003Y-54874659D01*
X87629997Y-54874659D01*
X87433873Y-54893974D01*
X87433870Y-54893975D01*
X87245269Y-54951187D01*
X87245267Y-54951188D01*
X87071467Y-55044087D01*
X87071457Y-55044093D01*
X86919121Y-55169112D01*
X86919112Y-55169121D01*
X86794093Y-55321457D01*
X86794087Y-55321467D01*
X86701188Y-55495267D01*
X86701187Y-55495269D01*
X86643975Y-55683870D01*
X86643974Y-55683873D01*
X86624659Y-55879996D01*
X86624659Y-55880003D01*
X86643974Y-56076126D01*
X86643975Y-56076129D01*
X86701187Y-56264730D01*
X86701188Y-56264732D01*
X86743464Y-56343824D01*
X86794090Y-56438538D01*
X86794092Y-56438540D01*
X86794093Y-56438542D01*
X86919112Y-56590878D01*
X86919121Y-56590887D01*
X87027027Y-56679443D01*
X87071462Y-56715910D01*
X87245273Y-56808814D01*
X87433868Y-56866024D01*
X87433870Y-56866024D01*
X87433873Y-56866025D01*
X87629997Y-56885341D01*
X87630000Y-56885341D01*
X87630003Y-56885341D01*
X87826126Y-56866025D01*
X87826127Y-56866024D01*
X87826132Y-56866024D01*
X88014727Y-56808814D01*
X88188538Y-56715910D01*
X88340883Y-56590883D01*
X88465910Y-56438538D01*
X88558814Y-56264727D01*
X88616024Y-56076132D01*
X88635341Y-55880000D01*
X88635128Y-55877835D01*
X88616025Y-55683873D01*
X88616024Y-55683871D01*
X88616024Y-55683870D01*
X88616024Y-55683868D01*
X88564772Y-55514914D01*
X88565973Y-55453744D01*
X88589506Y-55416175D01*
X89456187Y-54549496D01*
X89510703Y-54521719D01*
X89526190Y-54520500D01*
X93334811Y-54520500D01*
X93393002Y-54539407D01*
X93428966Y-54588907D01*
X93428966Y-54650093D01*
X93404814Y-54689504D01*
X93173823Y-54920493D01*
X93119307Y-54948270D01*
X93075082Y-54945226D01*
X92906132Y-54893975D01*
X92906126Y-54893974D01*
X92710003Y-54874659D01*
X92709997Y-54874659D01*
X92513873Y-54893974D01*
X92513870Y-54893975D01*
X92325269Y-54951187D01*
X92325267Y-54951188D01*
X92151467Y-55044087D01*
X92151457Y-55044093D01*
X91999121Y-55169112D01*
X91999112Y-55169121D01*
X91874093Y-55321457D01*
X91874087Y-55321467D01*
X91781188Y-55495267D01*
X91781187Y-55495269D01*
X91723975Y-55683870D01*
X91723974Y-55683873D01*
X91704659Y-55879996D01*
X91704659Y-55880003D01*
X91723974Y-56076126D01*
X91723975Y-56076129D01*
X91781187Y-56264730D01*
X91781188Y-56264732D01*
X91823464Y-56343824D01*
X91874090Y-56438538D01*
X91874092Y-56438540D01*
X91874093Y-56438542D01*
X91999112Y-56590878D01*
X91999121Y-56590887D01*
X92107027Y-56679443D01*
X92151462Y-56715910D01*
X92156463Y-56718583D01*
X92161340Y-56721190D01*
X92203747Y-56765296D01*
X92212130Y-56825904D01*
X92183287Y-56879865D01*
X92128236Y-56906566D01*
X92114672Y-56907500D01*
X91734189Y-56907500D01*
X91675998Y-56888593D01*
X91664185Y-56878504D01*
X91129506Y-56343824D01*
X91101729Y-56289307D01*
X91104772Y-56245083D01*
X91156024Y-56076132D01*
X91175341Y-55880000D01*
X91175128Y-55877835D01*
X91156025Y-55683873D01*
X91156024Y-55683870D01*
X91156024Y-55683868D01*
X91098814Y-55495273D01*
X91005910Y-55321462D01*
X90947648Y-55250470D01*
X90880887Y-55169121D01*
X90880878Y-55169112D01*
X90728542Y-55044093D01*
X90728540Y-55044092D01*
X90728538Y-55044090D01*
X90687618Y-55022218D01*
X90554732Y-54951188D01*
X90554730Y-54951187D01*
X90535079Y-54945226D01*
X90366132Y-54893976D01*
X90366129Y-54893975D01*
X90366126Y-54893974D01*
X90170003Y-54874659D01*
X90169997Y-54874659D01*
X89973873Y-54893974D01*
X89973870Y-54893975D01*
X89785269Y-54951187D01*
X89785267Y-54951188D01*
X89611467Y-55044087D01*
X89611457Y-55044093D01*
X89459121Y-55169112D01*
X89459112Y-55169121D01*
X89334093Y-55321457D01*
X89334087Y-55321467D01*
X89241188Y-55495267D01*
X89241187Y-55495269D01*
X89183975Y-55683870D01*
X89183974Y-55683873D01*
X89164659Y-55879996D01*
X89164659Y-55880003D01*
X89183974Y-56076126D01*
X89183975Y-56076129D01*
X89241187Y-56264730D01*
X89241188Y-56264732D01*
X89283464Y-56343824D01*
X89334090Y-56438538D01*
X89334092Y-56438540D01*
X89334093Y-56438542D01*
X89459112Y-56590878D01*
X89459121Y-56590887D01*
X89567027Y-56679443D01*
X89611462Y-56715910D01*
X89785273Y-56808814D01*
X89973868Y-56866024D01*
X89973870Y-56866024D01*
X89973873Y-56866025D01*
X90169997Y-56885341D01*
X90170000Y-56885341D01*
X90170003Y-56885341D01*
X90366126Y-56866025D01*
X90366127Y-56866024D01*
X90366132Y-56866024D01*
X90535082Y-56814773D01*
X90596255Y-56815974D01*
X90633823Y-56839506D01*
X90932814Y-57138496D01*
X90960592Y-57193013D01*
X90951021Y-57253445D01*
X90907756Y-57296710D01*
X90862811Y-57307500D01*
X87054190Y-57307500D01*
X86995999Y-57288593D01*
X86984186Y-57278504D01*
X86049506Y-56343824D01*
X86021729Y-56289307D01*
X86024772Y-56245083D01*
X86076024Y-56076132D01*
X86095341Y-55880000D01*
X86095128Y-55877835D01*
X86076025Y-55683873D01*
X86076024Y-55683870D01*
X86076024Y-55683868D01*
X86018814Y-55495273D01*
X85925910Y-55321462D01*
X85867648Y-55250470D01*
X85800887Y-55169121D01*
X85800878Y-55169112D01*
X85648542Y-55044093D01*
X85648540Y-55044092D01*
X85648538Y-55044090D01*
X85607618Y-55022218D01*
X85474732Y-54951188D01*
X85474730Y-54951187D01*
X85455079Y-54945226D01*
X85286132Y-54893976D01*
X85286129Y-54893975D01*
X85286126Y-54893974D01*
X85090003Y-54874659D01*
X85089997Y-54874659D01*
X84893873Y-54893974D01*
X84893870Y-54893975D01*
X84705269Y-54951187D01*
X84705267Y-54951188D01*
X84531467Y-55044087D01*
X84531457Y-55044093D01*
X84379121Y-55169112D01*
X84379112Y-55169121D01*
X84254093Y-55321457D01*
X84254087Y-55321467D01*
X84161188Y-55495267D01*
X84161187Y-55495269D01*
X84103975Y-55683870D01*
X84103974Y-55683873D01*
X84084659Y-55879996D01*
X84084659Y-55880003D01*
X84103974Y-56076126D01*
X84103975Y-56076129D01*
X84161187Y-56264730D01*
X84161188Y-56264732D01*
X84203464Y-56343824D01*
X84254090Y-56438538D01*
X84254092Y-56438540D01*
X84254093Y-56438542D01*
X84379112Y-56590878D01*
X84379121Y-56590887D01*
X84487027Y-56679443D01*
X84531462Y-56715910D01*
X84705273Y-56808814D01*
X84893868Y-56866024D01*
X84893870Y-56866024D01*
X84893873Y-56866025D01*
X85089997Y-56885341D01*
X85090000Y-56885341D01*
X85090003Y-56885341D01*
X85286126Y-56866025D01*
X85286127Y-56866024D01*
X85286132Y-56866024D01*
X85455082Y-56814773D01*
X85516255Y-56815974D01*
X85553824Y-56839506D01*
X86652788Y-57938470D01*
X86732712Y-57984614D01*
X86821856Y-58008500D01*
X86821857Y-58008500D01*
X86821858Y-58008500D01*
X110028142Y-58008500D01*
X110028144Y-58008500D01*
X110117288Y-57984614D01*
X110197212Y-57938470D01*
X112255682Y-55880000D01*
X121155153Y-55880000D01*
X121174525Y-56237317D01*
X121232418Y-56590449D01*
X121328146Y-56935229D01*
X121328148Y-56935234D01*
X121460604Y-57267673D01*
X121628215Y-57583822D01*
X121829032Y-57880004D01*
X121829039Y-57880014D01*
X121956441Y-58030002D01*
X123165746Y-56820696D01*
X123239588Y-56922330D01*
X123417670Y-57100412D01*
X123519300Y-57174251D01*
X122307256Y-58386296D01*
X122320488Y-58398829D01*
X122605358Y-58615382D01*
X122605363Y-58615385D01*
X122911980Y-58799871D01*
X123236744Y-58950123D01*
X123575868Y-59064387D01*
X123925330Y-59141310D01*
X123925329Y-59141310D01*
X124281078Y-59180000D01*
X124638922Y-59180000D01*
X124994670Y-59141310D01*
X125344130Y-59064387D01*
X125344132Y-59064387D01*
X125683255Y-58950123D01*
X126008019Y-58799871D01*
X126314636Y-58615385D01*
X126314641Y-58615382D01*
X126599500Y-58398839D01*
X126599512Y-58398828D01*
X126612742Y-58386296D01*
X125400698Y-57174252D01*
X125502330Y-57100412D01*
X125680412Y-56922330D01*
X125754252Y-56820698D01*
X126963557Y-58030003D01*
X127090962Y-57880011D01*
X127090966Y-57880007D01*
X127291784Y-57583822D01*
X127459395Y-57267673D01*
X127591851Y-56935234D01*
X127591853Y-56935229D01*
X127687581Y-56590449D01*
X127745474Y-56237317D01*
X127764846Y-55880000D01*
X127745474Y-55522682D01*
X127687581Y-55169550D01*
X127591853Y-54824770D01*
X127591851Y-54824765D01*
X127459395Y-54492326D01*
X127291784Y-54176177D01*
X127090967Y-53879995D01*
X127090960Y-53879985D01*
X126963556Y-53729995D01*
X125754250Y-54939300D01*
X125680412Y-54837670D01*
X125502330Y-54659588D01*
X125400696Y-54585747D01*
X126612742Y-53373702D01*
X126599511Y-53361170D01*
X126314641Y-53144617D01*
X126314636Y-53144614D01*
X126008019Y-52960128D01*
X125683255Y-52809876D01*
X125344131Y-52695612D01*
X124994669Y-52618689D01*
X124994670Y-52618689D01*
X124638922Y-52580000D01*
X124281078Y-52580000D01*
X123925329Y-52618689D01*
X123575869Y-52695612D01*
X123575867Y-52695612D01*
X123236744Y-52809876D01*
X122911980Y-52960128D01*
X122605363Y-53144614D01*
X122605358Y-53144617D01*
X122320495Y-53361164D01*
X122320473Y-53361183D01*
X122307256Y-53373702D01*
X123519301Y-54585747D01*
X123417670Y-54659588D01*
X123239588Y-54837670D01*
X123165747Y-54939301D01*
X121956441Y-53729995D01*
X121829039Y-53879985D01*
X121829032Y-53879995D01*
X121628215Y-54176177D01*
X121460604Y-54492326D01*
X121328148Y-54824765D01*
X121328146Y-54824770D01*
X121232418Y-55169550D01*
X121174525Y-55522682D01*
X121155153Y-55880000D01*
X112255682Y-55880000D01*
X114386186Y-53749496D01*
X114440703Y-53721719D01*
X114456190Y-53720500D01*
X114584170Y-53720500D01*
X114584174Y-53720500D01*
X114642299Y-53714251D01*
X114707568Y-53689907D01*
X114773776Y-53665213D01*
X114773776Y-53665212D01*
X114773778Y-53665212D01*
X114886116Y-53581116D01*
X114970212Y-53468778D01*
X115019251Y-53337299D01*
X115025500Y-53279174D01*
X115025500Y-52685826D01*
X115022195Y-52655081D01*
X115034775Y-52595202D01*
X115080148Y-52554154D01*
X115120628Y-52545500D01*
X115866310Y-52545500D01*
X115924501Y-52564407D01*
X115936314Y-52574496D01*
X116085504Y-52723686D01*
X116113281Y-52778203D01*
X116114500Y-52793690D01*
X116114500Y-53279170D01*
X116114499Y-53279170D01*
X116120748Y-53337293D01*
X116120750Y-53337304D01*
X116169786Y-53468776D01*
X116253880Y-53581111D01*
X116253884Y-53581116D01*
X116253887Y-53581118D01*
X116253888Y-53581119D01*
X116366223Y-53665213D01*
X116497695Y-53714249D01*
X116497696Y-53714249D01*
X116497701Y-53714251D01*
X116555826Y-53720500D01*
X116555830Y-53720500D01*
X117124170Y-53720500D01*
X117124174Y-53720500D01*
X117182299Y-53714251D01*
X117247568Y-53689907D01*
X117313776Y-53665213D01*
X117313776Y-53665212D01*
X117313778Y-53665212D01*
X117426116Y-53581116D01*
X117510212Y-53468778D01*
X117559251Y-53337299D01*
X117565500Y-53279174D01*
X117565500Y-52685826D01*
X117559251Y-52627701D01*
X117555890Y-52618689D01*
X117510213Y-52496223D01*
X117426119Y-52383888D01*
X117426118Y-52383887D01*
X117426116Y-52383884D01*
X117404887Y-52367992D01*
X117313776Y-52299786D01*
X117182304Y-52250750D01*
X117182299Y-52250749D01*
X117182297Y-52250748D01*
X117182293Y-52250748D01*
X117156011Y-52247922D01*
X117124174Y-52244500D01*
X117124170Y-52244500D01*
X116638690Y-52244500D01*
X116580499Y-52225593D01*
X116568687Y-52215504D01*
X116409976Y-52056794D01*
X116382198Y-52002277D01*
X116391769Y-51941845D01*
X116435034Y-51898580D01*
X116491429Y-51889648D01*
X116491543Y-51888589D01*
X116495459Y-51889010D01*
X116495466Y-51889009D01*
X116495485Y-51889012D01*
X116497698Y-51889249D01*
X116497701Y-51889251D01*
X116555826Y-51895500D01*
X116555830Y-51895500D01*
X117124170Y-51895500D01*
X117124174Y-51895500D01*
X117182299Y-51889251D01*
X117238240Y-51868386D01*
X117313776Y-51840213D01*
X117313776Y-51840212D01*
X117313778Y-51840212D01*
X117426116Y-51756116D01*
X117510212Y-51643778D01*
X117559251Y-51512299D01*
X117565500Y-51454174D01*
X117565500Y-50860826D01*
X117559251Y-50802701D01*
X117556448Y-50795186D01*
X117510213Y-50671223D01*
X117426119Y-50558888D01*
X117426118Y-50558887D01*
X117426116Y-50558884D01*
X117393665Y-50534591D01*
X117313776Y-50474786D01*
X117182304Y-50425750D01*
X117182299Y-50425749D01*
X117182297Y-50425748D01*
X117182293Y-50425748D01*
X117156011Y-50422922D01*
X117124174Y-50419500D01*
X117124170Y-50419500D01*
X116638690Y-50419500D01*
X116580499Y-50400593D01*
X116568686Y-50390504D01*
X116226306Y-50048124D01*
X115867712Y-49689530D01*
X115787788Y-49643386D01*
X115698644Y-49619500D01*
X115698642Y-49619500D01*
X111890062Y-49619500D01*
X111831871Y-49600593D01*
X111820058Y-49590504D01*
X111433262Y-49203708D01*
X110933084Y-48703530D01*
X110853160Y-48657386D01*
X110842419Y-48654508D01*
X110842415Y-48654506D01*
X110792710Y-48641188D01*
X110764016Y-48633500D01*
X110764014Y-48633500D01*
X108891507Y-48633500D01*
X108833316Y-48614593D01*
X108797352Y-48565093D01*
X108797352Y-48503907D01*
X108833316Y-48454407D01*
X108863887Y-48439431D01*
X108995200Y-48401280D01*
X108995201Y-48401280D01*
X109136552Y-48317685D01*
X109252685Y-48201552D01*
X109336280Y-48060201D01*
X109336280Y-48060200D01*
X109382100Y-47902489D01*
X109385000Y-47865636D01*
X109385000Y-47200001D01*
X109384999Y-47200000D01*
X108684000Y-47200000D01*
X108625809Y-47181093D01*
X108589845Y-47131593D01*
X108585000Y-47101000D01*
X108585000Y-46950001D01*
X108584999Y-46950000D01*
X108434000Y-46950000D01*
X108375809Y-46931093D01*
X108339845Y-46881593D01*
X108335000Y-46851000D01*
X108335000Y-46699999D01*
X108835000Y-46699999D01*
X108835001Y-46700000D01*
X109384999Y-46700000D01*
X109385000Y-46699999D01*
X109385000Y-46034363D01*
X109382100Y-45997510D01*
X109336280Y-45839799D01*
X109336280Y-45839798D01*
X109252685Y-45698447D01*
X109136552Y-45582314D01*
X108995201Y-45498719D01*
X108995202Y-45498719D01*
X108837491Y-45452900D01*
X108835000Y-45452702D01*
X108835000Y-46699999D01*
X108335000Y-46699999D01*
X108335000Y-45452703D01*
X108334999Y-45452702D01*
X108332508Y-45452900D01*
X108174798Y-45498719D01*
X108033447Y-45582314D01*
X107917314Y-45698447D01*
X107875451Y-45769234D01*
X107829555Y-45809697D01*
X107768641Y-45815455D01*
X107720236Y-45788844D01*
X107703342Y-45771950D01*
X107590304Y-45714354D01*
X107590305Y-45714354D01*
X107496522Y-45699500D01*
X107133479Y-45699500D01*
X107133476Y-45699501D01*
X107039700Y-45714352D01*
X107039695Y-45714354D01*
X106926659Y-45771949D01*
X106836949Y-45861659D01*
X106779354Y-45974694D01*
X106777781Y-45984628D01*
X106750002Y-46039143D01*
X106695484Y-46066920D01*
X106635053Y-46057346D01*
X106591789Y-46014081D01*
X106582219Y-45984623D01*
X106580647Y-45974700D01*
X106580646Y-45974698D01*
X106580646Y-45974696D01*
X106523050Y-45861658D01*
X106433342Y-45771950D01*
X106320304Y-45714354D01*
X106320305Y-45714354D01*
X106226522Y-45699500D01*
X105863479Y-45699500D01*
X105863476Y-45699501D01*
X105769700Y-45714352D01*
X105769695Y-45714354D01*
X105656659Y-45771949D01*
X105566949Y-45861659D01*
X105509354Y-45974694D01*
X105507781Y-45984628D01*
X105480002Y-46039143D01*
X105425484Y-46066920D01*
X105365053Y-46057346D01*
X105321789Y-46014081D01*
X105312219Y-45984623D01*
X105310647Y-45974700D01*
X105310646Y-45974698D01*
X105310646Y-45974696D01*
X105253050Y-45861658D01*
X105163342Y-45771950D01*
X105050304Y-45714354D01*
X105050305Y-45714354D01*
X104956522Y-45699500D01*
X104593479Y-45699500D01*
X104593476Y-45699501D01*
X104499700Y-45714352D01*
X104499695Y-45714354D01*
X104386659Y-45771949D01*
X104296949Y-45861659D01*
X104239354Y-45974694D01*
X104237781Y-45984628D01*
X104210002Y-46039143D01*
X104155484Y-46066920D01*
X104095053Y-46057346D01*
X104051789Y-46014081D01*
X104042219Y-45984623D01*
X104040647Y-45974700D01*
X104040646Y-45974698D01*
X104040646Y-45974696D01*
X103983050Y-45861658D01*
X103893342Y-45771950D01*
X103780304Y-45714354D01*
X103780305Y-45714354D01*
X103686522Y-45699500D01*
X103323479Y-45699500D01*
X103323476Y-45699501D01*
X103229700Y-45714352D01*
X103229695Y-45714354D01*
X103116659Y-45771949D01*
X103026949Y-45861659D01*
X102969354Y-45974694D01*
X102967781Y-45984628D01*
X102940002Y-46039143D01*
X102885484Y-46066920D01*
X102825053Y-46057346D01*
X102781789Y-46014081D01*
X102772219Y-45984623D01*
X102770647Y-45974700D01*
X102770646Y-45974698D01*
X102770646Y-45974696D01*
X102713050Y-45861658D01*
X102623342Y-45771950D01*
X102510304Y-45714354D01*
X102510305Y-45714354D01*
X102416522Y-45699500D01*
X102053479Y-45699500D01*
X102053476Y-45699501D01*
X101959700Y-45714352D01*
X101959695Y-45714354D01*
X101846659Y-45771949D01*
X101756949Y-45861659D01*
X101699354Y-45974694D01*
X101697781Y-45984628D01*
X101670002Y-46039143D01*
X101615484Y-46066920D01*
X101555053Y-46057346D01*
X101511789Y-46014081D01*
X101502219Y-45984623D01*
X101500647Y-45974700D01*
X101500646Y-45974698D01*
X101500646Y-45974696D01*
X101443050Y-45861658D01*
X101353342Y-45771950D01*
X101240304Y-45714354D01*
X101240305Y-45714354D01*
X101146522Y-45699500D01*
X100783479Y-45699500D01*
X100783476Y-45699501D01*
X100689700Y-45714352D01*
X100689695Y-45714354D01*
X100576659Y-45771949D01*
X100486949Y-45861659D01*
X100429354Y-45974694D01*
X100427781Y-45984628D01*
X100400002Y-46039143D01*
X100345484Y-46066920D01*
X100285053Y-46057346D01*
X100241789Y-46014081D01*
X100232219Y-45984623D01*
X100230647Y-45974700D01*
X100230646Y-45974698D01*
X100230646Y-45974696D01*
X100173050Y-45861658D01*
X100083342Y-45771950D01*
X99970304Y-45714354D01*
X99970305Y-45714354D01*
X99876522Y-45699500D01*
X99876519Y-45699500D01*
X99876239Y-45699500D01*
X99509592Y-45699501D01*
X99509592Y-45697421D01*
X99457553Y-45684785D01*
X99417938Y-45638156D01*
X99410500Y-45600508D01*
X99410500Y-45041188D01*
X99429407Y-44982997D01*
X99439490Y-44971190D01*
X101200881Y-43209798D01*
X101233638Y-43189727D01*
X101233361Y-43189183D01*
X101240286Y-43185654D01*
X101240298Y-43185646D01*
X101240304Y-43185646D01*
X101353342Y-43128050D01*
X101443050Y-43038342D01*
X101500646Y-42925304D01*
X101502218Y-42915374D01*
X101529993Y-42860860D01*
X101584508Y-42833080D01*
X101644941Y-42842650D01*
X101688207Y-42885913D01*
X101697780Y-42915371D01*
X101699353Y-42925302D01*
X101699354Y-42925304D01*
X101756950Y-43038342D01*
X101846658Y-43128050D01*
X101959696Y-43185646D01*
X102053481Y-43200500D01*
X102416518Y-43200499D01*
X102416520Y-43200499D01*
X102416521Y-43200498D01*
X102463411Y-43193072D01*
X102510299Y-43185647D01*
X102510299Y-43185646D01*
X102510304Y-43185646D01*
X102623342Y-43128050D01*
X102640235Y-43111156D01*
X102694749Y-43083379D01*
X102755181Y-43092949D01*
X102795452Y-43130765D01*
X102837316Y-43201554D01*
X102953447Y-43317685D01*
X103094799Y-43401280D01*
X103252506Y-43447098D01*
X103252513Y-43447100D01*
X103255000Y-43447295D01*
X103255000Y-40452703D01*
X103254999Y-40452702D01*
X103252508Y-40452900D01*
X103094798Y-40498719D01*
X102953447Y-40582314D01*
X102837314Y-40698447D01*
X102795451Y-40769234D01*
X102749555Y-40809697D01*
X102688641Y-40815455D01*
X102640236Y-40788844D01*
X102623342Y-40771950D01*
X102623339Y-40771948D01*
X102617832Y-40766441D01*
X102619515Y-40764757D01*
X102590344Y-40724601D01*
X102585500Y-40694013D01*
X102585500Y-36910858D01*
X102585500Y-36910856D01*
X102577941Y-36882646D01*
X102581143Y-36821546D01*
X102584947Y-36812896D01*
X102630582Y-36721250D01*
X102686397Y-36525083D01*
X102705215Y-36322000D01*
X103034785Y-36322000D01*
X103053603Y-36525083D01*
X103109418Y-36721250D01*
X103200327Y-36903821D01*
X103323236Y-37066579D01*
X103473959Y-37203981D01*
X103647363Y-37311348D01*
X103837544Y-37385024D01*
X104038024Y-37422500D01*
X104241976Y-37422500D01*
X104307309Y-37410287D01*
X104367983Y-37418179D01*
X104412430Y-37460228D01*
X104424500Y-37507601D01*
X104424500Y-40694013D01*
X104405593Y-40752204D01*
X104391760Y-40766036D01*
X104392166Y-40766442D01*
X104369763Y-40788844D01*
X104315246Y-40816620D01*
X104254814Y-40807048D01*
X104214547Y-40769234D01*
X104172683Y-40698445D01*
X104056552Y-40582314D01*
X103915201Y-40498719D01*
X103915202Y-40498719D01*
X103757491Y-40452900D01*
X103755000Y-40452702D01*
X103755000Y-43447295D01*
X103757486Y-43447100D01*
X103757493Y-43447098D01*
X103915200Y-43401280D01*
X103915201Y-43401280D01*
X104056552Y-43317685D01*
X104172684Y-43201553D01*
X104214547Y-43130766D01*
X104260442Y-43090303D01*
X104321356Y-43084544D01*
X104369762Y-43111154D01*
X104386658Y-43128050D01*
X104499696Y-43185646D01*
X104593481Y-43200500D01*
X104956518Y-43200499D01*
X104956520Y-43200499D01*
X104956521Y-43200498D01*
X105003411Y-43193072D01*
X105050299Y-43185647D01*
X105050299Y-43185646D01*
X105050304Y-43185646D01*
X105163342Y-43128050D01*
X105253050Y-43038342D01*
X105310646Y-42925304D01*
X105312218Y-42915374D01*
X105339993Y-42860860D01*
X105394508Y-42833080D01*
X105454941Y-42842650D01*
X105498207Y-42885913D01*
X105507780Y-42915371D01*
X105509353Y-42925302D01*
X105509354Y-42925304D01*
X105566950Y-43038342D01*
X105656658Y-43128050D01*
X105769696Y-43185646D01*
X105863481Y-43200500D01*
X106226518Y-43200499D01*
X106226520Y-43200499D01*
X106226521Y-43200498D01*
X106273411Y-43193072D01*
X106320299Y-43185647D01*
X106320299Y-43185646D01*
X106320304Y-43185646D01*
X106433342Y-43128050D01*
X106523050Y-43038342D01*
X106580646Y-42925304D01*
X106582218Y-42915374D01*
X106609993Y-42860860D01*
X106664508Y-42833080D01*
X106724941Y-42842650D01*
X106768207Y-42885913D01*
X106777780Y-42915371D01*
X106779353Y-42925302D01*
X106779354Y-42925304D01*
X106836950Y-43038342D01*
X106926658Y-43128050D01*
X107039696Y-43185646D01*
X107133481Y-43200500D01*
X107496518Y-43200499D01*
X107496520Y-43200499D01*
X107496521Y-43200498D01*
X107543411Y-43193072D01*
X107590299Y-43185647D01*
X107590299Y-43185646D01*
X107590304Y-43185646D01*
X107703342Y-43128050D01*
X107793050Y-43038342D01*
X107850646Y-42925304D01*
X107852218Y-42915374D01*
X107879993Y-42860860D01*
X107934508Y-42833080D01*
X107994941Y-42842650D01*
X108038207Y-42885913D01*
X108047780Y-42915371D01*
X108049353Y-42925302D01*
X108049354Y-42925304D01*
X108106950Y-43038342D01*
X108196658Y-43128050D01*
X108309696Y-43185646D01*
X108403481Y-43200500D01*
X108766518Y-43200499D01*
X108766520Y-43200499D01*
X108766521Y-43200498D01*
X108813411Y-43193072D01*
X108860299Y-43185647D01*
X108860299Y-43185646D01*
X108860304Y-43185646D01*
X108973342Y-43128050D01*
X109063050Y-43038342D01*
X109120646Y-42925304D01*
X109135500Y-42831519D01*
X109135500Y-42194170D01*
X112649499Y-42194170D01*
X112655748Y-42252293D01*
X112655750Y-42252304D01*
X112704786Y-42383776D01*
X112786528Y-42492969D01*
X112788884Y-42496116D01*
X112788887Y-42496118D01*
X112788888Y-42496119D01*
X112901223Y-42580213D01*
X112972596Y-42606833D01*
X113020511Y-42644883D01*
X113037000Y-42699591D01*
X113037000Y-45642894D01*
X113018093Y-45701085D01*
X112982946Y-45731103D01*
X112973898Y-45735712D01*
X112961659Y-45741949D01*
X112871949Y-45831659D01*
X112814354Y-45944695D01*
X112799500Y-46038478D01*
X112799500Y-47276521D01*
X112799501Y-47276523D01*
X112814352Y-47370299D01*
X112814354Y-47370304D01*
X112871950Y-47483342D01*
X112961658Y-47573050D01*
X113013473Y-47599451D01*
X113056736Y-47642714D01*
X113066307Y-47703146D01*
X113038530Y-47757662D01*
X113011784Y-47775535D01*
X113011993Y-47775896D01*
X113006492Y-47779071D01*
X113006423Y-47779118D01*
X113006383Y-47779134D01*
X113006374Y-47779139D01*
X112891381Y-47867377D01*
X112891377Y-47867381D01*
X112803139Y-47982374D01*
X112803137Y-47982378D01*
X112747670Y-48116290D01*
X112747669Y-48116291D01*
X112728750Y-48259999D01*
X112728750Y-48260000D01*
X112747669Y-48403708D01*
X112747670Y-48403709D01*
X112791697Y-48510003D01*
X112803139Y-48537625D01*
X112891379Y-48652621D01*
X113006375Y-48740861D01*
X113140291Y-48796330D01*
X113284000Y-48815250D01*
X113427709Y-48796330D01*
X113561625Y-48740861D01*
X113676621Y-48652621D01*
X113764861Y-48537625D01*
X113820330Y-48403709D01*
X113839250Y-48260000D01*
X113838693Y-48255770D01*
X113849839Y-48195610D01*
X113866837Y-48172843D01*
X114530497Y-47509184D01*
X114585013Y-47481408D01*
X114645445Y-47490979D01*
X114688710Y-47534244D01*
X114699500Y-47579189D01*
X114699500Y-48217431D01*
X114698653Y-48230353D01*
X114694750Y-48259999D01*
X114698653Y-48289644D01*
X114699500Y-48302567D01*
X114699500Y-48332474D01*
X114707241Y-48361365D01*
X114709767Y-48374064D01*
X114713669Y-48403705D01*
X114713671Y-48403711D01*
X114725113Y-48431335D01*
X114729272Y-48443586D01*
X114737016Y-48472485D01*
X114737017Y-48472486D01*
X114737017Y-48472487D01*
X114751968Y-48498385D01*
X114757693Y-48509994D01*
X114769139Y-48537626D01*
X114787343Y-48561350D01*
X114794536Y-48572114D01*
X114809491Y-48598015D01*
X114830635Y-48619159D01*
X114839173Y-48628895D01*
X114857378Y-48652620D01*
X114857379Y-48652621D01*
X114857382Y-48652623D01*
X114881099Y-48670822D01*
X114890834Y-48679359D01*
X114911983Y-48700507D01*
X114911985Y-48700509D01*
X114937888Y-48715464D01*
X114948642Y-48722650D01*
X114972375Y-48740861D01*
X114999995Y-48752301D01*
X115000007Y-48752306D01*
X115011623Y-48758035D01*
X115037510Y-48772982D01*
X115037513Y-48772983D01*
X115037515Y-48772984D01*
X115066408Y-48780725D01*
X115078666Y-48784887D01*
X115106288Y-48796329D01*
X115106291Y-48796330D01*
X115135934Y-48800232D01*
X115148623Y-48802755D01*
X115177525Y-48810500D01*
X115207432Y-48810500D01*
X115220354Y-48811347D01*
X115250000Y-48815250D01*
X115279646Y-48811347D01*
X115292568Y-48810500D01*
X115322474Y-48810500D01*
X115322475Y-48810500D01*
X115351372Y-48802756D01*
X115364066Y-48800231D01*
X115393709Y-48796330D01*
X115421349Y-48784880D01*
X115433589Y-48780725D01*
X115462485Y-48772984D01*
X115474649Y-48765960D01*
X115488382Y-48758032D01*
X115499994Y-48752305D01*
X115527625Y-48740861D01*
X115551358Y-48722649D01*
X115562105Y-48715467D01*
X115588015Y-48700509D01*
X115609158Y-48679364D01*
X115618896Y-48670825D01*
X115626778Y-48664777D01*
X115642621Y-48652621D01*
X115660826Y-48628894D01*
X115669366Y-48619157D01*
X115673930Y-48614593D01*
X115690509Y-48598015D01*
X115705467Y-48572105D01*
X115712649Y-48561358D01*
X115730861Y-48537625D01*
X115742305Y-48509994D01*
X115748032Y-48498382D01*
X115762982Y-48472488D01*
X115762984Y-48472485D01*
X115770725Y-48443589D01*
X115774880Y-48431349D01*
X115786330Y-48403709D01*
X115790232Y-48374064D01*
X115792758Y-48361365D01*
X115800500Y-48332475D01*
X115800500Y-48302567D01*
X115801347Y-48289644D01*
X115805250Y-48259999D01*
X115801347Y-48230353D01*
X115800500Y-48217431D01*
X115800500Y-46577051D01*
X115800499Y-46577037D01*
X115800499Y-46038478D01*
X115800498Y-46038476D01*
X115785647Y-45944700D01*
X115785646Y-45944698D01*
X115785646Y-45944696D01*
X115728050Y-45831658D01*
X115638342Y-45741950D01*
X115525304Y-45684354D01*
X115525305Y-45684354D01*
X115431522Y-45669500D01*
X115068479Y-45669500D01*
X115068476Y-45669501D01*
X114974700Y-45684352D01*
X114974697Y-45684353D01*
X114928266Y-45708011D01*
X114867833Y-45717582D01*
X114813317Y-45689804D01*
X114785540Y-45635287D01*
X114795111Y-45574856D01*
X114835646Y-45495304D01*
X114850500Y-45401519D01*
X114850499Y-44163482D01*
X114850499Y-44163481D01*
X114850499Y-44163478D01*
X114850498Y-44163476D01*
X114835647Y-44069700D01*
X114835646Y-44069698D01*
X114835646Y-44069696D01*
X114778050Y-43956658D01*
X114688342Y-43866950D01*
X114575304Y-43809354D01*
X114575305Y-43809354D01*
X114481522Y-43794500D01*
X114118479Y-43794500D01*
X114118476Y-43794501D01*
X114024700Y-43809352D01*
X114024695Y-43809354D01*
X113911659Y-43866949D01*
X113911658Y-43866949D01*
X113911658Y-43866950D01*
X113907001Y-43871606D01*
X113852487Y-43899382D01*
X113792055Y-43889811D01*
X113748790Y-43846546D01*
X113738000Y-43801601D01*
X113738000Y-42699591D01*
X113756907Y-42641400D01*
X113802404Y-42606833D01*
X113873776Y-42580213D01*
X113873776Y-42580212D01*
X113873778Y-42580212D01*
X113986116Y-42496116D01*
X114070212Y-42383778D01*
X114119251Y-42252299D01*
X114125500Y-42194174D01*
X114125500Y-41625826D01*
X114119251Y-41567701D01*
X114116057Y-41559137D01*
X114070213Y-41436223D01*
X113986119Y-41323888D01*
X113986118Y-41323887D01*
X113986116Y-41323884D01*
X113980920Y-41319994D01*
X113873776Y-41239786D01*
X113742304Y-41190750D01*
X113742299Y-41190749D01*
X113742297Y-41190748D01*
X113742293Y-41190748D01*
X113716011Y-41187922D01*
X113684174Y-41184500D01*
X113090826Y-41184500D01*
X113062823Y-41187510D01*
X113032706Y-41190748D01*
X113032695Y-41190750D01*
X112901223Y-41239786D01*
X112788888Y-41323880D01*
X112788880Y-41323888D01*
X112704786Y-41436223D01*
X112655750Y-41567695D01*
X112655748Y-41567706D01*
X112649500Y-41625829D01*
X112649500Y-42194170D01*
X112649499Y-42194170D01*
X109135500Y-42194170D01*
X109135499Y-41068482D01*
X109135499Y-41068481D01*
X109135499Y-41068478D01*
X109135498Y-41068476D01*
X109120647Y-40974700D01*
X109120646Y-40974698D01*
X109120646Y-40974696D01*
X109063050Y-40861658D01*
X108973342Y-40771950D01*
X108860304Y-40714354D01*
X108860305Y-40714354D01*
X108766522Y-40699500D01*
X108403479Y-40699500D01*
X108403476Y-40699501D01*
X108309700Y-40714352D01*
X108309695Y-40714354D01*
X108196659Y-40771949D01*
X108106949Y-40861659D01*
X108052709Y-40968110D01*
X108009444Y-41011374D01*
X107949012Y-41020945D01*
X107894496Y-40993167D01*
X107866719Y-40938650D01*
X107865500Y-40923164D01*
X107865500Y-40174567D01*
X107866347Y-40161644D01*
X107870250Y-40131999D01*
X107866347Y-40102353D01*
X107865500Y-40089431D01*
X107865500Y-40059526D01*
X107865500Y-40059525D01*
X107857755Y-40030623D01*
X107855231Y-40017929D01*
X107851330Y-39988291D01*
X107851329Y-39988288D01*
X107839887Y-39960666D01*
X107835725Y-39948408D01*
X107827984Y-39919515D01*
X107827983Y-39919513D01*
X107827982Y-39919510D01*
X107813035Y-39893623D01*
X107807306Y-39882007D01*
X107795861Y-39854375D01*
X107777650Y-39830641D01*
X107770464Y-39819888D01*
X107755509Y-39793985D01*
X107750431Y-39788907D01*
X107734359Y-39772834D01*
X107725822Y-39763099D01*
X107707620Y-39739378D01*
X107683895Y-39721173D01*
X107674159Y-39712635D01*
X107653015Y-39691491D01*
X107627114Y-39676536D01*
X107616350Y-39669343D01*
X107592626Y-39651139D01*
X107564994Y-39639693D01*
X107553385Y-39633968D01*
X107527487Y-39619017D01*
X107527486Y-39619016D01*
X107527485Y-39619016D01*
X107498586Y-39611272D01*
X107486335Y-39607113D01*
X107458709Y-39595670D01*
X107458707Y-39595669D01*
X107458705Y-39595669D01*
X107429064Y-39591767D01*
X107416365Y-39589241D01*
X107413090Y-39588363D01*
X107387475Y-39581500D01*
X107387474Y-39581500D01*
X107357568Y-39581500D01*
X107344646Y-39580653D01*
X107315000Y-39576750D01*
X107285354Y-39580653D01*
X107272432Y-39581500D01*
X107242525Y-39581500D01*
X107237752Y-39582779D01*
X107213631Y-39589241D01*
X107200938Y-39591766D01*
X107171290Y-39595670D01*
X107171284Y-39595672D01*
X107143656Y-39607115D01*
X107131398Y-39611276D01*
X107102517Y-39619015D01*
X107102512Y-39619017D01*
X107076622Y-39633964D01*
X107065014Y-39639689D01*
X107037374Y-39651138D01*
X107013641Y-39669348D01*
X107002885Y-39676535D01*
X106976985Y-39691490D01*
X106955840Y-39712635D01*
X106946108Y-39721170D01*
X106922382Y-39739376D01*
X106922376Y-39739382D01*
X106904170Y-39763108D01*
X106895635Y-39772840D01*
X106874490Y-39793985D01*
X106859535Y-39819885D01*
X106852348Y-39830641D01*
X106834138Y-39854374D01*
X106822689Y-39882014D01*
X106816964Y-39893622D01*
X106802017Y-39919512D01*
X106802015Y-39919517D01*
X106794276Y-39948398D01*
X106790115Y-39960656D01*
X106778672Y-39988284D01*
X106778670Y-39988290D01*
X106774766Y-40017938D01*
X106772241Y-40030631D01*
X106764500Y-40059525D01*
X106764500Y-40089431D01*
X106763653Y-40102353D01*
X106759750Y-40131999D01*
X106763653Y-40161644D01*
X106764500Y-40174567D01*
X106764500Y-40923164D01*
X106745593Y-40981355D01*
X106696093Y-41017319D01*
X106634907Y-41017319D01*
X106585407Y-40981355D01*
X106577291Y-40968110D01*
X106544994Y-40904726D01*
X106523050Y-40861658D01*
X106433342Y-40771950D01*
X106433339Y-40771948D01*
X106427832Y-40766441D01*
X106429515Y-40764757D01*
X106400344Y-40724601D01*
X106395500Y-40694013D01*
X106395500Y-37507601D01*
X106414407Y-37449410D01*
X106463907Y-37413446D01*
X106512691Y-37410287D01*
X106578024Y-37422500D01*
X106781976Y-37422500D01*
X106982456Y-37385024D01*
X107172637Y-37311348D01*
X107346041Y-37203981D01*
X107496764Y-37066579D01*
X107619673Y-36903821D01*
X107710582Y-36721250D01*
X107766397Y-36525083D01*
X107785215Y-36322000D01*
X108114785Y-36322000D01*
X108133603Y-36525083D01*
X108189418Y-36721250D01*
X108280327Y-36903821D01*
X108403236Y-37066579D01*
X108553959Y-37203981D01*
X108727363Y-37311348D01*
X108917544Y-37385024D01*
X109118024Y-37422500D01*
X109321976Y-37422500D01*
X109522456Y-37385024D01*
X109653228Y-37334362D01*
X109714316Y-37330973D01*
X109758992Y-37356674D01*
X111074788Y-38672470D01*
X111154712Y-38718614D01*
X111243856Y-38742500D01*
X113605810Y-38742500D01*
X113664001Y-38761407D01*
X113675814Y-38771496D01*
X114833004Y-39928685D01*
X114860781Y-39983202D01*
X114862000Y-39998689D01*
X114862000Y-41120408D01*
X114843093Y-41178599D01*
X114797597Y-41213166D01*
X114726222Y-41239787D01*
X114613888Y-41323880D01*
X114613880Y-41323888D01*
X114529786Y-41436223D01*
X114480750Y-41567695D01*
X114480748Y-41567706D01*
X114474500Y-41625829D01*
X114474500Y-42194170D01*
X114474499Y-42194170D01*
X114480748Y-42252293D01*
X114480750Y-42252304D01*
X114529786Y-42383776D01*
X114611528Y-42492969D01*
X114613884Y-42496116D01*
X114613887Y-42496118D01*
X114613888Y-42496119D01*
X114726223Y-42580213D01*
X114857695Y-42629249D01*
X114857696Y-42629249D01*
X114857701Y-42629251D01*
X114915826Y-42635500D01*
X114915830Y-42635500D01*
X115509170Y-42635500D01*
X115509174Y-42635500D01*
X115567299Y-42629251D01*
X115627404Y-42606833D01*
X115698776Y-42580213D01*
X115698776Y-42580212D01*
X115698778Y-42580212D01*
X115811116Y-42496116D01*
X115895212Y-42383778D01*
X115944251Y-42252299D01*
X115950500Y-42194174D01*
X115950500Y-41625826D01*
X115944251Y-41567701D01*
X115941057Y-41559137D01*
X115895213Y-41436223D01*
X115811119Y-41323888D01*
X115811118Y-41323887D01*
X115811116Y-41323884D01*
X115799486Y-41315178D01*
X115698777Y-41239787D01*
X115627403Y-41213166D01*
X115579489Y-41175115D01*
X115563000Y-41120408D01*
X115563000Y-39766357D01*
X115563000Y-39766356D01*
X115539114Y-39677212D01*
X115514144Y-39633964D01*
X115492970Y-39597289D01*
X115492968Y-39597287D01*
X115427712Y-39532030D01*
X115427712Y-39532031D01*
X114407186Y-38511504D01*
X114379409Y-38456987D01*
X114388980Y-38396555D01*
X114432245Y-38353290D01*
X114477190Y-38342500D01*
X116188310Y-38342500D01*
X116246501Y-38361407D01*
X116258314Y-38371496D01*
X118910023Y-41023205D01*
X118937800Y-41077722D01*
X118928229Y-41138154D01*
X118884964Y-41181419D01*
X118828571Y-41190350D01*
X118828457Y-41191411D01*
X118824535Y-41190989D01*
X118824532Y-41190990D01*
X118824521Y-41190987D01*
X118783883Y-41186618D01*
X118764174Y-41184500D01*
X118170826Y-41184500D01*
X118142823Y-41187510D01*
X118112706Y-41190748D01*
X118112695Y-41190750D01*
X117981223Y-41239786D01*
X117868888Y-41323880D01*
X117868880Y-41323888D01*
X117784786Y-41436223D01*
X117735750Y-41567695D01*
X117735748Y-41567706D01*
X117729500Y-41625829D01*
X117729500Y-42194170D01*
X117729499Y-42194170D01*
X117735748Y-42252293D01*
X117735750Y-42252304D01*
X117784786Y-42383776D01*
X117866528Y-42492969D01*
X117868884Y-42496116D01*
X117868887Y-42496118D01*
X117868888Y-42496119D01*
X117981223Y-42580213D01*
X118052596Y-42606833D01*
X118100511Y-42644883D01*
X118117000Y-42699591D01*
X118117000Y-45642894D01*
X118098093Y-45701085D01*
X118062946Y-45731103D01*
X118053898Y-45735712D01*
X118041659Y-45741949D01*
X117951949Y-45831659D01*
X117894354Y-45944695D01*
X117879500Y-46038478D01*
X117879500Y-47276521D01*
X117879501Y-47276523D01*
X117894352Y-47370299D01*
X117894354Y-47370304D01*
X117951950Y-47483342D01*
X118041658Y-47573050D01*
X118154696Y-47630646D01*
X118248481Y-47645500D01*
X118611518Y-47645499D01*
X118611520Y-47645499D01*
X118611521Y-47645498D01*
X118658411Y-47638072D01*
X118705299Y-47630647D01*
X118705299Y-47630646D01*
X118705304Y-47630646D01*
X118818342Y-47573050D01*
X118860498Y-47530893D01*
X118915013Y-47503118D01*
X118975445Y-47512689D01*
X119018710Y-47555954D01*
X119029500Y-47600899D01*
X119029500Y-48586236D01*
X119010593Y-48644427D01*
X118990769Y-48664777D01*
X118987381Y-48667376D01*
X118899139Y-48782374D01*
X118899137Y-48782378D01*
X118843670Y-48916290D01*
X118843669Y-48916291D01*
X118824750Y-49059999D01*
X118824750Y-49060000D01*
X118843669Y-49203708D01*
X118843670Y-49203709D01*
X118899139Y-49337625D01*
X118987379Y-49452621D01*
X119102375Y-49540861D01*
X119236291Y-49596330D01*
X119380000Y-49615250D01*
X119523709Y-49596330D01*
X119657625Y-49540861D01*
X119772621Y-49452621D01*
X119860861Y-49337625D01*
X119916330Y-49203709D01*
X119935250Y-49060000D01*
X119916330Y-48916291D01*
X119887811Y-48847441D01*
X119883011Y-48786445D01*
X119914981Y-48734277D01*
X119971509Y-48710862D01*
X120031004Y-48725146D01*
X120039540Y-48731013D01*
X120052375Y-48740861D01*
X120079995Y-48752301D01*
X120080007Y-48752306D01*
X120091623Y-48758035D01*
X120117510Y-48772982D01*
X120117513Y-48772983D01*
X120117515Y-48772984D01*
X120146408Y-48780725D01*
X120158666Y-48784887D01*
X120186288Y-48796329D01*
X120186291Y-48796330D01*
X120215934Y-48800232D01*
X120228623Y-48802755D01*
X120257525Y-48810500D01*
X120287432Y-48810500D01*
X120300354Y-48811347D01*
X120330000Y-48815250D01*
X120359646Y-48811347D01*
X120372568Y-48810500D01*
X120402474Y-48810500D01*
X120402475Y-48810500D01*
X120431372Y-48802756D01*
X120444066Y-48800231D01*
X120473709Y-48796330D01*
X120501349Y-48784880D01*
X120513589Y-48780725D01*
X120542485Y-48772984D01*
X120554649Y-48765960D01*
X120568382Y-48758032D01*
X120579994Y-48752305D01*
X120607625Y-48740861D01*
X120631358Y-48722649D01*
X120642105Y-48715467D01*
X120668015Y-48700509D01*
X120689158Y-48679364D01*
X120698896Y-48670825D01*
X120706778Y-48664777D01*
X120722621Y-48652621D01*
X120740826Y-48628894D01*
X120749366Y-48619157D01*
X120753930Y-48614593D01*
X120770509Y-48598015D01*
X120785467Y-48572105D01*
X120792649Y-48561358D01*
X120810861Y-48537625D01*
X120822305Y-48509994D01*
X120828032Y-48498382D01*
X120842982Y-48472488D01*
X120842984Y-48472485D01*
X120850725Y-48443589D01*
X120854880Y-48431349D01*
X120866330Y-48403709D01*
X120870232Y-48374064D01*
X120872758Y-48361365D01*
X120880500Y-48332475D01*
X120880500Y-48302567D01*
X120881347Y-48289644D01*
X120885250Y-48259999D01*
X120881347Y-48230353D01*
X120880500Y-48217431D01*
X120880500Y-46577051D01*
X120880499Y-46577037D01*
X120880499Y-46038478D01*
X120880498Y-46038476D01*
X120865647Y-45944700D01*
X120865646Y-45944698D01*
X120865646Y-45944696D01*
X120808050Y-45831658D01*
X120718342Y-45741950D01*
X120605304Y-45684354D01*
X120605305Y-45684354D01*
X120511522Y-45669500D01*
X120148479Y-45669500D01*
X120148476Y-45669501D01*
X120054700Y-45684352D01*
X120054697Y-45684353D01*
X120008266Y-45708011D01*
X119947833Y-45717582D01*
X119893317Y-45689804D01*
X119865540Y-45635287D01*
X119875111Y-45574856D01*
X119915646Y-45495304D01*
X119930500Y-45401519D01*
X119930499Y-44163482D01*
X119930499Y-44163481D01*
X119930499Y-44163478D01*
X119930498Y-44163476D01*
X119915647Y-44069700D01*
X119915646Y-44069698D01*
X119915646Y-44069696D01*
X119858050Y-43956658D01*
X119768342Y-43866950D01*
X119655304Y-43809354D01*
X119655305Y-43809354D01*
X119561522Y-43794500D01*
X119198479Y-43794500D01*
X119198476Y-43794501D01*
X119104700Y-43809352D01*
X119104695Y-43809354D01*
X118991659Y-43866949D01*
X118991658Y-43866949D01*
X118991658Y-43866950D01*
X118987001Y-43871606D01*
X118932487Y-43899382D01*
X118872055Y-43889811D01*
X118828790Y-43846546D01*
X118818000Y-43801601D01*
X118818000Y-42699591D01*
X118836907Y-42641400D01*
X118882404Y-42606833D01*
X118953776Y-42580213D01*
X118953776Y-42580212D01*
X118953778Y-42580212D01*
X119066116Y-42496116D01*
X119150212Y-42383778D01*
X119199251Y-42252299D01*
X119205500Y-42194174D01*
X119205500Y-41625826D01*
X119199251Y-41567701D01*
X119198589Y-41561543D01*
X119201394Y-41561241D01*
X119205455Y-41511784D01*
X119245349Y-41465394D01*
X119304892Y-41451312D01*
X119361340Y-41474918D01*
X119366794Y-41479976D01*
X119525504Y-41638686D01*
X119553281Y-41693203D01*
X119554500Y-41708690D01*
X119554500Y-42194170D01*
X119554499Y-42194170D01*
X119560748Y-42252293D01*
X119560750Y-42252304D01*
X119609786Y-42383776D01*
X119691528Y-42492969D01*
X119693884Y-42496116D01*
X119693887Y-42496118D01*
X119693888Y-42496119D01*
X119806223Y-42580213D01*
X119937695Y-42629249D01*
X119937696Y-42629249D01*
X119937701Y-42629251D01*
X119995826Y-42635500D01*
X119995830Y-42635500D01*
X120589170Y-42635500D01*
X120589174Y-42635500D01*
X120647299Y-42629251D01*
X120707404Y-42606833D01*
X120778776Y-42580213D01*
X120778776Y-42580212D01*
X120778778Y-42580212D01*
X120891116Y-42496116D01*
X120975212Y-42383778D01*
X121024251Y-42252299D01*
X121030500Y-42194174D01*
X121030500Y-41625826D01*
X121024251Y-41567701D01*
X121021057Y-41559137D01*
X120975213Y-41436223D01*
X120891119Y-41323888D01*
X120891118Y-41323887D01*
X120891116Y-41323884D01*
X120885920Y-41319994D01*
X120778776Y-41239786D01*
X120647304Y-41190750D01*
X120647299Y-41190749D01*
X120647297Y-41190748D01*
X120647293Y-41190748D01*
X120621011Y-41187922D01*
X120589174Y-41184500D01*
X120589170Y-41184500D01*
X120103690Y-41184500D01*
X120045499Y-41165593D01*
X120033686Y-41155504D01*
X116989686Y-38111504D01*
X116961909Y-38056987D01*
X116971480Y-37996555D01*
X117014745Y-37953290D01*
X117059690Y-37942500D01*
X120868310Y-37942500D01*
X120926501Y-37961407D01*
X120938314Y-37971496D01*
X123990023Y-41023205D01*
X124017800Y-41077722D01*
X124008229Y-41138154D01*
X123964964Y-41181419D01*
X123908571Y-41190350D01*
X123908457Y-41191411D01*
X123904535Y-41190989D01*
X123904532Y-41190990D01*
X123904521Y-41190987D01*
X123863883Y-41186618D01*
X123844174Y-41184500D01*
X123250826Y-41184500D01*
X123222823Y-41187510D01*
X123192706Y-41190748D01*
X123192695Y-41190750D01*
X123061223Y-41239786D01*
X122948888Y-41323880D01*
X122948880Y-41323888D01*
X122864786Y-41436223D01*
X122815750Y-41567695D01*
X122815748Y-41567706D01*
X122809500Y-41625829D01*
X122809500Y-42194170D01*
X122809499Y-42194170D01*
X122815748Y-42252293D01*
X122815750Y-42252304D01*
X122864786Y-42383776D01*
X122946528Y-42492969D01*
X122948884Y-42496116D01*
X122948887Y-42496118D01*
X122948888Y-42496119D01*
X123061223Y-42580213D01*
X123132596Y-42606833D01*
X123180511Y-42644883D01*
X123197000Y-42699591D01*
X123197000Y-45642894D01*
X123178093Y-45701085D01*
X123142946Y-45731103D01*
X123133898Y-45735712D01*
X123121659Y-45741949D01*
X123031949Y-45831659D01*
X122974354Y-45944695D01*
X122959500Y-46038478D01*
X122959500Y-47276521D01*
X122959501Y-47276523D01*
X122974352Y-47370299D01*
X122974354Y-47370304D01*
X123031950Y-47483342D01*
X123121658Y-47573050D01*
X123234696Y-47630646D01*
X123328481Y-47645500D01*
X123691518Y-47645499D01*
X123691520Y-47645499D01*
X123691521Y-47645498D01*
X123738411Y-47638072D01*
X123785299Y-47630647D01*
X123785299Y-47630646D01*
X123785304Y-47630646D01*
X123898342Y-47573050D01*
X123988050Y-47483342D01*
X124045646Y-47370304D01*
X124060500Y-47276519D01*
X124060499Y-46038482D01*
X124060499Y-46038481D01*
X124060499Y-46038478D01*
X124060498Y-46038476D01*
X124045647Y-45944700D01*
X124045646Y-45944698D01*
X124045646Y-45944696D01*
X124005111Y-45865143D01*
X123995540Y-45804712D01*
X124023317Y-45750195D01*
X124077833Y-45722417D01*
X124138264Y-45731987D01*
X124184696Y-45755646D01*
X124278481Y-45770500D01*
X124641518Y-45770499D01*
X124641520Y-45770499D01*
X124641521Y-45770498D01*
X124688411Y-45763072D01*
X124735299Y-45755647D01*
X124735301Y-45755647D01*
X124735302Y-45755646D01*
X124735304Y-45755646D01*
X124781734Y-45731988D01*
X124842163Y-45722417D01*
X124896680Y-45750193D01*
X124924459Y-45804709D01*
X124914888Y-45865142D01*
X124914888Y-45865143D01*
X124874354Y-45944696D01*
X124859500Y-46038478D01*
X124859500Y-48217431D01*
X124858653Y-48230353D01*
X124854750Y-48259999D01*
X124858653Y-48289644D01*
X124859500Y-48302567D01*
X124859500Y-48332474D01*
X124867241Y-48361365D01*
X124869767Y-48374064D01*
X124873669Y-48403705D01*
X124873671Y-48403711D01*
X124885113Y-48431335D01*
X124889272Y-48443586D01*
X124897016Y-48472485D01*
X124897017Y-48472486D01*
X124897017Y-48472487D01*
X124911968Y-48498385D01*
X124917693Y-48509994D01*
X124929139Y-48537626D01*
X124947343Y-48561350D01*
X124954536Y-48572114D01*
X124969491Y-48598015D01*
X124990635Y-48619159D01*
X124999173Y-48628895D01*
X125017378Y-48652620D01*
X125017379Y-48652621D01*
X125017382Y-48652623D01*
X125041099Y-48670822D01*
X125050834Y-48679359D01*
X125071983Y-48700507D01*
X125071985Y-48700509D01*
X125097888Y-48715464D01*
X125108642Y-48722650D01*
X125132375Y-48740861D01*
X125159995Y-48752301D01*
X125160007Y-48752306D01*
X125171623Y-48758035D01*
X125197510Y-48772982D01*
X125197513Y-48772983D01*
X125197515Y-48772984D01*
X125226408Y-48780725D01*
X125238666Y-48784887D01*
X125266288Y-48796329D01*
X125266291Y-48796330D01*
X125295934Y-48800232D01*
X125308623Y-48802755D01*
X125337525Y-48810500D01*
X125367432Y-48810500D01*
X125380354Y-48811347D01*
X125410000Y-48815250D01*
X125439646Y-48811347D01*
X125452568Y-48810500D01*
X125482474Y-48810500D01*
X125482475Y-48810500D01*
X125511372Y-48802756D01*
X125524066Y-48800231D01*
X125553709Y-48796330D01*
X125581349Y-48784880D01*
X125593589Y-48780725D01*
X125622485Y-48772984D01*
X125634649Y-48765960D01*
X125648382Y-48758032D01*
X125659994Y-48752305D01*
X125687625Y-48740861D01*
X125711358Y-48722649D01*
X125722105Y-48715467D01*
X125748015Y-48700509D01*
X125769158Y-48679364D01*
X125778896Y-48670825D01*
X125786778Y-48664777D01*
X125802621Y-48652621D01*
X125820826Y-48628894D01*
X125829366Y-48619157D01*
X125833930Y-48614593D01*
X125850509Y-48598015D01*
X125865467Y-48572105D01*
X125872649Y-48561358D01*
X125890861Y-48537625D01*
X125902305Y-48509994D01*
X125908032Y-48498382D01*
X125922982Y-48472488D01*
X125922984Y-48472485D01*
X125930725Y-48443589D01*
X125934880Y-48431349D01*
X125946330Y-48403709D01*
X125950232Y-48374064D01*
X125952758Y-48361365D01*
X125960500Y-48332475D01*
X125960500Y-48302567D01*
X125961347Y-48289644D01*
X125965250Y-48259999D01*
X125961347Y-48230353D01*
X125960500Y-48217431D01*
X125960500Y-46577051D01*
X125960499Y-46577037D01*
X125960499Y-46038478D01*
X125960498Y-46038476D01*
X125945647Y-45944700D01*
X125945646Y-45944698D01*
X125945646Y-45944696D01*
X125888050Y-45831658D01*
X125798342Y-45741950D01*
X125685304Y-45684354D01*
X125685305Y-45684354D01*
X125591522Y-45669500D01*
X125228479Y-45669500D01*
X125228476Y-45669501D01*
X125134700Y-45684352D01*
X125134697Y-45684353D01*
X125088266Y-45708011D01*
X125027833Y-45717582D01*
X124973317Y-45689804D01*
X124945540Y-45635287D01*
X124955111Y-45574856D01*
X124995646Y-45495304D01*
X125010500Y-45401519D01*
X125010499Y-44768688D01*
X125029406Y-44710498D01*
X125039489Y-44698691D01*
X125982041Y-43756139D01*
X126036556Y-43728364D01*
X126039089Y-43727996D01*
X126127709Y-43716330D01*
X126261625Y-43660861D01*
X126376621Y-43572621D01*
X126464861Y-43457625D01*
X126520330Y-43323709D01*
X126539250Y-43180000D01*
X126520330Y-43036291D01*
X126464861Y-42902375D01*
X126376621Y-42787379D01*
X126261625Y-42699139D01*
X126261621Y-42699137D01*
X126127709Y-42643670D01*
X126052309Y-42633743D01*
X125997084Y-42607402D01*
X125967890Y-42553631D01*
X125975876Y-42492969D01*
X125985979Y-42476261D01*
X126055213Y-42383776D01*
X126104249Y-42252304D01*
X126104248Y-42252304D01*
X126104251Y-42252299D01*
X126110500Y-42194174D01*
X126110500Y-41625826D01*
X126104251Y-41567701D01*
X126101057Y-41559137D01*
X126055213Y-41436223D01*
X125971119Y-41323888D01*
X125971118Y-41323887D01*
X125971116Y-41323884D01*
X125965920Y-41319994D01*
X125858776Y-41239786D01*
X125727304Y-41190750D01*
X125727299Y-41190749D01*
X125727297Y-41190748D01*
X125727293Y-41190748D01*
X125701011Y-41187922D01*
X125669174Y-41184500D01*
X125669170Y-41184500D01*
X125183690Y-41184500D01*
X125125499Y-41165593D01*
X125113686Y-41155504D01*
X123278594Y-39320412D01*
X121269712Y-37311530D01*
X121189788Y-37265386D01*
X121100644Y-37241500D01*
X121100642Y-37241500D01*
X118039500Y-37241500D01*
X117981309Y-37222593D01*
X117945345Y-37173093D01*
X117940500Y-37142500D01*
X117940500Y-35447327D01*
X117940498Y-35447315D01*
X117937015Y-35429808D01*
X117925966Y-35374260D01*
X117870601Y-35291399D01*
X117870599Y-35291397D01*
X117787742Y-35236035D01*
X117787740Y-35236034D01*
X117787737Y-35236033D01*
X117787736Y-35236033D01*
X117714684Y-35221501D01*
X117714674Y-35221500D01*
X115965326Y-35221500D01*
X115965325Y-35221500D01*
X115965315Y-35221501D01*
X115892263Y-35236033D01*
X115892257Y-35236035D01*
X115809400Y-35291397D01*
X115809397Y-35291400D01*
X115754035Y-35374257D01*
X115754033Y-35374263D01*
X115739501Y-35447315D01*
X115739500Y-35447327D01*
X115739500Y-37026810D01*
X115720593Y-37085001D01*
X115671093Y-37120965D01*
X115609907Y-37120965D01*
X115570496Y-37096814D01*
X115335857Y-36862175D01*
X115308080Y-36807658D01*
X115317240Y-36748042D01*
X115330582Y-36721250D01*
X115386397Y-36525083D01*
X115405215Y-36322000D01*
X115386397Y-36118917D01*
X115330582Y-35922750D01*
X115239673Y-35740179D01*
X115116764Y-35577421D01*
X114966041Y-35440019D01*
X114792637Y-35332652D01*
X114602456Y-35258976D01*
X114602455Y-35258975D01*
X114602453Y-35258975D01*
X114401976Y-35221500D01*
X114198024Y-35221500D01*
X113997546Y-35258975D01*
X113933243Y-35283886D01*
X113807363Y-35332652D01*
X113633959Y-35440019D01*
X113483236Y-35577421D01*
X113480405Y-35581170D01*
X113360328Y-35740177D01*
X113360323Y-35740186D01*
X113269419Y-35922747D01*
X113269418Y-35922750D01*
X113213603Y-36118917D01*
X113194785Y-36322000D01*
X113213603Y-36525083D01*
X113269418Y-36721250D01*
X113360327Y-36903821D01*
X113483236Y-37066579D01*
X113633959Y-37203981D01*
X113807363Y-37311348D01*
X113997544Y-37385024D01*
X114198024Y-37422500D01*
X114401976Y-37422500D01*
X114602456Y-37385024D01*
X114733228Y-37334362D01*
X114794316Y-37330973D01*
X114838992Y-37356674D01*
X114954814Y-37472496D01*
X114982591Y-37527013D01*
X114973020Y-37587445D01*
X114929755Y-37630710D01*
X114884810Y-37641500D01*
X113616190Y-37641500D01*
X113557999Y-37622593D01*
X113546186Y-37612504D01*
X112795857Y-36862175D01*
X112768080Y-36807658D01*
X112777240Y-36748042D01*
X112790582Y-36721250D01*
X112846397Y-36525083D01*
X112865215Y-36322000D01*
X112846397Y-36118917D01*
X112790582Y-35922750D01*
X112699673Y-35740179D01*
X112576764Y-35577421D01*
X112426041Y-35440019D01*
X112252637Y-35332652D01*
X112062456Y-35258976D01*
X112062455Y-35258975D01*
X112062453Y-35258975D01*
X111861976Y-35221500D01*
X111658024Y-35221500D01*
X111457546Y-35258975D01*
X111393243Y-35283886D01*
X111267363Y-35332652D01*
X111093959Y-35440019D01*
X110943236Y-35577421D01*
X110940405Y-35581170D01*
X110820328Y-35740177D01*
X110820323Y-35740186D01*
X110729419Y-35922747D01*
X110729418Y-35922750D01*
X110673603Y-36118917D01*
X110654785Y-36322000D01*
X110673603Y-36525083D01*
X110729418Y-36721250D01*
X110820327Y-36903821D01*
X110943236Y-37066579D01*
X111093959Y-37203981D01*
X111267363Y-37311348D01*
X111457544Y-37385024D01*
X111658024Y-37422500D01*
X111861976Y-37422500D01*
X112062456Y-37385024D01*
X112193228Y-37334362D01*
X112254316Y-37330973D01*
X112298992Y-37356674D01*
X112814814Y-37872496D01*
X112842591Y-37927013D01*
X112833020Y-37987445D01*
X112789755Y-38030710D01*
X112744810Y-38041500D01*
X111476190Y-38041500D01*
X111417999Y-38022593D01*
X111406186Y-38012504D01*
X110255857Y-36862175D01*
X110228080Y-36807658D01*
X110237240Y-36748042D01*
X110250582Y-36721250D01*
X110306397Y-36525083D01*
X110325215Y-36322000D01*
X110306397Y-36118917D01*
X110250582Y-35922750D01*
X110159673Y-35740179D01*
X110036764Y-35577421D01*
X109886041Y-35440019D01*
X109712637Y-35332652D01*
X109522456Y-35258976D01*
X109522455Y-35258975D01*
X109522453Y-35258975D01*
X109321976Y-35221500D01*
X109118024Y-35221500D01*
X108917546Y-35258975D01*
X108853243Y-35283886D01*
X108727363Y-35332652D01*
X108553959Y-35440019D01*
X108403236Y-35577421D01*
X108400405Y-35581170D01*
X108280328Y-35740177D01*
X108280323Y-35740186D01*
X108189419Y-35922747D01*
X108189418Y-35922750D01*
X108133603Y-36118917D01*
X108114785Y-36322000D01*
X107785215Y-36322000D01*
X107766397Y-36118917D01*
X107710582Y-35922750D01*
X107619673Y-35740179D01*
X107496764Y-35577421D01*
X107346041Y-35440019D01*
X107172637Y-35332652D01*
X106982456Y-35258976D01*
X106982455Y-35258975D01*
X106982453Y-35258975D01*
X106781976Y-35221500D01*
X106578024Y-35221500D01*
X106377546Y-35258975D01*
X106313243Y-35283886D01*
X106187363Y-35332652D01*
X106013959Y-35440019D01*
X105863236Y-35577421D01*
X105860405Y-35581170D01*
X105740328Y-35740177D01*
X105740323Y-35740186D01*
X105649419Y-35922747D01*
X105649418Y-35922750D01*
X105593603Y-36118917D01*
X105574785Y-36322000D01*
X105593603Y-36525083D01*
X105632446Y-36661602D01*
X105649419Y-36721252D01*
X105695052Y-36812896D01*
X105704065Y-36873414D01*
X105702058Y-36882644D01*
X105694500Y-36910851D01*
X105694500Y-40694013D01*
X105675593Y-40752204D01*
X105661762Y-40766035D01*
X105662168Y-40766441D01*
X105656659Y-40771949D01*
X105656658Y-40771950D01*
X105613153Y-40815455D01*
X105566949Y-40861659D01*
X105509354Y-40974694D01*
X105507781Y-40984628D01*
X105480002Y-41039143D01*
X105425484Y-41066920D01*
X105365053Y-41057346D01*
X105321789Y-41014081D01*
X105312219Y-40984623D01*
X105310647Y-40974700D01*
X105310646Y-40974698D01*
X105310646Y-40974696D01*
X105253050Y-40861658D01*
X105163342Y-40771950D01*
X105163339Y-40771948D01*
X105157832Y-40766441D01*
X105159515Y-40764757D01*
X105130344Y-40724601D01*
X105125500Y-40694013D01*
X105125500Y-36910858D01*
X105125500Y-36910856D01*
X105117941Y-36882646D01*
X105121143Y-36821546D01*
X105124947Y-36812896D01*
X105170582Y-36721250D01*
X105226397Y-36525083D01*
X105245215Y-36322000D01*
X105226397Y-36118917D01*
X105170582Y-35922750D01*
X105079673Y-35740179D01*
X104956764Y-35577421D01*
X104806041Y-35440019D01*
X104632637Y-35332652D01*
X104442456Y-35258976D01*
X104442455Y-35258975D01*
X104442453Y-35258975D01*
X104241976Y-35221500D01*
X104038024Y-35221500D01*
X103837546Y-35258975D01*
X103773243Y-35283886D01*
X103647363Y-35332652D01*
X103473959Y-35440019D01*
X103323236Y-35577421D01*
X103320405Y-35581170D01*
X103200328Y-35740177D01*
X103200323Y-35740186D01*
X103109419Y-35922747D01*
X103109418Y-35922750D01*
X103053603Y-36118917D01*
X103034785Y-36322000D01*
X102705215Y-36322000D01*
X102686397Y-36118917D01*
X102630582Y-35922750D01*
X102539673Y-35740179D01*
X102416764Y-35577421D01*
X102266041Y-35440019D01*
X102092637Y-35332652D01*
X101902456Y-35258976D01*
X101902455Y-35258975D01*
X101902453Y-35258975D01*
X101701976Y-35221500D01*
X101498024Y-35221500D01*
X101297546Y-35258975D01*
X101233243Y-35283886D01*
X101107363Y-35332652D01*
X100933959Y-35440019D01*
X100783236Y-35577421D01*
X100780405Y-35581170D01*
X100660328Y-35740177D01*
X100660323Y-35740186D01*
X100569419Y-35922747D01*
X100554833Y-35974011D01*
X100520722Y-36024806D01*
X100463269Y-36045850D01*
X100404420Y-36029106D01*
X100366652Y-35980968D01*
X100363985Y-35972541D01*
X100333429Y-35858504D01*
X100233605Y-35644432D01*
X100233601Y-35644424D01*
X100098113Y-35450926D01*
X99931073Y-35283886D01*
X99737577Y-35148399D01*
X99523489Y-35048569D01*
X99310000Y-34991364D01*
X99310000Y-35888988D01*
X99252993Y-35856075D01*
X99125826Y-35822000D01*
X98994174Y-35822000D01*
X98867007Y-35856075D01*
X98810000Y-35888988D01*
X98810000Y-34991364D01*
X98596505Y-35048570D01*
X98382432Y-35148394D01*
X98382424Y-35148398D01*
X98188926Y-35283886D01*
X98021886Y-35450926D01*
X97886398Y-35644424D01*
X97886394Y-35644432D01*
X97786570Y-35858505D01*
X97729364Y-36072000D01*
X98626988Y-36072000D01*
X98594075Y-36129007D01*
X98560000Y-36256174D01*
X98560000Y-36387826D01*
X98594075Y-36514993D01*
X98626988Y-36572000D01*
X97729364Y-36572000D01*
X97786569Y-36785489D01*
X97886399Y-36999577D01*
X98021886Y-37193073D01*
X98188926Y-37360113D01*
X98382422Y-37495600D01*
X98596509Y-37595430D01*
X98810000Y-37652634D01*
X98810000Y-36755012D01*
X98867007Y-36787925D01*
X98994174Y-36822000D01*
X99125826Y-36822000D01*
X99252993Y-36787925D01*
X99310000Y-36755012D01*
X99310000Y-37652633D01*
X99523490Y-37595430D01*
X99737577Y-37495600D01*
X99931073Y-37360113D01*
X100098113Y-37193073D01*
X100233600Y-36999577D01*
X100333430Y-36785490D01*
X100363985Y-36671458D01*
X100397309Y-36620144D01*
X100454430Y-36598217D01*
X100513531Y-36614052D01*
X100552036Y-36661602D01*
X100554829Y-36669978D01*
X100569418Y-36721250D01*
X100660327Y-36903821D01*
X100783236Y-37066579D01*
X100933959Y-37203981D01*
X101107363Y-37311348D01*
X101297544Y-37385024D01*
X101498024Y-37422500D01*
X101701976Y-37422500D01*
X101767309Y-37410287D01*
X101827983Y-37418179D01*
X101872430Y-37460228D01*
X101884500Y-37507601D01*
X101884500Y-40694013D01*
X101865593Y-40752204D01*
X101851762Y-40766035D01*
X101852168Y-40766441D01*
X101846659Y-40771949D01*
X101846658Y-40771950D01*
X101803153Y-40815455D01*
X101756949Y-40861659D01*
X101699354Y-40974694D01*
X101697781Y-40984628D01*
X101670002Y-41039143D01*
X101615484Y-41066920D01*
X101555053Y-41057346D01*
X101511789Y-41014081D01*
X101502219Y-40984623D01*
X101500647Y-40974700D01*
X101500646Y-40974698D01*
X101500646Y-40974696D01*
X101443050Y-40861658D01*
X101353342Y-40771950D01*
X101240304Y-40714354D01*
X101240305Y-40714354D01*
X101146522Y-40699500D01*
X100783479Y-40699500D01*
X100783476Y-40699501D01*
X100689700Y-40714352D01*
X100689695Y-40714354D01*
X100576659Y-40771949D01*
X100486949Y-40861659D01*
X100432709Y-40968110D01*
X100389444Y-41011374D01*
X100329012Y-41020945D01*
X100274496Y-40993167D01*
X100246719Y-40938650D01*
X100245500Y-40923164D01*
X100245500Y-40174567D01*
X100246347Y-40161644D01*
X100250250Y-40131999D01*
X100246347Y-40102353D01*
X100245500Y-40089431D01*
X100245500Y-40059526D01*
X100245500Y-40059525D01*
X100237755Y-40030623D01*
X100235231Y-40017929D01*
X100231330Y-39988291D01*
X100231329Y-39988288D01*
X100219887Y-39960666D01*
X100215725Y-39948408D01*
X100207984Y-39919515D01*
X100207983Y-39919513D01*
X100207982Y-39919510D01*
X100193035Y-39893623D01*
X100187306Y-39882007D01*
X100175861Y-39854375D01*
X100157650Y-39830641D01*
X100150464Y-39819888D01*
X100135509Y-39793985D01*
X100130431Y-39788907D01*
X100114359Y-39772834D01*
X100105822Y-39763099D01*
X100087620Y-39739378D01*
X100063895Y-39721173D01*
X100054159Y-39712635D01*
X100033015Y-39691491D01*
X100007114Y-39676536D01*
X99996350Y-39669343D01*
X99972626Y-39651139D01*
X99944994Y-39639693D01*
X99933385Y-39633968D01*
X99907487Y-39619017D01*
X99907486Y-39619016D01*
X99907485Y-39619016D01*
X99878586Y-39611272D01*
X99866335Y-39607113D01*
X99838709Y-39595670D01*
X99838707Y-39595669D01*
X99838705Y-39595669D01*
X99809064Y-39591767D01*
X99796365Y-39589241D01*
X99793090Y-39588363D01*
X99767475Y-39581500D01*
X99767474Y-39581500D01*
X99737568Y-39581500D01*
X99724646Y-39580653D01*
X99695000Y-39576750D01*
X99665354Y-39580653D01*
X99652432Y-39581500D01*
X99622525Y-39581500D01*
X99617752Y-39582779D01*
X99593631Y-39589241D01*
X99580938Y-39591766D01*
X99551290Y-39595670D01*
X99551284Y-39595672D01*
X99523656Y-39607115D01*
X99511398Y-39611276D01*
X99482517Y-39619015D01*
X99482512Y-39619017D01*
X99456622Y-39633964D01*
X99445014Y-39639689D01*
X99417374Y-39651138D01*
X99393641Y-39669348D01*
X99382885Y-39676535D01*
X99356985Y-39691490D01*
X99335840Y-39712635D01*
X99326108Y-39721170D01*
X99302382Y-39739376D01*
X99302376Y-39739382D01*
X99284170Y-39763108D01*
X99275635Y-39772840D01*
X99254490Y-39793985D01*
X99239535Y-39819885D01*
X99232348Y-39830641D01*
X99214138Y-39854374D01*
X99202689Y-39882014D01*
X99196964Y-39893622D01*
X99182017Y-39919512D01*
X99182015Y-39919517D01*
X99174276Y-39948398D01*
X99170115Y-39960656D01*
X99158672Y-39988284D01*
X99158670Y-39988290D01*
X99154766Y-40017938D01*
X99152241Y-40030631D01*
X99144500Y-40059525D01*
X99144500Y-40089431D01*
X99143653Y-40102353D01*
X99139750Y-40131999D01*
X99143653Y-40161644D01*
X99144500Y-40174567D01*
X99144500Y-42831521D01*
X99144501Y-42831523D01*
X99159352Y-42925299D01*
X99159354Y-42925304D01*
X99216950Y-43038342D01*
X99306658Y-43128050D01*
X99419696Y-43185646D01*
X99513481Y-43200500D01*
X99876518Y-43200499D01*
X99876520Y-43200499D01*
X99876521Y-43200498D01*
X99894255Y-43197689D01*
X99978001Y-43184428D01*
X99978300Y-43186318D01*
X100029414Y-43186309D01*
X100078921Y-43222264D01*
X100097838Y-43280452D01*
X100078941Y-43338646D01*
X100068842Y-43350472D01*
X98779532Y-44639784D01*
X98779530Y-44639786D01*
X98779530Y-44639787D01*
X98733386Y-44719711D01*
X98720263Y-44768689D01*
X98709500Y-44808856D01*
X98709500Y-50360070D01*
X98690593Y-50418261D01*
X98645098Y-50452828D01*
X98586218Y-50474789D01*
X98473888Y-50558880D01*
X98473880Y-50558888D01*
X98389786Y-50671223D01*
X98340750Y-50802695D01*
X98340748Y-50802706D01*
X98334500Y-50860829D01*
X98334500Y-50951532D01*
X98315593Y-51009723D01*
X98266093Y-51045687D01*
X98204907Y-51045687D01*
X98165496Y-51021536D01*
X94359496Y-47215536D01*
X94331719Y-47161019D01*
X94330500Y-47145532D01*
X94330500Y-41373369D01*
X94349407Y-41315178D01*
X94398907Y-41279214D01*
X94460093Y-41279214D01*
X94506029Y-41310565D01*
X94539114Y-41350880D01*
X94539121Y-41350887D01*
X94661489Y-41451312D01*
X94691462Y-41475910D01*
X94824353Y-41546942D01*
X94863190Y-41567701D01*
X94865273Y-41568814D01*
X95053868Y-41626024D01*
X95053870Y-41626024D01*
X95053873Y-41626025D01*
X95249997Y-41645341D01*
X95250000Y-41645341D01*
X95250003Y-41645341D01*
X95446126Y-41626025D01*
X95446127Y-41626024D01*
X95446132Y-41626024D01*
X95634727Y-41568814D01*
X95808538Y-41475910D01*
X95960883Y-41350883D01*
X96085910Y-41198538D01*
X96178814Y-41024727D01*
X96236024Y-40836132D01*
X96238061Y-40815455D01*
X96255341Y-40640003D01*
X96255341Y-40639996D01*
X96236025Y-40443873D01*
X96236024Y-40443870D01*
X96236024Y-40443868D01*
X96178814Y-40255273D01*
X96085910Y-40081462D01*
X96085906Y-40081457D01*
X95960887Y-39929121D01*
X95960878Y-39929112D01*
X95808542Y-39804093D01*
X95808540Y-39804092D01*
X95808538Y-39804090D01*
X95767618Y-39782218D01*
X95634732Y-39711188D01*
X95634730Y-39711187D01*
X95615079Y-39705226D01*
X95522730Y-39677212D01*
X95446129Y-39653975D01*
X95446126Y-39653974D01*
X95250003Y-39634659D01*
X95249997Y-39634659D01*
X95053873Y-39653974D01*
X95053870Y-39653975D01*
X94865269Y-39711187D01*
X94865267Y-39711188D01*
X94691467Y-39804087D01*
X94691457Y-39804093D01*
X94539121Y-39929112D01*
X94539112Y-39929121D01*
X94414093Y-40081457D01*
X94414089Y-40081463D01*
X94378779Y-40147524D01*
X94334673Y-40189930D01*
X94274065Y-40198313D01*
X94221465Y-40170859D01*
X93669621Y-39619015D01*
X93140137Y-39089530D01*
X93060213Y-39043386D01*
X92971069Y-39019500D01*
X91393856Y-39019500D01*
X91304712Y-39043386D01*
X91224785Y-39089532D01*
X90633822Y-39680493D01*
X90579306Y-39708270D01*
X90535081Y-39705226D01*
X90366132Y-39653975D01*
X90366126Y-39653974D01*
X90170003Y-39634659D01*
X90169997Y-39634659D01*
X89973873Y-39653974D01*
X89973870Y-39653975D01*
X89785269Y-39711187D01*
X89785267Y-39711188D01*
X89611467Y-39804087D01*
X89611457Y-39804093D01*
X89459121Y-39929112D01*
X89459112Y-39929121D01*
X89334093Y-40081457D01*
X89334087Y-40081467D01*
X89241188Y-40255267D01*
X89241187Y-40255269D01*
X89183975Y-40443870D01*
X89183974Y-40443873D01*
X89164659Y-40639996D01*
X89164659Y-40640003D01*
X89183974Y-40836126D01*
X89183975Y-40836129D01*
X89241187Y-41024730D01*
X89241188Y-41024732D01*
X89301814Y-41138154D01*
X89334090Y-41198538D01*
X89334092Y-41198540D01*
X89334093Y-41198542D01*
X89459112Y-41350878D01*
X89459121Y-41350887D01*
X89581489Y-41451312D01*
X89611462Y-41475910D01*
X89744353Y-41546942D01*
X89783190Y-41567701D01*
X89785273Y-41568814D01*
X89973868Y-41626024D01*
X89973870Y-41626024D01*
X89973873Y-41626025D01*
X90169997Y-41645341D01*
X90170000Y-41645341D01*
X90170003Y-41645341D01*
X90366126Y-41626025D01*
X90366127Y-41626024D01*
X90366132Y-41626024D01*
X90554727Y-41568814D01*
X90728538Y-41475910D01*
X90880883Y-41350883D01*
X91005910Y-41198538D01*
X91098814Y-41024727D01*
X91156024Y-40836132D01*
X91158061Y-40815455D01*
X91175341Y-40640003D01*
X91175341Y-40639996D01*
X91156025Y-40443873D01*
X91156024Y-40443871D01*
X91156024Y-40443870D01*
X91156024Y-40443868D01*
X91104772Y-40274914D01*
X91105973Y-40213744D01*
X91129506Y-40176175D01*
X91556187Y-39749496D01*
X91610703Y-39721719D01*
X91626190Y-39720500D01*
X91976630Y-39720500D01*
X92034821Y-39739407D01*
X92070785Y-39788907D01*
X92070785Y-39850093D01*
X92039435Y-39896028D01*
X91999121Y-39929112D01*
X91999112Y-39929121D01*
X91874093Y-40081457D01*
X91874087Y-40081467D01*
X91781188Y-40255267D01*
X91781187Y-40255269D01*
X91723975Y-40443870D01*
X91723974Y-40443873D01*
X91704659Y-40639996D01*
X91704659Y-40640003D01*
X91723974Y-40836126D01*
X91723975Y-40836129D01*
X91781187Y-41024730D01*
X91781188Y-41024732D01*
X91841814Y-41138154D01*
X91874090Y-41198538D01*
X91874092Y-41198540D01*
X91874093Y-41198542D01*
X91999112Y-41350878D01*
X91999121Y-41350887D01*
X92121489Y-41451312D01*
X92151462Y-41475910D01*
X92255609Y-41531578D01*
X92307168Y-41559137D01*
X92349575Y-41603243D01*
X92359500Y-41646447D01*
X92359500Y-49714810D01*
X92340593Y-49773001D01*
X92291093Y-49808965D01*
X92229907Y-49808965D01*
X92190496Y-49784814D01*
X83509506Y-41103824D01*
X83481729Y-41049307D01*
X83484772Y-41005083D01*
X83536024Y-40836132D01*
X83538061Y-40815455D01*
X83555341Y-40640003D01*
X83555341Y-40639996D01*
X84084659Y-40639996D01*
X84084659Y-40640003D01*
X84103974Y-40836126D01*
X84103975Y-40836129D01*
X84161187Y-41024730D01*
X84161188Y-41024732D01*
X84221814Y-41138154D01*
X84254090Y-41198538D01*
X84254092Y-41198540D01*
X84254093Y-41198542D01*
X84379112Y-41350878D01*
X84379121Y-41350887D01*
X84501489Y-41451312D01*
X84531462Y-41475910D01*
X84664353Y-41546942D01*
X84703190Y-41567701D01*
X84705273Y-41568814D01*
X84893868Y-41626024D01*
X84893870Y-41626024D01*
X84893873Y-41626025D01*
X85089997Y-41645341D01*
X85090000Y-41645341D01*
X85090003Y-41645341D01*
X85286126Y-41626025D01*
X85286127Y-41626024D01*
X85286132Y-41626024D01*
X85474727Y-41568814D01*
X85648538Y-41475910D01*
X85800883Y-41350883D01*
X85925910Y-41198538D01*
X86018814Y-41024727D01*
X86076024Y-40836132D01*
X86078061Y-40815455D01*
X86095341Y-40640003D01*
X86095341Y-40639996D01*
X86624659Y-40639996D01*
X86624659Y-40640003D01*
X86643974Y-40836126D01*
X86643975Y-40836129D01*
X86701187Y-41024730D01*
X86701188Y-41024732D01*
X86761814Y-41138154D01*
X86794090Y-41198538D01*
X86794092Y-41198540D01*
X86794093Y-41198542D01*
X86919112Y-41350878D01*
X86919121Y-41350887D01*
X87041489Y-41451312D01*
X87071462Y-41475910D01*
X87204353Y-41546942D01*
X87243190Y-41567701D01*
X87245273Y-41568814D01*
X87433868Y-41626024D01*
X87433870Y-41626024D01*
X87433873Y-41626025D01*
X87629997Y-41645341D01*
X87630000Y-41645341D01*
X87630003Y-41645341D01*
X87826126Y-41626025D01*
X87826127Y-41626024D01*
X87826132Y-41626024D01*
X88014727Y-41568814D01*
X88188538Y-41475910D01*
X88340883Y-41350883D01*
X88465910Y-41198538D01*
X88558814Y-41024727D01*
X88616024Y-40836132D01*
X88618061Y-40815455D01*
X88635341Y-40640003D01*
X88635341Y-40639996D01*
X88616025Y-40443873D01*
X88616024Y-40443870D01*
X88616024Y-40443868D01*
X88558814Y-40255273D01*
X88465910Y-40081462D01*
X88465906Y-40081457D01*
X88340887Y-39929121D01*
X88340878Y-39929112D01*
X88188542Y-39804093D01*
X88188540Y-39804092D01*
X88188538Y-39804090D01*
X88147618Y-39782218D01*
X88014732Y-39711188D01*
X88014730Y-39711187D01*
X87995079Y-39705226D01*
X87902730Y-39677212D01*
X87826129Y-39653975D01*
X87826126Y-39653974D01*
X87630003Y-39634659D01*
X87629997Y-39634659D01*
X87433873Y-39653974D01*
X87433870Y-39653975D01*
X87245269Y-39711187D01*
X87245267Y-39711188D01*
X87071467Y-39804087D01*
X87071457Y-39804093D01*
X86919121Y-39929112D01*
X86919112Y-39929121D01*
X86794093Y-40081457D01*
X86794087Y-40081467D01*
X86701188Y-40255267D01*
X86701187Y-40255269D01*
X86643975Y-40443870D01*
X86643974Y-40443873D01*
X86624659Y-40639996D01*
X86095341Y-40639996D01*
X86076025Y-40443873D01*
X86076024Y-40443870D01*
X86076024Y-40443868D01*
X86018814Y-40255273D01*
X85925910Y-40081462D01*
X85925906Y-40081457D01*
X85800887Y-39929121D01*
X85800878Y-39929112D01*
X85648542Y-39804093D01*
X85648540Y-39804092D01*
X85648538Y-39804090D01*
X85607618Y-39782218D01*
X85474732Y-39711188D01*
X85474730Y-39711187D01*
X85455079Y-39705226D01*
X85362730Y-39677212D01*
X85286129Y-39653975D01*
X85286126Y-39653974D01*
X85090003Y-39634659D01*
X85089997Y-39634659D01*
X84893873Y-39653974D01*
X84893870Y-39653975D01*
X84705269Y-39711187D01*
X84705267Y-39711188D01*
X84531467Y-39804087D01*
X84531457Y-39804093D01*
X84379121Y-39929112D01*
X84379112Y-39929121D01*
X84254093Y-40081457D01*
X84254087Y-40081467D01*
X84161188Y-40255267D01*
X84161187Y-40255269D01*
X84103975Y-40443870D01*
X84103974Y-40443873D01*
X84084659Y-40639996D01*
X83555341Y-40639996D01*
X83536025Y-40443873D01*
X83536024Y-40443870D01*
X83536024Y-40443868D01*
X83478814Y-40255273D01*
X83385910Y-40081462D01*
X83385906Y-40081457D01*
X83260887Y-39929121D01*
X83260878Y-39929112D01*
X83108542Y-39804093D01*
X83108540Y-39804092D01*
X83108538Y-39804090D01*
X83067618Y-39782218D01*
X82934732Y-39711188D01*
X82934730Y-39711187D01*
X82915079Y-39705226D01*
X82822730Y-39677212D01*
X82746129Y-39653975D01*
X82746126Y-39653974D01*
X82550003Y-39634659D01*
X82549997Y-39634659D01*
X82353873Y-39653974D01*
X82353870Y-39653975D01*
X82165269Y-39711187D01*
X82165267Y-39711188D01*
X81991467Y-39804087D01*
X81991457Y-39804093D01*
X81839121Y-39929112D01*
X81839112Y-39929121D01*
X81714093Y-40081457D01*
X81714087Y-40081467D01*
X81621188Y-40255267D01*
X81621187Y-40255269D01*
X81563975Y-40443870D01*
X81563974Y-40443873D01*
X81544659Y-40639996D01*
X68151668Y-40639996D01*
X68179500Y-40618839D01*
X68179512Y-40618828D01*
X68192742Y-40606296D01*
X66980698Y-39394252D01*
X67082330Y-39320412D01*
X67260412Y-39142330D01*
X67334252Y-39040698D01*
X68543557Y-40250003D01*
X68670962Y-40100011D01*
X68670966Y-40100007D01*
X68871784Y-39803822D01*
X69039395Y-39487673D01*
X69171851Y-39155234D01*
X69171853Y-39155229D01*
X69267581Y-38810449D01*
X69325474Y-38457317D01*
X69344846Y-38100000D01*
X69325474Y-37742682D01*
X69267581Y-37389550D01*
X69171853Y-37044770D01*
X69171851Y-37044765D01*
X69039395Y-36712326D01*
X68871784Y-36396177D01*
X68670967Y-36099995D01*
X68670960Y-36099985D01*
X68543556Y-35949995D01*
X67334250Y-37159300D01*
X67260412Y-37057670D01*
X67082330Y-36879588D01*
X66980696Y-36805747D01*
X68192742Y-35593702D01*
X68179511Y-35581170D01*
X67894641Y-35364617D01*
X67894636Y-35364614D01*
X67588019Y-35180128D01*
X67263255Y-35029876D01*
X66924131Y-34915612D01*
X66574669Y-34838689D01*
X66574670Y-34838689D01*
X66218922Y-34800000D01*
X65861078Y-34800000D01*
X65505329Y-34838689D01*
X65155869Y-34915612D01*
X65155867Y-34915612D01*
X64816744Y-35029876D01*
X64491980Y-35180128D01*
X64185363Y-35364614D01*
X64185358Y-35364617D01*
X63900495Y-35581164D01*
X63900473Y-35581183D01*
X63887256Y-35593702D01*
X65099301Y-36805747D01*
X64997670Y-36879588D01*
X64819588Y-37057670D01*
X64745747Y-37159301D01*
X63536441Y-35949995D01*
X63409039Y-36099985D01*
X63409032Y-36099995D01*
X63208215Y-36396177D01*
X63040604Y-36712326D01*
X62908148Y-37044765D01*
X62908146Y-37044770D01*
X62812418Y-37389550D01*
X62754525Y-37742682D01*
X62735153Y-38100000D01*
X61460547Y-38100000D01*
X61460594Y-38097846D01*
X61463525Y-38030710D01*
X61477738Y-37705171D01*
X61478488Y-37696596D01*
X61529511Y-37309039D01*
X61531004Y-37300577D01*
X61615611Y-36918938D01*
X61617835Y-36910639D01*
X61735383Y-36537824D01*
X61738328Y-36529734D01*
X61887914Y-36168600D01*
X61891549Y-36160803D01*
X62072043Y-35814079D01*
X62076350Y-35806618D01*
X62286381Y-35476934D01*
X62291320Y-35469883D01*
X62529280Y-35159766D01*
X62534799Y-35153188D01*
X62798912Y-34864959D01*
X62804959Y-34858912D01*
X63093188Y-34594799D01*
X63099766Y-34589280D01*
X63409883Y-34351320D01*
X63416934Y-34346381D01*
X63746618Y-34136350D01*
X63754079Y-34132043D01*
X64100803Y-33951549D01*
X64108600Y-33947914D01*
X64469734Y-33798328D01*
X64477824Y-33795383D01*
X64850639Y-33677835D01*
X64858938Y-33675611D01*
X65240577Y-33591004D01*
X65249039Y-33589511D01*
X65636596Y-33538488D01*
X65645171Y-33537738D01*
X66037847Y-33520594D01*
X66042165Y-33520500D01*
X66105892Y-33520500D01*
X124394108Y-33520500D01*
X124457835Y-33520500D01*
X124462153Y-33520594D01*
G37*
%TD.AperFunction*%
%TD*%
M02*
