%TF.GenerationSoftware,KiCad,Pcbnew,8.0.8*%
%TF.CreationDate,2025-02-24T19:59:05+00:00*%
%TF.ProjectId,jacks-n-dac,6a61636b-732d-46e2-9d64-61632e6b6963,rev?*%
%TF.SameCoordinates,Original*%
%TF.FileFunction,Paste,Top*%
%TF.FilePolarity,Positive*%
%FSLAX46Y46*%
G04 Gerber Fmt 4.6, Leading zero omitted, Abs format (unit mm)*
G04 Created by KiCad (PCBNEW 8.0.8) date 2025-02-24 19:59:05*
%MOMM*%
%LPD*%
G01*
G04 APERTURE LIST*
G04 Aperture macros list*
%AMRoundRect*
0 Rectangle with rounded corners*
0 $1 Rounding radius*
0 $2 $3 $4 $5 $6 $7 $8 $9 X,Y pos of 4 corners*
0 Add a 4 corners polygon primitive as box body*
4,1,4,$2,$3,$4,$5,$6,$7,$8,$9,$2,$3,0*
0 Add four circle primitives for the rounded corners*
1,1,$1+$1,$2,$3*
1,1,$1+$1,$4,$5*
1,1,$1+$1,$6,$7*
1,1,$1+$1,$8,$9*
0 Add four rect primitives between the rounded corners*
20,1,$1+$1,$2,$3,$4,$5,0*
20,1,$1+$1,$4,$5,$6,$7,0*
20,1,$1+$1,$6,$7,$8,$9,0*
20,1,$1+$1,$8,$9,$2,$3,0*%
G04 Aperture macros list end*
%ADD10RoundRect,0.237500X0.237500X-0.250000X0.237500X0.250000X-0.237500X0.250000X-0.237500X-0.250000X0*%
%ADD11RoundRect,0.237500X-0.237500X0.250000X-0.237500X-0.250000X0.237500X-0.250000X0.237500X0.250000X0*%
%ADD12RoundRect,0.237500X0.237500X-0.300000X0.237500X0.300000X-0.237500X0.300000X-0.237500X-0.300000X0*%
%ADD13RoundRect,0.237500X0.250000X0.237500X-0.250000X0.237500X-0.250000X-0.237500X0.250000X-0.237500X0*%
%ADD14RoundRect,0.250000X-1.500000X-0.650000X1.500000X-0.650000X1.500000X0.650000X-1.500000X0.650000X0*%
%ADD15RoundRect,0.250000X-1.500000X-0.900000X1.500000X-0.900000X1.500000X0.900000X-1.500000X0.900000X0*%
%ADD16RoundRect,0.150000X-0.587500X-0.150000X0.587500X-0.150000X0.587500X0.150000X-0.587500X0.150000X0*%
%ADD17RoundRect,0.237500X-0.237500X0.300000X-0.237500X-0.300000X0.237500X-0.300000X0.237500X0.300000X0*%
%ADD18RoundRect,0.250000X-0.900000X1.500000X-0.900000X-1.500000X0.900000X-1.500000X0.900000X1.500000X0*%
G04 APERTURE END LIST*
D10*
%TO.C,R9*%
X114630000Y-55522500D03*
X114630000Y-53697500D03*
%TD*%
D11*
%TO.C,R3*%
X133350000Y-71477500D03*
X133350000Y-73302500D03*
%TD*%
D12*
%TO.C,C2*%
X130810000Y-73252500D03*
X130810000Y-71527500D03*
%TD*%
D13*
%TO.C,R13*%
X132992500Y-76200000D03*
X131167500Y-76200000D03*
%TD*%
D10*
%TO.C,R4*%
X128270000Y-55522500D03*
X128270000Y-53697500D03*
%TD*%
%TO.C,R6*%
X133350000Y-55522500D03*
X133350000Y-53697500D03*
%TD*%
%TO.C,R2*%
X135890000Y-73302500D03*
X135890000Y-71477500D03*
%TD*%
D12*
%TO.C,C4*%
X124460000Y-64526500D03*
X124460000Y-62801500D03*
%TD*%
D13*
%TO.C,R8*%
X112672500Y-80010000D03*
X110847500Y-80010000D03*
%TD*%
D11*
%TO.C,R5*%
X135890000Y-53697500D03*
X135890000Y-55522500D03*
%TD*%
D12*
%TO.C,C3*%
X130810000Y-55472500D03*
X130810000Y-53747500D03*
%TD*%
D14*
%TO.C,D3*%
X105780000Y-54610000D03*
X110780000Y-54610000D03*
%TD*%
D11*
%TO.C,R7*%
X114630000Y-48617500D03*
X114630000Y-50442500D03*
%TD*%
D15*
%TO.C,D4*%
X129380000Y-81280000D03*
X134780000Y-81280000D03*
%TD*%
D10*
%TO.C,R11*%
X107950000Y-84732500D03*
X107950000Y-82907500D03*
%TD*%
D16*
%TO.C,Q2*%
X110822500Y-67630000D03*
X110822500Y-69530000D03*
X112697500Y-68580000D03*
%TD*%
D17*
%TO.C,C1*%
X139700000Y-62801500D03*
X139700000Y-64526500D03*
%TD*%
D10*
%TO.C,R14*%
X105410000Y-69492500D03*
X105410000Y-67667500D03*
%TD*%
D11*
%TO.C,R1*%
X128270000Y-71477500D03*
X128270000Y-73302500D03*
%TD*%
D18*
%TO.C,D1*%
X119380000Y-49370000D03*
X119380000Y-54770000D03*
%TD*%
D13*
%TO.C,R16*%
X112672500Y-64770000D03*
X110847500Y-64770000D03*
%TD*%
D16*
%TO.C,Q1*%
X110822500Y-82870000D03*
X110822500Y-84770000D03*
X112697500Y-83820000D03*
%TD*%
D10*
%TO.C,R15*%
X107950000Y-69492500D03*
X107950000Y-67667500D03*
%TD*%
D11*
%TO.C,R12*%
X104470000Y-48617500D03*
X104470000Y-50442500D03*
%TD*%
D10*
%TO.C,R10*%
X105410000Y-84732500D03*
X105410000Y-82907500D03*
%TD*%
M02*
