M48
; DRILL file {KiCad 8.0.8} date 2025-02-24T19:59:03+0000
; FORMAT={-:-/ absolute / inch / decimal}
; #@! TF.CreationDate,2025-02-24T19:59:03+00:00
; #@! TF.GenerationSoftware,Kicad,Pcbnew,8.0.8
; #@! TF.FileFunction,Plated,1,2,PTH
FMAT,2
INCH
; #@! TA.AperFunction,Plated,PTH,ViaDrill
T1C0.0118
; #@! TA.AperFunction,Plated,PTH,ComponentDrill
T2C0.0315
; #@! TA.AperFunction,Plated,PTH,ComponentDrill
T3C0.0354
; #@! TA.AperFunction,Plated,PTH,ComponentDrill
T4C0.0394
; #@! TA.AperFunction,Plated,PTH,ComponentDrill
T5C0.1260
%
G90
G05
T1
X3.95Y-1.9
X3.95Y-2.5
X3.95Y-3.1
X4.0Y-1.9
X4.0Y-2.5
X4.0Y-3.1
X4.05Y-1.9
X4.05Y-2.5
X4.05Y-3.1
X4.1732Y-2.7953
X4.2126Y-2.7953
X4.2126Y-2.9134
X4.2126Y-3.3858
X4.252Y-2.7953
X4.252Y-2.9528
X4.252Y-3.3858
X4.2913Y-2.7953
X4.2913Y-2.9921
X4.2913Y-3.3858
X4.3Y-2.75
X4.3307Y-2.2441
X4.3307Y-2.7953
X4.3307Y-3.0315
X4.3307Y-3.3858
X4.3701Y-2.2441
X4.3701Y-2.7953
X4.3701Y-3.0709
X4.3701Y-3.3858
X4.4094Y-2.2441
X4.4094Y-2.4803
X4.4094Y-3.3858
X4.4488Y-2.2441
X4.4488Y-2.4803
X4.4882Y-2.2441
X4.4882Y-2.4803
X4.4882Y-2.5197
X4.4882Y-2.5591
X4.4882Y-2.5984
X4.5276Y-2.2441
X4.5669Y-2.2441
X4.6063Y-2.2835
X4.6457Y-2.2835
X4.685Y-2.2835
X4.7Y-3.4
X4.7244Y-2.2835
X4.7638Y-2.2835
X4.7638Y-3.3071
X4.8031Y-3.3071
X4.8425Y-3.3071
X5.15Y-2.0
X5.2Y-2.0
X5.25Y-2.0
X5.3Y-1.85
X5.3Y-1.9
X5.3Y-1.95
X5.3Y-2.0
X5.35Y-2.55
X5.4331Y-3.1102
X5.4331Y-3.1496
X5.4331Y-3.189
X5.4331Y-3.2283
X5.4331Y-3.2677
X5.4331Y-3.3071
X6.0Y-3.3
X6.0Y-3.35
X6.0Y-3.4
X6.0Y-3.45
X6.0Y-3.5
X6.0Y-3.55
X6.05Y-2.0
X6.1Y-2.0
X6.15Y-2.0
X6.2Y-1.85
X6.2Y-1.9
X6.2Y-1.95
X6.2Y-2.0
X6.4Y-2.35
X6.4Y-2.4
X6.4Y-2.45
X6.4Y-2.5
X6.4Y-2.55
X6.4Y-2.6
X6.4Y-2.65
T2
X5.0504Y-2.3506
X5.0504Y-2.6506
X5.1504Y-2.3506
X5.1504Y-2.6506
X5.2504Y-2.3506
X5.2504Y-2.6506
X5.3504Y-2.3506
X5.3504Y-2.6506
X5.6504Y-2.3506
X5.6504Y-2.6506
X5.7504Y-2.3506
X5.7504Y-2.6506
X5.8504Y-2.3506
X5.8504Y-2.6506
X5.9504Y-2.3506
X5.9504Y-2.6506
T3
X4.363Y-1.9
X4.363Y-2.0
T4
X4.0Y-2.0
X4.0Y-2.1
X4.0Y-2.6
X4.0Y-2.7
X4.0Y-3.2
X4.0Y-3.3
X4.9Y-2.9
X4.9Y-3.0
X4.9Y-3.4
X5.0Y-3.4
X5.1Y-1.9
X5.1Y-3.4
X5.2Y-1.9
X5.2Y-3.4
X5.3Y-3.4
X5.5Y-2.9
X5.5Y-3.0
X5.5Y-3.4
X5.6Y-3.4
X5.7Y-3.4
X5.8Y-3.4
X5.9Y-3.4
X6.0Y-1.9
X6.1Y-1.9
X6.3Y-2.4
X6.3Y-2.5
X6.3Y-2.6
T5
X4.2Y-2.4
X5.65Y-2.025
X6.2992Y-3.4252
M30
