%TF.GenerationSoftware,KiCad,Pcbnew,8.0.8*%
%TF.CreationDate,2025-02-24T19:59:05+00:00*%
%TF.ProjectId,jacks-n-dac,6a61636b-732d-46e2-9d64-61632e6b6963,rev?*%
%TF.SameCoordinates,Original*%
%TF.FileFunction,Copper,L1,Top*%
%TF.FilePolarity,Positive*%
%FSLAX46Y46*%
G04 Gerber Fmt 4.6, Leading zero omitted, Abs format (unit mm)*
G04 Created by KiCad (PCBNEW 8.0.8) date 2025-02-24 19:59:05*
%MOMM*%
%LPD*%
G01*
G04 APERTURE LIST*
G04 Aperture macros list*
%AMRoundRect*
0 Rectangle with rounded corners*
0 $1 Rounding radius*
0 $2 $3 $4 $5 $6 $7 $8 $9 X,Y pos of 4 corners*
0 Add a 4 corners polygon primitive as box body*
4,1,4,$2,$3,$4,$5,$6,$7,$8,$9,$2,$3,0*
0 Add four circle primitives for the rounded corners*
1,1,$1+$1,$2,$3*
1,1,$1+$1,$4,$5*
1,1,$1+$1,$6,$7*
1,1,$1+$1,$8,$9*
0 Add four rect primitives between the rounded corners*
20,1,$1+$1,$2,$3,$4,$5,0*
20,1,$1+$1,$4,$5,$6,$7,0*
20,1,$1+$1,$6,$7,$8,$9,0*
20,1,$1+$1,$8,$9,$2,$3,0*%
G04 Aperture macros list end*
%TA.AperFunction,SMDPad,CuDef*%
%ADD10RoundRect,0.237500X0.237500X-0.250000X0.237500X0.250000X-0.237500X0.250000X-0.237500X-0.250000X0*%
%TD*%
%TA.AperFunction,ComponentPad*%
%ADD11R,1.800000X1.800000*%
%TD*%
%TA.AperFunction,ComponentPad*%
%ADD12C,1.800000*%
%TD*%
%TA.AperFunction,SMDPad,CuDef*%
%ADD13RoundRect,0.237500X-0.237500X0.250000X-0.237500X-0.250000X0.237500X-0.250000X0.237500X0.250000X0*%
%TD*%
%TA.AperFunction,SMDPad,CuDef*%
%ADD14RoundRect,0.237500X0.237500X-0.300000X0.237500X0.300000X-0.237500X0.300000X-0.237500X-0.300000X0*%
%TD*%
%TA.AperFunction,SMDPad,CuDef*%
%ADD15RoundRect,0.237500X0.250000X0.237500X-0.250000X0.237500X-0.250000X-0.237500X0.250000X-0.237500X0*%
%TD*%
%TA.AperFunction,ComponentPad*%
%ADD16C,5.600000*%
%TD*%
%TA.AperFunction,ComponentPad*%
%ADD17R,1.700000X1.700000*%
%TD*%
%TA.AperFunction,ComponentPad*%
%ADD18O,1.700000X1.700000*%
%TD*%
%TA.AperFunction,ComponentPad*%
%ADD19R,1.600000X2.400000*%
%TD*%
%TA.AperFunction,ComponentPad*%
%ADD20O,1.600000X2.400000*%
%TD*%
%TA.AperFunction,SMDPad,CuDef*%
%ADD21RoundRect,0.250000X-1.500000X-0.650000X1.500000X-0.650000X1.500000X0.650000X-1.500000X0.650000X0*%
%TD*%
%TA.AperFunction,SMDPad,CuDef*%
%ADD22RoundRect,0.250000X-1.500000X-0.900000X1.500000X-0.900000X1.500000X0.900000X-1.500000X0.900000X0*%
%TD*%
%TA.AperFunction,SMDPad,CuDef*%
%ADD23RoundRect,0.150000X-0.587500X-0.150000X0.587500X-0.150000X0.587500X0.150000X-0.587500X0.150000X0*%
%TD*%
%TA.AperFunction,SMDPad,CuDef*%
%ADD24RoundRect,0.237500X-0.237500X0.300000X-0.237500X-0.300000X0.237500X-0.300000X0.237500X0.300000X0*%
%TD*%
%TA.AperFunction,SMDPad,CuDef*%
%ADD25RoundRect,0.250000X-0.900000X1.500000X-0.900000X-1.500000X0.900000X-1.500000X0.900000X1.500000X0*%
%TD*%
%TA.AperFunction,ViaPad*%
%ADD26C,0.600000*%
%TD*%
%TA.AperFunction,Conductor*%
%ADD27C,0.600000*%
%TD*%
%TA.AperFunction,Conductor*%
%ADD28C,0.200000*%
%TD*%
G04 APERTURE END LIST*
D10*
%TO.P,R9,1*%
%TO.N,GND*%
X114630000Y-55522500D03*
%TO.P,R9,2*%
%TO.N,Net-(D2-K)*%
X114630000Y-53697500D03*
%TD*%
D11*
%TO.P,D2,1,K*%
%TO.N,Net-(D2-K)*%
X110820000Y-50800000D03*
D12*
%TO.P,D2,2,A*%
%TO.N,Net-(D2-A)*%
X110820000Y-48260000D03*
%TD*%
D13*
%TO.P,R3,1*%
%TO.N,Net-(U1A--)*%
X133350000Y-71477500D03*
%TO.P,R3,2*%
%TO.N,/PITCH*%
X133350000Y-73302500D03*
%TD*%
D14*
%TO.P,C2,1*%
%TO.N,Net-(U1A--)*%
X130810000Y-73252500D03*
%TO.P,C2,2*%
%TO.N,Net-(C2-Pad2)*%
X130810000Y-71527500D03*
%TD*%
D15*
%TO.P,R13,1*%
%TO.N,Net-(J6-Pad2)*%
X132992500Y-76200000D03*
%TO.P,R13,2*%
%TO.N,/CLKOUT*%
X131167500Y-76200000D03*
%TD*%
D16*
%TO.P,H1,1,1*%
%TO.N,GND*%
X160000000Y-87000000D03*
%TD*%
D10*
%TO.P,R4,1*%
%TO.N,Net-(C3-Pad2)*%
X128270000Y-55522500D03*
%TO.P,R4,2*%
%TO.N,/CV*%
X128270000Y-53697500D03*
%TD*%
%TO.P,R6,1*%
%TO.N,Net-(U1B--)*%
X133350000Y-55522500D03*
%TO.P,R6,2*%
%TO.N,/CV*%
X133350000Y-53697500D03*
%TD*%
%TO.P,R2,1*%
%TO.N,GND*%
X135890000Y-73302500D03*
%TO.P,R2,2*%
%TO.N,Net-(U1A--)*%
X135890000Y-71477500D03*
%TD*%
D14*
%TO.P,C4,1*%
%TO.N,-12V*%
X124460000Y-64526500D03*
%TO.P,C4,2*%
%TO.N,+12V*%
X124460000Y-62801500D03*
%TD*%
D17*
%TO.P,J1,1,Pin_1*%
%TO.N,+5V*%
X139700000Y-86360000D03*
D18*
%TO.P,J1,2,Pin_2*%
%TO.N,/CS_DAC*%
X142240000Y-86360000D03*
%TO.P,J1,3,Pin_3*%
%TO.N,/SCLK*%
X144780000Y-86360000D03*
%TO.P,J1,4,Pin_4*%
%TO.N,/MOSI*%
X147320000Y-86360000D03*
%TO.P,J1,5,Pin_5*%
%TO.N,GND*%
X149860000Y-86360000D03*
%TD*%
D15*
%TO.P,R8,1*%
%TO.N,/CLKIN*%
X112672500Y-80010000D03*
%TO.P,R8,2*%
%TO.N,+5V*%
X110847500Y-80010000D03*
%TD*%
D13*
%TO.P,R5,1*%
%TO.N,GND*%
X135890000Y-53697500D03*
%TO.P,R5,2*%
%TO.N,Net-(U1B--)*%
X135890000Y-55522500D03*
%TD*%
D14*
%TO.P,C3,1*%
%TO.N,Net-(U1B--)*%
X130810000Y-55472500D03*
%TO.P,C3,2*%
%TO.N,Net-(C3-Pad2)*%
X130810000Y-53747500D03*
%TD*%
D19*
%TO.P,U2,1,Vdd*%
%TO.N,+5V*%
X143520000Y-67325000D03*
D20*
%TO.P,U2,2,~{CS}*%
%TO.N,/CS_DAC*%
X146060000Y-67325000D03*
%TO.P,U2,3,SCK*%
%TO.N,/SCLK*%
X148600000Y-67325000D03*
%TO.P,U2,4,SDI*%
%TO.N,/MOSI*%
X151140000Y-67325000D03*
%TO.P,U2,5,~{LDAC}*%
%TO.N,GND*%
X151140000Y-59705000D03*
%TO.P,U2,6,VB*%
%TO.N,Net-(U1B-+)*%
X148600000Y-59705000D03*
%TO.P,U2,7,Vss*%
%TO.N,GND*%
X146060000Y-59705000D03*
%TO.P,U2,8,VA*%
%TO.N,Net-(U1A-+)*%
X143520000Y-59705000D03*
%TD*%
D17*
%TO.P,J9,1*%
%TO.N,GND*%
X132080000Y-48260000D03*
D18*
%TO.P,J9,2*%
%TO.N,/CV*%
X129540000Y-48260000D03*
%TD*%
D16*
%TO.P,H3,1,1*%
%TO.N,GND*%
X143510000Y-51435000D03*
%TD*%
D21*
%TO.P,D3,1,K*%
%TO.N,Net-(D2-A)*%
X105780000Y-54610000D03*
%TO.P,D3,2,A*%
%TO.N,GND*%
X110780000Y-54610000D03*
%TD*%
D17*
%TO.P,J8,1*%
%TO.N,GND*%
X124460000Y-73660000D03*
D18*
%TO.P,J8,2*%
%TO.N,/PITCH*%
X124460000Y-76200000D03*
%TD*%
D13*
%TO.P,R7,1*%
%TO.N,Net-(D2-A)*%
X114630000Y-48617500D03*
%TO.P,R7,2*%
%TO.N,/GATE*%
X114630000Y-50442500D03*
%TD*%
D22*
%TO.P,D4,1,K*%
%TO.N,/CLKOUT*%
X129380000Y-81280000D03*
%TO.P,D4,2,A*%
%TO.N,GND*%
X134780000Y-81280000D03*
%TD*%
D17*
%TO.P,J6,1*%
%TO.N,GND*%
X139700000Y-73660000D03*
D18*
%TO.P,J6,2*%
%TO.N,Net-(J6-Pad2)*%
X139700000Y-76200000D03*
%TD*%
D10*
%TO.P,R11,1*%
%TO.N,GND*%
X107950000Y-84732500D03*
%TO.P,R11,2*%
%TO.N,Net-(Q1-B)*%
X107950000Y-82907500D03*
%TD*%
D17*
%TO.P,J2,1,Pin_1*%
%TO.N,+12V*%
X160020000Y-60960000D03*
D18*
%TO.P,J2,2,Pin_2*%
%TO.N,GND*%
X160020000Y-63500000D03*
%TO.P,J2,3,Pin_3*%
%TO.N,-12V*%
X160020000Y-66040000D03*
%TD*%
D23*
%TO.P,Q2,1,B*%
%TO.N,Net-(Q2-B)*%
X110822500Y-67630000D03*
%TO.P,Q2,2,E*%
%TO.N,GND*%
X110822500Y-69530000D03*
%TO.P,Q2,3,C*%
%TO.N,/RSTIN*%
X112697500Y-68580000D03*
%TD*%
D24*
%TO.P,C1,1*%
%TO.N,GND*%
X139700000Y-62801500D03*
%TO.P,C1,2*%
%TO.N,+5V*%
X139700000Y-64526500D03*
%TD*%
D17*
%TO.P,J4,1*%
%TO.N,GND*%
X101600000Y-50800000D03*
D18*
%TO.P,J4,2*%
%TO.N,Net-(J4-Pad2)*%
X101600000Y-53340000D03*
%TD*%
D10*
%TO.P,R14,1*%
%TO.N,/RSTIN*%
X105410000Y-69492500D03*
%TO.P,R14,2*%
%TO.N,+5V*%
X105410000Y-67667500D03*
%TD*%
D13*
%TO.P,R1,1*%
%TO.N,Net-(C2-Pad2)*%
X128270000Y-71477500D03*
%TO.P,R1,2*%
%TO.N,/PITCH*%
X128270000Y-73302500D03*
%TD*%
D25*
%TO.P,D1,1,K*%
%TO.N,/GATE*%
X119380000Y-49370000D03*
%TO.P,D1,2,A*%
%TO.N,GND*%
X119380000Y-54770000D03*
%TD*%
D15*
%TO.P,R16,1*%
%TO.N,GND*%
X112672500Y-64770000D03*
%TO.P,R16,2*%
%TO.N,Net-(Q2-B)*%
X110847500Y-64770000D03*
%TD*%
D23*
%TO.P,Q1,1,B*%
%TO.N,Net-(Q1-B)*%
X110822500Y-82870000D03*
%TO.P,Q1,2,E*%
%TO.N,GND*%
X110822500Y-84770000D03*
%TO.P,Q1,3,C*%
%TO.N,/CLKIN*%
X112697500Y-83820000D03*
%TD*%
D17*
%TO.P,J5,1*%
%TO.N,GND*%
X101600000Y-81280000D03*
D18*
%TO.P,J5,2*%
%TO.N,Net-(J5-Pad2)*%
X101600000Y-83820000D03*
%TD*%
D17*
%TO.P,J3,1,Pin_1*%
%TO.N,+5V*%
X152400000Y-48260000D03*
D18*
%TO.P,J3,2,Pin_2*%
%TO.N,GND*%
X154940000Y-48260000D03*
%TD*%
D17*
%TO.P,J7,1,Pin_1*%
%TO.N,/CLKIN*%
X124460000Y-86360000D03*
D18*
%TO.P,J7,2,Pin_2*%
%TO.N,/RSTIN*%
X127000000Y-86360000D03*
%TO.P,J7,3,Pin_3*%
%TO.N,/GATE*%
X129540000Y-86360000D03*
%TO.P,J7,4,Pin_4*%
%TO.N,/CLKOUT*%
X132080000Y-86360000D03*
%TO.P,J7,5,Pin_5*%
%TO.N,GND*%
X134620000Y-86360000D03*
%TD*%
D10*
%TO.P,R15,1*%
%TO.N,Net-(J10-Pad2)*%
X107950000Y-69492500D03*
%TO.P,R15,2*%
%TO.N,Net-(Q2-B)*%
X107950000Y-67667500D03*
%TD*%
D13*
%TO.P,R12,1*%
%TO.N,Net-(D2-A)*%
X104470000Y-48617500D03*
%TO.P,R12,2*%
%TO.N,Net-(J4-Pad2)*%
X104470000Y-50442500D03*
%TD*%
D10*
%TO.P,R10,1*%
%TO.N,Net-(J5-Pad2)*%
X105410000Y-84732500D03*
%TO.P,R10,2*%
%TO.N,Net-(Q1-B)*%
X105410000Y-82907500D03*
%TD*%
D16*
%TO.P,H2,1,1*%
%TO.N,GND*%
X106680000Y-60960000D03*
%TD*%
D17*
%TO.P,J10,1*%
%TO.N,GND*%
X101600000Y-66040000D03*
D18*
%TO.P,J10,2*%
%TO.N,Net-(J10-Pad2)*%
X101600000Y-68580000D03*
%TD*%
D19*
%TO.P,U1,1*%
%TO.N,Net-(C2-Pad2)*%
X128280000Y-67325000D03*
D20*
%TO.P,U1,2,-*%
%TO.N,Net-(U1A--)*%
X130820000Y-67325000D03*
%TO.P,U1,3,+*%
%TO.N,Net-(U1A-+)*%
X133360000Y-67325000D03*
%TO.P,U1,4,V-*%
%TO.N,-12V*%
X135900000Y-67325000D03*
%TO.P,U1,5,+*%
%TO.N,Net-(U1B-+)*%
X135900000Y-59705000D03*
%TO.P,U1,6,-*%
%TO.N,Net-(U1B--)*%
X133360000Y-59705000D03*
%TO.P,U1,7*%
%TO.N,Net-(C3-Pad2)*%
X130820000Y-59705000D03*
%TO.P,U1,8,V+*%
%TO.N,+12V*%
X128280000Y-59705000D03*
%TD*%
D26*
%TO.N,GND*%
X134620000Y-46990000D03*
X134620000Y-48260000D03*
X134620000Y-49530000D03*
X134620000Y-50800000D03*
X133350000Y-50800000D03*
X132080000Y-50800000D03*
X130810000Y-50800000D03*
X102870000Y-48260000D03*
X101600000Y-48260000D03*
X100330000Y-48260000D03*
X102870000Y-63500000D03*
X101600000Y-63500000D03*
X100330000Y-63500000D03*
X102870000Y-78740000D03*
X101600000Y-78740000D03*
X100330000Y-78740000D03*
X152400000Y-90170000D03*
X152400000Y-88900000D03*
X152400000Y-87630000D03*
X152400000Y-86360000D03*
X152400000Y-85090000D03*
X152400000Y-83820000D03*
X162560000Y-67310000D03*
X162560000Y-66040000D03*
X162560000Y-59690000D03*
X162560000Y-60960000D03*
X162560000Y-64770000D03*
X162560000Y-63500000D03*
X162560000Y-62230000D03*
X157480000Y-46990000D03*
X157480000Y-48260000D03*
X157480000Y-49530000D03*
X157480000Y-50800000D03*
X156210000Y-50800000D03*
X154940000Y-50800000D03*
X153670000Y-50800000D03*
X120000000Y-58000000D03*
X107000000Y-71000000D03*
X110000000Y-86000000D03*
X111000000Y-78000000D03*
X110000000Y-77000000D03*
X138000000Y-80000000D03*
X107000000Y-86000000D03*
X112000000Y-57000000D03*
X138000000Y-81000000D03*
X108000000Y-71000000D03*
X114000000Y-63000000D03*
X118000000Y-58000000D03*
X112000000Y-63000000D03*
X111000000Y-71000000D03*
X110000000Y-71000000D03*
X138000000Y-83000000D03*
X122000000Y-84000000D03*
X112000000Y-86000000D03*
X113000000Y-57000000D03*
X138000000Y-82000000D03*
X108000000Y-75000000D03*
X108000000Y-86000000D03*
X111000000Y-57000000D03*
X109000000Y-71000000D03*
X107000000Y-74000000D03*
X115000000Y-57000000D03*
X114000000Y-66000000D03*
X109000000Y-86000000D03*
X119000000Y-58000000D03*
X114000000Y-57000000D03*
X110000000Y-57000000D03*
X138000000Y-79000000D03*
X114000000Y-65000000D03*
X106000000Y-71000000D03*
X123000000Y-84000000D03*
X121000000Y-58000000D03*
X109000000Y-76000000D03*
X113000000Y-63000000D03*
X117000000Y-58000000D03*
X114000000Y-64000000D03*
X111000000Y-86000000D03*
X121000000Y-84000000D03*
X116000000Y-57000000D03*
X138000000Y-84000000D03*
%TO.N,/CLKIN*%
X119380000Y-86360000D03*
%TO.N,Net-(U1A-+)*%
X135890000Y-64770000D03*
%TO.N,Net-(J10-Pad2)*%
X109220000Y-69850000D03*
%TD*%
D27*
%TO.N,-12V*%
X133101500Y-64526500D02*
X135900000Y-67325000D01*
X124460000Y-64526500D02*
X133101500Y-64526500D01*
%TO.N,+12V*%
X125183500Y-62801500D02*
X128280000Y-59705000D01*
X124460000Y-62801500D02*
X125183500Y-62801500D01*
D28*
%TO.N,+5V*%
X111622500Y-79235000D02*
X114831722Y-79235000D01*
X150495000Y-64770000D02*
X146075000Y-64770000D01*
X139700000Y-64526500D02*
X140721500Y-64526500D01*
X138430000Y-87630000D02*
X139700000Y-86360000D01*
X105410000Y-67667500D02*
X104635000Y-68442500D01*
X143520000Y-82540000D02*
X139700000Y-86360000D01*
X143520000Y-67325000D02*
X143520000Y-82540000D01*
X140721500Y-64526500D02*
X143520000Y-67325000D01*
X114831722Y-79235000D02*
X123226722Y-87630000D01*
X152400000Y-48260000D02*
X152400000Y-62865000D01*
X152400000Y-62865000D02*
X150495000Y-64770000D01*
X146075000Y-64770000D02*
X143520000Y-67325000D01*
X123226722Y-87630000D02*
X138430000Y-87630000D01*
X104635000Y-68442500D02*
X104635000Y-73797500D01*
X104635000Y-73797500D02*
X110847500Y-80010000D01*
X110847500Y-80010000D02*
X111622500Y-79235000D01*
%TO.N,Net-(C2-Pad2)*%
X128280000Y-71467500D02*
X128270000Y-71477500D01*
X130760000Y-71477500D02*
X130810000Y-71527500D01*
X128280000Y-67325000D02*
X128280000Y-71467500D01*
X128270000Y-71477500D02*
X130760000Y-71477500D01*
%TO.N,Net-(U1A--)*%
X131575000Y-73252500D02*
X133350000Y-71477500D01*
X135890000Y-71477500D02*
X133350000Y-71477500D01*
X130810000Y-73252500D02*
X131575000Y-73252500D01*
X130820000Y-68947500D02*
X133350000Y-71477500D01*
X130820000Y-67325000D02*
X130820000Y-68947500D01*
%TO.N,Net-(C3-Pad2)*%
X129035000Y-55522500D02*
X130810000Y-53747500D01*
X128270000Y-55522500D02*
X128270000Y-57155000D01*
X128270000Y-55522500D02*
X129035000Y-55522500D01*
X128270000Y-57155000D02*
X130820000Y-59705000D01*
%TO.N,Net-(U1B--)*%
X133360000Y-59705000D02*
X133360000Y-55532500D01*
X133360000Y-55532500D02*
X133350000Y-55522500D01*
X135840000Y-55472500D02*
X135890000Y-55522500D01*
X130810000Y-55472500D02*
X135840000Y-55472500D01*
%TO.N,/GATE*%
X121920000Y-51910000D02*
X121920000Y-78740000D01*
X119380000Y-49370000D02*
X121920000Y-51910000D01*
X119380000Y-49370000D02*
X115702500Y-49370000D01*
X115702500Y-49370000D02*
X114630000Y-50442500D01*
X121920000Y-78740000D02*
X129540000Y-86360000D01*
%TO.N,Net-(D2-A)*%
X105780000Y-49927500D02*
X105780000Y-54610000D01*
X114630000Y-48617500D02*
X111177500Y-48617500D01*
X110820000Y-48260000D02*
X104827500Y-48260000D01*
X111177500Y-48617500D02*
X110820000Y-48260000D01*
X104470000Y-48617500D02*
X105780000Y-49927500D01*
X104827500Y-48260000D02*
X104470000Y-48617500D01*
%TO.N,Net-(D2-K)*%
X110820000Y-50800000D02*
X113717500Y-53697500D01*
X113717500Y-53697500D02*
X114630000Y-53697500D01*
%TO.N,/CLKOUT*%
X132080000Y-83980000D02*
X132080000Y-86360000D01*
X131167500Y-76200000D02*
X131167500Y-79492500D01*
X131167500Y-79492500D02*
X129380000Y-81280000D01*
X129380000Y-81280000D02*
X132080000Y-83980000D01*
%TO.N,/CS_DAC*%
X146060000Y-82540000D02*
X142240000Y-86360000D01*
X146060000Y-67325000D02*
X146060000Y-82540000D01*
%TO.N,/SCLK*%
X148600000Y-67325000D02*
X148600000Y-82540000D01*
X148600000Y-82540000D02*
X144780000Y-86360000D01*
%TO.N,/MOSI*%
X151140000Y-67325000D02*
X151140000Y-82540000D01*
X151140000Y-82540000D02*
X147320000Y-86360000D01*
%TO.N,/CLKIN*%
X112697500Y-83820000D02*
X116840000Y-83820000D01*
X112672500Y-80010000D02*
X112672500Y-83795000D01*
X112672500Y-83795000D02*
X112697500Y-83820000D01*
X116840000Y-83820000D02*
X119380000Y-86360000D01*
%TO.N,/RSTIN*%
X112697500Y-68580000D02*
X112697500Y-72057500D01*
X112697500Y-72057500D02*
X127000000Y-86360000D01*
X105410000Y-69492500D02*
X106322500Y-68580000D01*
X106322500Y-68580000D02*
X112697500Y-68580000D01*
%TO.N,Net-(Q1-B)*%
X105410000Y-82907500D02*
X110785000Y-82907500D01*
X110785000Y-82907500D02*
X110822500Y-82870000D01*
%TO.N,Net-(Q2-B)*%
X110785000Y-67667500D02*
X110822500Y-67630000D01*
X110822500Y-64795000D02*
X110847500Y-64770000D01*
X110822500Y-67630000D02*
X110822500Y-64795000D01*
X107950000Y-67667500D02*
X110785000Y-67667500D01*
%TO.N,/PITCH*%
X124460000Y-76200000D02*
X127357500Y-73302500D01*
X130311722Y-74090000D02*
X132562500Y-74090000D01*
X129524222Y-73302500D02*
X130311722Y-74090000D01*
X127357500Y-73302500D02*
X128270000Y-73302500D01*
X128270000Y-73302500D02*
X129524222Y-73302500D01*
X132562500Y-74090000D02*
X133350000Y-73302500D01*
%TO.N,/CV*%
X129057500Y-52910000D02*
X132562500Y-52910000D01*
X128270000Y-49530000D02*
X129540000Y-48260000D01*
X128270000Y-53697500D02*
X128270000Y-49530000D01*
X132562500Y-52910000D02*
X133350000Y-53697500D01*
X128270000Y-53697500D02*
X129057500Y-52910000D01*
%TO.N,Net-(U1B-+)*%
X146047500Y-57152500D02*
X146045000Y-57150000D01*
X147955000Y-57150000D02*
X146050000Y-57150000D01*
X135900000Y-58410000D02*
X135900000Y-59705000D01*
X137160000Y-57150000D02*
X135900000Y-58410000D01*
X146045000Y-57150000D02*
X137160000Y-57150000D01*
X148600000Y-57795000D02*
X147955000Y-57150000D01*
X148600000Y-59705000D02*
X148600000Y-57795000D01*
X146050000Y-57150000D02*
X146047500Y-57152500D01*
%TO.N,Net-(U1A-+)*%
X143520000Y-59705000D02*
X140955000Y-59705000D01*
X140955000Y-59705000D02*
X135890000Y-64770000D01*
%TO.N,Net-(J10-Pad2)*%
X109220000Y-69850000D02*
X108307500Y-69850000D01*
X108307500Y-69850000D02*
X107950000Y-69492500D01*
%TO.N,Net-(J4-Pad2)*%
X101600000Y-53340000D02*
X104470000Y-50470000D01*
X104470000Y-50470000D02*
X104470000Y-50442500D01*
%TO.N,Net-(J5-Pad2)*%
X102512500Y-84732500D02*
X105410000Y-84732500D01*
X101600000Y-83820000D02*
X102512500Y-84732500D01*
%TO.N,Net-(J6-Pad2)*%
X139700000Y-76200000D02*
X132992500Y-76200000D01*
%TD*%
%TA.AperFunction,Conductor*%
%TO.N,GND*%
G36*
X107223635Y-68949407D02*
G01*
X107259599Y-68998907D01*
X107259599Y-69060093D01*
X107258204Y-69064088D01*
X107240954Y-69110338D01*
X107230750Y-69137698D01*
X107230748Y-69137706D01*
X107224500Y-69195829D01*
X107224500Y-69789170D01*
X107224499Y-69789170D01*
X107230748Y-69847293D01*
X107230750Y-69847304D01*
X107279786Y-69978776D01*
X107290965Y-69993709D01*
X107363884Y-70091116D01*
X107363887Y-70091118D01*
X107363888Y-70091119D01*
X107476223Y-70175213D01*
X107607695Y-70224249D01*
X107607696Y-70224249D01*
X107607701Y-70224251D01*
X107665826Y-70230500D01*
X107665830Y-70230500D01*
X108234170Y-70230500D01*
X108234174Y-70230500D01*
X108292299Y-70224251D01*
X108339243Y-70206741D01*
X108373839Y-70200500D01*
X108746236Y-70200500D01*
X108804427Y-70219407D01*
X108824777Y-70239231D01*
X108827376Y-70242618D01*
X108827377Y-70242619D01*
X108827379Y-70242621D01*
X108942375Y-70330861D01*
X109076291Y-70386330D01*
X109220000Y-70405250D01*
X109363709Y-70386330D01*
X109497625Y-70330861D01*
X109612621Y-70242621D01*
X109659287Y-70181804D01*
X109709708Y-70147150D01*
X109770873Y-70148751D01*
X109807831Y-70172069D01*
X109833447Y-70197685D01*
X109974799Y-70281280D01*
X110132510Y-70327100D01*
X110169363Y-70330000D01*
X110572499Y-70330000D01*
X110572500Y-70329999D01*
X110572500Y-69780001D01*
X111072500Y-69780001D01*
X111072500Y-70329999D01*
X111072501Y-70330000D01*
X111475637Y-70330000D01*
X111512489Y-70327100D01*
X111670200Y-70281280D01*
X111670201Y-70281280D01*
X111811552Y-70197685D01*
X111927685Y-70081552D01*
X112011280Y-69940201D01*
X112011280Y-69940200D01*
X112057098Y-69782493D01*
X112057100Y-69782486D01*
X112057296Y-69780000D01*
X111072501Y-69780000D01*
X111072500Y-69780001D01*
X110572500Y-69780001D01*
X110572500Y-69629000D01*
X110591407Y-69570809D01*
X110640907Y-69534845D01*
X110671500Y-69530000D01*
X110822499Y-69530000D01*
X110822500Y-69529999D01*
X110822500Y-69379000D01*
X110841407Y-69320809D01*
X110890907Y-69284845D01*
X110921500Y-69280000D01*
X112057295Y-69280000D01*
X112057100Y-69277513D01*
X112057098Y-69277506D01*
X112051176Y-69257122D01*
X112053096Y-69195967D01*
X112090595Y-69147620D01*
X112146241Y-69130499D01*
X112248001Y-69130499D01*
X112306191Y-69149406D01*
X112342155Y-69198906D01*
X112347000Y-69229499D01*
X112347000Y-72103644D01*
X112362158Y-72160213D01*
X112366419Y-72176116D01*
X112366419Y-72176118D01*
X112370883Y-72192782D01*
X112370884Y-72192784D01*
X112370885Y-72192787D01*
X112370886Y-72192788D01*
X112417030Y-72272712D01*
X118930460Y-78786142D01*
X125234814Y-85090496D01*
X125262591Y-85145013D01*
X125253020Y-85205445D01*
X125209755Y-85248710D01*
X125164810Y-85259500D01*
X123585326Y-85259500D01*
X123585325Y-85259500D01*
X123585315Y-85259501D01*
X123512263Y-85274033D01*
X123512257Y-85274035D01*
X123429400Y-85329397D01*
X123429397Y-85329400D01*
X123374035Y-85412257D01*
X123374033Y-85412263D01*
X123359501Y-85485315D01*
X123359500Y-85485327D01*
X123359500Y-87028088D01*
X123340593Y-87086279D01*
X123291093Y-87122243D01*
X123229907Y-87122243D01*
X123190496Y-87098092D01*
X119143923Y-83051519D01*
X115046934Y-78954530D01*
X114967010Y-78908386D01*
X114877866Y-78884500D01*
X111576356Y-78884500D01*
X111487212Y-78908386D01*
X111407285Y-78954532D01*
X111106313Y-79255504D01*
X111051797Y-79283281D01*
X111036310Y-79284500D01*
X110658690Y-79284500D01*
X110600499Y-79265593D01*
X110588686Y-79255504D01*
X105014496Y-73681314D01*
X104986719Y-73626797D01*
X104985500Y-73611310D01*
X104985500Y-70325627D01*
X105004407Y-70267436D01*
X105053907Y-70231472D01*
X105095079Y-70227194D01*
X105125826Y-70230500D01*
X105125831Y-70230500D01*
X105694170Y-70230500D01*
X105694174Y-70230500D01*
X105752299Y-70224251D01*
X105815978Y-70200500D01*
X105883776Y-70175213D01*
X105883776Y-70175212D01*
X105883778Y-70175212D01*
X105996116Y-70091116D01*
X106080212Y-69978778D01*
X106094601Y-69940201D01*
X106112224Y-69892948D01*
X106129251Y-69847299D01*
X106135500Y-69789174D01*
X106135500Y-69303690D01*
X106154407Y-69245499D01*
X106164496Y-69233686D01*
X106438686Y-68959496D01*
X106493203Y-68931719D01*
X106508690Y-68930500D01*
X107165444Y-68930500D01*
X107223635Y-68949407D01*
G37*
%TD.AperFunction*%
%TA.AperFunction,Conductor*%
G36*
X163458692Y-45519407D02*
G01*
X163494656Y-45568907D01*
X163499501Y-45599500D01*
X163499549Y-86934108D01*
X163499549Y-86936488D01*
X163480642Y-86994679D01*
X163431142Y-87030643D01*
X163369956Y-87030643D01*
X163320456Y-86994679D01*
X163301694Y-86941848D01*
X163285474Y-86642682D01*
X163227581Y-86289550D01*
X163131853Y-85944770D01*
X163131851Y-85944765D01*
X162999395Y-85612326D01*
X162831784Y-85296177D01*
X162630967Y-84999995D01*
X162630960Y-84999985D01*
X162503556Y-84849995D01*
X161294250Y-86059300D01*
X161220412Y-85957670D01*
X161042330Y-85779588D01*
X160940696Y-85705747D01*
X162152742Y-84493702D01*
X162139511Y-84481170D01*
X161854641Y-84264617D01*
X161854636Y-84264614D01*
X161548019Y-84080128D01*
X161223255Y-83929876D01*
X160884131Y-83815612D01*
X160534669Y-83738689D01*
X160534670Y-83738689D01*
X160178922Y-83700000D01*
X159821078Y-83700000D01*
X159465329Y-83738689D01*
X159115869Y-83815612D01*
X159115867Y-83815612D01*
X158776744Y-83929876D01*
X158451980Y-84080128D01*
X158145363Y-84264614D01*
X158145358Y-84264617D01*
X157860495Y-84481164D01*
X157860473Y-84481183D01*
X157847256Y-84493702D01*
X159059301Y-85705747D01*
X158957670Y-85779588D01*
X158779588Y-85957670D01*
X158705747Y-86059301D01*
X157496441Y-84849995D01*
X157369039Y-84999985D01*
X157369032Y-84999995D01*
X157168215Y-85296177D01*
X157000604Y-85612326D01*
X156868148Y-85944765D01*
X156868146Y-85944770D01*
X156772418Y-86289550D01*
X156714525Y-86642682D01*
X156695153Y-87000000D01*
X156714525Y-87357317D01*
X156772418Y-87710449D01*
X156868146Y-88055229D01*
X156868148Y-88055234D01*
X157000604Y-88387673D01*
X157168215Y-88703822D01*
X157369032Y-89000004D01*
X157369039Y-89000014D01*
X157496441Y-89150002D01*
X158705746Y-87940696D01*
X158779588Y-88042330D01*
X158957670Y-88220412D01*
X159059300Y-88294251D01*
X157847256Y-89506296D01*
X157860488Y-89518829D01*
X158145358Y-89735382D01*
X158145363Y-89735385D01*
X158451980Y-89919871D01*
X158776744Y-90070123D01*
X159115868Y-90184387D01*
X159465330Y-90261310D01*
X159465329Y-90261310D01*
X159821078Y-90300000D01*
X160014307Y-90300000D01*
X160072498Y-90318907D01*
X160108462Y-90368407D01*
X160108462Y-90429593D01*
X160072498Y-90479093D01*
X160018683Y-90497903D01*
X159984940Y-90499396D01*
X159980071Y-90499492D01*
X159913218Y-90499159D01*
X159907823Y-90499499D01*
X99599500Y-90499499D01*
X99541309Y-90480592D01*
X99505345Y-90431092D01*
X99500500Y-90400499D01*
X99500500Y-82177824D01*
X100249999Y-82177824D01*
X100256401Y-82237370D01*
X100256403Y-82237381D01*
X100306646Y-82372088D01*
X100306647Y-82372090D01*
X100392807Y-82487184D01*
X100392815Y-82487192D01*
X100507909Y-82573352D01*
X100507911Y-82573353D01*
X100642618Y-82623596D01*
X100642629Y-82623598D01*
X100702176Y-82630000D01*
X101095703Y-82630000D01*
X101153894Y-82648907D01*
X101189858Y-82698407D01*
X101189858Y-82759593D01*
X101153894Y-82809093D01*
X101131469Y-82821313D01*
X101107363Y-82830652D01*
X100963862Y-82919504D01*
X100933959Y-82938019D01*
X100783237Y-83075420D01*
X100660328Y-83238177D01*
X100660323Y-83238186D01*
X100569542Y-83420500D01*
X100569418Y-83420750D01*
X100513603Y-83616917D01*
X100494785Y-83820000D01*
X100513603Y-84023083D01*
X100569418Y-84219250D01*
X100660327Y-84401821D01*
X100783236Y-84564579D01*
X100933959Y-84701981D01*
X101107363Y-84809348D01*
X101297544Y-84883024D01*
X101498024Y-84920500D01*
X101701976Y-84920500D01*
X101902456Y-84883024D01*
X102033228Y-84832362D01*
X102094316Y-84828973D01*
X102138991Y-84854674D01*
X102242460Y-84958142D01*
X102297288Y-85012970D01*
X102377212Y-85059114D01*
X102466356Y-85083000D01*
X104620408Y-85083000D01*
X104678599Y-85101907D01*
X104713166Y-85147403D01*
X104739787Y-85218777D01*
X104822598Y-85329399D01*
X104823884Y-85331116D01*
X104823887Y-85331118D01*
X104823888Y-85331119D01*
X104936223Y-85415213D01*
X105067695Y-85464249D01*
X105067696Y-85464249D01*
X105067701Y-85464251D01*
X105125826Y-85470500D01*
X105125830Y-85470500D01*
X105694170Y-85470500D01*
X105694174Y-85470500D01*
X105752299Y-85464251D01*
X105797948Y-85447224D01*
X105883776Y-85415213D01*
X105883776Y-85415212D01*
X105883778Y-85415212D01*
X105996116Y-85331116D01*
X106080212Y-85218778D01*
X106094601Y-85180201D01*
X106117848Y-85117871D01*
X106129251Y-85087299D01*
X106135500Y-85029174D01*
X106135500Y-84982501D01*
X106975001Y-84982501D01*
X106975001Y-85031654D01*
X106985317Y-85132642D01*
X106985320Y-85132654D01*
X107039548Y-85296306D01*
X107130053Y-85443035D01*
X107251964Y-85564946D01*
X107398693Y-85655451D01*
X107562351Y-85709681D01*
X107663344Y-85719999D01*
X107699999Y-85719999D01*
X107700000Y-85719998D01*
X107700000Y-84982501D01*
X108200000Y-84982501D01*
X108200000Y-85719998D01*
X108200001Y-85719999D01*
X108236654Y-85719999D01*
X108337642Y-85709682D01*
X108337654Y-85709679D01*
X108501306Y-85655451D01*
X108648035Y-85564946D01*
X108769946Y-85443035D01*
X108860451Y-85296306D01*
X108914681Y-85132648D01*
X108925000Y-85031655D01*
X108925000Y-85020000D01*
X109587704Y-85020000D01*
X109587899Y-85022486D01*
X109587901Y-85022493D01*
X109633719Y-85180200D01*
X109633719Y-85180201D01*
X109717314Y-85321552D01*
X109833447Y-85437685D01*
X109974799Y-85521280D01*
X110132510Y-85567100D01*
X110169363Y-85570000D01*
X110572499Y-85570000D01*
X110572500Y-85569999D01*
X110572500Y-85020001D01*
X111072500Y-85020001D01*
X111072500Y-85569999D01*
X111072501Y-85570000D01*
X111475637Y-85570000D01*
X111512489Y-85567100D01*
X111670200Y-85521280D01*
X111670201Y-85521280D01*
X111811552Y-85437685D01*
X111927685Y-85321552D01*
X112011280Y-85180201D01*
X112011280Y-85180200D01*
X112057098Y-85022493D01*
X112057100Y-85022486D01*
X112057296Y-85020000D01*
X111072501Y-85020000D01*
X111072500Y-85020001D01*
X110572500Y-85020001D01*
X110572499Y-85020000D01*
X109587704Y-85020000D01*
X108925000Y-85020000D01*
X108925000Y-84982501D01*
X108924999Y-84982500D01*
X108200001Y-84982500D01*
X108200000Y-84982501D01*
X107700000Y-84982501D01*
X107699999Y-84982500D01*
X106975002Y-84982500D01*
X106975001Y-84982501D01*
X106135500Y-84982501D01*
X106135500Y-84520000D01*
X109587704Y-84520000D01*
X110572499Y-84520000D01*
X110572500Y-84519999D01*
X110572500Y-83970001D01*
X110572499Y-83970000D01*
X110169363Y-83970000D01*
X110132510Y-83972899D01*
X109974799Y-84018719D01*
X109974798Y-84018719D01*
X109833447Y-84102314D01*
X109717314Y-84218447D01*
X109633719Y-84359798D01*
X109633719Y-84359799D01*
X109587901Y-84517506D01*
X109587899Y-84517513D01*
X109587704Y-84520000D01*
X106135500Y-84520000D01*
X106135500Y-84435826D01*
X106129251Y-84377701D01*
X106126565Y-84370499D01*
X106080213Y-84246223D01*
X105996119Y-84133888D01*
X105996118Y-84133887D01*
X105996116Y-84133884D01*
X105944580Y-84095304D01*
X105883776Y-84049786D01*
X105752304Y-84000750D01*
X105752299Y-84000749D01*
X105752297Y-84000748D01*
X105752293Y-84000748D01*
X105726011Y-83997922D01*
X105694174Y-83994500D01*
X105125826Y-83994500D01*
X105097823Y-83997510D01*
X105067706Y-84000748D01*
X105067695Y-84000750D01*
X104936223Y-84049786D01*
X104823888Y-84133880D01*
X104823880Y-84133888D01*
X104739787Y-84246222D01*
X104713166Y-84317597D01*
X104675115Y-84365511D01*
X104620408Y-84382000D01*
X102709433Y-84382000D01*
X102651242Y-84363093D01*
X102615278Y-84313593D01*
X102615278Y-84252407D01*
X102620812Y-84238872D01*
X102625129Y-84230199D01*
X102630582Y-84219250D01*
X102686397Y-84023083D01*
X102705215Y-83820000D01*
X102686397Y-83616917D01*
X102630582Y-83420750D01*
X102539673Y-83238179D01*
X102416764Y-83075421D01*
X102266041Y-82938019D01*
X102092637Y-82830652D01*
X102068532Y-82821314D01*
X102021103Y-82782663D01*
X102005449Y-82723514D01*
X102027552Y-82666461D01*
X102078969Y-82633295D01*
X102104297Y-82630000D01*
X102497824Y-82630000D01*
X102557370Y-82623598D01*
X102557381Y-82623596D01*
X102692088Y-82573353D01*
X102692090Y-82573352D01*
X102807184Y-82487192D01*
X102807192Y-82487184D01*
X102893352Y-82372090D01*
X102893353Y-82372088D01*
X102943596Y-82237381D01*
X102943598Y-82237370D01*
X102950000Y-82177824D01*
X102950000Y-81530001D01*
X102949999Y-81530000D01*
X102033012Y-81530000D01*
X102065925Y-81472993D01*
X102100000Y-81345826D01*
X102100000Y-81214174D01*
X102065925Y-81087007D01*
X102033012Y-81030000D01*
X102949999Y-81030000D01*
X102950000Y-81029999D01*
X102950000Y-80382175D01*
X102943598Y-80322629D01*
X102943596Y-80322618D01*
X102893353Y-80187911D01*
X102893352Y-80187909D01*
X102807192Y-80072815D01*
X102807184Y-80072807D01*
X102692090Y-79986647D01*
X102692088Y-79986646D01*
X102557381Y-79936403D01*
X102557370Y-79936401D01*
X102497824Y-79930000D01*
X101850001Y-79930000D01*
X101850000Y-79930001D01*
X101850000Y-80846988D01*
X101792993Y-80814075D01*
X101665826Y-80780000D01*
X101534174Y-80780000D01*
X101407007Y-80814075D01*
X101350000Y-80846988D01*
X101350000Y-79930001D01*
X101349999Y-79930000D01*
X100702176Y-79930000D01*
X100642629Y-79936401D01*
X100642618Y-79936403D01*
X100507911Y-79986646D01*
X100507909Y-79986647D01*
X100392815Y-80072807D01*
X100392807Y-80072815D01*
X100306647Y-80187909D01*
X100306646Y-80187911D01*
X100256403Y-80322618D01*
X100256401Y-80322629D01*
X100250000Y-80382175D01*
X100250000Y-81029999D01*
X100250001Y-81030000D01*
X101166988Y-81030000D01*
X101134075Y-81087007D01*
X101100000Y-81214174D01*
X101100000Y-81345826D01*
X101134075Y-81472993D01*
X101166988Y-81530000D01*
X100250001Y-81530000D01*
X100250000Y-81530001D01*
X100250000Y-82177824D01*
X100249999Y-82177824D01*
X99500500Y-82177824D01*
X99500500Y-66937824D01*
X100249999Y-66937824D01*
X100256401Y-66997370D01*
X100256403Y-66997381D01*
X100306646Y-67132088D01*
X100306647Y-67132090D01*
X100392807Y-67247184D01*
X100392815Y-67247192D01*
X100507909Y-67333352D01*
X100507911Y-67333353D01*
X100642618Y-67383596D01*
X100642629Y-67383598D01*
X100702176Y-67390000D01*
X101095703Y-67390000D01*
X101153894Y-67408907D01*
X101189858Y-67458407D01*
X101189858Y-67519593D01*
X101153894Y-67569093D01*
X101131469Y-67581313D01*
X101107363Y-67590652D01*
X100933959Y-67698019D01*
X100790869Y-67828463D01*
X100783236Y-67835421D01*
X100743388Y-67888188D01*
X100660328Y-67998177D01*
X100660323Y-67998186D01*
X100569542Y-68180500D01*
X100569418Y-68180750D01*
X100513603Y-68376917D01*
X100494785Y-68580000D01*
X100513603Y-68783083D01*
X100569418Y-68979250D01*
X100660327Y-69161821D01*
X100783236Y-69324579D01*
X100933959Y-69461981D01*
X101107363Y-69569348D01*
X101297544Y-69643024D01*
X101498024Y-69680500D01*
X101701976Y-69680500D01*
X101902456Y-69643024D01*
X102092637Y-69569348D01*
X102266041Y-69461981D01*
X102416764Y-69324579D01*
X102539673Y-69161821D01*
X102630582Y-68979250D01*
X102686397Y-68783083D01*
X102705215Y-68580000D01*
X102686397Y-68376917D01*
X102630582Y-68180750D01*
X102539673Y-67998179D01*
X102416764Y-67835421D01*
X102266041Y-67698019D01*
X102092637Y-67590652D01*
X102068532Y-67581314D01*
X102021103Y-67542663D01*
X102005449Y-67483514D01*
X102027552Y-67426461D01*
X102078969Y-67393295D01*
X102104297Y-67390000D01*
X102497824Y-67390000D01*
X102557370Y-67383598D01*
X102557381Y-67383596D01*
X102692088Y-67333353D01*
X102692090Y-67333352D01*
X102807184Y-67247192D01*
X102807192Y-67247184D01*
X102893352Y-67132090D01*
X102893353Y-67132088D01*
X102943596Y-66997381D01*
X102943598Y-66997370D01*
X102950000Y-66937824D01*
X102950000Y-66290001D01*
X102949999Y-66290000D01*
X102033012Y-66290000D01*
X102065925Y-66232993D01*
X102100000Y-66105826D01*
X102100000Y-65974174D01*
X102065925Y-65847007D01*
X102033012Y-65790000D01*
X102949999Y-65790000D01*
X102950000Y-65789999D01*
X102950000Y-65142175D01*
X102943598Y-65082629D01*
X102943596Y-65082618D01*
X102893353Y-64947911D01*
X102893352Y-64947909D01*
X102807192Y-64832815D01*
X102807184Y-64832807D01*
X102692090Y-64746647D01*
X102692088Y-64746646D01*
X102557381Y-64696403D01*
X102557370Y-64696401D01*
X102497824Y-64690000D01*
X101850001Y-64690000D01*
X101850000Y-64690001D01*
X101850000Y-65606988D01*
X101792993Y-65574075D01*
X101665826Y-65540000D01*
X101534174Y-65540000D01*
X101407007Y-65574075D01*
X101350000Y-65606988D01*
X101350000Y-64690001D01*
X101349999Y-64690000D01*
X100702176Y-64690000D01*
X100642629Y-64696401D01*
X100642618Y-64696403D01*
X100507911Y-64746646D01*
X100507909Y-64746647D01*
X100392815Y-64832807D01*
X100392807Y-64832815D01*
X100306647Y-64947909D01*
X100306646Y-64947911D01*
X100256403Y-65082618D01*
X100256401Y-65082629D01*
X100250000Y-65142175D01*
X100250000Y-65789999D01*
X100250001Y-65790000D01*
X101166988Y-65790000D01*
X101134075Y-65847007D01*
X101100000Y-65974174D01*
X101100000Y-66105826D01*
X101134075Y-66232993D01*
X101166988Y-66290000D01*
X100250001Y-66290000D01*
X100250000Y-66290001D01*
X100250000Y-66937824D01*
X100249999Y-66937824D01*
X99500500Y-66937824D01*
X99500500Y-60960000D01*
X103375153Y-60960000D01*
X103394525Y-61317317D01*
X103452418Y-61670449D01*
X103548146Y-62015229D01*
X103548148Y-62015234D01*
X103680604Y-62347673D01*
X103848215Y-62663822D01*
X104049032Y-62960004D01*
X104049039Y-62960014D01*
X104176441Y-63110002D01*
X105385746Y-61900696D01*
X105459588Y-62002330D01*
X105637670Y-62180412D01*
X105739300Y-62254251D01*
X104527256Y-63466296D01*
X104540488Y-63478829D01*
X104825358Y-63695382D01*
X104825363Y-63695385D01*
X105131980Y-63879871D01*
X105456744Y-64030123D01*
X105795868Y-64144387D01*
X106145330Y-64221310D01*
X106145329Y-64221310D01*
X106501078Y-64260000D01*
X106858922Y-64260000D01*
X107214670Y-64221310D01*
X107564130Y-64144387D01*
X107564132Y-64144387D01*
X107903255Y-64030123D01*
X108228019Y-63879871D01*
X108534636Y-63695385D01*
X108534641Y-63695382D01*
X108819500Y-63478839D01*
X108819512Y-63478828D01*
X108832742Y-63466296D01*
X107620698Y-62254252D01*
X107722330Y-62180412D01*
X107900412Y-62002330D01*
X107974252Y-61900698D01*
X109183557Y-63110003D01*
X109310962Y-62960011D01*
X109310966Y-62960007D01*
X109511784Y-62663822D01*
X109679395Y-62347673D01*
X109811851Y-62015234D01*
X109811853Y-62015229D01*
X109907581Y-61670449D01*
X109965474Y-61317317D01*
X109984846Y-60960000D01*
X109965474Y-60602682D01*
X109907581Y-60249550D01*
X109811853Y-59904770D01*
X109811851Y-59904765D01*
X109679395Y-59572326D01*
X109511784Y-59256177D01*
X109310967Y-58959995D01*
X109310960Y-58959985D01*
X109183556Y-58809995D01*
X107974250Y-60019300D01*
X107900412Y-59917670D01*
X107722330Y-59739588D01*
X107620696Y-59665747D01*
X108832742Y-58453702D01*
X108819511Y-58441170D01*
X108534641Y-58224617D01*
X108534636Y-58224614D01*
X108228019Y-58040128D01*
X107903255Y-57889876D01*
X107564131Y-57775612D01*
X107214669Y-57698689D01*
X107214670Y-57698689D01*
X106858922Y-57660000D01*
X106501078Y-57660000D01*
X106145329Y-57698689D01*
X105795869Y-57775612D01*
X105795867Y-57775612D01*
X105456744Y-57889876D01*
X105131980Y-58040128D01*
X104825363Y-58224614D01*
X104825358Y-58224617D01*
X104540495Y-58441164D01*
X104540473Y-58441183D01*
X104527256Y-58453702D01*
X105739301Y-59665747D01*
X105637670Y-59739588D01*
X105459588Y-59917670D01*
X105385747Y-60019301D01*
X104176441Y-58809995D01*
X104049039Y-58959985D01*
X104049032Y-58959995D01*
X103848215Y-59256177D01*
X103680604Y-59572326D01*
X103548148Y-59904765D01*
X103548146Y-59904770D01*
X103452418Y-60249550D01*
X103394525Y-60602682D01*
X103375153Y-60960000D01*
X99500500Y-60960000D01*
X99500500Y-51697824D01*
X100249999Y-51697824D01*
X100256401Y-51757370D01*
X100256403Y-51757381D01*
X100306646Y-51892088D01*
X100306647Y-51892090D01*
X100392807Y-52007184D01*
X100392815Y-52007192D01*
X100507909Y-52093352D01*
X100507911Y-52093353D01*
X100642618Y-52143596D01*
X100642629Y-52143598D01*
X100702176Y-52150000D01*
X101095703Y-52150000D01*
X101153894Y-52168907D01*
X101189858Y-52218407D01*
X101189858Y-52279593D01*
X101153894Y-52329093D01*
X101131469Y-52341313D01*
X101107363Y-52350652D01*
X100933959Y-52458019D01*
X100783237Y-52595420D01*
X100660328Y-52758177D01*
X100660323Y-52758186D01*
X100569496Y-52940593D01*
X100569418Y-52940750D01*
X100513603Y-53136917D01*
X100494785Y-53340000D01*
X100513603Y-53543083D01*
X100569418Y-53739250D01*
X100660327Y-53921821D01*
X100783236Y-54084579D01*
X100933959Y-54221981D01*
X101107363Y-54329348D01*
X101297544Y-54403024D01*
X101498024Y-54440500D01*
X101701976Y-54440500D01*
X101902456Y-54403024D01*
X102092637Y-54329348D01*
X102266041Y-54221981D01*
X102416764Y-54084579D01*
X102539673Y-53921821D01*
X102630582Y-53739250D01*
X102686397Y-53543083D01*
X102705215Y-53340000D01*
X102686397Y-53136917D01*
X102630582Y-52940750D01*
X102617239Y-52913954D01*
X102608226Y-52853441D01*
X102635854Y-52799826D01*
X104226186Y-51209496D01*
X104280703Y-51181719D01*
X104296190Y-51180500D01*
X104754170Y-51180500D01*
X104754174Y-51180500D01*
X104812299Y-51174251D01*
X104857948Y-51157224D01*
X104943776Y-51125213D01*
X104943776Y-51125212D01*
X104943778Y-51125212D01*
X105056116Y-51041116D01*
X105140212Y-50928778D01*
X105144281Y-50917870D01*
X105189249Y-50797304D01*
X105189248Y-50797304D01*
X105189251Y-50797299D01*
X105195500Y-50739174D01*
X105195500Y-50145826D01*
X105189251Y-50087701D01*
X105188589Y-50081543D01*
X105191394Y-50081241D01*
X105195455Y-50031784D01*
X105235349Y-49985394D01*
X105294892Y-49971312D01*
X105351340Y-49994918D01*
X105356794Y-49999976D01*
X105400504Y-50043686D01*
X105428281Y-50098203D01*
X105429500Y-50113690D01*
X105429500Y-53360500D01*
X105410593Y-53418691D01*
X105361093Y-53454655D01*
X105330500Y-53459500D01*
X104232133Y-53459500D01*
X104232129Y-53459500D01*
X104232128Y-53459501D01*
X104224949Y-53460272D01*
X104172519Y-53465908D01*
X104172514Y-53465909D01*
X104037670Y-53516202D01*
X103922458Y-53602450D01*
X103922450Y-53602458D01*
X103836202Y-53717670D01*
X103785910Y-53852511D01*
X103785909Y-53852517D01*
X103779728Y-53910012D01*
X103779500Y-53912129D01*
X103779500Y-55307866D01*
X103779500Y-55307869D01*
X103779501Y-55307872D01*
X103781044Y-55322229D01*
X103785908Y-55367480D01*
X103785909Y-55367485D01*
X103836202Y-55502329D01*
X103893691Y-55579124D01*
X103922454Y-55617546D01*
X103922457Y-55617548D01*
X103922458Y-55617549D01*
X104037670Y-55703797D01*
X104172511Y-55754089D01*
X104172512Y-55754089D01*
X104172517Y-55754091D01*
X104232127Y-55760500D01*
X107327872Y-55760499D01*
X107387483Y-55754091D01*
X107456525Y-55728340D01*
X107522329Y-55703797D01*
X107522329Y-55703796D01*
X107522331Y-55703796D01*
X107637546Y-55617546D01*
X107723796Y-55502331D01*
X107774091Y-55367483D01*
X107780500Y-55307873D01*
X107780500Y-54860001D01*
X108530001Y-54860001D01*
X108530001Y-55309986D01*
X108540492Y-55412687D01*
X108540495Y-55412699D01*
X108595643Y-55579124D01*
X108687680Y-55728340D01*
X108811659Y-55852319D01*
X108960875Y-55944356D01*
X109127306Y-55999506D01*
X109230012Y-56009999D01*
X110529998Y-56009999D01*
X110530000Y-56009998D01*
X110530000Y-54860001D01*
X111030000Y-54860001D01*
X111030000Y-56009998D01*
X111030001Y-56009999D01*
X112329986Y-56009999D01*
X112432687Y-55999507D01*
X112432699Y-55999504D01*
X112599124Y-55944356D01*
X112748340Y-55852319D01*
X112828158Y-55772501D01*
X113655001Y-55772501D01*
X113655001Y-55821654D01*
X113665317Y-55922642D01*
X113665320Y-55922654D01*
X113719548Y-56086306D01*
X113810053Y-56233035D01*
X113931964Y-56354946D01*
X114078693Y-56445451D01*
X114242351Y-56499681D01*
X114343344Y-56509999D01*
X114379999Y-56509999D01*
X114380000Y-56509998D01*
X114380000Y-55772501D01*
X114880000Y-55772501D01*
X114880000Y-56509998D01*
X114880001Y-56509999D01*
X114916654Y-56509999D01*
X115017642Y-56499682D01*
X115017654Y-56499679D01*
X115181306Y-56445451D01*
X115328035Y-56354946D01*
X115449946Y-56233035D01*
X115540451Y-56086306D01*
X115594681Y-55922648D01*
X115605000Y-55821655D01*
X115605000Y-55772501D01*
X115604999Y-55772500D01*
X114880001Y-55772500D01*
X114880000Y-55772501D01*
X114380000Y-55772501D01*
X114379999Y-55772500D01*
X113655002Y-55772500D01*
X113655001Y-55772501D01*
X112828158Y-55772501D01*
X112872319Y-55728340D01*
X112964356Y-55579124D01*
X113019506Y-55412693D01*
X113030000Y-55309987D01*
X113030000Y-54860001D01*
X113029999Y-54860000D01*
X111030001Y-54860000D01*
X111030000Y-54860001D01*
X110530000Y-54860001D01*
X110529999Y-54860000D01*
X108530002Y-54860000D01*
X108530001Y-54860001D01*
X107780500Y-54860001D01*
X107780499Y-53912128D01*
X107780272Y-53910012D01*
X108530000Y-53910012D01*
X108530000Y-54359999D01*
X108530001Y-54360000D01*
X110529999Y-54360000D01*
X110530000Y-54359999D01*
X110530000Y-53210001D01*
X110529999Y-53210000D01*
X109230013Y-53210000D01*
X109127312Y-53220492D01*
X109127300Y-53220495D01*
X108960875Y-53275643D01*
X108811659Y-53367680D01*
X108687680Y-53491659D01*
X108595643Y-53640875D01*
X108540493Y-53807306D01*
X108530000Y-53910012D01*
X107780272Y-53910012D01*
X107774091Y-53852517D01*
X107757231Y-53807312D01*
X107723797Y-53717670D01*
X107637549Y-53602458D01*
X107637548Y-53602457D01*
X107637546Y-53602454D01*
X107637541Y-53602450D01*
X107522329Y-53516202D01*
X107387488Y-53465910D01*
X107387483Y-53465909D01*
X107387481Y-53465908D01*
X107387477Y-53465908D01*
X107356249Y-53462550D01*
X107327873Y-53459500D01*
X107327870Y-53459500D01*
X106229500Y-53459500D01*
X106171309Y-53440593D01*
X106135345Y-53391093D01*
X106130500Y-53360500D01*
X106130500Y-49881357D01*
X106130500Y-49881356D01*
X106128885Y-49875327D01*
X109669500Y-49875327D01*
X109669500Y-51724672D01*
X109669501Y-51724684D01*
X109684033Y-51797736D01*
X109684035Y-51797742D01*
X109739397Y-51880599D01*
X109739400Y-51880602D01*
X109822257Y-51935964D01*
X109822260Y-51935966D01*
X109877808Y-51947015D01*
X109895315Y-51950498D01*
X109895320Y-51950498D01*
X109895326Y-51950500D01*
X111433810Y-51950500D01*
X111492001Y-51969407D01*
X111503814Y-51979496D01*
X112604124Y-53079806D01*
X112631900Y-53134321D01*
X112622329Y-53194753D01*
X112579064Y-53238018D01*
X112518632Y-53247589D01*
X112502980Y-53243783D01*
X112432696Y-53220494D01*
X112432693Y-53220493D01*
X112329987Y-53210000D01*
X111030001Y-53210000D01*
X111030000Y-53210001D01*
X111030000Y-54359999D01*
X111030001Y-54360000D01*
X113029998Y-54360000D01*
X113029999Y-54359999D01*
X113029999Y-53910013D01*
X113019507Y-53807312D01*
X113019505Y-53807304D01*
X112996215Y-53737021D01*
X112995859Y-53675837D01*
X113031533Y-53626128D01*
X113089613Y-53606882D01*
X113147913Y-53625449D01*
X113160193Y-53635876D01*
X113331622Y-53807304D01*
X113502288Y-53977970D01*
X113582212Y-54024114D01*
X113671356Y-54048000D01*
X113840408Y-54048000D01*
X113898599Y-54066907D01*
X113933166Y-54112403D01*
X113959787Y-54183777D01*
X113988386Y-54221981D01*
X114043884Y-54296116D01*
X114043887Y-54296118D01*
X114043888Y-54296119D01*
X114156222Y-54380212D01*
X114167660Y-54384478D01*
X114215576Y-54422527D01*
X114231975Y-54481474D01*
X114210595Y-54538802D01*
X114164207Y-54571212D01*
X114078692Y-54599549D01*
X113931964Y-54690053D01*
X113810053Y-54811964D01*
X113719548Y-54958693D01*
X113665318Y-55122351D01*
X113655000Y-55223344D01*
X113655000Y-55272499D01*
X113655001Y-55272500D01*
X115604998Y-55272500D01*
X115604999Y-55272499D01*
X115604999Y-55223345D01*
X115594682Y-55122357D01*
X115594679Y-55122345D01*
X115560766Y-55020001D01*
X117730001Y-55020001D01*
X117730001Y-56319986D01*
X117740492Y-56422687D01*
X117740495Y-56422699D01*
X117795643Y-56589124D01*
X117887680Y-56738340D01*
X118011659Y-56862319D01*
X118160875Y-56954356D01*
X118327306Y-57009506D01*
X118430012Y-57019999D01*
X119129998Y-57019999D01*
X119130000Y-57019998D01*
X119130000Y-55020001D01*
X119630000Y-55020001D01*
X119630000Y-57019998D01*
X119630001Y-57019999D01*
X120329986Y-57019999D01*
X120432687Y-57009507D01*
X120432699Y-57009504D01*
X120599124Y-56954356D01*
X120748340Y-56862319D01*
X120872319Y-56738340D01*
X120964356Y-56589124D01*
X121019506Y-56422693D01*
X121030000Y-56319987D01*
X121030000Y-55020001D01*
X121029999Y-55020000D01*
X119630001Y-55020000D01*
X119630000Y-55020001D01*
X119130000Y-55020001D01*
X119129999Y-55020000D01*
X117730002Y-55020000D01*
X117730001Y-55020001D01*
X115560766Y-55020001D01*
X115540451Y-54958693D01*
X115449946Y-54811964D01*
X115328035Y-54690053D01*
X115181306Y-54599548D01*
X115095793Y-54571212D01*
X115046503Y-54534960D01*
X115027935Y-54476661D01*
X115047181Y-54418581D01*
X115092338Y-54384478D01*
X115103778Y-54380212D01*
X115216116Y-54296116D01*
X115300212Y-54183778D01*
X115305208Y-54170385D01*
X115337211Y-54084579D01*
X115349251Y-54052299D01*
X115355500Y-53994174D01*
X115355500Y-53400826D01*
X115349251Y-53342701D01*
X115337130Y-53310202D01*
X115303491Y-53220012D01*
X117730000Y-53220012D01*
X117730000Y-54519999D01*
X117730001Y-54520000D01*
X119129999Y-54520000D01*
X119130000Y-54519999D01*
X119130000Y-52520001D01*
X119630000Y-52520001D01*
X119630000Y-54519999D01*
X119630001Y-54520000D01*
X121029998Y-54520000D01*
X121029999Y-54519999D01*
X121029999Y-53220013D01*
X121019507Y-53117312D01*
X121019504Y-53117300D01*
X120964356Y-52950875D01*
X120872319Y-52801659D01*
X120748340Y-52677680D01*
X120599124Y-52585643D01*
X120432693Y-52530493D01*
X120329987Y-52520000D01*
X119630001Y-52520000D01*
X119630000Y-52520001D01*
X119130000Y-52520001D01*
X119129999Y-52520000D01*
X118430013Y-52520000D01*
X118327312Y-52530492D01*
X118327300Y-52530495D01*
X118160875Y-52585643D01*
X118011659Y-52677680D01*
X117887680Y-52801659D01*
X117795643Y-52950875D01*
X117740493Y-53117306D01*
X117730000Y-53220012D01*
X115303491Y-53220012D01*
X115300213Y-53211223D01*
X115216119Y-53098888D01*
X115216118Y-53098887D01*
X115216116Y-53098884D01*
X115216111Y-53098880D01*
X115103776Y-53014786D01*
X114972304Y-52965750D01*
X114972299Y-52965749D01*
X114972297Y-52965748D01*
X114972293Y-52965748D01*
X114946011Y-52962922D01*
X114914174Y-52959500D01*
X114345826Y-52959500D01*
X114317823Y-52962510D01*
X114287706Y-52965748D01*
X114287695Y-52965750D01*
X114156223Y-53014786D01*
X114043888Y-53098880D01*
X114043880Y-53098888D01*
X113959787Y-53211222D01*
X113950357Y-53236506D01*
X113912306Y-53284421D01*
X113853359Y-53300818D01*
X113796031Y-53279436D01*
X113787595Y-53271913D01*
X111999496Y-51483814D01*
X111971719Y-51429297D01*
X111970500Y-51413810D01*
X111970500Y-49875327D01*
X111970498Y-49875315D01*
X111963994Y-49842618D01*
X111955966Y-49802260D01*
X111900601Y-49719399D01*
X111900599Y-49719397D01*
X111817742Y-49664035D01*
X111817740Y-49664034D01*
X111817737Y-49664033D01*
X111817736Y-49664033D01*
X111744684Y-49649501D01*
X111744674Y-49649500D01*
X109895326Y-49649500D01*
X109895325Y-49649500D01*
X109895315Y-49649501D01*
X109822263Y-49664033D01*
X109822257Y-49664035D01*
X109739400Y-49719397D01*
X109739397Y-49719400D01*
X109684035Y-49802257D01*
X109684033Y-49802263D01*
X109669501Y-49875315D01*
X109669500Y-49875327D01*
X106128885Y-49875327D01*
X106106614Y-49792212D01*
X106087894Y-49759788D01*
X106087894Y-49759787D01*
X106074182Y-49736038D01*
X106060470Y-49712288D01*
X105224496Y-48876314D01*
X105196719Y-48821797D01*
X105195500Y-48806310D01*
X105195500Y-48709500D01*
X105214407Y-48651309D01*
X105263907Y-48615345D01*
X105294500Y-48610500D01*
X109648866Y-48610500D01*
X109707057Y-48629407D01*
X109741182Y-48673739D01*
X109742598Y-48677396D01*
X109824472Y-48841822D01*
X109837634Y-48868255D01*
X109966128Y-49038407D01*
X110022207Y-49089530D01*
X110123692Y-49182047D01*
X110123699Y-49182053D01*
X110178705Y-49216111D01*
X110304981Y-49294298D01*
X110503802Y-49371321D01*
X110713390Y-49410500D01*
X110926610Y-49410500D01*
X111136198Y-49371321D01*
X111335019Y-49294298D01*
X111516302Y-49182052D01*
X111673872Y-49038407D01*
X111697334Y-49007337D01*
X111747491Y-48972296D01*
X111776337Y-48968000D01*
X113840408Y-48968000D01*
X113898599Y-48986907D01*
X113933166Y-49032403D01*
X113959787Y-49103777D01*
X114037613Y-49207740D01*
X114043884Y-49216116D01*
X114043887Y-49216118D01*
X114043888Y-49216119D01*
X114156223Y-49300213D01*
X114287695Y-49349249D01*
X114287696Y-49349249D01*
X114287701Y-49349251D01*
X114345826Y-49355500D01*
X114345830Y-49355500D01*
X114914170Y-49355500D01*
X114914174Y-49355500D01*
X114972299Y-49349251D01*
X114972299Y-49349250D01*
X114978457Y-49348589D01*
X114978758Y-49351394D01*
X115028216Y-49355455D01*
X115074606Y-49395349D01*
X115088688Y-49454892D01*
X115065082Y-49511340D01*
X115060024Y-49516794D01*
X114901314Y-49675504D01*
X114846797Y-49703281D01*
X114831310Y-49704500D01*
X114345826Y-49704500D01*
X114317823Y-49707510D01*
X114287706Y-49710748D01*
X114287695Y-49710750D01*
X114156223Y-49759786D01*
X114043888Y-49843880D01*
X114043880Y-49843888D01*
X113959786Y-49956223D01*
X113910750Y-50087695D01*
X113910748Y-50087706D01*
X113904500Y-50145829D01*
X113904500Y-50739170D01*
X113904499Y-50739170D01*
X113910748Y-50797293D01*
X113910750Y-50797304D01*
X113959786Y-50928776D01*
X113996246Y-50977480D01*
X114043884Y-51041116D01*
X114043887Y-51041118D01*
X114043888Y-51041119D01*
X114156223Y-51125213D01*
X114287695Y-51174249D01*
X114287696Y-51174249D01*
X114287701Y-51174251D01*
X114345826Y-51180500D01*
X114345830Y-51180500D01*
X114914170Y-51180500D01*
X114914174Y-51180500D01*
X114972299Y-51174251D01*
X115017948Y-51157224D01*
X115103776Y-51125213D01*
X115103776Y-51125212D01*
X115103778Y-51125212D01*
X115216116Y-51041116D01*
X115300212Y-50928778D01*
X115304281Y-50917870D01*
X115349249Y-50797304D01*
X115349248Y-50797304D01*
X115349251Y-50797299D01*
X115355500Y-50739174D01*
X115355500Y-50253690D01*
X115374407Y-50195499D01*
X115384496Y-50183686D01*
X115818686Y-49749496D01*
X115873203Y-49721719D01*
X115888690Y-49720500D01*
X117880501Y-49720500D01*
X117938692Y-49739407D01*
X117974656Y-49788907D01*
X117979501Y-49819500D01*
X117979501Y-50917870D01*
X117985908Y-50977480D01*
X117985909Y-50977485D01*
X118036202Y-51112329D01*
X118112731Y-51214558D01*
X118122454Y-51227546D01*
X118122457Y-51227548D01*
X118122458Y-51227549D01*
X118237670Y-51313797D01*
X118372511Y-51364089D01*
X118372512Y-51364089D01*
X118372517Y-51364091D01*
X118432127Y-51370500D01*
X120327872Y-51370499D01*
X120387483Y-51364091D01*
X120522331Y-51313796D01*
X120628532Y-51234293D01*
X120686443Y-51214558D01*
X120744898Y-51232632D01*
X120757862Y-51243544D01*
X121540504Y-52026186D01*
X121568281Y-52080703D01*
X121569500Y-52096190D01*
X121569500Y-78786144D01*
X121593386Y-78875288D01*
X121639530Y-78955212D01*
X125105541Y-82421222D01*
X128504142Y-85819823D01*
X128531919Y-85874340D01*
X128522760Y-85933953D01*
X128509419Y-85960745D01*
X128474812Y-86082375D01*
X128453603Y-86156917D01*
X128434785Y-86360000D01*
X128453603Y-86563083D01*
X128509418Y-86759250D01*
X128600327Y-86941821D01*
X128723236Y-87104579D01*
X128726266Y-87107341D01*
X128756529Y-87160517D01*
X128749757Y-87221327D01*
X128708535Y-87266542D01*
X128659567Y-87279500D01*
X127880433Y-87279500D01*
X127822242Y-87260593D01*
X127786278Y-87211093D01*
X127786278Y-87149907D01*
X127813734Y-87107341D01*
X127816764Y-87104579D01*
X127939673Y-86941821D01*
X128030582Y-86759250D01*
X128086397Y-86563083D01*
X128105215Y-86360000D01*
X128086397Y-86156917D01*
X128030582Y-85960750D01*
X127939673Y-85778179D01*
X127816764Y-85615421D01*
X127666041Y-85478019D01*
X127492637Y-85370652D01*
X127302456Y-85296976D01*
X127302455Y-85296975D01*
X127302453Y-85296975D01*
X127101976Y-85259500D01*
X126898024Y-85259500D01*
X126697544Y-85296975D01*
X126566773Y-85347636D01*
X126505682Y-85351026D01*
X126461007Y-85325325D01*
X113076996Y-71941314D01*
X113049219Y-71886797D01*
X113048000Y-71871310D01*
X113048000Y-69229499D01*
X113066907Y-69171308D01*
X113116407Y-69135344D01*
X113147000Y-69130499D01*
X113316521Y-69130499D01*
X113316522Y-69130498D01*
X113384062Y-69119802D01*
X113410299Y-69115647D01*
X113410299Y-69115646D01*
X113410304Y-69115646D01*
X113523342Y-69058050D01*
X113613050Y-68968342D01*
X113670646Y-68855304D01*
X113685500Y-68761519D01*
X113685499Y-68398482D01*
X113682084Y-68376917D01*
X113670647Y-68304700D01*
X113670646Y-68304698D01*
X113670646Y-68304696D01*
X113613050Y-68191658D01*
X113523342Y-68101950D01*
X113410304Y-68044354D01*
X113410305Y-68044354D01*
X113316521Y-68029500D01*
X112078478Y-68029500D01*
X112078476Y-68029501D01*
X111984700Y-68044352D01*
X111984697Y-68044353D01*
X111905143Y-68084888D01*
X111844711Y-68094459D01*
X111790194Y-68066681D01*
X111762417Y-68012165D01*
X111771989Y-67951733D01*
X111795646Y-67905304D01*
X111810500Y-67811519D01*
X111810499Y-67448482D01*
X111807012Y-67426461D01*
X111795647Y-67354700D01*
X111795646Y-67354698D01*
X111795646Y-67354696D01*
X111738050Y-67241658D01*
X111648342Y-67151950D01*
X111535304Y-67094354D01*
X111535305Y-67094354D01*
X111441522Y-67079500D01*
X111441519Y-67079500D01*
X111272000Y-67079500D01*
X111213809Y-67060593D01*
X111177845Y-67011093D01*
X111173000Y-66980500D01*
X111173000Y-65568916D01*
X111191907Y-65510725D01*
X111237403Y-65476158D01*
X111259181Y-65468035D01*
X111333778Y-65440212D01*
X111446116Y-65356116D01*
X111530212Y-65243778D01*
X111534478Y-65232339D01*
X111572526Y-65184424D01*
X111631472Y-65168024D01*
X111688801Y-65189403D01*
X111721212Y-65235793D01*
X111749548Y-65321306D01*
X111840053Y-65468035D01*
X111961964Y-65589946D01*
X112108693Y-65680451D01*
X112272351Y-65734681D01*
X112373345Y-65744999D01*
X112422500Y-65744998D01*
X112422500Y-65020001D01*
X112922500Y-65020001D01*
X112922500Y-65744998D01*
X112922501Y-65744999D01*
X112971654Y-65744999D01*
X113072642Y-65734682D01*
X113072654Y-65734679D01*
X113236306Y-65680451D01*
X113383035Y-65589946D01*
X113504946Y-65468035D01*
X113595451Y-65321306D01*
X113649681Y-65157648D01*
X113660000Y-65056655D01*
X113660000Y-65020001D01*
X113659999Y-65020000D01*
X112922501Y-65020000D01*
X112922500Y-65020001D01*
X112422500Y-65020001D01*
X112422500Y-63795001D01*
X112922500Y-63795001D01*
X112922500Y-64519999D01*
X112922501Y-64520000D01*
X113659998Y-64520000D01*
X113659999Y-64519999D01*
X113659999Y-64483345D01*
X113649682Y-64382357D01*
X113649679Y-64382345D01*
X113595451Y-64218693D01*
X113504946Y-64071964D01*
X113383035Y-63950053D01*
X113236306Y-63859548D01*
X113072648Y-63805318D01*
X112971655Y-63795000D01*
X112922501Y-63795000D01*
X112922500Y-63795001D01*
X112422500Y-63795001D01*
X112422500Y-63794999D01*
X112373347Y-63795000D01*
X112373344Y-63795001D01*
X112272357Y-63805317D01*
X112272345Y-63805320D01*
X112108693Y-63859548D01*
X111961964Y-63950053D01*
X111840053Y-64071964D01*
X111749549Y-64218692D01*
X111721212Y-64304207D01*
X111684960Y-64353496D01*
X111626660Y-64372064D01*
X111568581Y-64352818D01*
X111534478Y-64307660D01*
X111530212Y-64296222D01*
X111446119Y-64183888D01*
X111446118Y-64183887D01*
X111446116Y-64183884D01*
X111446111Y-64183880D01*
X111333776Y-64099786D01*
X111202304Y-64050750D01*
X111202299Y-64050749D01*
X111202297Y-64050748D01*
X111202293Y-64050748D01*
X111176011Y-64047922D01*
X111144174Y-64044500D01*
X110550826Y-64044500D01*
X110522823Y-64047510D01*
X110492706Y-64050748D01*
X110492695Y-64050750D01*
X110361223Y-64099786D01*
X110248888Y-64183880D01*
X110248880Y-64183888D01*
X110164786Y-64296223D01*
X110115750Y-64427695D01*
X110115748Y-64427706D01*
X110109500Y-64485829D01*
X110109500Y-65054170D01*
X110109499Y-65054170D01*
X110115748Y-65112293D01*
X110115750Y-65112304D01*
X110164786Y-65243776D01*
X110248880Y-65356111D01*
X110248884Y-65356116D01*
X110361222Y-65440212D01*
X110407596Y-65457508D01*
X110455510Y-65495557D01*
X110472000Y-65550266D01*
X110472000Y-66980500D01*
X110453093Y-67038691D01*
X110403593Y-67074655D01*
X110373001Y-67079500D01*
X110203479Y-67079500D01*
X110203476Y-67079501D01*
X110109700Y-67094352D01*
X110109695Y-67094354D01*
X109996659Y-67151949D01*
X109906949Y-67241659D01*
X109896104Y-67262945D01*
X109852839Y-67306210D01*
X109807894Y-67317000D01*
X108739592Y-67317000D01*
X108681401Y-67298093D01*
X108646834Y-67252597D01*
X108620212Y-67181222D01*
X108536119Y-67068888D01*
X108536118Y-67068887D01*
X108536116Y-67068884D01*
X108514930Y-67053024D01*
X108423776Y-66984786D01*
X108292304Y-66935750D01*
X108292299Y-66935749D01*
X108292297Y-66935748D01*
X108292293Y-66935748D01*
X108266011Y-66932922D01*
X108234174Y-66929500D01*
X107665826Y-66929500D01*
X107637823Y-66932510D01*
X107607706Y-66935748D01*
X107607695Y-66935750D01*
X107476223Y-66984786D01*
X107363888Y-67068880D01*
X107363880Y-67068888D01*
X107279786Y-67181223D01*
X107230750Y-67312695D01*
X107230748Y-67312706D01*
X107224500Y-67370829D01*
X107224500Y-67964170D01*
X107224499Y-67964170D01*
X107230748Y-68022293D01*
X107230749Y-68022299D01*
X107257663Y-68094459D01*
X107258202Y-68095903D01*
X107260822Y-68157033D01*
X107227011Y-68208027D01*
X107169684Y-68229409D01*
X107165444Y-68229500D01*
X106276356Y-68229500D01*
X106261261Y-68233544D01*
X106212542Y-68246598D01*
X106151440Y-68243395D01*
X106103891Y-68204889D01*
X106088056Y-68145788D01*
X106094160Y-68116379D01*
X106129251Y-68022299D01*
X106135500Y-67964174D01*
X106135500Y-67370826D01*
X106129251Y-67312701D01*
X106110693Y-67262945D01*
X106080213Y-67181223D01*
X105996119Y-67068888D01*
X105996118Y-67068887D01*
X105996116Y-67068884D01*
X105974930Y-67053024D01*
X105883776Y-66984786D01*
X105752304Y-66935750D01*
X105752299Y-66935749D01*
X105752297Y-66935748D01*
X105752293Y-66935748D01*
X105726011Y-66932922D01*
X105694174Y-66929500D01*
X105125826Y-66929500D01*
X105097823Y-66932510D01*
X105067706Y-66935748D01*
X105067695Y-66935750D01*
X104936223Y-66984786D01*
X104823888Y-67068880D01*
X104823880Y-67068888D01*
X104739786Y-67181223D01*
X104690750Y-67312695D01*
X104690748Y-67312706D01*
X104684500Y-67370829D01*
X104684500Y-67856310D01*
X104665593Y-67914501D01*
X104655504Y-67926313D01*
X104354530Y-68227287D01*
X104341588Y-68249704D01*
X104332113Y-68266116D01*
X104321651Y-68284235D01*
X104308387Y-68307209D01*
X104284500Y-68396357D01*
X104284500Y-73843646D01*
X104299899Y-73901113D01*
X104299900Y-73901117D01*
X104308383Y-73932782D01*
X104308384Y-73932784D01*
X104308385Y-73932787D01*
X104308386Y-73932788D01*
X104354530Y-74012712D01*
X110080505Y-79738687D01*
X110108281Y-79793202D01*
X110109500Y-79808689D01*
X110109500Y-80294170D01*
X110109499Y-80294170D01*
X110115748Y-80352293D01*
X110115750Y-80352304D01*
X110164786Y-80483776D01*
X110248880Y-80596111D01*
X110248884Y-80596116D01*
X110248887Y-80596118D01*
X110248888Y-80596119D01*
X110361223Y-80680213D01*
X110492695Y-80729249D01*
X110492696Y-80729249D01*
X110492701Y-80729251D01*
X110550826Y-80735500D01*
X110550830Y-80735500D01*
X111144170Y-80735500D01*
X111144174Y-80735500D01*
X111202299Y-80729251D01*
X111262404Y-80706833D01*
X111333776Y-80680213D01*
X111333776Y-80680212D01*
X111333778Y-80680212D01*
X111446116Y-80596116D01*
X111530212Y-80483778D01*
X111579251Y-80352299D01*
X111585500Y-80294174D01*
X111585500Y-79808689D01*
X111604407Y-79750499D01*
X111614496Y-79738686D01*
X111738686Y-79614496D01*
X111793203Y-79586719D01*
X111808690Y-79585500D01*
X111839372Y-79585500D01*
X111897563Y-79604407D01*
X111933527Y-79653907D01*
X111937805Y-79695081D01*
X111934500Y-79725826D01*
X111934500Y-80294170D01*
X111934499Y-80294170D01*
X111940748Y-80352293D01*
X111940750Y-80352304D01*
X111989786Y-80483776D01*
X112073880Y-80596111D01*
X112073884Y-80596116D01*
X112073887Y-80596118D01*
X112073888Y-80596119D01*
X112186223Y-80680213D01*
X112257596Y-80706833D01*
X112305511Y-80744883D01*
X112322000Y-80799591D01*
X112322000Y-83170500D01*
X112303093Y-83228691D01*
X112253593Y-83264655D01*
X112223001Y-83269500D01*
X112078479Y-83269500D01*
X112078476Y-83269501D01*
X111984700Y-83284352D01*
X111984697Y-83284353D01*
X111905143Y-83324888D01*
X111844711Y-83334459D01*
X111790194Y-83306681D01*
X111762417Y-83252165D01*
X111771989Y-83191733D01*
X111795646Y-83145304D01*
X111810500Y-83051519D01*
X111810499Y-82688482D01*
X111805650Y-82657862D01*
X111795647Y-82594700D01*
X111795646Y-82594698D01*
X111795646Y-82594696D01*
X111738050Y-82481658D01*
X111648342Y-82391950D01*
X111535304Y-82334354D01*
X111535305Y-82334354D01*
X111441521Y-82319500D01*
X110203478Y-82319500D01*
X110203476Y-82319501D01*
X110109700Y-82334352D01*
X110109695Y-82334354D01*
X109996659Y-82391949D01*
X109906949Y-82481659D01*
X109896104Y-82502945D01*
X109852839Y-82546210D01*
X109807894Y-82557000D01*
X108739592Y-82557000D01*
X108681401Y-82538093D01*
X108646834Y-82492597D01*
X108620212Y-82421222D01*
X108536119Y-82308888D01*
X108536118Y-82308887D01*
X108536116Y-82308884D01*
X108507520Y-82287477D01*
X108423776Y-82224786D01*
X108292304Y-82175750D01*
X108292299Y-82175749D01*
X108292297Y-82175748D01*
X108292293Y-82175748D01*
X108266011Y-82172922D01*
X108234174Y-82169500D01*
X107665826Y-82169500D01*
X107637823Y-82172510D01*
X107607706Y-82175748D01*
X107607695Y-82175750D01*
X107476223Y-82224786D01*
X107363888Y-82308880D01*
X107363880Y-82308888D01*
X107279787Y-82421222D01*
X107253166Y-82492597D01*
X107215115Y-82540511D01*
X107160408Y-82557000D01*
X106199592Y-82557000D01*
X106141401Y-82538093D01*
X106106834Y-82492597D01*
X106080212Y-82421222D01*
X105996119Y-82308888D01*
X105996118Y-82308887D01*
X105996116Y-82308884D01*
X105967520Y-82287477D01*
X105883776Y-82224786D01*
X105752304Y-82175750D01*
X105752299Y-82175749D01*
X105752297Y-82175748D01*
X105752293Y-82175748D01*
X105726011Y-82172922D01*
X105694174Y-82169500D01*
X105125826Y-82169500D01*
X105097823Y-82172510D01*
X105067706Y-82175748D01*
X105067695Y-82175750D01*
X104936223Y-82224786D01*
X104823888Y-82308880D01*
X104823880Y-82308888D01*
X104739786Y-82421223D01*
X104690750Y-82552695D01*
X104690748Y-82552706D01*
X104688529Y-82573352D01*
X104685305Y-82603345D01*
X104684500Y-82610829D01*
X104684500Y-83204170D01*
X104684499Y-83204170D01*
X104690748Y-83262293D01*
X104690750Y-83262304D01*
X104739786Y-83393776D01*
X104823880Y-83506111D01*
X104823884Y-83506116D01*
X104823887Y-83506118D01*
X104823888Y-83506119D01*
X104936223Y-83590213D01*
X105067695Y-83639249D01*
X105067696Y-83639249D01*
X105067701Y-83639251D01*
X105125826Y-83645500D01*
X105125830Y-83645500D01*
X105694170Y-83645500D01*
X105694174Y-83645500D01*
X105752299Y-83639251D01*
X105812179Y-83616917D01*
X105883776Y-83590213D01*
X105883776Y-83590212D01*
X105883778Y-83590212D01*
X105996116Y-83506116D01*
X106080212Y-83393778D01*
X106097268Y-83348049D01*
X106106834Y-83322403D01*
X106144885Y-83274489D01*
X106199592Y-83258000D01*
X107160408Y-83258000D01*
X107218599Y-83276907D01*
X107253166Y-83322403D01*
X107279787Y-83393777D01*
X107358007Y-83498266D01*
X107363884Y-83506116D01*
X107363887Y-83506118D01*
X107363888Y-83506119D01*
X107476222Y-83590212D01*
X107487660Y-83594478D01*
X107535576Y-83632527D01*
X107551975Y-83691474D01*
X107530595Y-83748802D01*
X107484207Y-83781212D01*
X107398692Y-83809549D01*
X107251964Y-83900053D01*
X107130053Y-84021964D01*
X107039548Y-84168693D01*
X106985318Y-84332351D01*
X106975000Y-84433344D01*
X106975000Y-84482499D01*
X106975001Y-84482500D01*
X108924998Y-84482500D01*
X108924999Y-84482499D01*
X108924999Y-84433345D01*
X108914682Y-84332357D01*
X108914679Y-84332345D01*
X108860451Y-84168693D01*
X108769946Y-84021964D01*
X108648035Y-83900053D01*
X108501306Y-83809548D01*
X108415793Y-83781212D01*
X108366503Y-83744960D01*
X108347935Y-83686661D01*
X108367181Y-83628581D01*
X108412338Y-83594478D01*
X108423778Y-83590212D01*
X108536116Y-83506116D01*
X108620212Y-83393778D01*
X108637268Y-83348049D01*
X108646834Y-83322403D01*
X108684885Y-83274489D01*
X108739592Y-83258000D01*
X109865600Y-83258000D01*
X109923791Y-83276907D01*
X109935603Y-83286996D01*
X109971011Y-83322403D01*
X109996658Y-83348050D01*
X110109696Y-83405646D01*
X110203481Y-83420500D01*
X111441518Y-83420499D01*
X111441521Y-83420499D01*
X111441522Y-83420498D01*
X111488411Y-83413072D01*
X111535299Y-83405647D01*
X111535304Y-83405646D01*
X111558600Y-83393776D01*
X111614856Y-83365111D01*
X111675287Y-83355540D01*
X111729804Y-83383317D01*
X111757582Y-83437833D01*
X111748011Y-83498265D01*
X111748011Y-83498266D01*
X111724354Y-83544696D01*
X111709500Y-83638478D01*
X111709500Y-83898281D01*
X111690593Y-83956472D01*
X111641093Y-83992436D01*
X111582880Y-83993350D01*
X111512489Y-83972899D01*
X111475637Y-83970000D01*
X111072501Y-83970000D01*
X111072500Y-83970001D01*
X111072500Y-84519999D01*
X111072501Y-84520000D01*
X112057295Y-84520000D01*
X112057100Y-84517513D01*
X112057098Y-84517503D01*
X112051176Y-84497118D01*
X112053098Y-84435963D01*
X112090599Y-84387618D01*
X112146241Y-84370499D01*
X113316518Y-84370499D01*
X113316521Y-84370499D01*
X113316522Y-84370498D01*
X113384081Y-84359799D01*
X113410299Y-84355647D01*
X113410299Y-84355646D01*
X113410304Y-84355646D01*
X113523342Y-84298050D01*
X113613050Y-84208342D01*
X113613051Y-84208339D01*
X113618559Y-84202832D01*
X113620242Y-84204515D01*
X113660399Y-84175344D01*
X113690987Y-84170500D01*
X116653810Y-84170500D01*
X116712001Y-84189407D01*
X116723814Y-84199496D01*
X118797158Y-86272840D01*
X118824935Y-86327357D01*
X118825307Y-86355763D01*
X118824750Y-86359994D01*
X118824750Y-86360000D01*
X118843669Y-86503708D01*
X118843670Y-86503709D01*
X118898527Y-86636149D01*
X118899139Y-86637625D01*
X118987379Y-86752621D01*
X119102375Y-86840861D01*
X119236291Y-86896330D01*
X119380000Y-86915250D01*
X119523709Y-86896330D01*
X119657625Y-86840861D01*
X119772621Y-86752621D01*
X119860861Y-86637625D01*
X119916330Y-86503709D01*
X119935250Y-86360000D01*
X119916330Y-86216291D01*
X119860861Y-86082375D01*
X119772621Y-85967379D01*
X119657625Y-85879139D01*
X119657621Y-85879137D01*
X119523709Y-85823670D01*
X119523708Y-85823669D01*
X119380000Y-85804750D01*
X119379995Y-85804750D01*
X119375763Y-85805307D01*
X119315603Y-85794155D01*
X119292840Y-85777158D01*
X118217662Y-84701980D01*
X117055212Y-83539530D01*
X116975288Y-83493386D01*
X116886144Y-83469500D01*
X116886142Y-83469500D01*
X113690987Y-83469500D01*
X113632796Y-83450593D01*
X113618964Y-83436762D01*
X113618559Y-83437168D01*
X113613051Y-83431660D01*
X113613050Y-83431658D01*
X113523342Y-83341950D01*
X113410304Y-83284354D01*
X113410305Y-83284354D01*
X113316522Y-83269500D01*
X113316519Y-83269500D01*
X113122000Y-83269500D01*
X113063809Y-83250593D01*
X113027845Y-83201093D01*
X113023000Y-83170500D01*
X113023000Y-80799591D01*
X113041907Y-80741400D01*
X113087404Y-80706833D01*
X113158776Y-80680213D01*
X113158776Y-80680212D01*
X113158778Y-80680212D01*
X113271116Y-80596116D01*
X113355212Y-80483778D01*
X113404251Y-80352299D01*
X113410500Y-80294174D01*
X113410500Y-79725826D01*
X113407195Y-79695081D01*
X113419775Y-79635202D01*
X113465148Y-79594154D01*
X113505628Y-79585500D01*
X114645532Y-79585500D01*
X114703723Y-79604407D01*
X114715536Y-79614496D01*
X123011510Y-87910470D01*
X123091434Y-87956614D01*
X123180578Y-87980500D01*
X123180580Y-87980500D01*
X138476142Y-87980500D01*
X138476144Y-87980500D01*
X138565288Y-87956614D01*
X138645212Y-87910470D01*
X138941495Y-87614187D01*
X139066187Y-87489496D01*
X139120703Y-87461719D01*
X139136190Y-87460500D01*
X140574673Y-87460500D01*
X140574674Y-87460500D01*
X140647740Y-87445966D01*
X140730601Y-87390601D01*
X140785966Y-87307740D01*
X140800500Y-87234674D01*
X140800500Y-85796189D01*
X140819407Y-85737998D01*
X140829490Y-85726191D01*
X143800470Y-82755212D01*
X143846614Y-82675288D01*
X143870500Y-82586144D01*
X143870500Y-82493856D01*
X143870500Y-68874500D01*
X143889407Y-68816309D01*
X143938907Y-68780345D01*
X143969500Y-68775500D01*
X144344673Y-68775500D01*
X144344674Y-68775500D01*
X144417740Y-68760966D01*
X144500601Y-68705601D01*
X144555966Y-68622740D01*
X144570500Y-68549674D01*
X144570500Y-66811190D01*
X144589407Y-66752999D01*
X144599496Y-66741187D01*
X144929704Y-66410978D01*
X144984221Y-66383200D01*
X145044653Y-66392771D01*
X145087918Y-66436036D01*
X145097489Y-66496468D01*
X145091172Y-66518866D01*
X145049870Y-66618578D01*
X145049870Y-66618580D01*
X145009500Y-66821532D01*
X145009500Y-67828467D01*
X145049869Y-68031418D01*
X145129058Y-68222597D01*
X145183917Y-68304700D01*
X145244023Y-68394655D01*
X145390345Y-68540977D01*
X145562402Y-68655941D01*
X145648385Y-68691556D01*
X145694911Y-68731292D01*
X145709500Y-68783020D01*
X145709500Y-82353809D01*
X145690593Y-82412000D01*
X145680504Y-82423813D01*
X142778991Y-85325325D01*
X142724474Y-85353102D01*
X142673225Y-85347636D01*
X142542456Y-85296976D01*
X142542455Y-85296975D01*
X142542453Y-85296975D01*
X142341976Y-85259500D01*
X142138024Y-85259500D01*
X141937546Y-85296975D01*
X141874106Y-85321552D01*
X141747363Y-85370652D01*
X141596198Y-85464249D01*
X141573959Y-85478019D01*
X141423237Y-85615420D01*
X141300328Y-85778177D01*
X141300323Y-85778186D01*
X141209420Y-85960745D01*
X141209418Y-85960750D01*
X141153603Y-86156917D01*
X141134785Y-86360000D01*
X141153603Y-86563083D01*
X141209418Y-86759250D01*
X141300327Y-86941821D01*
X141423236Y-87104579D01*
X141573959Y-87241981D01*
X141747363Y-87349348D01*
X141937544Y-87423024D01*
X142138024Y-87460500D01*
X142341976Y-87460500D01*
X142542456Y-87423024D01*
X142732637Y-87349348D01*
X142906041Y-87241981D01*
X143056764Y-87104579D01*
X143179673Y-86941821D01*
X143270582Y-86759250D01*
X143326397Y-86563083D01*
X143345215Y-86360000D01*
X143674785Y-86360000D01*
X143693603Y-86563083D01*
X143749418Y-86759250D01*
X143840327Y-86941821D01*
X143963236Y-87104579D01*
X144113959Y-87241981D01*
X144287363Y-87349348D01*
X144477544Y-87423024D01*
X144678024Y-87460500D01*
X144881976Y-87460500D01*
X145082456Y-87423024D01*
X145272637Y-87349348D01*
X145446041Y-87241981D01*
X145596764Y-87104579D01*
X145719673Y-86941821D01*
X145810582Y-86759250D01*
X145866397Y-86563083D01*
X145885215Y-86360000D01*
X146214785Y-86360000D01*
X146233603Y-86563083D01*
X146289418Y-86759250D01*
X146380327Y-86941821D01*
X146503236Y-87104579D01*
X146653959Y-87241981D01*
X146827363Y-87349348D01*
X147017544Y-87423024D01*
X147218024Y-87460500D01*
X147421976Y-87460500D01*
X147622456Y-87423024D01*
X147812637Y-87349348D01*
X147986041Y-87241981D01*
X148136764Y-87104579D01*
X148259673Y-86941821D01*
X148350582Y-86759250D01*
X148365167Y-86707987D01*
X148399275Y-86657194D01*
X148456728Y-86636149D01*
X148515577Y-86652892D01*
X148553346Y-86701029D01*
X148556014Y-86709458D01*
X148586569Y-86823489D01*
X148686399Y-87037577D01*
X148821886Y-87231073D01*
X148988926Y-87398113D01*
X149182422Y-87533600D01*
X149396509Y-87633430D01*
X149610000Y-87690634D01*
X149610000Y-86793012D01*
X149667007Y-86825925D01*
X149794174Y-86860000D01*
X149925826Y-86860000D01*
X150052993Y-86825925D01*
X150110000Y-86793012D01*
X150110000Y-87690633D01*
X150323490Y-87633430D01*
X150537577Y-87533600D01*
X150731073Y-87398113D01*
X150898113Y-87231073D01*
X151033600Y-87037577D01*
X151133430Y-86823489D01*
X151190636Y-86610000D01*
X150293012Y-86610000D01*
X150325925Y-86552993D01*
X150360000Y-86425826D01*
X150360000Y-86294174D01*
X150325925Y-86167007D01*
X150293012Y-86110000D01*
X151190636Y-86110000D01*
X151133429Y-85896505D01*
X151033605Y-85682432D01*
X151033601Y-85682424D01*
X150898113Y-85488926D01*
X150731073Y-85321886D01*
X150537577Y-85186399D01*
X150323489Y-85086569D01*
X150110000Y-85029364D01*
X150110000Y-85926988D01*
X150052993Y-85894075D01*
X149925826Y-85860000D01*
X149794174Y-85860000D01*
X149667007Y-85894075D01*
X149610000Y-85926988D01*
X149610000Y-85029364D01*
X149396507Y-85086569D01*
X149329380Y-85117871D01*
X149268651Y-85125327D01*
X149215137Y-85095663D01*
X149189280Y-85040210D01*
X149200955Y-84980149D01*
X149217534Y-84958147D01*
X151420470Y-82755212D01*
X151466614Y-82675288D01*
X151490500Y-82586144D01*
X151490500Y-82493856D01*
X151490500Y-68783020D01*
X151509407Y-68724829D01*
X151551614Y-68691556D01*
X151637598Y-68655941D01*
X151809655Y-68540977D01*
X151955977Y-68394655D01*
X152070941Y-68222598D01*
X152150130Y-68031420D01*
X152190500Y-67828465D01*
X152190500Y-66821535D01*
X152150130Y-66618580D01*
X152070941Y-66427402D01*
X151955977Y-66255345D01*
X151809655Y-66109023D01*
X151809651Y-66109020D01*
X151637597Y-65994058D01*
X151446418Y-65914869D01*
X151243467Y-65874500D01*
X151243465Y-65874500D01*
X151036535Y-65874500D01*
X151036532Y-65874500D01*
X150833581Y-65914869D01*
X150642402Y-65994058D01*
X150470348Y-66109020D01*
X150324020Y-66255348D01*
X150209058Y-66427402D01*
X150129869Y-66618581D01*
X150089500Y-66821532D01*
X150089500Y-67828467D01*
X150129869Y-68031418D01*
X150209058Y-68222597D01*
X150263917Y-68304700D01*
X150324023Y-68394655D01*
X150470345Y-68540977D01*
X150642402Y-68655941D01*
X150728385Y-68691556D01*
X150774911Y-68731292D01*
X150789500Y-68783020D01*
X150789500Y-82353809D01*
X150770593Y-82412000D01*
X150760504Y-82423813D01*
X147858991Y-85325325D01*
X147804474Y-85353102D01*
X147753225Y-85347636D01*
X147622456Y-85296976D01*
X147622455Y-85296975D01*
X147622453Y-85296975D01*
X147421976Y-85259500D01*
X147218024Y-85259500D01*
X147017546Y-85296975D01*
X146954106Y-85321552D01*
X146827363Y-85370652D01*
X146676198Y-85464249D01*
X146653959Y-85478019D01*
X146503237Y-85615420D01*
X146380328Y-85778177D01*
X146380323Y-85778186D01*
X146289420Y-85960745D01*
X146289418Y-85960750D01*
X146233603Y-86156917D01*
X146214785Y-86360000D01*
X145885215Y-86360000D01*
X145866397Y-86156917D01*
X145810582Y-85960750D01*
X145797239Y-85933953D01*
X145788226Y-85873441D01*
X145815854Y-85819826D01*
X148880470Y-82755212D01*
X148926614Y-82675288D01*
X148950500Y-82586144D01*
X148950500Y-82493856D01*
X148950500Y-68783020D01*
X148969407Y-68724829D01*
X149011614Y-68691556D01*
X149097598Y-68655941D01*
X149269655Y-68540977D01*
X149415977Y-68394655D01*
X149530941Y-68222598D01*
X149610130Y-68031420D01*
X149650500Y-67828465D01*
X149650500Y-66821535D01*
X149610130Y-66618580D01*
X149530941Y-66427402D01*
X149415977Y-66255345D01*
X149269655Y-66109023D01*
X149269651Y-66109020D01*
X149097597Y-65994058D01*
X148906418Y-65914869D01*
X148703467Y-65874500D01*
X148703465Y-65874500D01*
X148496535Y-65874500D01*
X148496532Y-65874500D01*
X148293581Y-65914869D01*
X148102402Y-65994058D01*
X147930348Y-66109020D01*
X147784020Y-66255348D01*
X147669058Y-66427402D01*
X147589869Y-66618581D01*
X147549500Y-66821532D01*
X147549500Y-67828467D01*
X147589869Y-68031418D01*
X147669058Y-68222597D01*
X147723917Y-68304700D01*
X147784023Y-68394655D01*
X147930345Y-68540977D01*
X148102402Y-68655941D01*
X148188385Y-68691556D01*
X148234911Y-68731292D01*
X148249500Y-68783020D01*
X148249500Y-82353809D01*
X148230593Y-82412000D01*
X148220504Y-82423813D01*
X145318991Y-85325325D01*
X145264474Y-85353102D01*
X145213225Y-85347636D01*
X145082456Y-85296976D01*
X145082455Y-85296975D01*
X145082453Y-85296975D01*
X144881976Y-85259500D01*
X144678024Y-85259500D01*
X144477546Y-85296975D01*
X144414106Y-85321552D01*
X144287363Y-85370652D01*
X144136198Y-85464249D01*
X144113959Y-85478019D01*
X143963237Y-85615420D01*
X143840328Y-85778177D01*
X143840323Y-85778186D01*
X143749420Y-85960745D01*
X143749418Y-85960750D01*
X143693603Y-86156917D01*
X143674785Y-86360000D01*
X143345215Y-86360000D01*
X143326397Y-86156917D01*
X143270582Y-85960750D01*
X143257239Y-85933953D01*
X143248226Y-85873441D01*
X143275854Y-85819826D01*
X146340470Y-82755212D01*
X146386614Y-82675288D01*
X146410500Y-82586144D01*
X146410500Y-82493856D01*
X146410500Y-68783020D01*
X146429407Y-68724829D01*
X146471614Y-68691556D01*
X146557598Y-68655941D01*
X146729655Y-68540977D01*
X146875977Y-68394655D01*
X146990941Y-68222598D01*
X147070130Y-68031420D01*
X147110500Y-67828465D01*
X147110500Y-66821535D01*
X147070130Y-66618580D01*
X146990941Y-66427402D01*
X146875977Y-66255345D01*
X146729655Y-66109023D01*
X146729651Y-66109020D01*
X146557597Y-65994058D01*
X146366418Y-65914869D01*
X146163467Y-65874500D01*
X146163465Y-65874500D01*
X145956535Y-65874500D01*
X145956532Y-65874500D01*
X145753580Y-65914870D01*
X145753578Y-65914870D01*
X145653866Y-65956172D01*
X145592869Y-65960972D01*
X145540700Y-65929003D01*
X145517286Y-65872475D01*
X145531570Y-65812980D01*
X145545973Y-65794708D01*
X146191186Y-65149496D01*
X146245703Y-65121719D01*
X146261190Y-65120500D01*
X150541142Y-65120500D01*
X150541144Y-65120500D01*
X150630288Y-65096614D01*
X150710212Y-65050470D01*
X152510682Y-63250000D01*
X158689364Y-63250000D01*
X159586988Y-63250000D01*
X159554075Y-63307007D01*
X159520000Y-63434174D01*
X159520000Y-63565826D01*
X159554075Y-63692993D01*
X159586988Y-63750000D01*
X158689364Y-63750000D01*
X158746569Y-63963489D01*
X158846399Y-64177577D01*
X158981886Y-64371073D01*
X159148926Y-64538113D01*
X159342422Y-64673600D01*
X159556509Y-64773430D01*
X159669518Y-64803711D01*
X159720832Y-64837035D01*
X159742759Y-64894156D01*
X159726924Y-64953257D01*
X159679657Y-64991653D01*
X159527363Y-65050652D01*
X159412586Y-65121719D01*
X159353959Y-65158019D01*
X159203237Y-65295420D01*
X159080328Y-65458177D01*
X159080323Y-65458186D01*
X158989419Y-65640747D01*
X158989418Y-65640750D01*
X158933603Y-65836917D01*
X158914785Y-66040000D01*
X158933603Y-66243083D01*
X158989418Y-66439250D01*
X159080327Y-66621821D01*
X159203236Y-66784579D01*
X159353959Y-66921981D01*
X159527363Y-67029348D01*
X159717544Y-67103024D01*
X159918024Y-67140500D01*
X160121976Y-67140500D01*
X160322456Y-67103024D01*
X160512637Y-67029348D01*
X160686041Y-66921981D01*
X160836764Y-66784579D01*
X160959673Y-66621821D01*
X161050582Y-66439250D01*
X161106397Y-66243083D01*
X161125215Y-66040000D01*
X161106397Y-65836917D01*
X161050582Y-65640750D01*
X160959673Y-65458179D01*
X160836764Y-65295421D01*
X160686041Y-65158019D01*
X160512637Y-65050652D01*
X160360340Y-64991652D01*
X160312910Y-64953001D01*
X160297256Y-64893852D01*
X160319359Y-64836799D01*
X160370481Y-64803711D01*
X160483490Y-64773430D01*
X160697577Y-64673600D01*
X160891073Y-64538113D01*
X161058113Y-64371073D01*
X161193600Y-64177577D01*
X161293430Y-63963489D01*
X161350636Y-63750000D01*
X160453012Y-63750000D01*
X160485925Y-63692993D01*
X160520000Y-63565826D01*
X160520000Y-63434174D01*
X160485925Y-63307007D01*
X160453012Y-63250000D01*
X161350636Y-63250000D01*
X161293429Y-63036505D01*
X161193605Y-62822432D01*
X161193601Y-62822424D01*
X161058113Y-62628926D01*
X160891073Y-62461886D01*
X160697577Y-62326399D01*
X160532076Y-62249225D01*
X160487328Y-62207496D01*
X160475653Y-62147435D01*
X160501511Y-62091982D01*
X160555025Y-62062319D01*
X160573915Y-62060500D01*
X160894673Y-62060500D01*
X160894674Y-62060500D01*
X160967740Y-62045966D01*
X161050601Y-61990601D01*
X161105966Y-61907740D01*
X161120500Y-61834674D01*
X161120500Y-60085326D01*
X161105966Y-60012260D01*
X161050601Y-59929399D01*
X161050599Y-59929397D01*
X160967742Y-59874035D01*
X160967740Y-59874034D01*
X160967737Y-59874033D01*
X160967736Y-59874033D01*
X160894684Y-59859501D01*
X160894674Y-59859500D01*
X159145326Y-59859500D01*
X159145325Y-59859500D01*
X159145315Y-59859501D01*
X159072263Y-59874033D01*
X159072257Y-59874035D01*
X158989400Y-59929397D01*
X158989397Y-59929400D01*
X158934035Y-60012257D01*
X158934033Y-60012263D01*
X158919501Y-60085315D01*
X158919500Y-60085327D01*
X158919500Y-61834672D01*
X158919501Y-61834684D01*
X158934033Y-61907736D01*
X158934035Y-61907742D01*
X158989397Y-61990599D01*
X158989400Y-61990602D01*
X159033021Y-62019748D01*
X159072260Y-62045966D01*
X159127808Y-62057015D01*
X159145315Y-62060498D01*
X159145320Y-62060498D01*
X159145326Y-62060500D01*
X159145327Y-62060500D01*
X159466085Y-62060500D01*
X159524276Y-62079407D01*
X159560240Y-62128907D01*
X159560240Y-62190093D01*
X159524276Y-62239593D01*
X159507924Y-62249224D01*
X159342432Y-62326394D01*
X159342424Y-62326398D01*
X159148926Y-62461886D01*
X158981886Y-62628926D01*
X158846398Y-62822424D01*
X158846394Y-62822432D01*
X158746570Y-63036505D01*
X158689364Y-63250000D01*
X152510682Y-63250000D01*
X152680470Y-63080212D01*
X152726614Y-63000288D01*
X152750500Y-62911144D01*
X152750500Y-62818856D01*
X152750500Y-49459500D01*
X152769407Y-49401309D01*
X152818907Y-49365345D01*
X152849500Y-49360500D01*
X153274673Y-49360500D01*
X153274674Y-49360500D01*
X153347740Y-49345966D01*
X153430601Y-49290601D01*
X153485966Y-49207740D01*
X153500500Y-49134674D01*
X153500500Y-48813915D01*
X153519407Y-48755724D01*
X153568907Y-48719760D01*
X153630093Y-48719760D01*
X153679593Y-48755724D01*
X153689225Y-48772076D01*
X153766399Y-48937577D01*
X153901886Y-49131073D01*
X154068926Y-49298113D01*
X154262422Y-49433600D01*
X154476509Y-49533430D01*
X154690000Y-49590634D01*
X154690000Y-48693012D01*
X154747007Y-48725925D01*
X154874174Y-48760000D01*
X155005826Y-48760000D01*
X155132993Y-48725925D01*
X155190000Y-48693012D01*
X155190000Y-49590633D01*
X155403490Y-49533430D01*
X155617577Y-49433600D01*
X155811073Y-49298113D01*
X155978113Y-49131073D01*
X156113600Y-48937577D01*
X156213430Y-48723489D01*
X156270636Y-48510000D01*
X155373012Y-48510000D01*
X155405925Y-48452993D01*
X155440000Y-48325826D01*
X155440000Y-48194174D01*
X155405925Y-48067007D01*
X155373012Y-48010000D01*
X156270636Y-48010000D01*
X156213429Y-47796505D01*
X156113605Y-47582432D01*
X156113601Y-47582424D01*
X155978113Y-47388926D01*
X155811073Y-47221886D01*
X155617577Y-47086399D01*
X155403489Y-46986569D01*
X155190000Y-46929364D01*
X155190000Y-47826988D01*
X155132993Y-47794075D01*
X155005826Y-47760000D01*
X154874174Y-47760000D01*
X154747007Y-47794075D01*
X154690000Y-47826988D01*
X154690000Y-46929364D01*
X154476505Y-46986570D01*
X154262432Y-47086394D01*
X154262424Y-47086398D01*
X154068926Y-47221886D01*
X153901886Y-47388926D01*
X153766398Y-47582424D01*
X153766394Y-47582432D01*
X153689224Y-47747924D01*
X153647496Y-47792672D01*
X153587435Y-47804347D01*
X153531982Y-47778489D01*
X153502319Y-47724975D01*
X153500500Y-47706085D01*
X153500500Y-47385327D01*
X153500498Y-47385315D01*
X153495895Y-47362175D01*
X153485966Y-47312260D01*
X153430601Y-47229399D01*
X153430599Y-47229397D01*
X153347742Y-47174035D01*
X153347740Y-47174034D01*
X153347737Y-47174033D01*
X153347736Y-47174033D01*
X153274684Y-47159501D01*
X153274674Y-47159500D01*
X151525326Y-47159500D01*
X151525325Y-47159500D01*
X151525315Y-47159501D01*
X151452263Y-47174033D01*
X151452257Y-47174035D01*
X151369400Y-47229397D01*
X151369397Y-47229400D01*
X151314035Y-47312257D01*
X151314033Y-47312263D01*
X151299501Y-47385315D01*
X151299500Y-47385327D01*
X151299500Y-49134672D01*
X151299501Y-49134684D01*
X151314033Y-49207736D01*
X151314035Y-49207742D01*
X151369397Y-49290599D01*
X151369400Y-49290602D01*
X151405598Y-49314788D01*
X151452260Y-49345966D01*
X151499964Y-49355455D01*
X151525315Y-49360498D01*
X151525320Y-49360498D01*
X151525326Y-49360500D01*
X151950500Y-49360500D01*
X152008691Y-49379407D01*
X152044655Y-49428907D01*
X152049500Y-49459500D01*
X152049500Y-58164603D01*
X152030593Y-58222794D01*
X151981093Y-58258758D01*
X151919907Y-58258758D01*
X151892309Y-58244696D01*
X151821346Y-58193138D01*
X151639027Y-58100243D01*
X151444414Y-58037009D01*
X151390000Y-58028390D01*
X151390000Y-59389314D01*
X151385606Y-59384920D01*
X151294394Y-59332259D01*
X151192661Y-59305000D01*
X151087339Y-59305000D01*
X150985606Y-59332259D01*
X150894394Y-59384920D01*
X150890000Y-59389314D01*
X150890000Y-58028391D01*
X150889999Y-58028390D01*
X150835585Y-58037009D01*
X150640972Y-58100243D01*
X150458653Y-58193138D01*
X150293108Y-58313414D01*
X150148414Y-58458108D01*
X150028138Y-58623653D01*
X149935243Y-58805972D01*
X149872008Y-59000587D01*
X149842823Y-59184858D01*
X149815046Y-59239375D01*
X149760529Y-59267152D01*
X149700097Y-59257581D01*
X149656832Y-59214316D01*
X149647944Y-59188685D01*
X149610130Y-58998581D01*
X149530941Y-58807402D01*
X149415979Y-58635348D01*
X149415977Y-58635345D01*
X149269655Y-58489023D01*
X149269649Y-58489019D01*
X149097598Y-58374059D01*
X149011613Y-58338442D01*
X148965088Y-58298704D01*
X148950500Y-58246978D01*
X148950500Y-57748857D01*
X148950500Y-57748856D01*
X148926614Y-57659712D01*
X148880470Y-57579788D01*
X148170212Y-56869530D01*
X148090288Y-56823386D01*
X148001144Y-56799500D01*
X146091144Y-56799500D01*
X137113856Y-56799500D01*
X137024712Y-56823386D01*
X136944788Y-56869530D01*
X135619528Y-58194790D01*
X135570141Y-58280331D01*
X135568083Y-58279142D01*
X135535072Y-58317787D01*
X135521239Y-58324834D01*
X135402402Y-58374058D01*
X135230348Y-58489020D01*
X135084020Y-58635348D01*
X134969058Y-58807402D01*
X134889869Y-58998581D01*
X134849500Y-59201532D01*
X134849500Y-60208467D01*
X134889869Y-60411418D01*
X134969058Y-60602597D01*
X134971629Y-60606445D01*
X135084023Y-60774655D01*
X135230345Y-60920977D01*
X135402402Y-61035941D01*
X135593580Y-61115130D01*
X135796535Y-61155500D01*
X135796536Y-61155500D01*
X136003464Y-61155500D01*
X136003465Y-61155500D01*
X136206420Y-61115130D01*
X136397598Y-61035941D01*
X136569655Y-60920977D01*
X136715977Y-60774655D01*
X136830941Y-60602598D01*
X136910130Y-60411420D01*
X136950500Y-60208465D01*
X136950500Y-59201535D01*
X136910130Y-58998580D01*
X136830941Y-58807402D01*
X136715977Y-58635345D01*
X136569655Y-58489023D01*
X136569651Y-58489020D01*
X136569650Y-58489019D01*
X136518296Y-58454705D01*
X136480417Y-58406655D01*
X136478015Y-58345517D01*
X136503295Y-58302386D01*
X137276187Y-57529496D01*
X137330703Y-57501719D01*
X137346190Y-57500500D01*
X145978993Y-57500500D01*
X145994865Y-57502589D01*
X145994923Y-57502153D01*
X146001356Y-57503000D01*
X146001357Y-57503000D01*
X146093645Y-57503000D01*
X146100078Y-57502153D01*
X146100135Y-57502589D01*
X146116008Y-57500500D01*
X147768810Y-57500500D01*
X147827001Y-57519407D01*
X147838814Y-57529496D01*
X148220504Y-57911186D01*
X148248281Y-57965703D01*
X148249500Y-57981190D01*
X148249500Y-58246978D01*
X148230593Y-58305169D01*
X148188387Y-58338442D01*
X148102401Y-58374059D01*
X147930348Y-58489020D01*
X147784020Y-58635348D01*
X147669058Y-58807402D01*
X147589869Y-58998581D01*
X147552055Y-59188685D01*
X147522158Y-59242069D01*
X147466593Y-59267685D01*
X147406583Y-59255748D01*
X147365051Y-59210818D01*
X147357176Y-59184858D01*
X147327991Y-59000587D01*
X147264756Y-58805972D01*
X147171861Y-58623653D01*
X147051585Y-58458108D01*
X146906891Y-58313414D01*
X146741346Y-58193138D01*
X146559027Y-58100243D01*
X146364414Y-58037009D01*
X146310000Y-58028390D01*
X146310000Y-59389314D01*
X146305606Y-59384920D01*
X146214394Y-59332259D01*
X146112661Y-59305000D01*
X146007339Y-59305000D01*
X145905606Y-59332259D01*
X145814394Y-59384920D01*
X145810000Y-59389314D01*
X145810000Y-58028391D01*
X145809999Y-58028390D01*
X145755585Y-58037009D01*
X145560972Y-58100243D01*
X145378653Y-58193138D01*
X145213108Y-58313414D01*
X145068414Y-58458108D01*
X144948138Y-58623653D01*
X144855243Y-58805972D01*
X144792008Y-59000587D01*
X144762823Y-59184858D01*
X144735046Y-59239375D01*
X144680529Y-59267152D01*
X144620097Y-59257581D01*
X144576832Y-59214316D01*
X144567944Y-59188685D01*
X144530130Y-58998581D01*
X144450941Y-58807402D01*
X144335979Y-58635348D01*
X144335977Y-58635345D01*
X144189655Y-58489023D01*
X144189651Y-58489020D01*
X144017597Y-58374058D01*
X143826418Y-58294869D01*
X143623467Y-58254500D01*
X143623465Y-58254500D01*
X143416535Y-58254500D01*
X143416532Y-58254500D01*
X143213581Y-58294869D01*
X143022402Y-58374058D01*
X142850348Y-58489020D01*
X142704020Y-58635348D01*
X142589058Y-58807402D01*
X142509869Y-58998581D01*
X142469500Y-59201532D01*
X142469500Y-59255500D01*
X142450593Y-59313691D01*
X142401093Y-59349655D01*
X142370500Y-59354500D01*
X140908856Y-59354500D01*
X140819712Y-59378386D01*
X140739788Y-59424530D01*
X135977158Y-64187158D01*
X135922641Y-64214935D01*
X135894233Y-64215307D01*
X135890002Y-64214750D01*
X135890000Y-64214750D01*
X135746291Y-64233669D01*
X135746290Y-64233670D01*
X135612378Y-64289137D01*
X135612374Y-64289139D01*
X135497381Y-64377377D01*
X135497377Y-64377381D01*
X135409139Y-64492374D01*
X135409137Y-64492378D01*
X135353670Y-64626290D01*
X135353669Y-64626291D01*
X135334750Y-64769999D01*
X135334750Y-64770000D01*
X135353669Y-64913708D01*
X135353670Y-64913709D01*
X135397696Y-65020000D01*
X135409139Y-65047625D01*
X135497379Y-65162621D01*
X135612375Y-65250861D01*
X135746291Y-65306330D01*
X135890000Y-65325250D01*
X136033709Y-65306330D01*
X136167625Y-65250861D01*
X136282621Y-65162621D01*
X136370861Y-65047625D01*
X136426330Y-64913709D01*
X136445250Y-64770000D01*
X136444693Y-64765770D01*
X136455839Y-64705610D01*
X136472838Y-64682842D01*
X138594591Y-62561090D01*
X138649103Y-62533316D01*
X138709535Y-62542887D01*
X138721390Y-62551500D01*
X139449999Y-62551500D01*
X139450000Y-62551499D01*
X139450000Y-61764001D01*
X139950000Y-61764001D01*
X139950000Y-62551499D01*
X139950001Y-62551500D01*
X140674998Y-62551500D01*
X140674999Y-62551499D01*
X140674999Y-62452345D01*
X140664682Y-62351357D01*
X140664679Y-62351345D01*
X140610451Y-62187693D01*
X140519946Y-62040964D01*
X140398035Y-61919053D01*
X140251306Y-61828548D01*
X140087648Y-61774318D01*
X139986655Y-61764000D01*
X139950001Y-61764000D01*
X139950000Y-61764001D01*
X139450000Y-61764001D01*
X139450000Y-61746688D01*
X139468907Y-61688497D01*
X139478986Y-61676695D01*
X141071186Y-60084496D01*
X141125703Y-60056719D01*
X141141190Y-60055500D01*
X142370500Y-60055500D01*
X142428691Y-60074407D01*
X142464655Y-60123907D01*
X142469500Y-60154500D01*
X142469500Y-60208467D01*
X142509869Y-60411418D01*
X142589058Y-60602597D01*
X142591629Y-60606445D01*
X142704023Y-60774655D01*
X142850345Y-60920977D01*
X143022402Y-61035941D01*
X143213580Y-61115130D01*
X143416535Y-61155500D01*
X143416536Y-61155500D01*
X143623464Y-61155500D01*
X143623465Y-61155500D01*
X143826420Y-61115130D01*
X144017598Y-61035941D01*
X144189655Y-60920977D01*
X144335977Y-60774655D01*
X144450941Y-60602598D01*
X144530130Y-60411420D01*
X144567944Y-60221313D01*
X144597841Y-60167930D01*
X144653406Y-60142314D01*
X144713415Y-60154251D01*
X144754948Y-60199181D01*
X144762823Y-60225141D01*
X144792008Y-60409412D01*
X144855243Y-60604027D01*
X144948138Y-60786346D01*
X145068414Y-60951891D01*
X145213108Y-61096585D01*
X145378653Y-61216861D01*
X145560972Y-61309756D01*
X145755589Y-61372991D01*
X145755585Y-61372991D01*
X145809999Y-61381608D01*
X145810000Y-61381607D01*
X145810000Y-60020686D01*
X145814394Y-60025080D01*
X145905606Y-60077741D01*
X146007339Y-60105000D01*
X146112661Y-60105000D01*
X146214394Y-60077741D01*
X146305606Y-60025080D01*
X146310000Y-60020686D01*
X146310000Y-61381608D01*
X146364412Y-61372991D01*
X146559027Y-61309756D01*
X146741346Y-61216861D01*
X146906891Y-61096585D01*
X147051585Y-60951891D01*
X147171861Y-60786346D01*
X147264756Y-60604027D01*
X147327991Y-60409412D01*
X147357176Y-60225141D01*
X147384953Y-60170625D01*
X147439469Y-60142847D01*
X147499902Y-60152418D01*
X147543166Y-60195682D01*
X147552055Y-60221314D01*
X147589869Y-60411418D01*
X147669058Y-60602597D01*
X147671629Y-60606445D01*
X147784023Y-60774655D01*
X147930345Y-60920977D01*
X148102402Y-61035941D01*
X148293580Y-61115130D01*
X148496535Y-61155500D01*
X148496536Y-61155500D01*
X148703464Y-61155500D01*
X148703465Y-61155500D01*
X148906420Y-61115130D01*
X149097598Y-61035941D01*
X149269655Y-60920977D01*
X149415977Y-60774655D01*
X149530941Y-60602598D01*
X149610130Y-60411420D01*
X149647944Y-60221313D01*
X149677841Y-60167930D01*
X149733406Y-60142314D01*
X149793415Y-60154251D01*
X149834948Y-60199181D01*
X149842823Y-60225141D01*
X149872008Y-60409412D01*
X149935243Y-60604027D01*
X150028138Y-60786346D01*
X150148414Y-60951891D01*
X150293108Y-61096585D01*
X150458653Y-61216861D01*
X150640972Y-61309756D01*
X150835589Y-61372991D01*
X150835585Y-61372991D01*
X150889999Y-61381608D01*
X150890000Y-61381607D01*
X150890000Y-60020686D01*
X150894394Y-60025080D01*
X150985606Y-60077741D01*
X151087339Y-60105000D01*
X151192661Y-60105000D01*
X151294394Y-60077741D01*
X151385606Y-60025080D01*
X151390000Y-60020686D01*
X151390000Y-61381608D01*
X151444412Y-61372991D01*
X151639027Y-61309756D01*
X151821348Y-61216860D01*
X151892308Y-61165304D01*
X151950499Y-61146396D01*
X152008690Y-61165303D01*
X152044654Y-61214802D01*
X152049500Y-61245396D01*
X152049500Y-62678810D01*
X152030593Y-62737001D01*
X152020504Y-62748814D01*
X150378814Y-64390504D01*
X150324297Y-64418281D01*
X150308810Y-64419500D01*
X146028856Y-64419500D01*
X146000927Y-64426983D01*
X145945069Y-64441950D01*
X145939712Y-64443385D01*
X145939708Y-64443387D01*
X145859788Y-64489529D01*
X144490640Y-65858675D01*
X144436124Y-65886452D01*
X144401322Y-65885768D01*
X144344684Y-65874501D01*
X144344674Y-65874500D01*
X142695326Y-65874500D01*
X142695320Y-65874500D01*
X142638673Y-65885768D01*
X142577912Y-65878576D01*
X142549356Y-65858674D01*
X141744852Y-65054170D01*
X140936712Y-64246030D01*
X140856788Y-64199886D01*
X140767644Y-64176000D01*
X140767642Y-64176000D01*
X140508240Y-64176000D01*
X140450049Y-64157093D01*
X140415482Y-64111596D01*
X140370213Y-63990223D01*
X140287067Y-63879155D01*
X140267330Y-63821240D01*
X140285404Y-63762786D01*
X140314347Y-63735565D01*
X140398038Y-63683943D01*
X140519946Y-63562035D01*
X140610451Y-63415306D01*
X140664681Y-63251648D01*
X140675000Y-63150655D01*
X140675000Y-63051501D01*
X140674999Y-63051500D01*
X138725002Y-63051500D01*
X138725001Y-63051501D01*
X138725001Y-63150654D01*
X138735317Y-63251642D01*
X138735320Y-63251654D01*
X138789548Y-63415306D01*
X138880053Y-63562035D01*
X139001963Y-63683945D01*
X139085652Y-63735566D01*
X139125253Y-63782207D01*
X139129876Y-63843217D01*
X139112932Y-63879155D01*
X139029786Y-63990223D01*
X138980750Y-64121695D01*
X138980749Y-64121701D01*
X138974912Y-64176000D01*
X138974500Y-64179829D01*
X138974500Y-64873170D01*
X138974499Y-64873170D01*
X138980748Y-64931293D01*
X138980750Y-64931304D01*
X139029786Y-65062776D01*
X139073911Y-65121719D01*
X139113884Y-65175116D01*
X139113887Y-65175118D01*
X139113888Y-65175119D01*
X139226223Y-65259213D01*
X139357695Y-65308249D01*
X139357696Y-65308249D01*
X139357701Y-65308251D01*
X139415826Y-65314500D01*
X139415830Y-65314500D01*
X139984170Y-65314500D01*
X139984174Y-65314500D01*
X140042299Y-65308251D01*
X140087948Y-65291224D01*
X140173776Y-65259213D01*
X140173776Y-65259212D01*
X140173778Y-65259212D01*
X140286116Y-65175116D01*
X140370212Y-65062778D01*
X140415482Y-64941403D01*
X140453532Y-64893489D01*
X140508240Y-64877000D01*
X140535310Y-64877000D01*
X140593501Y-64895907D01*
X140605314Y-64905996D01*
X142440504Y-66741186D01*
X142468281Y-66795703D01*
X142469500Y-66811190D01*
X142469500Y-68549672D01*
X142469501Y-68549684D01*
X142484033Y-68622736D01*
X142484035Y-68622742D01*
X142539397Y-68705599D01*
X142539400Y-68705602D01*
X142610758Y-68753281D01*
X142622260Y-68760966D01*
X142677808Y-68772015D01*
X142695315Y-68775498D01*
X142695320Y-68775498D01*
X142695326Y-68775500D01*
X143070500Y-68775500D01*
X143128691Y-68794407D01*
X143164655Y-68843907D01*
X143169500Y-68874500D01*
X143169500Y-82353810D01*
X143150593Y-82412001D01*
X143140504Y-82423814D01*
X140333814Y-85230504D01*
X140279297Y-85258281D01*
X140263810Y-85259500D01*
X138825326Y-85259500D01*
X138825325Y-85259500D01*
X138825315Y-85259501D01*
X138752263Y-85274033D01*
X138752257Y-85274035D01*
X138669400Y-85329397D01*
X138669397Y-85329400D01*
X138614035Y-85412257D01*
X138614033Y-85412263D01*
X138599501Y-85485315D01*
X138599500Y-85485327D01*
X138599500Y-86923810D01*
X138580593Y-86982001D01*
X138570504Y-86993814D01*
X138313814Y-87250504D01*
X138259297Y-87278281D01*
X138243810Y-87279500D01*
X135814382Y-87279500D01*
X135756191Y-87260593D01*
X135720227Y-87211093D01*
X135720227Y-87149907D01*
X135733286Y-87123716D01*
X135793600Y-87037577D01*
X135893430Y-86823489D01*
X135950636Y-86610000D01*
X135053012Y-86610000D01*
X135085925Y-86552993D01*
X135120000Y-86425826D01*
X135120000Y-86294174D01*
X135085925Y-86167007D01*
X135053012Y-86110000D01*
X135950636Y-86110000D01*
X135893429Y-85896505D01*
X135793605Y-85682432D01*
X135793601Y-85682424D01*
X135658113Y-85488926D01*
X135491073Y-85321886D01*
X135297577Y-85186399D01*
X135083489Y-85086569D01*
X134870000Y-85029364D01*
X134870000Y-85926988D01*
X134812993Y-85894075D01*
X134685826Y-85860000D01*
X134554174Y-85860000D01*
X134427007Y-85894075D01*
X134370000Y-85926988D01*
X134370000Y-85029364D01*
X134156505Y-85086570D01*
X133942432Y-85186394D01*
X133942424Y-85186398D01*
X133748926Y-85321886D01*
X133581886Y-85488926D01*
X133446398Y-85682424D01*
X133446394Y-85682432D01*
X133346570Y-85896505D01*
X133316014Y-86010541D01*
X133282689Y-86061856D01*
X133225568Y-86083782D01*
X133166467Y-86067946D01*
X133127962Y-86020396D01*
X133125172Y-86012028D01*
X133110582Y-85960750D01*
X133019673Y-85778179D01*
X132896764Y-85615421D01*
X132746041Y-85478019D01*
X132572637Y-85370652D01*
X132493737Y-85340086D01*
X132446306Y-85301434D01*
X132430500Y-85247771D01*
X132430500Y-83933857D01*
X132430500Y-83933856D01*
X132406614Y-83844712D01*
X132404555Y-83841145D01*
X132404554Y-83841144D01*
X132360470Y-83764788D01*
X131253544Y-82657862D01*
X131225767Y-82603345D01*
X131235338Y-82542913D01*
X131244285Y-82528542D01*
X131323796Y-82422331D01*
X131374091Y-82287483D01*
X131380500Y-82227873D01*
X131380500Y-81530001D01*
X132530001Y-81530001D01*
X132530001Y-82229986D01*
X132540492Y-82332687D01*
X132540495Y-82332699D01*
X132595643Y-82499124D01*
X132687680Y-82648340D01*
X132811659Y-82772319D01*
X132960875Y-82864356D01*
X133127306Y-82919506D01*
X133230012Y-82929999D01*
X134529998Y-82929999D01*
X134530000Y-82929998D01*
X134530000Y-81530001D01*
X135030000Y-81530001D01*
X135030000Y-82929998D01*
X135030001Y-82929999D01*
X136329986Y-82929999D01*
X136432687Y-82919507D01*
X136432699Y-82919504D01*
X136599124Y-82864356D01*
X136748340Y-82772319D01*
X136872319Y-82648340D01*
X136964356Y-82499124D01*
X137019506Y-82332693D01*
X137030000Y-82229987D01*
X137030000Y-81530001D01*
X137029999Y-81530000D01*
X135030001Y-81530000D01*
X135030000Y-81530001D01*
X134530000Y-81530001D01*
X134529999Y-81530000D01*
X132530002Y-81530000D01*
X132530001Y-81530001D01*
X131380500Y-81530001D01*
X131380499Y-80332128D01*
X131380272Y-80330012D01*
X132530000Y-80330012D01*
X132530000Y-81029999D01*
X132530001Y-81030000D01*
X134529999Y-81030000D01*
X134530000Y-81029999D01*
X134530000Y-79630001D01*
X135030000Y-79630001D01*
X135030000Y-81029999D01*
X135030001Y-81030000D01*
X137029998Y-81030000D01*
X137029999Y-81029999D01*
X137029999Y-80330013D01*
X137019507Y-80227312D01*
X137019504Y-80227300D01*
X136964356Y-80060875D01*
X136872319Y-79911659D01*
X136748340Y-79787680D01*
X136599124Y-79695643D01*
X136432693Y-79640493D01*
X136329987Y-79630000D01*
X135030001Y-79630000D01*
X135030000Y-79630001D01*
X134530000Y-79630001D01*
X134529999Y-79630000D01*
X133230013Y-79630000D01*
X133127312Y-79640492D01*
X133127300Y-79640495D01*
X132960875Y-79695643D01*
X132811659Y-79787680D01*
X132687680Y-79911659D01*
X132595643Y-80060875D01*
X132540493Y-80227306D01*
X132530000Y-80330012D01*
X131380272Y-80330012D01*
X131374091Y-80272517D01*
X131357231Y-80227312D01*
X131323797Y-80137670D01*
X131266308Y-80060875D01*
X131244293Y-80031467D01*
X131224557Y-79973555D01*
X131242631Y-79915100D01*
X131253537Y-79902144D01*
X131447970Y-79707712D01*
X131494114Y-79627788D01*
X131518000Y-79538643D01*
X131518000Y-79446356D01*
X131518000Y-76989591D01*
X131536907Y-76931400D01*
X131582404Y-76896833D01*
X131653776Y-76870213D01*
X131653776Y-76870212D01*
X131653778Y-76870212D01*
X131766116Y-76786116D01*
X131850212Y-76673778D01*
X131899251Y-76542299D01*
X131905500Y-76484174D01*
X131905500Y-76484170D01*
X132254499Y-76484170D01*
X132260748Y-76542293D01*
X132260750Y-76542304D01*
X132309786Y-76673776D01*
X132393880Y-76786111D01*
X132393884Y-76786116D01*
X132393887Y-76786118D01*
X132393888Y-76786119D01*
X132506223Y-76870213D01*
X132637695Y-76919249D01*
X132637696Y-76919249D01*
X132637701Y-76919251D01*
X132695826Y-76925500D01*
X132695830Y-76925500D01*
X133289170Y-76925500D01*
X133289174Y-76925500D01*
X133347299Y-76919251D01*
X133407404Y-76896833D01*
X133478776Y-76870213D01*
X133478776Y-76870212D01*
X133478778Y-76870212D01*
X133591116Y-76786116D01*
X133675212Y-76673778D01*
X133697171Y-76614904D01*
X133735221Y-76566989D01*
X133789929Y-76550500D01*
X138583845Y-76550500D01*
X138642036Y-76569407D01*
X138672466Y-76605372D01*
X138706527Y-76673776D01*
X138760327Y-76781821D01*
X138883236Y-76944579D01*
X139033959Y-77081981D01*
X139207363Y-77189348D01*
X139397544Y-77263024D01*
X139598024Y-77300500D01*
X139801976Y-77300500D01*
X140002456Y-77263024D01*
X140192637Y-77189348D01*
X140366041Y-77081981D01*
X140516764Y-76944579D01*
X140639673Y-76781821D01*
X140730582Y-76599250D01*
X140786397Y-76403083D01*
X140805215Y-76200000D01*
X140786397Y-75996917D01*
X140730582Y-75800750D01*
X140639673Y-75618179D01*
X140516764Y-75455421D01*
X140366041Y-75318019D01*
X140192637Y-75210652D01*
X140168532Y-75201314D01*
X140121103Y-75162663D01*
X140105449Y-75103514D01*
X140127552Y-75046461D01*
X140178969Y-75013295D01*
X140204297Y-75010000D01*
X140597824Y-75010000D01*
X140657370Y-75003598D01*
X140657381Y-75003596D01*
X140792088Y-74953353D01*
X140792090Y-74953352D01*
X140907184Y-74867192D01*
X140907192Y-74867184D01*
X140993352Y-74752090D01*
X140993353Y-74752088D01*
X141043596Y-74617381D01*
X141043598Y-74617370D01*
X141050000Y-74557824D01*
X141050000Y-73910001D01*
X141049999Y-73910000D01*
X140133012Y-73910000D01*
X140165925Y-73852993D01*
X140200000Y-73725826D01*
X140200000Y-73594174D01*
X140165925Y-73467007D01*
X140133012Y-73410000D01*
X141049999Y-73410000D01*
X141050000Y-73409999D01*
X141050000Y-72762175D01*
X141043598Y-72702629D01*
X141043596Y-72702618D01*
X140993353Y-72567911D01*
X140993352Y-72567909D01*
X140907192Y-72452815D01*
X140907184Y-72452807D01*
X140792090Y-72366647D01*
X140792088Y-72366646D01*
X140657381Y-72316403D01*
X140657370Y-72316401D01*
X140597824Y-72310000D01*
X139950001Y-72310000D01*
X139950000Y-72310001D01*
X139950000Y-73226988D01*
X139892993Y-73194075D01*
X139765826Y-73160000D01*
X139634174Y-73160000D01*
X139507007Y-73194075D01*
X139450000Y-73226988D01*
X139450000Y-72310001D01*
X139449999Y-72310000D01*
X138802176Y-72310000D01*
X138742629Y-72316401D01*
X138742618Y-72316403D01*
X138607911Y-72366646D01*
X138607909Y-72366647D01*
X138492815Y-72452807D01*
X138492807Y-72452815D01*
X138406647Y-72567909D01*
X138406646Y-72567911D01*
X138356403Y-72702618D01*
X138356401Y-72702629D01*
X138350000Y-72762175D01*
X138350000Y-73409999D01*
X138350001Y-73410000D01*
X139266988Y-73410000D01*
X139234075Y-73467007D01*
X139200000Y-73594174D01*
X139200000Y-73725826D01*
X139234075Y-73852993D01*
X139266988Y-73910000D01*
X138350001Y-73910000D01*
X138350000Y-73910001D01*
X138350000Y-74557824D01*
X138349999Y-74557824D01*
X138356401Y-74617370D01*
X138356403Y-74617381D01*
X138406646Y-74752088D01*
X138406647Y-74752090D01*
X138492807Y-74867184D01*
X138492815Y-74867192D01*
X138607909Y-74953352D01*
X138607911Y-74953353D01*
X138742618Y-75003596D01*
X138742629Y-75003598D01*
X138802176Y-75010000D01*
X139195703Y-75010000D01*
X139253894Y-75028907D01*
X139289858Y-75078407D01*
X139289858Y-75139593D01*
X139253894Y-75189093D01*
X139231469Y-75201313D01*
X139207363Y-75210652D01*
X139033959Y-75318019D01*
X138883236Y-75455421D01*
X138843388Y-75508188D01*
X138760328Y-75618177D01*
X138760323Y-75618186D01*
X138672466Y-75794628D01*
X138629603Y-75838291D01*
X138583845Y-75849500D01*
X133789929Y-75849500D01*
X133731738Y-75830593D01*
X133697171Y-75785096D01*
X133675213Y-75726223D01*
X133591119Y-75613888D01*
X133591118Y-75613887D01*
X133591116Y-75613884D01*
X133591111Y-75613880D01*
X133478776Y-75529786D01*
X133347304Y-75480750D01*
X133347299Y-75480749D01*
X133347297Y-75480748D01*
X133347293Y-75480748D01*
X133321011Y-75477922D01*
X133289174Y-75474500D01*
X132695826Y-75474500D01*
X132667823Y-75477510D01*
X132637706Y-75480748D01*
X132637695Y-75480750D01*
X132506223Y-75529786D01*
X132393888Y-75613880D01*
X132393880Y-75613888D01*
X132309786Y-75726223D01*
X132260750Y-75857695D01*
X132260748Y-75857706D01*
X132254500Y-75915829D01*
X132254500Y-76484170D01*
X132254499Y-76484170D01*
X131905500Y-76484170D01*
X131905500Y-75915826D01*
X131899251Y-75857701D01*
X131896192Y-75849500D01*
X131850213Y-75726223D01*
X131766119Y-75613888D01*
X131766118Y-75613887D01*
X131766116Y-75613884D01*
X131766111Y-75613880D01*
X131653776Y-75529786D01*
X131522304Y-75480750D01*
X131522299Y-75480749D01*
X131522297Y-75480748D01*
X131522293Y-75480748D01*
X131496011Y-75477922D01*
X131464174Y-75474500D01*
X130870826Y-75474500D01*
X130842823Y-75477510D01*
X130812706Y-75480748D01*
X130812695Y-75480750D01*
X130681223Y-75529786D01*
X130568888Y-75613880D01*
X130568880Y-75613888D01*
X130484786Y-75726223D01*
X130435750Y-75857695D01*
X130435748Y-75857706D01*
X130429500Y-75915829D01*
X130429500Y-76484170D01*
X130429499Y-76484170D01*
X130435748Y-76542293D01*
X130435750Y-76542304D01*
X130484786Y-76673776D01*
X130568880Y-76786111D01*
X130568884Y-76786116D01*
X130568887Y-76786118D01*
X130568888Y-76786119D01*
X130681223Y-76870213D01*
X130752596Y-76896833D01*
X130800511Y-76934883D01*
X130817000Y-76989591D01*
X130817000Y-79306309D01*
X130798093Y-79364500D01*
X130788004Y-79376313D01*
X130313813Y-79850504D01*
X130259296Y-79878281D01*
X130243809Y-79879500D01*
X127832133Y-79879500D01*
X127832129Y-79879500D01*
X127832128Y-79879501D01*
X127824949Y-79880272D01*
X127772519Y-79885908D01*
X127772514Y-79885909D01*
X127637670Y-79936202D01*
X127522458Y-80022450D01*
X127522450Y-80022458D01*
X127436202Y-80137670D01*
X127385910Y-80272511D01*
X127385908Y-80272522D01*
X127381533Y-80313209D01*
X127379728Y-80330012D01*
X127379500Y-80332129D01*
X127379500Y-82227866D01*
X127379500Y-82227869D01*
X127379501Y-82227872D01*
X127380522Y-82237370D01*
X127385908Y-82287480D01*
X127385909Y-82287485D01*
X127436202Y-82422329D01*
X127515703Y-82528528D01*
X127522454Y-82537546D01*
X127522457Y-82537548D01*
X127522458Y-82537549D01*
X127637670Y-82623797D01*
X127772511Y-82674089D01*
X127772512Y-82674089D01*
X127772517Y-82674091D01*
X127832127Y-82680500D01*
X130243809Y-82680499D01*
X130302000Y-82699406D01*
X130313813Y-82709495D01*
X131700504Y-84096186D01*
X131728281Y-84150703D01*
X131729500Y-84166190D01*
X131729500Y-85247771D01*
X131710593Y-85305962D01*
X131666262Y-85340086D01*
X131587363Y-85370652D01*
X131436198Y-85464249D01*
X131413959Y-85478019D01*
X131263237Y-85615420D01*
X131140328Y-85778177D01*
X131140323Y-85778186D01*
X131049420Y-85960745D01*
X131049418Y-85960750D01*
X130993603Y-86156917D01*
X130974785Y-86360000D01*
X130993603Y-86563083D01*
X131049418Y-86759250D01*
X131140327Y-86941821D01*
X131263236Y-87104579D01*
X131266266Y-87107341D01*
X131296529Y-87160517D01*
X131289757Y-87221327D01*
X131248535Y-87266542D01*
X131199567Y-87279500D01*
X130420433Y-87279500D01*
X130362242Y-87260593D01*
X130326278Y-87211093D01*
X130326278Y-87149907D01*
X130353734Y-87107341D01*
X130356764Y-87104579D01*
X130479673Y-86941821D01*
X130570582Y-86759250D01*
X130626397Y-86563083D01*
X130645215Y-86360000D01*
X130626397Y-86156917D01*
X130570582Y-85960750D01*
X130479673Y-85778179D01*
X130356764Y-85615421D01*
X130206041Y-85478019D01*
X130032637Y-85370652D01*
X129842456Y-85296976D01*
X129842455Y-85296975D01*
X129842453Y-85296975D01*
X129641976Y-85259500D01*
X129438024Y-85259500D01*
X129237544Y-85296975D01*
X129106772Y-85347636D01*
X129045681Y-85351026D01*
X129001006Y-85325325D01*
X122299496Y-78623814D01*
X122271719Y-78569297D01*
X122270500Y-78553810D01*
X122270500Y-74557824D01*
X123109999Y-74557824D01*
X123116401Y-74617370D01*
X123116403Y-74617381D01*
X123166646Y-74752088D01*
X123166647Y-74752090D01*
X123252807Y-74867184D01*
X123252815Y-74867192D01*
X123367909Y-74953352D01*
X123367911Y-74953353D01*
X123502618Y-75003596D01*
X123502629Y-75003598D01*
X123562176Y-75010000D01*
X123955703Y-75010000D01*
X124013894Y-75028907D01*
X124049858Y-75078407D01*
X124049858Y-75139593D01*
X124013894Y-75189093D01*
X123991469Y-75201313D01*
X123967363Y-75210652D01*
X123793959Y-75318019D01*
X123643236Y-75455421D01*
X123603388Y-75508188D01*
X123520328Y-75618177D01*
X123520323Y-75618186D01*
X123432466Y-75794628D01*
X123429418Y-75800750D01*
X123373603Y-75996917D01*
X123354785Y-76200000D01*
X123373603Y-76403083D01*
X123429418Y-76599250D01*
X123520327Y-76781821D01*
X123643236Y-76944579D01*
X123793959Y-77081981D01*
X123967363Y-77189348D01*
X124157544Y-77263024D01*
X124358024Y-77300500D01*
X124561976Y-77300500D01*
X124762456Y-77263024D01*
X124952637Y-77189348D01*
X125126041Y-77081981D01*
X125276764Y-76944579D01*
X125399673Y-76781821D01*
X125490582Y-76599250D01*
X125546397Y-76403083D01*
X125565215Y-76200000D01*
X125546397Y-75996917D01*
X125490582Y-75800750D01*
X125477239Y-75773954D01*
X125468226Y-75713441D01*
X125495854Y-75659826D01*
X127427596Y-73728084D01*
X127482112Y-73700309D01*
X127542544Y-73709880D01*
X127585809Y-73753145D01*
X127590357Y-73763493D01*
X127599787Y-73788777D01*
X127640860Y-73843644D01*
X127683884Y-73901116D01*
X127683887Y-73901118D01*
X127683888Y-73901119D01*
X127796223Y-73985213D01*
X127927695Y-74034249D01*
X127927696Y-74034249D01*
X127927701Y-74034251D01*
X127985826Y-74040500D01*
X127985830Y-74040500D01*
X128554170Y-74040500D01*
X128554174Y-74040500D01*
X128612299Y-74034251D01*
X128657948Y-74017224D01*
X128743776Y-73985213D01*
X128743776Y-73985212D01*
X128743778Y-73985212D01*
X128856116Y-73901116D01*
X128940212Y-73788778D01*
X128958592Y-73739500D01*
X128966834Y-73717403D01*
X129004885Y-73669489D01*
X129059592Y-73653000D01*
X129338032Y-73653000D01*
X129396223Y-73671907D01*
X129408036Y-73681996D01*
X130096510Y-74370470D01*
X130176434Y-74416614D01*
X130265578Y-74440500D01*
X130265580Y-74440500D01*
X132608642Y-74440500D01*
X132608644Y-74440500D01*
X132697788Y-74416614D01*
X132777712Y-74370470D01*
X132988182Y-74160000D01*
X133078687Y-74069496D01*
X133133203Y-74041719D01*
X133148690Y-74040500D01*
X133634170Y-74040500D01*
X133634174Y-74040500D01*
X133692299Y-74034251D01*
X133737948Y-74017224D01*
X133823776Y-73985213D01*
X133823776Y-73985212D01*
X133823778Y-73985212D01*
X133936116Y-73901116D01*
X134020212Y-73788778D01*
X134033503Y-73753145D01*
X134053209Y-73700309D01*
X134069251Y-73657299D01*
X134075500Y-73599174D01*
X134075500Y-73552501D01*
X134915001Y-73552501D01*
X134915001Y-73601654D01*
X134925317Y-73702642D01*
X134925320Y-73702654D01*
X134979548Y-73866306D01*
X135070053Y-74013035D01*
X135191964Y-74134946D01*
X135338693Y-74225451D01*
X135502351Y-74279681D01*
X135603344Y-74289999D01*
X135639999Y-74289999D01*
X135640000Y-74289998D01*
X135640000Y-73552501D01*
X136140000Y-73552501D01*
X136140000Y-74289998D01*
X136140001Y-74289999D01*
X136176654Y-74289999D01*
X136277642Y-74279682D01*
X136277654Y-74279679D01*
X136441306Y-74225451D01*
X136588035Y-74134946D01*
X136709946Y-74013035D01*
X136800451Y-73866306D01*
X136854681Y-73702648D01*
X136865000Y-73601655D01*
X136865000Y-73552501D01*
X136864999Y-73552500D01*
X136140001Y-73552500D01*
X136140000Y-73552501D01*
X135640000Y-73552501D01*
X135639999Y-73552500D01*
X134915002Y-73552500D01*
X134915001Y-73552501D01*
X134075500Y-73552501D01*
X134075500Y-73005826D01*
X134069251Y-72947701D01*
X134069249Y-72947695D01*
X134020213Y-72816223D01*
X133936119Y-72703888D01*
X133936118Y-72703887D01*
X133936116Y-72703884D01*
X133934425Y-72702618D01*
X133823776Y-72619786D01*
X133692304Y-72570750D01*
X133692299Y-72570749D01*
X133692297Y-72570748D01*
X133692293Y-72570748D01*
X133665883Y-72567909D01*
X133634174Y-72564500D01*
X133065826Y-72564500D01*
X133007710Y-72570748D01*
X133001543Y-72571411D01*
X133001243Y-72568628D01*
X132951674Y-72564498D01*
X132905331Y-72524549D01*
X132891321Y-72464989D01*
X132914994Y-72408569D01*
X132919962Y-72403219D01*
X133025940Y-72297242D01*
X133078687Y-72244496D01*
X133133204Y-72216719D01*
X133148690Y-72215500D01*
X133634170Y-72215500D01*
X133634174Y-72215500D01*
X133692299Y-72209251D01*
X133737948Y-72192224D01*
X133823776Y-72160213D01*
X133823776Y-72160212D01*
X133823778Y-72160212D01*
X133936116Y-72076116D01*
X134020212Y-71963778D01*
X134039406Y-71912318D01*
X134046834Y-71892403D01*
X134084885Y-71844489D01*
X134139592Y-71828000D01*
X135100408Y-71828000D01*
X135158599Y-71846907D01*
X135193166Y-71892403D01*
X135219787Y-71963777D01*
X135219788Y-71963778D01*
X135303884Y-72076116D01*
X135303887Y-72076118D01*
X135303888Y-72076119D01*
X135416222Y-72160212D01*
X135427660Y-72164478D01*
X135475576Y-72202527D01*
X135491975Y-72261474D01*
X135470595Y-72318802D01*
X135424207Y-72351212D01*
X135338692Y-72379549D01*
X135191964Y-72470053D01*
X135070053Y-72591964D01*
X134979548Y-72738693D01*
X134925318Y-72902351D01*
X134915000Y-73003344D01*
X134915000Y-73052499D01*
X134915001Y-73052500D01*
X136864998Y-73052500D01*
X136864999Y-73052499D01*
X136864999Y-73003345D01*
X136854682Y-72902357D01*
X136854679Y-72902345D01*
X136800451Y-72738693D01*
X136709946Y-72591964D01*
X136588035Y-72470053D01*
X136441306Y-72379548D01*
X136355793Y-72351212D01*
X136306503Y-72314960D01*
X136287935Y-72256661D01*
X136307181Y-72198581D01*
X136352338Y-72164478D01*
X136363778Y-72160212D01*
X136476116Y-72076116D01*
X136560212Y-71963778D01*
X136609251Y-71832299D01*
X136615500Y-71774174D01*
X136615500Y-71180826D01*
X136609251Y-71122701D01*
X136609249Y-71122695D01*
X136560213Y-70991223D01*
X136476119Y-70878888D01*
X136476118Y-70878887D01*
X136476116Y-70878884D01*
X136476111Y-70878880D01*
X136363776Y-70794786D01*
X136232304Y-70745750D01*
X136232299Y-70745749D01*
X136232297Y-70745748D01*
X136232293Y-70745748D01*
X136206011Y-70742922D01*
X136174174Y-70739500D01*
X135605826Y-70739500D01*
X135577823Y-70742510D01*
X135547706Y-70745748D01*
X135547695Y-70745750D01*
X135416223Y-70794786D01*
X135303888Y-70878880D01*
X135303880Y-70878888D01*
X135219787Y-70991222D01*
X135193166Y-71062597D01*
X135155115Y-71110511D01*
X135100408Y-71127000D01*
X134139592Y-71127000D01*
X134081401Y-71108093D01*
X134046834Y-71062597D01*
X134020212Y-70991222D01*
X133936119Y-70878888D01*
X133936118Y-70878887D01*
X133936116Y-70878884D01*
X133936111Y-70878880D01*
X133823776Y-70794786D01*
X133692304Y-70745750D01*
X133692299Y-70745749D01*
X133692297Y-70745748D01*
X133692293Y-70745748D01*
X133666011Y-70742922D01*
X133634174Y-70739500D01*
X133634170Y-70739500D01*
X133148689Y-70739500D01*
X133090498Y-70720593D01*
X133078685Y-70710504D01*
X131214847Y-68846665D01*
X131187070Y-68792148D01*
X131196641Y-68731716D01*
X131239906Y-68688451D01*
X131246938Y-68685209D01*
X131317598Y-68655941D01*
X131489655Y-68540977D01*
X131635977Y-68394655D01*
X131750941Y-68222598D01*
X131830130Y-68031420D01*
X131870500Y-67828465D01*
X131870500Y-66821535D01*
X131830130Y-66618580D01*
X131750941Y-66427402D01*
X131635977Y-66255345D01*
X131489655Y-66109023D01*
X131489651Y-66109020D01*
X131317597Y-65994058D01*
X131126418Y-65914869D01*
X130923467Y-65874500D01*
X130923465Y-65874500D01*
X130716535Y-65874500D01*
X130716532Y-65874500D01*
X130513581Y-65914869D01*
X130322402Y-65994058D01*
X130150348Y-66109020D01*
X130004020Y-66255348D01*
X129889058Y-66427402D01*
X129809869Y-66618581D01*
X129769500Y-66821532D01*
X129769500Y-67828467D01*
X129809869Y-68031418D01*
X129889058Y-68222597D01*
X129943917Y-68304700D01*
X130004023Y-68394655D01*
X130150345Y-68540977D01*
X130322402Y-68655941D01*
X130408385Y-68691556D01*
X130454911Y-68731292D01*
X130469500Y-68783020D01*
X130469500Y-68993644D01*
X130478178Y-69026030D01*
X130486856Y-69058417D01*
X130486856Y-69058418D01*
X130493383Y-69082782D01*
X130493384Y-69082784D01*
X130493385Y-69082787D01*
X130493386Y-69082788D01*
X130539530Y-69162712D01*
X131583561Y-70206742D01*
X132595504Y-71218685D01*
X132623281Y-71273202D01*
X132624500Y-71288689D01*
X132624500Y-71666309D01*
X132605593Y-71724500D01*
X132595504Y-71736313D01*
X131618959Y-72712857D01*
X131564442Y-72740634D01*
X131504010Y-72731063D01*
X131469702Y-72702182D01*
X131396119Y-72603888D01*
X131396118Y-72603887D01*
X131396116Y-72603884D01*
X131351855Y-72570750D01*
X131283776Y-72519786D01*
X131184496Y-72482758D01*
X131136581Y-72444708D01*
X131120183Y-72385761D01*
X131141564Y-72328433D01*
X131184496Y-72297242D01*
X131283776Y-72260213D01*
X131283776Y-72260212D01*
X131283778Y-72260212D01*
X131396116Y-72176116D01*
X131480212Y-72063778D01*
X131529251Y-71932299D01*
X131535500Y-71874174D01*
X131535500Y-71180826D01*
X131529251Y-71122701D01*
X131529249Y-71122695D01*
X131480213Y-70991223D01*
X131396119Y-70878888D01*
X131396118Y-70878887D01*
X131396116Y-70878884D01*
X131396111Y-70878880D01*
X131283776Y-70794786D01*
X131152304Y-70745750D01*
X131152299Y-70745749D01*
X131152297Y-70745748D01*
X131152293Y-70745748D01*
X131126011Y-70742922D01*
X131094174Y-70739500D01*
X130525826Y-70739500D01*
X130497823Y-70742510D01*
X130467706Y-70745748D01*
X130467695Y-70745750D01*
X130336223Y-70794786D01*
X130223888Y-70878880D01*
X130223880Y-70878888D01*
X130139787Y-70991222D01*
X130113166Y-71062597D01*
X130075115Y-71110511D01*
X130020408Y-71127000D01*
X129059592Y-71127000D01*
X129001401Y-71108093D01*
X128966834Y-71062597D01*
X128940212Y-70991222D01*
X128856119Y-70878888D01*
X128856118Y-70878887D01*
X128856116Y-70878884D01*
X128856111Y-70878880D01*
X128743781Y-70794789D01*
X128694902Y-70776558D01*
X128646988Y-70738506D01*
X128630500Y-70683800D01*
X128630500Y-68874500D01*
X128649407Y-68816309D01*
X128698907Y-68780345D01*
X128729500Y-68775500D01*
X129104673Y-68775500D01*
X129104674Y-68775500D01*
X129177740Y-68760966D01*
X129260601Y-68705601D01*
X129315966Y-68622740D01*
X129330500Y-68549674D01*
X129330500Y-66100326D01*
X129315966Y-66027260D01*
X129293782Y-65994058D01*
X129260602Y-65944400D01*
X129260599Y-65944397D01*
X129177742Y-65889035D01*
X129177740Y-65889034D01*
X129177737Y-65889033D01*
X129177736Y-65889033D01*
X129104684Y-65874501D01*
X129104674Y-65874500D01*
X127455326Y-65874500D01*
X127455325Y-65874500D01*
X127455315Y-65874501D01*
X127382263Y-65889033D01*
X127382257Y-65889035D01*
X127299400Y-65944397D01*
X127299397Y-65944400D01*
X127244035Y-66027257D01*
X127244033Y-66027263D01*
X127229501Y-66100315D01*
X127229500Y-66100327D01*
X127229500Y-68549672D01*
X127229501Y-68549684D01*
X127244033Y-68622736D01*
X127244035Y-68622742D01*
X127299397Y-68705599D01*
X127299400Y-68705602D01*
X127370758Y-68753281D01*
X127382260Y-68760966D01*
X127437808Y-68772015D01*
X127455315Y-68775498D01*
X127455320Y-68775498D01*
X127455326Y-68775500D01*
X127830500Y-68775500D01*
X127888691Y-68794407D01*
X127924655Y-68843907D01*
X127929500Y-68874500D01*
X127929500Y-70676341D01*
X127910593Y-70734532D01*
X127865097Y-70769099D01*
X127796222Y-70794787D01*
X127683888Y-70878880D01*
X127683880Y-70878888D01*
X127599786Y-70991223D01*
X127550750Y-71122695D01*
X127550748Y-71122706D01*
X127544500Y-71180829D01*
X127544500Y-71774170D01*
X127544499Y-71774170D01*
X127550748Y-71832293D01*
X127550750Y-71832304D01*
X127599786Y-71963776D01*
X127674646Y-72063776D01*
X127683884Y-72076116D01*
X127683887Y-72076118D01*
X127683888Y-72076119D01*
X127796223Y-72160213D01*
X127927695Y-72209249D01*
X127927696Y-72209249D01*
X127927701Y-72209251D01*
X127985826Y-72215500D01*
X127985830Y-72215500D01*
X128554170Y-72215500D01*
X128554174Y-72215500D01*
X128612299Y-72209251D01*
X128657948Y-72192224D01*
X128743776Y-72160213D01*
X128743776Y-72160212D01*
X128743778Y-72160212D01*
X128856116Y-72076116D01*
X128940212Y-71963778D01*
X128959406Y-71912318D01*
X128966834Y-71892403D01*
X129004885Y-71844489D01*
X129059592Y-71828000D01*
X129990609Y-71828000D01*
X130048800Y-71846907D01*
X130084764Y-71896407D01*
X130089042Y-71916419D01*
X130090748Y-71932293D01*
X130090750Y-71932304D01*
X130139786Y-72063776D01*
X130211978Y-72160212D01*
X130223884Y-72176116D01*
X130259165Y-72202527D01*
X130336223Y-72260213D01*
X130435503Y-72297242D01*
X130483418Y-72335292D01*
X130499816Y-72394239D01*
X130478434Y-72451567D01*
X130435503Y-72482758D01*
X130336223Y-72519786D01*
X130223888Y-72603880D01*
X130223880Y-72603888D01*
X130139786Y-72716223D01*
X130090750Y-72847695D01*
X130090749Y-72847701D01*
X130084875Y-72902345D01*
X130084500Y-72905829D01*
X130084500Y-73128088D01*
X130065593Y-73186279D01*
X130016093Y-73222243D01*
X129954907Y-73222243D01*
X129915497Y-73198092D01*
X129739436Y-73022032D01*
X129739434Y-73022030D01*
X129659510Y-72975886D01*
X129570366Y-72952000D01*
X129570364Y-72952000D01*
X129059592Y-72952000D01*
X129001401Y-72933093D01*
X128966834Y-72887597D01*
X128940212Y-72816222D01*
X128856119Y-72703888D01*
X128856118Y-72703887D01*
X128856116Y-72703884D01*
X128854425Y-72702618D01*
X128743776Y-72619786D01*
X128612304Y-72570750D01*
X128612299Y-72570749D01*
X128612297Y-72570748D01*
X128612293Y-72570748D01*
X128585883Y-72567909D01*
X128554174Y-72564500D01*
X127985826Y-72564500D01*
X127957823Y-72567510D01*
X127927706Y-72570748D01*
X127927695Y-72570750D01*
X127796223Y-72619786D01*
X127683888Y-72703880D01*
X127683880Y-72703888D01*
X127599787Y-72816222D01*
X127573166Y-72887597D01*
X127535115Y-72935511D01*
X127480408Y-72952000D01*
X127403644Y-72952000D01*
X127311356Y-72952000D01*
X127222212Y-72975886D01*
X127142288Y-73022030D01*
X125979004Y-74185313D01*
X125924487Y-74213090D01*
X125864055Y-74203519D01*
X125820790Y-74160254D01*
X125810000Y-74115309D01*
X125810000Y-73910001D01*
X125809999Y-73910000D01*
X124893012Y-73910000D01*
X124925925Y-73852993D01*
X124960000Y-73725826D01*
X124960000Y-73594174D01*
X124925925Y-73467007D01*
X124893012Y-73410000D01*
X125809999Y-73410000D01*
X125810000Y-73409999D01*
X125810000Y-72762175D01*
X125803598Y-72702629D01*
X125803596Y-72702618D01*
X125753353Y-72567911D01*
X125753352Y-72567909D01*
X125667192Y-72452815D01*
X125667184Y-72452807D01*
X125552090Y-72366647D01*
X125552088Y-72366646D01*
X125417381Y-72316403D01*
X125417370Y-72316401D01*
X125357824Y-72310000D01*
X124710001Y-72310000D01*
X124710000Y-72310001D01*
X124710000Y-73226988D01*
X124652993Y-73194075D01*
X124525826Y-73160000D01*
X124394174Y-73160000D01*
X124267007Y-73194075D01*
X124210000Y-73226988D01*
X124210000Y-72310001D01*
X124209999Y-72310000D01*
X123562176Y-72310000D01*
X123502629Y-72316401D01*
X123502618Y-72316403D01*
X123367911Y-72366646D01*
X123367909Y-72366647D01*
X123252815Y-72452807D01*
X123252807Y-72452815D01*
X123166647Y-72567909D01*
X123166646Y-72567911D01*
X123116403Y-72702618D01*
X123116401Y-72702629D01*
X123110000Y-72762175D01*
X123110000Y-73409999D01*
X123110001Y-73410000D01*
X124026988Y-73410000D01*
X123994075Y-73467007D01*
X123960000Y-73594174D01*
X123960000Y-73725826D01*
X123994075Y-73852993D01*
X124026988Y-73910000D01*
X123110001Y-73910000D01*
X123110000Y-73910001D01*
X123110000Y-74557824D01*
X123109999Y-74557824D01*
X122270500Y-74557824D01*
X122270500Y-63148170D01*
X123734499Y-63148170D01*
X123740748Y-63206293D01*
X123740750Y-63206304D01*
X123789786Y-63337776D01*
X123830132Y-63391671D01*
X123873884Y-63450116D01*
X123873887Y-63450118D01*
X123873888Y-63450119D01*
X123986223Y-63534213D01*
X124085503Y-63571242D01*
X124133418Y-63609292D01*
X124149816Y-63668239D01*
X124128434Y-63725567D01*
X124085503Y-63756758D01*
X123986223Y-63793786D01*
X123873888Y-63877880D01*
X123873880Y-63877888D01*
X123789786Y-63990223D01*
X123740750Y-64121695D01*
X123740749Y-64121701D01*
X123734912Y-64176000D01*
X123734500Y-64179829D01*
X123734500Y-64873170D01*
X123734499Y-64873170D01*
X123740748Y-64931293D01*
X123740750Y-64931304D01*
X123789786Y-65062776D01*
X123833911Y-65121719D01*
X123873884Y-65175116D01*
X123873887Y-65175118D01*
X123873888Y-65175119D01*
X123986223Y-65259213D01*
X124117695Y-65308249D01*
X124117696Y-65308249D01*
X124117701Y-65308251D01*
X124175826Y-65314500D01*
X124175830Y-65314500D01*
X124744170Y-65314500D01*
X124744174Y-65314500D01*
X124802299Y-65308251D01*
X124847948Y-65291224D01*
X124933776Y-65259213D01*
X124933776Y-65259212D01*
X124933778Y-65259212D01*
X125046116Y-65175116D01*
X125086089Y-65121719D01*
X125089868Y-65116671D01*
X125139876Y-65081418D01*
X125169121Y-65077000D01*
X132832467Y-65077000D01*
X132890658Y-65095907D01*
X132902471Y-65105996D01*
X133501971Y-65705496D01*
X133529748Y-65760013D01*
X133520177Y-65820445D01*
X133476912Y-65863710D01*
X133431967Y-65874500D01*
X133256532Y-65874500D01*
X133053581Y-65914869D01*
X132862402Y-65994058D01*
X132690348Y-66109020D01*
X132544020Y-66255348D01*
X132429058Y-66427402D01*
X132349869Y-66618581D01*
X132309500Y-66821532D01*
X132309500Y-67828467D01*
X132349869Y-68031418D01*
X132429058Y-68222597D01*
X132483917Y-68304700D01*
X132544023Y-68394655D01*
X132690345Y-68540977D01*
X132862402Y-68655941D01*
X133053580Y-68735130D01*
X133256535Y-68775500D01*
X133256536Y-68775500D01*
X133463464Y-68775500D01*
X133463465Y-68775500D01*
X133666420Y-68735130D01*
X133857598Y-68655941D01*
X134029655Y-68540977D01*
X134175977Y-68394655D01*
X134290941Y-68222598D01*
X134370130Y-68031420D01*
X134410500Y-67828465D01*
X134410500Y-66853032D01*
X134429407Y-66794841D01*
X134478907Y-66758877D01*
X134540093Y-66758877D01*
X134579504Y-66783028D01*
X134820504Y-67024028D01*
X134848281Y-67078545D01*
X134849500Y-67094032D01*
X134849500Y-67828467D01*
X134889869Y-68031418D01*
X134969058Y-68222597D01*
X135023917Y-68304700D01*
X135084023Y-68394655D01*
X135230345Y-68540977D01*
X135402402Y-68655941D01*
X135593580Y-68735130D01*
X135796535Y-68775500D01*
X135796536Y-68775500D01*
X136003464Y-68775500D01*
X136003465Y-68775500D01*
X136206420Y-68735130D01*
X136397598Y-68655941D01*
X136569655Y-68540977D01*
X136715977Y-68394655D01*
X136830941Y-68222598D01*
X136910130Y-68031420D01*
X136950500Y-67828465D01*
X136950500Y-66821535D01*
X136910130Y-66618580D01*
X136830941Y-66427402D01*
X136715977Y-66255345D01*
X136569655Y-66109023D01*
X136569651Y-66109020D01*
X136397597Y-65994058D01*
X136206418Y-65914869D01*
X136003467Y-65874500D01*
X136003465Y-65874500D01*
X135796535Y-65874500D01*
X135796532Y-65874500D01*
X135593580Y-65914870D01*
X135593578Y-65914870D01*
X135424753Y-65984800D01*
X135363757Y-65989601D01*
X135316864Y-65963340D01*
X134407694Y-65054170D01*
X133439515Y-64085990D01*
X133313985Y-64013516D01*
X133173975Y-63976000D01*
X133173974Y-63976000D01*
X125169121Y-63976000D01*
X125110930Y-63957093D01*
X125089868Y-63936329D01*
X125046119Y-63877888D01*
X125046118Y-63877887D01*
X125046116Y-63877884D01*
X125046111Y-63877880D01*
X124933776Y-63793786D01*
X124834496Y-63756758D01*
X124786581Y-63718708D01*
X124770183Y-63659761D01*
X124791564Y-63602433D01*
X124834496Y-63571242D01*
X124933776Y-63534213D01*
X124933776Y-63534212D01*
X124933778Y-63534212D01*
X125046116Y-63450116D01*
X125089868Y-63391671D01*
X125139876Y-63356418D01*
X125169121Y-63352000D01*
X125255974Y-63352000D01*
X125255975Y-63352000D01*
X125395985Y-63314484D01*
X125521515Y-63242010D01*
X127696866Y-61066657D01*
X127751381Y-61038882D01*
X127804752Y-61045198D01*
X127973580Y-61115130D01*
X128176535Y-61155500D01*
X128176536Y-61155500D01*
X128383464Y-61155500D01*
X128383465Y-61155500D01*
X128586420Y-61115130D01*
X128777598Y-61035941D01*
X128949655Y-60920977D01*
X129095977Y-60774655D01*
X129210941Y-60602598D01*
X129290130Y-60411420D01*
X129330500Y-60208465D01*
X129330500Y-59201535D01*
X129290130Y-58998580D01*
X129248825Y-58898863D01*
X129244025Y-58837869D01*
X129275994Y-58785700D01*
X129332522Y-58762285D01*
X129392017Y-58776568D01*
X129410294Y-58790976D01*
X129740995Y-59121677D01*
X129768772Y-59176194D01*
X129769376Y-59196672D01*
X129769500Y-59196672D01*
X129769500Y-59200865D01*
X129769515Y-59201374D01*
X129769500Y-59201526D01*
X129769500Y-60208467D01*
X129809869Y-60411418D01*
X129889058Y-60602597D01*
X129891629Y-60606445D01*
X130004023Y-60774655D01*
X130150345Y-60920977D01*
X130322402Y-61035941D01*
X130513580Y-61115130D01*
X130716535Y-61155500D01*
X130716536Y-61155500D01*
X130923464Y-61155500D01*
X130923465Y-61155500D01*
X131126420Y-61115130D01*
X131317598Y-61035941D01*
X131489655Y-60920977D01*
X131635977Y-60774655D01*
X131750941Y-60602598D01*
X131830130Y-60411420D01*
X131870500Y-60208465D01*
X131870500Y-59201535D01*
X131830130Y-58998580D01*
X131750941Y-58807402D01*
X131635977Y-58635345D01*
X131489655Y-58489023D01*
X131489651Y-58489020D01*
X131317597Y-58374058D01*
X131126418Y-58294869D01*
X130923467Y-58254500D01*
X130923465Y-58254500D01*
X130716535Y-58254500D01*
X130716532Y-58254500D01*
X130513581Y-58294869D01*
X130322402Y-58374058D01*
X130187543Y-58464168D01*
X130128655Y-58480776D01*
X130071251Y-58459598D01*
X130062538Y-58451856D01*
X128649496Y-57038814D01*
X128621719Y-56984297D01*
X128620500Y-56968810D01*
X128620500Y-56319929D01*
X128639407Y-56261738D01*
X128684904Y-56227171D01*
X128743776Y-56205213D01*
X128743776Y-56205212D01*
X128743778Y-56205212D01*
X128856116Y-56121116D01*
X128940212Y-56008778D01*
X128950710Y-55980630D01*
X128966834Y-55937403D01*
X129004885Y-55889489D01*
X129059592Y-55873000D01*
X129081142Y-55873000D01*
X129081144Y-55873000D01*
X129170288Y-55849114D01*
X129250212Y-55802970D01*
X129915496Y-55137684D01*
X129970013Y-55109908D01*
X130030445Y-55119479D01*
X130073710Y-55162744D01*
X130084500Y-55207689D01*
X130084500Y-55819170D01*
X130084499Y-55819170D01*
X130090748Y-55877293D01*
X130090750Y-55877304D01*
X130139786Y-56008776D01*
X130140701Y-56009998D01*
X130223884Y-56121116D01*
X130223887Y-56121118D01*
X130223888Y-56121119D01*
X130336223Y-56205213D01*
X130467695Y-56254249D01*
X130467696Y-56254249D01*
X130467701Y-56254251D01*
X130525826Y-56260500D01*
X130525830Y-56260500D01*
X131094170Y-56260500D01*
X131094174Y-56260500D01*
X131152299Y-56254251D01*
X131197948Y-56237224D01*
X131283776Y-56205213D01*
X131283776Y-56205212D01*
X131283778Y-56205212D01*
X131396116Y-56121116D01*
X131480212Y-56008778D01*
X131506834Y-55937403D01*
X131525482Y-55887404D01*
X131563532Y-55839489D01*
X131618240Y-55823000D01*
X132541760Y-55823000D01*
X132599951Y-55841907D01*
X132634518Y-55887404D01*
X132679786Y-56008776D01*
X132680701Y-56009998D01*
X132763884Y-56121116D01*
X132763887Y-56121118D01*
X132763888Y-56121119D01*
X132876222Y-56205212D01*
X132945097Y-56230901D01*
X132993011Y-56268951D01*
X133009500Y-56323659D01*
X133009500Y-58246978D01*
X132990593Y-58305169D01*
X132948387Y-58338442D01*
X132862401Y-58374059D01*
X132690348Y-58489020D01*
X132544020Y-58635348D01*
X132429058Y-58807402D01*
X132349869Y-58998581D01*
X132309500Y-59201532D01*
X132309500Y-60208467D01*
X132349869Y-60411418D01*
X132429058Y-60602597D01*
X132431629Y-60606445D01*
X132544023Y-60774655D01*
X132690345Y-60920977D01*
X132862402Y-61035941D01*
X133053580Y-61115130D01*
X133256535Y-61155500D01*
X133256536Y-61155500D01*
X133463464Y-61155500D01*
X133463465Y-61155500D01*
X133666420Y-61115130D01*
X133857598Y-61035941D01*
X134029655Y-60920977D01*
X134175977Y-60774655D01*
X134290941Y-60602598D01*
X134370130Y-60411420D01*
X134410500Y-60208465D01*
X134410500Y-59201535D01*
X134370130Y-58998580D01*
X134290941Y-58807402D01*
X134175977Y-58635345D01*
X134029655Y-58489023D01*
X134029649Y-58489019D01*
X133857598Y-58374059D01*
X133771613Y-58338442D01*
X133725088Y-58298704D01*
X133710500Y-58246978D01*
X133710500Y-56316199D01*
X133729407Y-56258008D01*
X133774904Y-56223441D01*
X133823776Y-56205213D01*
X133823776Y-56205212D01*
X133823778Y-56205212D01*
X133936116Y-56121116D01*
X134020212Y-56008778D01*
X134046834Y-55937403D01*
X134065482Y-55887404D01*
X134103532Y-55839489D01*
X134158240Y-55823000D01*
X135081760Y-55823000D01*
X135139951Y-55841907D01*
X135174518Y-55887404D01*
X135219786Y-56008776D01*
X135220701Y-56009998D01*
X135303884Y-56121116D01*
X135303887Y-56121118D01*
X135303888Y-56121119D01*
X135416223Y-56205213D01*
X135547695Y-56254249D01*
X135547696Y-56254249D01*
X135547701Y-56254251D01*
X135605826Y-56260500D01*
X135605830Y-56260500D01*
X136174170Y-56260500D01*
X136174174Y-56260500D01*
X136232299Y-56254251D01*
X136277948Y-56237224D01*
X136363776Y-56205213D01*
X136363776Y-56205212D01*
X136363778Y-56205212D01*
X136476116Y-56121116D01*
X136560212Y-56008778D01*
X136609251Y-55877299D01*
X136615500Y-55819174D01*
X136615500Y-55225826D01*
X136609251Y-55167701D01*
X136598056Y-55137685D01*
X136560213Y-55036223D01*
X136476119Y-54923888D01*
X136476118Y-54923887D01*
X136476116Y-54923884D01*
X136363778Y-54839788D01*
X136363777Y-54839787D01*
X136352336Y-54835520D01*
X136304422Y-54797469D01*
X136288024Y-54738522D01*
X136309406Y-54681195D01*
X136355794Y-54648787D01*
X136441305Y-54620451D01*
X136588035Y-54529946D01*
X136709946Y-54408035D01*
X136800451Y-54261306D01*
X136854681Y-54097648D01*
X136865000Y-53996655D01*
X136865000Y-53947501D01*
X136864999Y-53947500D01*
X134915002Y-53947500D01*
X134915001Y-53947501D01*
X134915001Y-53996654D01*
X134925317Y-54097642D01*
X134925320Y-54097654D01*
X134979548Y-54261306D01*
X135070053Y-54408035D01*
X135191964Y-54529946D01*
X135338693Y-54620451D01*
X135424206Y-54648787D01*
X135473496Y-54685038D01*
X135492064Y-54743338D01*
X135472819Y-54801418D01*
X135427665Y-54835519D01*
X135416223Y-54839786D01*
X135303888Y-54923880D01*
X135303880Y-54923888D01*
X135219788Y-55036221D01*
X135216675Y-55044565D01*
X135211815Y-55057596D01*
X135173767Y-55105510D01*
X135119058Y-55122000D01*
X134120942Y-55122000D01*
X134062751Y-55103093D01*
X134028184Y-55057596D01*
X134020212Y-55036222D01*
X133936116Y-54923884D01*
X133936111Y-54923880D01*
X133823776Y-54839786D01*
X133692304Y-54790750D01*
X133692299Y-54790749D01*
X133692297Y-54790748D01*
X133692293Y-54790748D01*
X133666011Y-54787922D01*
X133634174Y-54784500D01*
X133065826Y-54784500D01*
X133037823Y-54787510D01*
X133007706Y-54790748D01*
X133007695Y-54790750D01*
X132876223Y-54839786D01*
X132763888Y-54923880D01*
X132763880Y-54923888D01*
X132679788Y-55036221D01*
X132676675Y-55044565D01*
X132671815Y-55057596D01*
X132633767Y-55105510D01*
X132579058Y-55122000D01*
X131618240Y-55122000D01*
X131560049Y-55103093D01*
X131525482Y-55057596D01*
X131480213Y-54936223D01*
X131396119Y-54823888D01*
X131396118Y-54823887D01*
X131396116Y-54823884D01*
X131374580Y-54807762D01*
X131283776Y-54739786D01*
X131184496Y-54702758D01*
X131136581Y-54664708D01*
X131120183Y-54605761D01*
X131141564Y-54548433D01*
X131184496Y-54517242D01*
X131283776Y-54480213D01*
X131283776Y-54480212D01*
X131283778Y-54480212D01*
X131396116Y-54396116D01*
X131480212Y-54283778D01*
X131529251Y-54152299D01*
X131535500Y-54094174D01*
X131535500Y-53400826D01*
X131532195Y-53370081D01*
X131544775Y-53310202D01*
X131590148Y-53269154D01*
X131630628Y-53260500D01*
X132376310Y-53260500D01*
X132434501Y-53279407D01*
X132446314Y-53289496D01*
X132595504Y-53438686D01*
X132623281Y-53493203D01*
X132624500Y-53508690D01*
X132624500Y-53994170D01*
X132624499Y-53994170D01*
X132630748Y-54052293D01*
X132630750Y-54052304D01*
X132679786Y-54183776D01*
X132737825Y-54261306D01*
X132763884Y-54296116D01*
X132763887Y-54296118D01*
X132763888Y-54296119D01*
X132876223Y-54380213D01*
X133007695Y-54429249D01*
X133007696Y-54429249D01*
X133007701Y-54429251D01*
X133065826Y-54435500D01*
X133065830Y-54435500D01*
X133634170Y-54435500D01*
X133634174Y-54435500D01*
X133692299Y-54429251D01*
X133737948Y-54412224D01*
X133823776Y-54380213D01*
X133823776Y-54380212D01*
X133823778Y-54380212D01*
X133936116Y-54296116D01*
X134020212Y-54183778D01*
X134025208Y-54170385D01*
X134057211Y-54084579D01*
X134069251Y-54052299D01*
X134075500Y-53994174D01*
X134075500Y-53400826D01*
X134075233Y-53398344D01*
X134915000Y-53398344D01*
X134915000Y-53447499D01*
X134915001Y-53447500D01*
X135639999Y-53447500D01*
X135640000Y-53447499D01*
X135640000Y-52710001D01*
X136140000Y-52710001D01*
X136140000Y-53447499D01*
X136140001Y-53447500D01*
X136864998Y-53447500D01*
X136864999Y-53447499D01*
X136864999Y-53398345D01*
X136854682Y-53297357D01*
X136854679Y-53297345D01*
X136800451Y-53133693D01*
X136709946Y-52986964D01*
X136588035Y-52865053D01*
X136441306Y-52774548D01*
X136277648Y-52720318D01*
X136176655Y-52710000D01*
X136140001Y-52710000D01*
X136140000Y-52710001D01*
X135640000Y-52710001D01*
X135640000Y-52710000D01*
X135603357Y-52710000D01*
X135603351Y-52710001D01*
X135502357Y-52720317D01*
X135502345Y-52720320D01*
X135338693Y-52774548D01*
X135191964Y-52865053D01*
X135070053Y-52986964D01*
X134979548Y-53133693D01*
X134925318Y-53297351D01*
X134915000Y-53398344D01*
X134075233Y-53398344D01*
X134069251Y-53342701D01*
X134057130Y-53310202D01*
X134020213Y-53211223D01*
X133936119Y-53098888D01*
X133936118Y-53098887D01*
X133936116Y-53098884D01*
X133936111Y-53098880D01*
X133823776Y-53014786D01*
X133692304Y-52965750D01*
X133692299Y-52965749D01*
X133692297Y-52965748D01*
X133692293Y-52965748D01*
X133666011Y-52962922D01*
X133634174Y-52959500D01*
X133634170Y-52959500D01*
X133148690Y-52959500D01*
X133090499Y-52940593D01*
X133078687Y-52930504D01*
X132777714Y-52629532D01*
X132777712Y-52629530D01*
X132697788Y-52583386D01*
X132608644Y-52559500D01*
X129011356Y-52559500D01*
X128922212Y-52583386D01*
X128901369Y-52595420D01*
X128842285Y-52629532D01*
X128789503Y-52682314D01*
X128734986Y-52710091D01*
X128674554Y-52700519D01*
X128631290Y-52657254D01*
X128620500Y-52612310D01*
X128620500Y-51435000D01*
X140205153Y-51435000D01*
X140224525Y-51792317D01*
X140282418Y-52145449D01*
X140378146Y-52490229D01*
X140378148Y-52490234D01*
X140510604Y-52822673D01*
X140678215Y-53138822D01*
X140879032Y-53435004D01*
X140879039Y-53435014D01*
X141006441Y-53585002D01*
X142215746Y-52375696D01*
X142289588Y-52477330D01*
X142467670Y-52655412D01*
X142569300Y-52729251D01*
X141357256Y-53941296D01*
X141370488Y-53953829D01*
X141655358Y-54170382D01*
X141655363Y-54170385D01*
X141961980Y-54354871D01*
X142286744Y-54505123D01*
X142625868Y-54619387D01*
X142975330Y-54696310D01*
X142975329Y-54696310D01*
X143331078Y-54735000D01*
X143688922Y-54735000D01*
X144044670Y-54696310D01*
X144394130Y-54619387D01*
X144394132Y-54619387D01*
X144733255Y-54505123D01*
X145058019Y-54354871D01*
X145364636Y-54170385D01*
X145364641Y-54170382D01*
X145649500Y-53953839D01*
X145649512Y-53953828D01*
X145662742Y-53941296D01*
X144450698Y-52729252D01*
X144552330Y-52655412D01*
X144730412Y-52477330D01*
X144804252Y-52375698D01*
X146013557Y-53585003D01*
X146140962Y-53435011D01*
X146140966Y-53435007D01*
X146341784Y-53138822D01*
X146509395Y-52822673D01*
X146641851Y-52490234D01*
X146641853Y-52490229D01*
X146737581Y-52145449D01*
X146795474Y-51792317D01*
X146814846Y-51435000D01*
X146795474Y-51077682D01*
X146737581Y-50724550D01*
X146641853Y-50379770D01*
X146641851Y-50379765D01*
X146509395Y-50047326D01*
X146341784Y-49731177D01*
X146140967Y-49434995D01*
X146140960Y-49434985D01*
X146013556Y-49284995D01*
X144804250Y-50494300D01*
X144730412Y-50392670D01*
X144552330Y-50214588D01*
X144450696Y-50140747D01*
X145662742Y-48928702D01*
X145649511Y-48916170D01*
X145364641Y-48699617D01*
X145364636Y-48699614D01*
X145058019Y-48515128D01*
X144733255Y-48364876D01*
X144394131Y-48250612D01*
X144044669Y-48173689D01*
X144044670Y-48173689D01*
X143688922Y-48135000D01*
X143331078Y-48135000D01*
X142975329Y-48173689D01*
X142625869Y-48250612D01*
X142625867Y-48250612D01*
X142286744Y-48364876D01*
X141961980Y-48515128D01*
X141655363Y-48699614D01*
X141655358Y-48699617D01*
X141370495Y-48916164D01*
X141370473Y-48916183D01*
X141357256Y-48928702D01*
X142569301Y-50140747D01*
X142467670Y-50214588D01*
X142289588Y-50392670D01*
X142215747Y-50494301D01*
X141006441Y-49284995D01*
X140879039Y-49434985D01*
X140879032Y-49434995D01*
X140678215Y-49731177D01*
X140510604Y-50047326D01*
X140378148Y-50379765D01*
X140378146Y-50379770D01*
X140282418Y-50724550D01*
X140224525Y-51077682D01*
X140205153Y-51435000D01*
X128620500Y-51435000D01*
X128620500Y-49716188D01*
X128639407Y-49657997D01*
X128649490Y-49646191D01*
X129001008Y-49294672D01*
X129055523Y-49266896D01*
X129106768Y-49272361D01*
X129237544Y-49323024D01*
X129438024Y-49360500D01*
X129641976Y-49360500D01*
X129842456Y-49323024D01*
X130032637Y-49249348D01*
X130206041Y-49141981D01*
X130356764Y-49004579D01*
X130479673Y-48841821D01*
X130542379Y-48715888D01*
X130585241Y-48672227D01*
X130645582Y-48662097D01*
X130700353Y-48689369D01*
X130728634Y-48743627D01*
X130730000Y-48760017D01*
X130730000Y-49157824D01*
X130729999Y-49157824D01*
X130736401Y-49217370D01*
X130736403Y-49217381D01*
X130786646Y-49352088D01*
X130786647Y-49352090D01*
X130872807Y-49467184D01*
X130872815Y-49467192D01*
X130987909Y-49553352D01*
X130987911Y-49553353D01*
X131122618Y-49603596D01*
X131122629Y-49603598D01*
X131182176Y-49610000D01*
X131829999Y-49610000D01*
X131830000Y-49609999D01*
X131830000Y-48693012D01*
X131887007Y-48725925D01*
X132014174Y-48760000D01*
X132145826Y-48760000D01*
X132272993Y-48725925D01*
X132330000Y-48693012D01*
X132330000Y-49609999D01*
X132330001Y-49610000D01*
X132977824Y-49610000D01*
X133037370Y-49603598D01*
X133037381Y-49603596D01*
X133172088Y-49553353D01*
X133172090Y-49553352D01*
X133287184Y-49467192D01*
X133287192Y-49467184D01*
X133373352Y-49352090D01*
X133373353Y-49352088D01*
X133423596Y-49217381D01*
X133423598Y-49217370D01*
X133430000Y-49157824D01*
X133430000Y-48510001D01*
X133429999Y-48510000D01*
X132513012Y-48510000D01*
X132545925Y-48452993D01*
X132580000Y-48325826D01*
X132580000Y-48194174D01*
X132545925Y-48067007D01*
X132513012Y-48010000D01*
X133429999Y-48010000D01*
X133430000Y-48009999D01*
X133430000Y-47362175D01*
X133423598Y-47302629D01*
X133423596Y-47302618D01*
X133373353Y-47167911D01*
X133373352Y-47167909D01*
X133287192Y-47052815D01*
X133287184Y-47052807D01*
X133172090Y-46966647D01*
X133172088Y-46966646D01*
X133037381Y-46916403D01*
X133037370Y-46916401D01*
X132977824Y-46910000D01*
X132330001Y-46910000D01*
X132330000Y-46910001D01*
X132330000Y-47826988D01*
X132272993Y-47794075D01*
X132145826Y-47760000D01*
X132014174Y-47760000D01*
X131887007Y-47794075D01*
X131830000Y-47826988D01*
X131830000Y-46910001D01*
X131829999Y-46910000D01*
X131182176Y-46910000D01*
X131122629Y-46916401D01*
X131122618Y-46916403D01*
X130987911Y-46966646D01*
X130987909Y-46966647D01*
X130872815Y-47052807D01*
X130872807Y-47052815D01*
X130786647Y-47167909D01*
X130786646Y-47167911D01*
X130736403Y-47302618D01*
X130736401Y-47302629D01*
X130730000Y-47362175D01*
X130730000Y-47759982D01*
X130711093Y-47818173D01*
X130661593Y-47854137D01*
X130600407Y-47854137D01*
X130550907Y-47818173D01*
X130542379Y-47804110D01*
X130479676Y-47678186D01*
X130479673Y-47678179D01*
X130356764Y-47515421D01*
X130206041Y-47378019D01*
X130032637Y-47270652D01*
X129842456Y-47196976D01*
X129842455Y-47196975D01*
X129842453Y-47196975D01*
X129641976Y-47159500D01*
X129438024Y-47159500D01*
X129237546Y-47196975D01*
X129173243Y-47221886D01*
X129047363Y-47270652D01*
X128938676Y-47337948D01*
X128873959Y-47378019D01*
X128723237Y-47515420D01*
X128600328Y-47678177D01*
X128600323Y-47678186D01*
X128509419Y-47860747D01*
X128509418Y-47860750D01*
X128453603Y-48056917D01*
X128434785Y-48260000D01*
X128453603Y-48463083D01*
X128495547Y-48610500D01*
X128509419Y-48659252D01*
X128522759Y-48686042D01*
X128531772Y-48746560D01*
X128504142Y-48800173D01*
X127989529Y-49314788D01*
X127956891Y-49371320D01*
X127956891Y-49371321D01*
X127943387Y-49394709D01*
X127943386Y-49394711D01*
X127943386Y-49394712D01*
X127928572Y-49450001D01*
X127919500Y-49483857D01*
X127919500Y-52900070D01*
X127900593Y-52958261D01*
X127855098Y-52992828D01*
X127796218Y-53014789D01*
X127683888Y-53098880D01*
X127683880Y-53098888D01*
X127599786Y-53211223D01*
X127550750Y-53342695D01*
X127550748Y-53342706D01*
X127547805Y-53370081D01*
X127545547Y-53391093D01*
X127544500Y-53400829D01*
X127544500Y-53994170D01*
X127544499Y-53994170D01*
X127550748Y-54052293D01*
X127550750Y-54052304D01*
X127599786Y-54183776D01*
X127657825Y-54261306D01*
X127683884Y-54296116D01*
X127683887Y-54296118D01*
X127683888Y-54296119D01*
X127796223Y-54380213D01*
X127927695Y-54429249D01*
X127927696Y-54429249D01*
X127927701Y-54429251D01*
X127985826Y-54435500D01*
X127985830Y-54435500D01*
X128554170Y-54435500D01*
X128554174Y-54435500D01*
X128612299Y-54429251D01*
X128657948Y-54412224D01*
X128743776Y-54380213D01*
X128743776Y-54380212D01*
X128743778Y-54380212D01*
X128856116Y-54296116D01*
X128940212Y-54183778D01*
X128945208Y-54170385D01*
X128977211Y-54084579D01*
X128989251Y-54052299D01*
X128995500Y-53994174D01*
X128995500Y-53508690D01*
X129014407Y-53450499D01*
X129024496Y-53438686D01*
X129173686Y-53289496D01*
X129228203Y-53261719D01*
X129243690Y-53260500D01*
X129989372Y-53260500D01*
X130047563Y-53279407D01*
X130083527Y-53328907D01*
X130087805Y-53370081D01*
X130084500Y-53400826D01*
X130084500Y-53936309D01*
X130065593Y-53994500D01*
X130055504Y-54006313D01*
X129057553Y-55004263D01*
X129003036Y-55032040D01*
X128942604Y-55022469D01*
X128908296Y-54993588D01*
X128856119Y-54923888D01*
X128856118Y-54923887D01*
X128856116Y-54923884D01*
X128856111Y-54923880D01*
X128743776Y-54839786D01*
X128612304Y-54790750D01*
X128612299Y-54790749D01*
X128612297Y-54790748D01*
X128612293Y-54790748D01*
X128586011Y-54787922D01*
X128554174Y-54784500D01*
X127985826Y-54784500D01*
X127957823Y-54787510D01*
X127927706Y-54790748D01*
X127927695Y-54790750D01*
X127796223Y-54839786D01*
X127683888Y-54923880D01*
X127683880Y-54923888D01*
X127599786Y-55036223D01*
X127550750Y-55167695D01*
X127550748Y-55167706D01*
X127544500Y-55225829D01*
X127544500Y-55819170D01*
X127544499Y-55819170D01*
X127550748Y-55877293D01*
X127550750Y-55877304D01*
X127599786Y-56008776D01*
X127600701Y-56009998D01*
X127683884Y-56121116D01*
X127683887Y-56121118D01*
X127683888Y-56121119D01*
X127796223Y-56205213D01*
X127855096Y-56227171D01*
X127903011Y-56265221D01*
X127919500Y-56319929D01*
X127919500Y-57201144D01*
X127942046Y-57285288D01*
X127943386Y-57290288D01*
X127989530Y-57370212D01*
X128394930Y-57775612D01*
X128794023Y-58174705D01*
X128821800Y-58229222D01*
X128812229Y-58289654D01*
X128768964Y-58332919D01*
X128708532Y-58342490D01*
X128686135Y-58336173D01*
X128586420Y-58294870D01*
X128586418Y-58294869D01*
X128383467Y-58254500D01*
X128383465Y-58254500D01*
X128176535Y-58254500D01*
X128176532Y-58254500D01*
X127973581Y-58294869D01*
X127782402Y-58374058D01*
X127610348Y-58489020D01*
X127464020Y-58635348D01*
X127349058Y-58807402D01*
X127269869Y-58998581D01*
X127229500Y-59201532D01*
X127229500Y-59935966D01*
X127210593Y-59994157D01*
X127200504Y-60005970D01*
X125111048Y-62095425D01*
X125056531Y-62123202D01*
X124996099Y-62113631D01*
X124981718Y-62104676D01*
X124947963Y-62079407D01*
X124933776Y-62068786D01*
X124802304Y-62019750D01*
X124802299Y-62019749D01*
X124802297Y-62019748D01*
X124802293Y-62019748D01*
X124776011Y-62016922D01*
X124744174Y-62013500D01*
X124175826Y-62013500D01*
X124147823Y-62016510D01*
X124117706Y-62019748D01*
X124117695Y-62019750D01*
X123986223Y-62068786D01*
X123873888Y-62152880D01*
X123873880Y-62152888D01*
X123789786Y-62265223D01*
X123740750Y-62396695D01*
X123740748Y-62396706D01*
X123734500Y-62454829D01*
X123734500Y-63148170D01*
X123734499Y-63148170D01*
X122270500Y-63148170D01*
X122270500Y-51863857D01*
X122255980Y-51809668D01*
X122246614Y-51774712D01*
X122217724Y-51724674D01*
X122217724Y-51724673D01*
X122200470Y-51694789D01*
X122200469Y-51694787D01*
X120809495Y-50303813D01*
X120781718Y-50249296D01*
X120780499Y-50233809D01*
X120780499Y-47822133D01*
X120780499Y-47822128D01*
X120774091Y-47762517D01*
X120760089Y-47724975D01*
X120723797Y-47627670D01*
X120637549Y-47512458D01*
X120637548Y-47512457D01*
X120637546Y-47512454D01*
X120637541Y-47512450D01*
X120522329Y-47426202D01*
X120387488Y-47375910D01*
X120387483Y-47375909D01*
X120387481Y-47375908D01*
X120387477Y-47375908D01*
X120356249Y-47372550D01*
X120327873Y-47369500D01*
X120327870Y-47369500D01*
X118432133Y-47369500D01*
X118432129Y-47369500D01*
X118432128Y-47369501D01*
X118424949Y-47370272D01*
X118372519Y-47375908D01*
X118372514Y-47375909D01*
X118237670Y-47426202D01*
X118122458Y-47512450D01*
X118122450Y-47512458D01*
X118036202Y-47627670D01*
X117985910Y-47762511D01*
X117985908Y-47762522D01*
X117979500Y-47822129D01*
X117979500Y-48920500D01*
X117960593Y-48978691D01*
X117911093Y-49014655D01*
X117880500Y-49019500D01*
X115656356Y-49019500D01*
X115611784Y-49031443D01*
X115567210Y-49043386D01*
X115493941Y-49085688D01*
X115434093Y-49098409D01*
X115378197Y-49073522D01*
X115347605Y-49020533D01*
X115348098Y-48977172D01*
X115349246Y-48972311D01*
X115349251Y-48972299D01*
X115355500Y-48914174D01*
X115355500Y-48320826D01*
X115349251Y-48262701D01*
X115344742Y-48250612D01*
X115300213Y-48131223D01*
X115216119Y-48018888D01*
X115216118Y-48018887D01*
X115216116Y-48018884D01*
X115216111Y-48018880D01*
X115103776Y-47934786D01*
X114972304Y-47885750D01*
X114972299Y-47885749D01*
X114972297Y-47885748D01*
X114972293Y-47885748D01*
X114946011Y-47882922D01*
X114914174Y-47879500D01*
X114345826Y-47879500D01*
X114317823Y-47882510D01*
X114287706Y-47885748D01*
X114287695Y-47885750D01*
X114156223Y-47934786D01*
X114043888Y-48018880D01*
X114043880Y-48018888D01*
X113959787Y-48131222D01*
X113933166Y-48202597D01*
X113895115Y-48250511D01*
X113840408Y-48267000D01*
X112066328Y-48267000D01*
X112008137Y-48248093D01*
X111972173Y-48198593D01*
X111967750Y-48177134D01*
X111963496Y-48131222D01*
X111955756Y-48047690D01*
X111897405Y-47842611D01*
X111802366Y-47651745D01*
X111673872Y-47481593D01*
X111568261Y-47385315D01*
X111516307Y-47337952D01*
X111516300Y-47337946D01*
X111335024Y-47225705D01*
X111335019Y-47225702D01*
X111185842Y-47167911D01*
X111136198Y-47148679D01*
X111136197Y-47148678D01*
X111136195Y-47148678D01*
X110926610Y-47109500D01*
X110713390Y-47109500D01*
X110503804Y-47148678D01*
X110304980Y-47225702D01*
X110304975Y-47225705D01*
X110123699Y-47337946D01*
X110123692Y-47337952D01*
X109966135Y-47481586D01*
X109966131Y-47481589D01*
X109966128Y-47481593D01*
X109966125Y-47481597D01*
X109837635Y-47651743D01*
X109837630Y-47651752D01*
X109742598Y-47842603D01*
X109741182Y-47846261D01*
X109702531Y-47893693D01*
X109648866Y-47909500D01*
X104893839Y-47909500D01*
X104859243Y-47903258D01*
X104812299Y-47885749D01*
X104812295Y-47885748D01*
X104812293Y-47885748D01*
X104786011Y-47882922D01*
X104754174Y-47879500D01*
X104185826Y-47879500D01*
X104157823Y-47882510D01*
X104127706Y-47885748D01*
X104127695Y-47885750D01*
X103996223Y-47934786D01*
X103883888Y-48018880D01*
X103883880Y-48018888D01*
X103799786Y-48131223D01*
X103750750Y-48262695D01*
X103750748Y-48262706D01*
X103744500Y-48320829D01*
X103744500Y-48914170D01*
X103744499Y-48914170D01*
X103750748Y-48972293D01*
X103750750Y-48972304D01*
X103799786Y-49103776D01*
X103877615Y-49207742D01*
X103883884Y-49216116D01*
X103883887Y-49216118D01*
X103883888Y-49216119D01*
X103996223Y-49300213D01*
X104127695Y-49349249D01*
X104127696Y-49349249D01*
X104127701Y-49349251D01*
X104185826Y-49355500D01*
X104671310Y-49355500D01*
X104729501Y-49374407D01*
X104741314Y-49384496D01*
X104900023Y-49543205D01*
X104927800Y-49597722D01*
X104918229Y-49658154D01*
X104874964Y-49701419D01*
X104818571Y-49710350D01*
X104818457Y-49711411D01*
X104814535Y-49710989D01*
X104814532Y-49710990D01*
X104814521Y-49710987D01*
X104773883Y-49706618D01*
X104754174Y-49704500D01*
X104185826Y-49704500D01*
X104157823Y-49707510D01*
X104127706Y-49710748D01*
X104127695Y-49710750D01*
X103996223Y-49759786D01*
X103883888Y-49843880D01*
X103883880Y-49843888D01*
X103799786Y-49956223D01*
X103750750Y-50087695D01*
X103750748Y-50087706D01*
X103744500Y-50145829D01*
X103744500Y-50658809D01*
X103725593Y-50717000D01*
X103715504Y-50728813D01*
X103119004Y-51325313D01*
X103064487Y-51353090D01*
X103004055Y-51343519D01*
X102960790Y-51300254D01*
X102950000Y-51255309D01*
X102950000Y-51050001D01*
X102949999Y-51050000D01*
X102033012Y-51050000D01*
X102065925Y-50992993D01*
X102100000Y-50865826D01*
X102100000Y-50734174D01*
X102065925Y-50607007D01*
X102033012Y-50550000D01*
X102949999Y-50550000D01*
X102950000Y-50549999D01*
X102950000Y-49902175D01*
X102943598Y-49842629D01*
X102943596Y-49842618D01*
X102893353Y-49707911D01*
X102893352Y-49707909D01*
X102807192Y-49592815D01*
X102807184Y-49592807D01*
X102692090Y-49506647D01*
X102692088Y-49506646D01*
X102557381Y-49456403D01*
X102557370Y-49456401D01*
X102497824Y-49450000D01*
X101850001Y-49450000D01*
X101850000Y-49450001D01*
X101850000Y-50366988D01*
X101792993Y-50334075D01*
X101665826Y-50300000D01*
X101534174Y-50300000D01*
X101407007Y-50334075D01*
X101350000Y-50366988D01*
X101350000Y-49450001D01*
X101349999Y-49450000D01*
X100702176Y-49450000D01*
X100642629Y-49456401D01*
X100642618Y-49456403D01*
X100507911Y-49506646D01*
X100507909Y-49506647D01*
X100392815Y-49592807D01*
X100392807Y-49592815D01*
X100306647Y-49707909D01*
X100306646Y-49707911D01*
X100256403Y-49842618D01*
X100256401Y-49842629D01*
X100250000Y-49902175D01*
X100250000Y-50549999D01*
X100250001Y-50550000D01*
X101166988Y-50550000D01*
X101134075Y-50607007D01*
X101100000Y-50734174D01*
X101100000Y-50865826D01*
X101134075Y-50992993D01*
X101166988Y-51050000D01*
X100250001Y-51050000D01*
X100250000Y-51050001D01*
X100250000Y-51697824D01*
X100249999Y-51697824D01*
X99500500Y-51697824D01*
X99500500Y-45599500D01*
X99519407Y-45541309D01*
X99568907Y-45505345D01*
X99599500Y-45500500D01*
X163400501Y-45500500D01*
X163458692Y-45519407D01*
G37*
%TD.AperFunction*%
%TA.AperFunction,Conductor*%
G36*
X162503557Y-89150003D02*
G01*
X162542995Y-89148401D01*
X162601906Y-89164929D01*
X162639850Y-89212928D01*
X162642335Y-89274063D01*
X162620214Y-89313975D01*
X162471648Y-89477122D01*
X162464739Y-89483997D01*
X162317542Y-89616698D01*
X162261662Y-89641618D01*
X162201806Y-89628934D01*
X162160837Y-89583490D01*
X162152262Y-89541828D01*
X162152742Y-89506296D01*
X160940698Y-88294252D01*
X161042330Y-88220412D01*
X161220412Y-88042330D01*
X161294252Y-87940698D01*
X162503557Y-89150003D01*
G37*
%TD.AperFunction*%
%TD*%
M02*
