M48
; DRILL file {KiCad 8.0.8} date 2025-02-25T14:58:10+0000
; FORMAT={-:-/ absolute / inch / decimal}
; #@! TF.CreationDate,2025-02-25T14:58:10+00:00
; #@! TF.GenerationSoftware,Kicad,Pcbnew,8.0.8
; #@! TF.FileFunction,NonPlated,1,2,NPTH
FMAT,2
INCH
; #@! TA.AperFunction,NonPlated,NPTH,ComponentDrill
T1C0.0689
; #@! TA.AperFunction,NonPlated,NPTH,ComponentDrill
T2C0.1575
%
G90
G05
T1
X1.3Y-2.4375
X1.3Y-3.1875
X1.675Y-4.125
X1.7Y-2.4375
X1.7Y-3.1875
X2.05Y-2.4375
X2.05Y-3.1875
X2.075Y-4.125
X2.45Y-2.4375
X2.45Y-3.1875
X2.8Y-2.4375
X2.8Y-3.1875
X3.175Y-4.125
X3.2Y-2.4375
X3.2Y-3.1875
X3.55Y-2.4375
X3.55Y-3.1875
X3.575Y-4.125
X3.95Y-2.4375
X3.95Y-3.1875
X4.3Y-1.5
X4.3Y-2.4375
X4.3Y-3.1875
X4.7Y-1.5
X4.7Y-2.4375
X4.7Y-3.1875
X5.05Y-1.5
X5.05Y-2.4375
X5.05Y-3.1875
X5.45Y-1.5
X5.45Y-2.4375
X5.45Y-3.1875
X5.8Y-1.5
X5.8Y-2.4375
X5.8Y-3.1875
X6.2Y-1.5
X6.2Y-2.4375
X6.2Y-3.1875
X6.55Y-1.5
X6.55Y-2.4375
X6.55Y-3.1875
X6.55Y-4.125
X6.95Y-1.5
X6.95Y-2.4375
X6.95Y-3.1875
X6.95Y-4.125
T2
X1.5Y-2.4375
X1.5Y-3.1875
X1.875Y-4.125
X2.25Y-2.4375
X2.25Y-3.1875
X3.0Y-2.4375
X3.0Y-3.1875
X3.375Y-4.125
X3.75Y-2.4375
X3.75Y-3.1875
X4.5Y-1.5
X4.5Y-2.4375
X4.5Y-3.1875
X5.25Y-1.5
X5.25Y-2.4375
X5.25Y-3.1875
X6.0Y-1.5
X6.0Y-2.4375
X6.0Y-3.1875
X6.75Y-1.5
X6.75Y-2.4375
X6.75Y-3.1875
X6.75Y-4.125
M30
