%TF.GenerationSoftware,KiCad,Pcbnew,8.0.8*%
%TF.CreationDate,2025-02-25T14:58:14+00:00*%
%TF.ProjectId,16-steps,31362d73-7465-4707-932e-6b696361645f,rev?*%
%TF.SameCoordinates,Original*%
%TF.FileFunction,Soldermask,Bot*%
%TF.FilePolarity,Negative*%
%FSLAX46Y46*%
G04 Gerber Fmt 4.6, Leading zero omitted, Abs format (unit mm)*
G04 Created by KiCad (PCBNEW 8.0.8) date 2025-02-25 14:58:14*
%MOMM*%
%LPD*%
G01*
G04 APERTURE LIST*
G04 Aperture macros list*
%AMRoundRect*
0 Rectangle with rounded corners*
0 $1 Rounding radius*
0 $2 $3 $4 $5 $6 $7 $8 $9 X,Y pos of 4 corners*
0 Add a 4 corners polygon primitive as box body*
4,1,4,$2,$3,$4,$5,$6,$7,$8,$9,$2,$3,0*
0 Add four circle primitives for the rounded corners*
1,1,$1+$1,$2,$3*
1,1,$1+$1,$4,$5*
1,1,$1+$1,$6,$7*
1,1,$1+$1,$8,$9*
0 Add four rect primitives between the rounded corners*
20,1,$1+$1,$2,$3,$4,$5,0*
20,1,$1+$1,$4,$5,$6,$7,0*
20,1,$1+$1,$6,$7,$8,$9,0*
20,1,$1+$1,$8,$9,$2,$3,0*%
%AMFreePoly0*
4,1,18,-0.410000,0.593000,-0.403758,0.624380,-0.385983,0.650983,-0.359380,0.668758,-0.328000,0.675000,0.328000,0.675000,0.359380,0.668758,0.385983,0.650983,0.403758,0.624380,0.410000,0.593000,0.410000,-0.593000,0.403758,-0.624380,0.385983,-0.650983,0.359380,-0.668758,0.328000,-0.675000,0.000000,-0.675000,-0.410000,-0.265000,-0.410000,0.593000,-0.410000,0.593000,$1*%
G04 Aperture macros list end*
%ADD10C,1.750000*%
%ADD11C,4.000000*%
%ADD12C,2.500000*%
%ADD13C,5.600000*%
%ADD14R,1.700000X1.700000*%
%ADD15O,1.700000X1.700000*%
%ADD16FreePoly0,270.000000*%
%ADD17RoundRect,0.082000X-0.593000X0.328000X-0.593000X-0.328000X0.593000X-0.328000X0.593000X0.328000X0*%
%ADD18RoundRect,0.250000X0.250000X-0.250000X0.250000X0.250000X-0.250000X0.250000X-0.250000X-0.250000X0*%
%ADD19RoundRect,0.237500X-0.300000X-0.237500X0.300000X-0.237500X0.300000X0.237500X-0.300000X0.237500X0*%
%ADD20RoundRect,0.237500X0.237500X-0.300000X0.237500X0.300000X-0.237500X0.300000X-0.237500X-0.300000X0*%
%ADD21FreePoly0,90.000000*%
%ADD22RoundRect,0.082000X0.593000X-0.328000X0.593000X0.328000X-0.593000X0.328000X-0.593000X-0.328000X0*%
G04 APERTURE END LIST*
D10*
%TO.C,SW20*%
X166370000Y-80962500D03*
D11*
X171450000Y-80962500D03*
D10*
X176530000Y-80962500D03*
D12*
X167640000Y-78422500D03*
X173990000Y-75882500D03*
%TD*%
D10*
%TO.C,SW14*%
X52070000Y-80962500D03*
D11*
X57150000Y-80962500D03*
D10*
X62230000Y-80962500D03*
D12*
X53340000Y-78422500D03*
X59690000Y-75882500D03*
%TD*%
D13*
%TO.C,H5*%
X100000000Y-31000000D03*
%TD*%
%TO.C,H2*%
X186500000Y-90000000D03*
%TD*%
D14*
%TO.C,J2*%
X186500000Y-63880000D03*
D15*
X186500000Y-66420000D03*
X186500000Y-68960000D03*
X186500000Y-71500000D03*
X186500000Y-74040000D03*
X186500000Y-76580000D03*
X186500000Y-79120000D03*
%TD*%
D13*
%TO.C,H7*%
X109000000Y-94000000D03*
%TD*%
D10*
%TO.C,SW13*%
X33020000Y-80962500D03*
D11*
X38100000Y-80962500D03*
D10*
X43180000Y-80962500D03*
D12*
X34290000Y-78422500D03*
X40640000Y-75882500D03*
%TD*%
D10*
%TO.C,SW7*%
X71120000Y-61912500D03*
D11*
X76200000Y-61912500D03*
D10*
X81280000Y-61912500D03*
D12*
X72390000Y-59372500D03*
X78740000Y-56832500D03*
%TD*%
D10*
%TO.C,SW15*%
X71120000Y-80962500D03*
D11*
X76200000Y-80962500D03*
D10*
X81280000Y-80962500D03*
D12*
X72390000Y-78422500D03*
X78740000Y-75882500D03*
%TD*%
D10*
%TO.C,SW4*%
X166370000Y-38100000D03*
D11*
X171450000Y-38100000D03*
D10*
X176530000Y-38100000D03*
D12*
X167640000Y-35560000D03*
X173990000Y-33020000D03*
%TD*%
D10*
%TO.C,SW16*%
X90170000Y-80962500D03*
D11*
X95250000Y-80962500D03*
D10*
X100330000Y-80962500D03*
D12*
X91440000Y-78422500D03*
X97790000Y-75882500D03*
%TD*%
D10*
%TO.C,SW2*%
X128270000Y-38100000D03*
D11*
X133350000Y-38100000D03*
D10*
X138430000Y-38100000D03*
D12*
X129540000Y-35560000D03*
X135890000Y-33020000D03*
%TD*%
D10*
%TO.C,SW5*%
X33020000Y-61912500D03*
D11*
X38100000Y-61912500D03*
D10*
X43180000Y-61912500D03*
D12*
X34290000Y-59372500D03*
X40640000Y-56832500D03*
%TD*%
D10*
%TO.C,SW11*%
X147320000Y-61912500D03*
D11*
X152400000Y-61912500D03*
D10*
X157480000Y-61912500D03*
D12*
X148590000Y-59372500D03*
X154940000Y-56832500D03*
%TD*%
D13*
%TO.C,H1*%
X186500000Y-53500000D03*
%TD*%
D10*
%TO.C,SW1*%
X109220000Y-38100000D03*
D11*
X114300000Y-38100000D03*
D10*
X119380000Y-38100000D03*
D12*
X110490000Y-35560000D03*
X116840000Y-33020000D03*
%TD*%
D13*
%TO.C,H6*%
X109000000Y-118000000D03*
%TD*%
%TO.C,H4*%
X31000000Y-49000000D03*
%TD*%
%TO.C,H8*%
X158000000Y-94000000D03*
%TD*%
D10*
%TO.C,SW17*%
X109220000Y-80962500D03*
D11*
X114300000Y-80962500D03*
D10*
X119380000Y-80962500D03*
D12*
X110490000Y-78422500D03*
X116840000Y-75882500D03*
%TD*%
D10*
%TO.C,SW18*%
X128270000Y-80962500D03*
D11*
X133350000Y-80962500D03*
D10*
X138430000Y-80962500D03*
D12*
X129540000Y-78422500D03*
X135890000Y-75882500D03*
%TD*%
D10*
%TO.C,SW12*%
X166370000Y-61912500D03*
D11*
X171450000Y-61912500D03*
D10*
X176530000Y-61912500D03*
D12*
X167640000Y-59372500D03*
X173990000Y-56832500D03*
%TD*%
D10*
%TO.C,SW9*%
X109220000Y-61912500D03*
D11*
X114300000Y-61912500D03*
D10*
X119380000Y-61912500D03*
D12*
X110490000Y-59372500D03*
X116840000Y-56832500D03*
%TD*%
D10*
%TO.C,SW8*%
X90170000Y-61912500D03*
D11*
X95250000Y-61912500D03*
D10*
X100330000Y-61912500D03*
D12*
X91440000Y-59372500D03*
X97790000Y-56832500D03*
%TD*%
D14*
%TO.C,J1*%
X186525000Y-30175000D03*
D15*
X186525000Y-32715000D03*
X186525000Y-35255000D03*
X186525000Y-37795000D03*
X186525000Y-40335000D03*
X186525000Y-42875000D03*
%TD*%
D10*
%TO.C,SW3*%
X147320000Y-38100000D03*
D11*
X152400000Y-38100000D03*
D10*
X157480000Y-38100000D03*
D12*
X148590000Y-35560000D03*
X154940000Y-33020000D03*
%TD*%
D10*
%TO.C,SW19*%
X147320000Y-80962500D03*
D11*
X152400000Y-80962500D03*
D10*
X157480000Y-80962500D03*
D12*
X148590000Y-78422500D03*
X154940000Y-75882500D03*
%TD*%
D10*
%TO.C,SW6*%
X52070000Y-61912500D03*
D11*
X57150000Y-61912500D03*
D10*
X62230000Y-61912500D03*
D12*
X53340000Y-59372500D03*
X59690000Y-56832500D03*
%TD*%
D14*
%TO.C,J3*%
X186500000Y-99920000D03*
D15*
X186500000Y-102460000D03*
X186500000Y-105000000D03*
X186500000Y-107540000D03*
X186500000Y-110080000D03*
X186500000Y-112620000D03*
%TD*%
D10*
%TO.C,SW22*%
X80645000Y-104775000D03*
D11*
X85725000Y-104775000D03*
D10*
X90805000Y-104775000D03*
D12*
X81915000Y-102235000D03*
X88265000Y-99695000D03*
%TD*%
D10*
%TO.C,SW21*%
X42545000Y-104775000D03*
D11*
X47625000Y-104775000D03*
D10*
X52705000Y-104775000D03*
D12*
X43815000Y-102235000D03*
X50165000Y-99695000D03*
%TD*%
D10*
%TO.C,SW10*%
X128270000Y-61912500D03*
D11*
X133350000Y-61912500D03*
D10*
X138430000Y-61912500D03*
D12*
X129540000Y-59372500D03*
X135890000Y-56832500D03*
%TD*%
D10*
%TO.C,SW23*%
X166370000Y-104775000D03*
D11*
X171450000Y-104775000D03*
D10*
X176530000Y-104775000D03*
D12*
X167640000Y-102235000D03*
X173990000Y-99695000D03*
%TD*%
D13*
%TO.C,H3*%
X31000000Y-118000000D03*
%TD*%
D16*
%TO.C,U13*%
X92525000Y-66242500D03*
D17*
X92525000Y-67742500D03*
X97975000Y-67742500D03*
X97975000Y-66242500D03*
%TD*%
D18*
%TO.C,D2*%
X138430000Y-42380000D03*
X138430000Y-39880000D03*
%TD*%
%TO.C,D9*%
X119380000Y-66192500D03*
X119380000Y-63692500D03*
%TD*%
D19*
%TO.C,C12*%
X75337500Y-71337500D03*
X77062500Y-71337500D03*
%TD*%
D16*
%TO.C,U17*%
X168725000Y-66242500D03*
D17*
X168725000Y-67742500D03*
X174175000Y-67742500D03*
X174175000Y-66242500D03*
%TD*%
D16*
%TO.C,U16*%
X149675000Y-66242500D03*
D17*
X149675000Y-67742500D03*
X155125000Y-67742500D03*
X155125000Y-66242500D03*
%TD*%
D18*
%TO.C,D10*%
X138430000Y-66192500D03*
X138430000Y-63692500D03*
%TD*%
%TO.C,D12*%
X176530000Y-66192500D03*
X176530000Y-63692500D03*
%TD*%
D20*
%TO.C,C3*%
X146500000Y-86362500D03*
X146500000Y-84637500D03*
%TD*%
D19*
%TO.C,C10*%
X37237500Y-71337500D03*
X38962500Y-71337500D03*
%TD*%
D21*
%TO.C,U1*%
X174175000Y-110505000D03*
D22*
X174175000Y-109005000D03*
X168725000Y-109005000D03*
X168725000Y-110505000D03*
%TD*%
D18*
%TO.C,D16*%
X100330000Y-85242500D03*
X100330000Y-82742500D03*
%TD*%
D20*
%TO.C,C2*%
X165500000Y-86362500D03*
X165500000Y-84637500D03*
%TD*%
D21*
%TO.C,U8*%
X59875000Y-86692500D03*
D22*
X59875000Y-85192500D03*
X54425000Y-85192500D03*
X54425000Y-86692500D03*
%TD*%
D18*
%TO.C,D22*%
X90805000Y-109055000D03*
X90805000Y-106555000D03*
%TD*%
%TO.C,D7*%
X81280000Y-66192500D03*
X81280000Y-63692500D03*
%TD*%
D19*
%TO.C,C15*%
X132487500Y-71437500D03*
X134212500Y-71437500D03*
%TD*%
D20*
%TO.C,C8*%
X51500000Y-86362500D03*
X51500000Y-84637500D03*
%TD*%
D18*
%TO.C,D1*%
X119380000Y-42380000D03*
X119380000Y-39880000D03*
%TD*%
D19*
%TO.C,C17*%
X170587500Y-71437500D03*
X172312500Y-71437500D03*
%TD*%
%TO.C,C13*%
X94387500Y-71337500D03*
X96112500Y-71337500D03*
%TD*%
D20*
%TO.C,C9*%
X32500000Y-86362500D03*
X32500000Y-84637500D03*
%TD*%
D18*
%TO.C,D21*%
X52705000Y-109055000D03*
X52705000Y-106555000D03*
%TD*%
D16*
%TO.C,U10*%
X35375000Y-66242500D03*
D17*
X35375000Y-67742500D03*
X40825000Y-67742500D03*
X40825000Y-66242500D03*
%TD*%
D19*
%TO.C,C11*%
X56287500Y-71337500D03*
X58012500Y-71337500D03*
%TD*%
D20*
%TO.C,C1*%
X165500000Y-110362500D03*
X165500000Y-108637500D03*
%TD*%
D21*
%TO.C,U5*%
X117025000Y-86692500D03*
D22*
X117025000Y-85192500D03*
X111575000Y-85192500D03*
X111575000Y-86692500D03*
%TD*%
D18*
%TO.C,D6*%
X62230000Y-66192500D03*
X62230000Y-63692500D03*
%TD*%
D20*
%TO.C,C7*%
X70500000Y-86362500D03*
X70500000Y-84637500D03*
%TD*%
D21*
%TO.C,U2*%
X174175000Y-86692500D03*
D22*
X174175000Y-85192500D03*
X168725000Y-85192500D03*
X168725000Y-86692500D03*
%TD*%
D19*
%TO.C,C16*%
X151537500Y-71337500D03*
X153262500Y-71337500D03*
%TD*%
D21*
%TO.C,U4*%
X136075000Y-86692500D03*
D22*
X136075000Y-85192500D03*
X130625000Y-85192500D03*
X130625000Y-86692500D03*
%TD*%
D21*
%TO.C,U6*%
X97975000Y-86692500D03*
D22*
X97975000Y-85192500D03*
X92525000Y-85192500D03*
X92525000Y-86692500D03*
%TD*%
D18*
%TO.C,D19*%
X157480000Y-85242500D03*
X157480000Y-82742500D03*
%TD*%
%TO.C,D17*%
X119380000Y-85242500D03*
X119380000Y-82742500D03*
%TD*%
%TO.C,D4*%
X176530000Y-42380000D03*
X176530000Y-39880000D03*
%TD*%
%TO.C,D20*%
X176530000Y-85242500D03*
X176530000Y-82742500D03*
%TD*%
D16*
%TO.C,U14*%
X111575000Y-66242500D03*
D17*
X111575000Y-67742500D03*
X117025000Y-67742500D03*
X117025000Y-66242500D03*
%TD*%
D18*
%TO.C,D13*%
X43180000Y-85242500D03*
X43180000Y-82742500D03*
%TD*%
D20*
%TO.C,C6*%
X89500000Y-86362500D03*
X89500000Y-84637500D03*
%TD*%
D21*
%TO.C,U3*%
X155125000Y-86692500D03*
D22*
X155125000Y-85192500D03*
X149675000Y-85192500D03*
X149675000Y-86692500D03*
%TD*%
D20*
%TO.C,C4*%
X127500000Y-86362500D03*
X127500000Y-84637500D03*
%TD*%
D16*
%TO.C,U12*%
X73475000Y-66242500D03*
D17*
X73475000Y-67742500D03*
X78925000Y-67742500D03*
X78925000Y-66242500D03*
%TD*%
D18*
%TO.C,D15*%
X81280000Y-85242500D03*
X81280000Y-82742500D03*
%TD*%
%TO.C,D11*%
X157480000Y-66192500D03*
X157480000Y-63692500D03*
%TD*%
%TO.C,D3*%
X157480000Y-42380000D03*
X157480000Y-39880000D03*
%TD*%
D20*
%TO.C,C5*%
X108500000Y-86362500D03*
X108500000Y-84637500D03*
%TD*%
D16*
%TO.C,U11*%
X54425000Y-66242500D03*
D17*
X54425000Y-67742500D03*
X59875000Y-67742500D03*
X59875000Y-66242500D03*
%TD*%
D16*
%TO.C,U15*%
X130625000Y-66242500D03*
D17*
X130625000Y-67742500D03*
X136075000Y-67742500D03*
X136075000Y-66242500D03*
%TD*%
D18*
%TO.C,D14*%
X62230000Y-85242500D03*
X62230000Y-82742500D03*
%TD*%
%TO.C,D5*%
X43180000Y-66192500D03*
X43180000Y-63692500D03*
%TD*%
%TO.C,D8*%
X100330000Y-66192500D03*
X100330000Y-63692500D03*
%TD*%
%TO.C,D18*%
X138430000Y-85242500D03*
X138430000Y-82742500D03*
%TD*%
%TO.C,D23*%
X176530000Y-109055000D03*
X176530000Y-106555000D03*
%TD*%
D19*
%TO.C,C14*%
X113437500Y-71337500D03*
X115162500Y-71337500D03*
%TD*%
D21*
%TO.C,U9*%
X40825000Y-86692500D03*
D22*
X40825000Y-85192500D03*
X35375000Y-85192500D03*
X35375000Y-86692500D03*
%TD*%
D21*
%TO.C,U7*%
X78925000Y-86692500D03*
D22*
X78925000Y-85192500D03*
X73475000Y-85192500D03*
X73475000Y-86692500D03*
%TD*%
M02*
