M48
; DRILL file {KiCad 8.0.8} date 2025-02-25T14:58:10+0000
; FORMAT={-:-/ absolute / inch / decimal}
; #@! TF.CreationDate,2025-02-25T14:58:10+00:00
; #@! TF.GenerationSoftware,Kicad,Pcbnew,8.0.8
; #@! TF.FileFunction,Plated,1,2,PTH
FMAT,2
INCH
; #@! TA.AperFunction,Plated,PTH,ViaDrill
T1C0.0118
; #@! TA.AperFunction,Plated,PTH,ComponentDrill
T2C0.0394
; #@! TA.AperFunction,Plated,PTH,ComponentDrill
T3C0.0591
; #@! TA.AperFunction,Plated,PTH,ComponentDrill
T4C0.1260
%
G90
G05
T1
X1.0236Y-4.8425
X1.063Y-4.8425
X1.063Y-4.8425
X1.1417Y-4.8819
X1.1417Y-4.8819
X1.1811Y-2.1654
X1.1811Y-2.3622
X1.1811Y-2.5591
X1.1811Y-2.7559
X1.1811Y-2.9528
X1.1811Y-3.1496
X1.1811Y-3.3465
X1.1811Y-3.5433
X1.1811Y-3.7402
X1.1811Y-3.937
X1.1811Y-4.1339
X1.1811Y-4.3307
X1.2205Y-3.3268
X1.2598Y-4.8425
X1.2598Y-4.8425
X1.3189Y-2.608
X1.3264Y-3.5433
X1.378Y-1.9685
X1.378Y-3.7402
X1.378Y-3.937
X1.378Y-4.1339
X1.378Y-4.3307
X1.378Y-4.5276
X1.4173Y-2.8086
X1.437Y-3.5433
X1.5748Y-1.9685
X1.5748Y-3.7402
X1.5748Y-3.937
X1.5748Y-4.1339
X1.5748Y-4.3307
X1.5748Y-4.5276
X1.5748Y-4.7244
X1.7717Y-1.9685
X1.7717Y-2.7559
X1.7717Y-3.7402
X1.7717Y-4.5276
X1.7717Y-4.7244
X1.811Y-2.7559
X1.8504Y-2.7559
X1.8504Y-3.3465
X1.8504Y-3.3858
X1.8898Y-2.7559
X1.8898Y-2.9921
X1.8898Y-3.0315
X1.8898Y-3.0709
X1.8898Y-3.1102
X1.8898Y-3.3465
X1.9291Y-2.7559
X1.9291Y-4.8425
X1.9685Y-1.9685
X1.9685Y-2.7559
X1.9685Y-3.3268
X1.9685Y-3.5433
X1.9685Y-3.7402
X1.9685Y-4.5276
X1.9685Y-4.7244
X1.9685Y-4.8819
X2.0079Y-4.8425
X2.0669Y-2.608
X2.0764Y-3.5433
X2.1654Y-1.9685
X2.1654Y-2.8086
X2.1654Y-4.5276
X2.1654Y-4.7244
X2.185Y-3.5433
X2.3622Y-1.9685
X2.3622Y-3.7402
X2.3622Y-4.1339
X2.3622Y-4.3307
X2.3622Y-4.5276
X2.3622Y-4.7244
X2.5197Y-2.7559
X2.5591Y-1.9685
X2.5591Y-2.1654
X2.5591Y-2.7559
X2.5591Y-3.7402
X2.5591Y-3.937
X2.5591Y-4.1339
X2.5591Y-4.3307
X2.5591Y-4.5276
X2.5591Y-4.7244
X2.5591Y-5.4331
X2.5984Y-2.7559
X2.5984Y-3.3465
X2.5984Y-3.3858
X2.6378Y-2.7559
X2.6378Y-2.9921
X2.6378Y-3.0315
X2.6378Y-3.0709
X2.6378Y-3.1102
X2.6378Y-3.3465
X2.6772Y-2.7559
X2.7165Y-2.7559
X2.7165Y-3.3268
X2.7559Y-1.9685
X2.7559Y-3.5433
X2.7559Y-3.7402
X2.7559Y-3.937
X2.7559Y-4.1339
X2.7559Y-4.3307
X2.7559Y-4.5276
X2.7559Y-4.7244
X2.815Y-2.608
X2.9134Y-2.8086
X2.9528Y-1.9685
X2.9528Y-3.7402
X2.9528Y-3.937
X2.9528Y-4.1339
X2.9528Y-4.3307
X2.9528Y-4.5276
X2.9528Y-4.7244
X3.0906Y-3.4843
X3.1299Y-3.4843
X3.1496Y-1.9685
X3.1496Y-4.5276
X3.1496Y-4.7244
X3.189Y-3.5433
X3.2532Y-3.5381
X3.2677Y-2.7559
X3.3071Y-2.7559
X3.3465Y-2.1654
X3.3465Y-2.7559
X3.3465Y-3.3465
X3.3465Y-3.3858
X3.3465Y-3.5433
X3.3465Y-4.5276
X3.3465Y-4.7244
X3.3858Y-2.7559
X3.3858Y-2.9921
X3.3858Y-3.0315
X3.3858Y-3.0709
X3.3858Y-3.1102
X3.3858Y-3.3465
X3.4252Y-2.7559
X3.4646Y-2.7559
X3.4646Y-3.3268
X3.5433Y-3.5433
X3.5433Y-3.7402
X3.5433Y-4.5276
X3.5433Y-4.7244
X3.5827Y-2.608
X3.6614Y-2.8086
X3.7402Y-3.7402
X3.7402Y-3.937
X3.7402Y-4.1339
X3.7402Y-4.3307
X3.7402Y-4.5276
X3.7402Y-4.7244
X3.8386Y-3.4843
X3.878Y-3.4843
X3.937Y-1.378
X3.937Y-1.5748
X3.937Y-1.7717
X3.937Y-3.7402
X3.937Y-3.937
X3.937Y-4.1339
X3.937Y-4.3307
X3.937Y-4.5276
X3.937Y-4.7244
X4.0157Y-2.7559
X4.0551Y-2.7559
X4.0945Y-2.7559
X4.0945Y-3.3465
X4.0945Y-3.3858
X4.1339Y-1.1811
X4.1339Y-1.378
X4.1339Y-1.5748
X4.1339Y-1.7717
X4.1339Y-2.1654
X4.1339Y-2.7559
X4.1339Y-2.9921
X4.1339Y-3.0315
X4.1339Y-3.0709
X4.1339Y-3.1102
X4.1339Y-3.3465
X4.1339Y-3.5433
X4.1339Y-3.7402
X4.1339Y-3.937
X4.1339Y-4.1339
X4.1339Y-4.3307
X4.1535Y-4.025
X4.1732Y-2.7559
X4.2126Y-2.7559
X4.2126Y-3.3268
X4.3307Y-1.1811
X4.3307Y-2.608
X4.3307Y-3.937
X4.3307Y-4.1339
X4.3307Y-4.3307
X4.4094Y-2.8086
X4.4488Y-3.5433
X4.5276Y-3.7402
X4.5276Y-3.937
X4.5276Y-4.1339
X4.5276Y-4.3307
X4.5276Y-4.5276
X4.5276Y-4.7244
X4.5669Y-3.5433
X4.5866Y-3.4843
X4.626Y-3.4843
X4.685Y-5.2756
X4.7244Y-1.1811
X4.7244Y-3.937
X4.7244Y-4.1339
X4.7244Y-4.3307
X4.7244Y-4.5276
X4.7244Y-4.7244
X4.7638Y-2.7559
X4.8031Y-2.7559
X4.8425Y-2.7559
X4.8425Y-3.3465
X4.8425Y-3.3858
X4.8819Y-2.7559
X4.8819Y-2.9921
X4.8819Y-3.0315
X4.8819Y-3.0709
X4.8819Y-3.1102
X4.8819Y-3.3465
X4.9213Y-1.1811
X4.9213Y-2.1654
X4.9213Y-2.7559
X4.9213Y-3.5433
X4.9213Y-3.7402
X4.9213Y-4.3307
X4.9213Y-4.5276
X4.9213Y-4.7244
X4.9606Y-2.7559
X4.9606Y-3.3268
X5.0764Y-3.5433
X5.0787Y-2.608
X5.1181Y-1.1811
X5.1181Y-4.3307
X5.1181Y-4.5276
X5.1181Y-4.7244
X5.1575Y-2.8125
X5.1772Y-3.5433
X5.315Y-3.7402
X5.315Y-3.937
X5.315Y-4.5276
X5.315Y-4.7244
X5.3346Y-3.4843
X5.374Y-3.4843
X5.5118Y-1.9685
X5.5118Y-2.7559
X5.5118Y-3.7402
X5.5118Y-3.937
X5.5118Y-4.1339
X5.5118Y-4.7244
X5.5512Y-2.7559
X5.5906Y-2.7559
X5.5906Y-3.3465
X5.5906Y-3.3858
X5.6299Y-2.7559
X5.6299Y-2.9921
X5.6299Y-3.0315
X5.6299Y-3.0709
X5.6299Y-3.1102
X5.6299Y-3.3465
X5.6693Y-2.7559
X5.7087Y-1.9685
X5.7087Y-2.1654
X5.7087Y-2.7559
X5.7087Y-3.3268
X5.7087Y-3.5433
X5.7087Y-3.7402
X5.7087Y-3.937
X5.7087Y-4.1339
X5.7087Y-4.3307
X5.7087Y-4.7244
X5.7874Y-4.563
X5.8268Y-2.608
X5.9055Y-1.9685
X5.9055Y-2.8086
X5.9055Y-3.7402
X5.9055Y-3.937
X5.9055Y-4.1339
X5.9055Y-4.3307
X5.9055Y-4.5276
X5.9055Y-4.7244
X6.0827Y-3.4843
X6.1024Y-1.9685
X6.1024Y-3.937
X6.1024Y-4.1339
X6.1024Y-4.3307
X6.1024Y-4.5276
X6.1024Y-4.7244
X6.122Y-3.4843
X6.2598Y-2.7559
X6.2992Y-2.1654
X6.2992Y-2.7559
X6.2992Y-3.937
X6.2992Y-4.1339
X6.2992Y-4.3307
X6.2992Y-4.5276
X6.2992Y-4.7244
X6.3386Y-2.7559
X6.3386Y-3.3465
X6.3386Y-3.3858
X6.378Y-2.7559
X6.378Y-2.9921
X6.378Y-3.0315
X6.378Y-3.0709
X6.378Y-3.1102
X6.378Y-3.3465
X6.4173Y-2.7559
X6.4567Y-2.7559
X6.4567Y-3.3268
X6.4567Y-4.2717
X6.4961Y-1.9685
X6.4961Y-3.5433
X6.4961Y-3.7402
X6.4961Y-4.5276
X6.4961Y-4.7244
X6.5748Y-2.608
X6.6535Y-2.8125
X6.6929Y-1.9685
X6.6929Y-3.7402
X6.6929Y-4.5276
X6.6929Y-4.7244
X6.8307Y-3.4843
X6.8701Y-3.4843
X6.8898Y-1.9685
X6.8898Y-3.5433
X6.8898Y-4.5276
X6.8898Y-4.7244
X6.9488Y-4.3504
X6.9488Y-4.3819
X7.0866Y-1.378
X7.0866Y-1.5748
X7.0866Y-1.9685
X7.0866Y-2.1654
X7.0866Y-3.5433
X7.0866Y-3.7402
X7.0866Y-4.5276
X7.0866Y-4.7244
X7.126Y-2.6181
X7.1614Y-4.0157
X7.1654Y-1.6732
X7.1654Y-3.3465
X7.2835Y-1.9685
X7.2835Y-3.7402
X7.2835Y-4.5276
X7.2835Y-4.7244
X7.3425Y-3.3465
X7.4803Y-4.5276
X7.4803Y-4.7244
T2
X7.3425Y-2.515
X7.3425Y-2.615
X7.3425Y-2.715
X7.3425Y-2.815
X7.3425Y-2.915
X7.3425Y-3.015
X7.3425Y-3.115
X7.3425Y-3.9339
X7.3425Y-4.0339
X7.3425Y-4.1339
X7.3425Y-4.2339
X7.3425Y-4.3339
X7.3425Y-4.4339
X7.3435Y-1.188
X7.3435Y-1.288
X7.3435Y-1.388
X7.3435Y-1.488
X7.3435Y-1.588
X7.3435Y-1.688
T3
X1.35Y-2.3375
X1.35Y-3.0875
X1.6Y-2.2375
X1.6Y-2.9875
X1.725Y-4.025
X1.975Y-3.925
X2.1Y-2.3375
X2.1Y-3.0875
X2.35Y-2.2375
X2.35Y-2.9875
X2.85Y-2.3375
X2.85Y-3.0875
X3.1Y-2.2375
X3.1Y-2.9875
X3.225Y-4.025
X3.475Y-3.925
X3.6Y-2.3375
X3.6Y-3.0875
X3.85Y-2.2375
X3.85Y-2.9875
X4.35Y-1.4
X4.35Y-2.3375
X4.35Y-3.0875
X4.6Y-1.3
X4.6Y-2.2375
X4.6Y-2.9875
X5.1Y-1.4
X5.1Y-2.3375
X5.1Y-3.0875
X5.35Y-1.3
X5.35Y-2.2375
X5.35Y-2.9875
X5.85Y-1.4
X5.85Y-2.3375
X5.85Y-3.0875
X6.1Y-1.3
X6.1Y-2.2375
X6.1Y-2.9875
X6.6Y-1.4
X6.6Y-2.3375
X6.6Y-3.0875
X6.6Y-4.025
X6.85Y-1.3
X6.85Y-2.2375
X6.85Y-2.9875
X6.85Y-3.925
T4
X1.2205Y-1.9291
X1.2205Y-4.6457
X3.937Y-1.2205
X4.2913Y-3.7008
X4.2913Y-4.6457
X6.2205Y-3.7008
X7.3425Y-2.1063
X7.3425Y-3.5433
M30
