%TF.GenerationSoftware,KiCad,Pcbnew,8.0.8*%
%TF.CreationDate,2025-02-25T14:58:14+00:00*%
%TF.ProjectId,16-steps,31362d73-7465-4707-932e-6b696361645f,rev?*%
%TF.SameCoordinates,Original*%
%TF.FileFunction,Profile,NP*%
%FSLAX46Y46*%
G04 Gerber Fmt 4.6, Leading zero omitted, Abs format (unit mm)*
G04 Created by KiCad (PCBNEW 8.0.8) date 2025-02-25 14:58:14*
%MOMM*%
%LPD*%
G01*
G04 APERTURE LIST*
%TA.AperFunction,Profile*%
%ADD10C,0.050000*%
%TD*%
%TA.AperFunction,Profile*%
%ADD11C,0.100000*%
%TD*%
G04 APERTURE END LIST*
D10*
X96000000Y-31000000D02*
G75*
G02*
X100000000Y-27000000I4000000J0D01*
G01*
X191000000Y-28000000D02*
X191000000Y-121000000D01*
X190000000Y-27000000D02*
G75*
G02*
X191000000Y-28000000I0J-1000000D01*
G01*
X190000000Y-122000000D02*
X31000000Y-122000000D01*
X191000000Y-121000000D02*
G75*
G02*
X190000000Y-122000000I-1000000J0D01*
G01*
X31000000Y-122000000D02*
G75*
G02*
X27000000Y-118000000I0J4000000D01*
G01*
X96000000Y-44000000D02*
G75*
G02*
X95000000Y-45000000I-1000000J0D01*
G01*
X27000000Y-49000000D02*
G75*
G02*
X31000000Y-45000000I4000000J0D01*
G01*
X96000000Y-44000000D02*
X96000000Y-31000000D01*
X31000000Y-45000000D02*
X95000000Y-45000000D01*
X27000000Y-49000000D02*
X27000000Y-118000000D01*
X100000000Y-27000000D02*
X190000000Y-27000000D01*
D11*
%TO.C,U13*%
X93550001Y-66289659D02*
X93550001Y-67695343D01*
X94455547Y-68492500D02*
X96044452Y-68492500D01*
X96044452Y-65492501D02*
X94455548Y-65492501D01*
X96949999Y-67695343D02*
X96949999Y-66289659D01*
X93500516Y-66072781D02*
G75*
G02*
X93550012Y-66289659I-451016J-217019D01*
G01*
X93500516Y-66072782D02*
G75*
G02*
X94203290Y-65424199I450514J216882D01*
G01*
X93550001Y-67695344D02*
G75*
G02*
X93500515Y-67912221I-500351J84D01*
G01*
X94203289Y-68560799D02*
G75*
G02*
X93500517Y-67912221I-252259J431699D01*
G01*
X94203289Y-68560799D02*
G75*
G02*
X94455547Y-68492500I252261J-431711D01*
G01*
X94455548Y-65492501D02*
G75*
G02*
X94203289Y-65424202I2J500011D01*
G01*
X96044453Y-68492501D02*
G75*
G02*
X96296711Y-68560800I-3J-500009D01*
G01*
X96296710Y-65424202D02*
G75*
G02*
X96044452Y-65492501I-252261J431710D01*
G01*
X96296711Y-65424204D02*
G75*
G02*
X96999484Y-66072781I252258J-431700D01*
G01*
X96949999Y-66289658D02*
G75*
G02*
X96999484Y-66072781I499623J85D01*
G01*
X96999484Y-67912221D02*
G75*
G02*
X96296711Y-68560800I-450514J-216879D01*
G01*
X96999484Y-67912221D02*
G75*
G02*
X96949999Y-67695343I450505J216876D01*
G01*
%TO.C,U17*%
X169750001Y-66289659D02*
X169750001Y-67695343D01*
X170655547Y-68492500D02*
X172244452Y-68492500D01*
X172244452Y-65492501D02*
X170655548Y-65492501D01*
X173149999Y-67695343D02*
X173149999Y-66289659D01*
X169700516Y-66072781D02*
G75*
G02*
X169750012Y-66289659I-451016J-217019D01*
G01*
X169700516Y-66072782D02*
G75*
G02*
X170403290Y-65424199I450514J216882D01*
G01*
X169750001Y-67695344D02*
G75*
G02*
X169700515Y-67912221I-500351J84D01*
G01*
X170403289Y-68560799D02*
G75*
G02*
X169700517Y-67912221I-252259J431699D01*
G01*
X170403289Y-68560799D02*
G75*
G02*
X170655547Y-68492500I252261J-431711D01*
G01*
X170655548Y-65492501D02*
G75*
G02*
X170403289Y-65424202I2J500011D01*
G01*
X172244453Y-68492501D02*
G75*
G02*
X172496711Y-68560800I-3J-500009D01*
G01*
X172496710Y-65424202D02*
G75*
G02*
X172244452Y-65492501I-252261J431710D01*
G01*
X172496711Y-65424204D02*
G75*
G02*
X173199484Y-66072781I252258J-431700D01*
G01*
X173149999Y-66289658D02*
G75*
G02*
X173199484Y-66072781I499623J85D01*
G01*
X173199484Y-67912221D02*
G75*
G02*
X172496711Y-68560800I-450514J-216879D01*
G01*
X173199484Y-67912221D02*
G75*
G02*
X173149999Y-67695343I450505J216876D01*
G01*
%TO.C,U16*%
X150700001Y-66289659D02*
X150700001Y-67695343D01*
X151605547Y-68492500D02*
X153194452Y-68492500D01*
X153194452Y-65492501D02*
X151605548Y-65492501D01*
X154099999Y-67695343D02*
X154099999Y-66289659D01*
X150650516Y-66072781D02*
G75*
G02*
X150700012Y-66289659I-451016J-217019D01*
G01*
X150650516Y-66072782D02*
G75*
G02*
X151353290Y-65424199I450514J216882D01*
G01*
X150700001Y-67695344D02*
G75*
G02*
X150650515Y-67912221I-500351J84D01*
G01*
X151353289Y-68560799D02*
G75*
G02*
X150650517Y-67912221I-252259J431699D01*
G01*
X151353289Y-68560799D02*
G75*
G02*
X151605547Y-68492500I252261J-431711D01*
G01*
X151605548Y-65492501D02*
G75*
G02*
X151353289Y-65424202I2J500011D01*
G01*
X153194453Y-68492501D02*
G75*
G02*
X153446711Y-68560800I-3J-500009D01*
G01*
X153446710Y-65424202D02*
G75*
G02*
X153194452Y-65492501I-252261J431710D01*
G01*
X153446711Y-65424204D02*
G75*
G02*
X154149484Y-66072781I252258J-431700D01*
G01*
X154099999Y-66289658D02*
G75*
G02*
X154149484Y-66072781I499623J85D01*
G01*
X154149484Y-67912221D02*
G75*
G02*
X153446711Y-68560800I-450514J-216879D01*
G01*
X154149484Y-67912221D02*
G75*
G02*
X154099999Y-67695343I450505J216876D01*
G01*
%TO.C,U1*%
X169750001Y-109052157D02*
X169750001Y-110457841D01*
X170655548Y-111254999D02*
X172244452Y-111254999D01*
X172244453Y-108255000D02*
X170655548Y-108255000D01*
X173149999Y-110457841D02*
X173149999Y-109052157D01*
X169700516Y-108835279D02*
G75*
G02*
X169749976Y-109052157I-450516J-216821D01*
G01*
X169700516Y-108835279D02*
G75*
G02*
X170403289Y-108186700I450514J216879D01*
G01*
X169750001Y-110457842D02*
G75*
G02*
X169700513Y-110674717I-499701J-58D01*
G01*
X170403289Y-111323296D02*
G75*
G02*
X169700520Y-110674721I-252259J431696D01*
G01*
X170403290Y-111323298D02*
G75*
G02*
X170655548Y-111255000I252260J-431712D01*
G01*
X170655547Y-108254999D02*
G75*
G02*
X170403289Y-108186700I3J500009D01*
G01*
X172244452Y-111254999D02*
G75*
G02*
X172496711Y-111323298I-2J-500009D01*
G01*
X172496711Y-108186701D02*
G75*
G02*
X172244453Y-108255000I-252261J431710D01*
G01*
X172496711Y-108186701D02*
G75*
G02*
X173199483Y-108835279I252258J-431700D01*
G01*
X173149999Y-109052156D02*
G75*
G02*
X173199484Y-108835279I499990J1D01*
G01*
X173199484Y-110674718D02*
G75*
G02*
X172496711Y-111323298I-450514J-216880D01*
G01*
X173199484Y-110674719D02*
G75*
G02*
X173149999Y-110457841I450505J216876D01*
G01*
%TO.C,U8*%
X55450001Y-85239657D02*
X55450001Y-86645341D01*
X56355548Y-87442499D02*
X57944452Y-87442499D01*
X57944453Y-84442500D02*
X56355548Y-84442500D01*
X58849999Y-86645341D02*
X58849999Y-85239657D01*
X55400516Y-85022779D02*
G75*
G02*
X55449976Y-85239657I-450516J-216821D01*
G01*
X55400516Y-85022779D02*
G75*
G02*
X56103289Y-84374200I450514J216879D01*
G01*
X55450001Y-86645342D02*
G75*
G02*
X55400513Y-86862217I-499701J-58D01*
G01*
X56103289Y-87510796D02*
G75*
G02*
X55400520Y-86862221I-252259J431696D01*
G01*
X56103290Y-87510798D02*
G75*
G02*
X56355548Y-87442500I252260J-431712D01*
G01*
X56355547Y-84442499D02*
G75*
G02*
X56103289Y-84374200I3J500009D01*
G01*
X57944452Y-87442499D02*
G75*
G02*
X58196711Y-87510798I-2J-500009D01*
G01*
X58196711Y-84374201D02*
G75*
G02*
X57944453Y-84442500I-252261J431710D01*
G01*
X58196711Y-84374201D02*
G75*
G02*
X58899483Y-85022779I252258J-431700D01*
G01*
X58849999Y-85239656D02*
G75*
G02*
X58899484Y-85022779I499990J1D01*
G01*
X58899484Y-86862218D02*
G75*
G02*
X58196711Y-87510798I-450514J-216880D01*
G01*
X58899484Y-86862219D02*
G75*
G02*
X58849999Y-86645341I450505J216876D01*
G01*
%TO.C,U10*%
X36400001Y-66289659D02*
X36400001Y-67695343D01*
X37305547Y-68492500D02*
X38894452Y-68492500D01*
X38894452Y-65492501D02*
X37305548Y-65492501D01*
X39799999Y-67695343D02*
X39799999Y-66289659D01*
X36350516Y-66072781D02*
G75*
G02*
X36400012Y-66289659I-451016J-217019D01*
G01*
X36350516Y-66072782D02*
G75*
G02*
X37053290Y-65424199I450514J216882D01*
G01*
X36400001Y-67695344D02*
G75*
G02*
X36350515Y-67912221I-500351J84D01*
G01*
X37053289Y-68560799D02*
G75*
G02*
X36350517Y-67912221I-252259J431699D01*
G01*
X37053289Y-68560799D02*
G75*
G02*
X37305547Y-68492500I252261J-431711D01*
G01*
X37305548Y-65492501D02*
G75*
G02*
X37053289Y-65424202I2J500011D01*
G01*
X38894453Y-68492501D02*
G75*
G02*
X39146711Y-68560800I-3J-500009D01*
G01*
X39146710Y-65424202D02*
G75*
G02*
X38894452Y-65492501I-252261J431710D01*
G01*
X39146711Y-65424204D02*
G75*
G02*
X39849484Y-66072781I252258J-431700D01*
G01*
X39799999Y-66289658D02*
G75*
G02*
X39849484Y-66072781I499623J85D01*
G01*
X39849484Y-67912221D02*
G75*
G02*
X39146711Y-68560800I-450514J-216879D01*
G01*
X39849484Y-67912221D02*
G75*
G02*
X39799999Y-67695343I450505J216876D01*
G01*
%TO.C,U5*%
X112600001Y-85239657D02*
X112600001Y-86645341D01*
X113505548Y-87442499D02*
X115094452Y-87442499D01*
X115094453Y-84442500D02*
X113505548Y-84442500D01*
X115999999Y-86645341D02*
X115999999Y-85239657D01*
X112550516Y-85022779D02*
G75*
G02*
X112599976Y-85239657I-450516J-216821D01*
G01*
X112550516Y-85022779D02*
G75*
G02*
X113253289Y-84374200I450514J216879D01*
G01*
X112600001Y-86645342D02*
G75*
G02*
X112550513Y-86862217I-499701J-58D01*
G01*
X113253289Y-87510796D02*
G75*
G02*
X112550520Y-86862221I-252259J431696D01*
G01*
X113253290Y-87510798D02*
G75*
G02*
X113505548Y-87442500I252260J-431712D01*
G01*
X113505547Y-84442499D02*
G75*
G02*
X113253289Y-84374200I3J500009D01*
G01*
X115094452Y-87442499D02*
G75*
G02*
X115346711Y-87510798I-2J-500009D01*
G01*
X115346711Y-84374201D02*
G75*
G02*
X115094453Y-84442500I-252261J431710D01*
G01*
X115346711Y-84374201D02*
G75*
G02*
X116049483Y-85022779I252258J-431700D01*
G01*
X115999999Y-85239656D02*
G75*
G02*
X116049484Y-85022779I499990J1D01*
G01*
X116049484Y-86862218D02*
G75*
G02*
X115346711Y-87510798I-450514J-216880D01*
G01*
X116049484Y-86862219D02*
G75*
G02*
X115999999Y-86645341I450505J216876D01*
G01*
%TO.C,U2*%
X169750001Y-85239657D02*
X169750001Y-86645341D01*
X170655548Y-87442499D02*
X172244452Y-87442499D01*
X172244453Y-84442500D02*
X170655548Y-84442500D01*
X173149999Y-86645341D02*
X173149999Y-85239657D01*
X169700516Y-85022779D02*
G75*
G02*
X169749976Y-85239657I-450516J-216821D01*
G01*
X169700516Y-85022779D02*
G75*
G02*
X170403289Y-84374200I450514J216879D01*
G01*
X169750001Y-86645342D02*
G75*
G02*
X169700513Y-86862217I-499701J-58D01*
G01*
X170403289Y-87510796D02*
G75*
G02*
X169700520Y-86862221I-252259J431696D01*
G01*
X170403290Y-87510798D02*
G75*
G02*
X170655548Y-87442500I252260J-431712D01*
G01*
X170655547Y-84442499D02*
G75*
G02*
X170403289Y-84374200I3J500009D01*
G01*
X172244452Y-87442499D02*
G75*
G02*
X172496711Y-87510798I-2J-500009D01*
G01*
X172496711Y-84374201D02*
G75*
G02*
X172244453Y-84442500I-252261J431710D01*
G01*
X172496711Y-84374201D02*
G75*
G02*
X173199483Y-85022779I252258J-431700D01*
G01*
X173149999Y-85239656D02*
G75*
G02*
X173199484Y-85022779I499990J1D01*
G01*
X173199484Y-86862218D02*
G75*
G02*
X172496711Y-87510798I-450514J-216880D01*
G01*
X173199484Y-86862219D02*
G75*
G02*
X173149999Y-86645341I450505J216876D01*
G01*
%TO.C,U4*%
X131650001Y-85239657D02*
X131650001Y-86645341D01*
X132555548Y-87442499D02*
X134144452Y-87442499D01*
X134144453Y-84442500D02*
X132555548Y-84442500D01*
X135049999Y-86645341D02*
X135049999Y-85239657D01*
X131600516Y-85022779D02*
G75*
G02*
X131649976Y-85239657I-450516J-216821D01*
G01*
X131600516Y-85022779D02*
G75*
G02*
X132303289Y-84374200I450514J216879D01*
G01*
X131650001Y-86645342D02*
G75*
G02*
X131600513Y-86862217I-499701J-58D01*
G01*
X132303289Y-87510796D02*
G75*
G02*
X131600520Y-86862221I-252259J431696D01*
G01*
X132303290Y-87510798D02*
G75*
G02*
X132555548Y-87442500I252260J-431712D01*
G01*
X132555547Y-84442499D02*
G75*
G02*
X132303289Y-84374200I3J500009D01*
G01*
X134144452Y-87442499D02*
G75*
G02*
X134396711Y-87510798I-2J-500009D01*
G01*
X134396711Y-84374201D02*
G75*
G02*
X134144453Y-84442500I-252261J431710D01*
G01*
X134396711Y-84374201D02*
G75*
G02*
X135099483Y-85022779I252258J-431700D01*
G01*
X135049999Y-85239656D02*
G75*
G02*
X135099484Y-85022779I499990J1D01*
G01*
X135099484Y-86862218D02*
G75*
G02*
X134396711Y-87510798I-450514J-216880D01*
G01*
X135099484Y-86862219D02*
G75*
G02*
X135049999Y-86645341I450505J216876D01*
G01*
%TO.C,U6*%
X93550001Y-85239657D02*
X93550001Y-86645341D01*
X94455548Y-87442499D02*
X96044452Y-87442499D01*
X96044453Y-84442500D02*
X94455548Y-84442500D01*
X96949999Y-86645341D02*
X96949999Y-85239657D01*
X93500516Y-85022779D02*
G75*
G02*
X93549976Y-85239657I-450516J-216821D01*
G01*
X93500516Y-85022779D02*
G75*
G02*
X94203289Y-84374200I450514J216879D01*
G01*
X93550001Y-86645342D02*
G75*
G02*
X93500513Y-86862217I-499701J-58D01*
G01*
X94203289Y-87510796D02*
G75*
G02*
X93500520Y-86862221I-252259J431696D01*
G01*
X94203290Y-87510798D02*
G75*
G02*
X94455548Y-87442500I252260J-431712D01*
G01*
X94455547Y-84442499D02*
G75*
G02*
X94203289Y-84374200I3J500009D01*
G01*
X96044452Y-87442499D02*
G75*
G02*
X96296711Y-87510798I-2J-500009D01*
G01*
X96296711Y-84374201D02*
G75*
G02*
X96044453Y-84442500I-252261J431710D01*
G01*
X96296711Y-84374201D02*
G75*
G02*
X96999483Y-85022779I252258J-431700D01*
G01*
X96949999Y-85239656D02*
G75*
G02*
X96999484Y-85022779I499990J1D01*
G01*
X96999484Y-86862218D02*
G75*
G02*
X96296711Y-87510798I-450514J-216880D01*
G01*
X96999484Y-86862219D02*
G75*
G02*
X96949999Y-86645341I450505J216876D01*
G01*
%TO.C,U14*%
X112600001Y-66289659D02*
X112600001Y-67695343D01*
X113505547Y-68492500D02*
X115094452Y-68492500D01*
X115094452Y-65492501D02*
X113505548Y-65492501D01*
X115999999Y-67695343D02*
X115999999Y-66289659D01*
X112550516Y-66072781D02*
G75*
G02*
X112600012Y-66289659I-451016J-217019D01*
G01*
X112550516Y-66072782D02*
G75*
G02*
X113253290Y-65424199I450514J216882D01*
G01*
X112600001Y-67695344D02*
G75*
G02*
X112550515Y-67912221I-500351J84D01*
G01*
X113253289Y-68560799D02*
G75*
G02*
X112550517Y-67912221I-252259J431699D01*
G01*
X113253289Y-68560799D02*
G75*
G02*
X113505547Y-68492500I252261J-431711D01*
G01*
X113505548Y-65492501D02*
G75*
G02*
X113253289Y-65424202I2J500011D01*
G01*
X115094453Y-68492501D02*
G75*
G02*
X115346711Y-68560800I-3J-500009D01*
G01*
X115346710Y-65424202D02*
G75*
G02*
X115094452Y-65492501I-252261J431710D01*
G01*
X115346711Y-65424204D02*
G75*
G02*
X116049484Y-66072781I252258J-431700D01*
G01*
X115999999Y-66289658D02*
G75*
G02*
X116049484Y-66072781I499623J85D01*
G01*
X116049484Y-67912221D02*
G75*
G02*
X115346711Y-68560800I-450514J-216879D01*
G01*
X116049484Y-67912221D02*
G75*
G02*
X115999999Y-67695343I450505J216876D01*
G01*
%TO.C,U3*%
X150700001Y-85239657D02*
X150700001Y-86645341D01*
X151605548Y-87442499D02*
X153194452Y-87442499D01*
X153194453Y-84442500D02*
X151605548Y-84442500D01*
X154099999Y-86645341D02*
X154099999Y-85239657D01*
X150650516Y-85022779D02*
G75*
G02*
X150699976Y-85239657I-450516J-216821D01*
G01*
X150650516Y-85022779D02*
G75*
G02*
X151353289Y-84374200I450514J216879D01*
G01*
X150700001Y-86645342D02*
G75*
G02*
X150650513Y-86862217I-499701J-58D01*
G01*
X151353289Y-87510796D02*
G75*
G02*
X150650520Y-86862221I-252259J431696D01*
G01*
X151353290Y-87510798D02*
G75*
G02*
X151605548Y-87442500I252260J-431712D01*
G01*
X151605547Y-84442499D02*
G75*
G02*
X151353289Y-84374200I3J500009D01*
G01*
X153194452Y-87442499D02*
G75*
G02*
X153446711Y-87510798I-2J-500009D01*
G01*
X153446711Y-84374201D02*
G75*
G02*
X153194453Y-84442500I-252261J431710D01*
G01*
X153446711Y-84374201D02*
G75*
G02*
X154149483Y-85022779I252258J-431700D01*
G01*
X154099999Y-85239656D02*
G75*
G02*
X154149484Y-85022779I499990J1D01*
G01*
X154149484Y-86862218D02*
G75*
G02*
X153446711Y-87510798I-450514J-216880D01*
G01*
X154149484Y-86862219D02*
G75*
G02*
X154099999Y-86645341I450505J216876D01*
G01*
%TO.C,U12*%
X74500001Y-66289659D02*
X74500001Y-67695343D01*
X75405547Y-68492500D02*
X76994452Y-68492500D01*
X76994452Y-65492501D02*
X75405548Y-65492501D01*
X77899999Y-67695343D02*
X77899999Y-66289659D01*
X74450516Y-66072781D02*
G75*
G02*
X74500012Y-66289659I-451016J-217019D01*
G01*
X74450516Y-66072782D02*
G75*
G02*
X75153290Y-65424199I450514J216882D01*
G01*
X74500001Y-67695344D02*
G75*
G02*
X74450515Y-67912221I-500351J84D01*
G01*
X75153289Y-68560799D02*
G75*
G02*
X74450517Y-67912221I-252259J431699D01*
G01*
X75153289Y-68560799D02*
G75*
G02*
X75405547Y-68492500I252261J-431711D01*
G01*
X75405548Y-65492501D02*
G75*
G02*
X75153289Y-65424202I2J500011D01*
G01*
X76994453Y-68492501D02*
G75*
G02*
X77246711Y-68560800I-3J-500009D01*
G01*
X77246710Y-65424202D02*
G75*
G02*
X76994452Y-65492501I-252261J431710D01*
G01*
X77246711Y-65424204D02*
G75*
G02*
X77949484Y-66072781I252258J-431700D01*
G01*
X77899999Y-66289658D02*
G75*
G02*
X77949484Y-66072781I499623J85D01*
G01*
X77949484Y-67912221D02*
G75*
G02*
X77246711Y-68560800I-450514J-216879D01*
G01*
X77949484Y-67912221D02*
G75*
G02*
X77899999Y-67695343I450505J216876D01*
G01*
%TO.C,U11*%
X55450001Y-66289659D02*
X55450001Y-67695343D01*
X56355547Y-68492500D02*
X57944452Y-68492500D01*
X57944452Y-65492501D02*
X56355548Y-65492501D01*
X58849999Y-67695343D02*
X58849999Y-66289659D01*
X55400516Y-66072781D02*
G75*
G02*
X55450012Y-66289659I-451016J-217019D01*
G01*
X55400516Y-66072782D02*
G75*
G02*
X56103290Y-65424199I450514J216882D01*
G01*
X55450001Y-67695344D02*
G75*
G02*
X55400515Y-67912221I-500351J84D01*
G01*
X56103289Y-68560799D02*
G75*
G02*
X55400517Y-67912221I-252259J431699D01*
G01*
X56103289Y-68560799D02*
G75*
G02*
X56355547Y-68492500I252261J-431711D01*
G01*
X56355548Y-65492501D02*
G75*
G02*
X56103289Y-65424202I2J500011D01*
G01*
X57944453Y-68492501D02*
G75*
G02*
X58196711Y-68560800I-3J-500009D01*
G01*
X58196710Y-65424202D02*
G75*
G02*
X57944452Y-65492501I-252261J431710D01*
G01*
X58196711Y-65424204D02*
G75*
G02*
X58899484Y-66072781I252258J-431700D01*
G01*
X58849999Y-66289658D02*
G75*
G02*
X58899484Y-66072781I499623J85D01*
G01*
X58899484Y-67912221D02*
G75*
G02*
X58196711Y-68560800I-450514J-216879D01*
G01*
X58899484Y-67912221D02*
G75*
G02*
X58849999Y-67695343I450505J216876D01*
G01*
%TO.C,U15*%
X131650001Y-66289659D02*
X131650001Y-67695343D01*
X132555547Y-68492500D02*
X134144452Y-68492500D01*
X134144452Y-65492501D02*
X132555548Y-65492501D01*
X135049999Y-67695343D02*
X135049999Y-66289659D01*
X131600516Y-66072781D02*
G75*
G02*
X131650012Y-66289659I-451016J-217019D01*
G01*
X131600516Y-66072782D02*
G75*
G02*
X132303290Y-65424199I450514J216882D01*
G01*
X131650001Y-67695344D02*
G75*
G02*
X131600515Y-67912221I-500351J84D01*
G01*
X132303289Y-68560799D02*
G75*
G02*
X131600517Y-67912221I-252259J431699D01*
G01*
X132303289Y-68560799D02*
G75*
G02*
X132555547Y-68492500I252261J-431711D01*
G01*
X132555548Y-65492501D02*
G75*
G02*
X132303289Y-65424202I2J500011D01*
G01*
X134144453Y-68492501D02*
G75*
G02*
X134396711Y-68560800I-3J-500009D01*
G01*
X134396710Y-65424202D02*
G75*
G02*
X134144452Y-65492501I-252261J431710D01*
G01*
X134396711Y-65424204D02*
G75*
G02*
X135099484Y-66072781I252258J-431700D01*
G01*
X135049999Y-66289658D02*
G75*
G02*
X135099484Y-66072781I499623J85D01*
G01*
X135099484Y-67912221D02*
G75*
G02*
X134396711Y-68560800I-450514J-216879D01*
G01*
X135099484Y-67912221D02*
G75*
G02*
X135049999Y-67695343I450505J216876D01*
G01*
%TO.C,U9*%
X36400001Y-85239657D02*
X36400001Y-86645341D01*
X37305548Y-87442499D02*
X38894452Y-87442499D01*
X38894453Y-84442500D02*
X37305548Y-84442500D01*
X39799999Y-86645341D02*
X39799999Y-85239657D01*
X36350516Y-85022779D02*
G75*
G02*
X36399976Y-85239657I-450516J-216821D01*
G01*
X36350516Y-85022779D02*
G75*
G02*
X37053289Y-84374200I450514J216879D01*
G01*
X36400001Y-86645342D02*
G75*
G02*
X36350513Y-86862217I-499701J-58D01*
G01*
X37053289Y-87510796D02*
G75*
G02*
X36350520Y-86862221I-252259J431696D01*
G01*
X37053290Y-87510798D02*
G75*
G02*
X37305548Y-87442500I252260J-431712D01*
G01*
X37305547Y-84442499D02*
G75*
G02*
X37053289Y-84374200I3J500009D01*
G01*
X38894452Y-87442499D02*
G75*
G02*
X39146711Y-87510798I-2J-500009D01*
G01*
X39146711Y-84374201D02*
G75*
G02*
X38894453Y-84442500I-252261J431710D01*
G01*
X39146711Y-84374201D02*
G75*
G02*
X39849483Y-85022779I252258J-431700D01*
G01*
X39799999Y-85239656D02*
G75*
G02*
X39849484Y-85022779I499990J1D01*
G01*
X39849484Y-86862218D02*
G75*
G02*
X39146711Y-87510798I-450514J-216880D01*
G01*
X39849484Y-86862219D02*
G75*
G02*
X39799999Y-86645341I450505J216876D01*
G01*
%TO.C,U7*%
X74500001Y-85239657D02*
X74500001Y-86645341D01*
X75405548Y-87442499D02*
X76994452Y-87442499D01*
X76994453Y-84442500D02*
X75405548Y-84442500D01*
X77899999Y-86645341D02*
X77899999Y-85239657D01*
X74450516Y-85022779D02*
G75*
G02*
X74499976Y-85239657I-450516J-216821D01*
G01*
X74450516Y-85022779D02*
G75*
G02*
X75153289Y-84374200I450514J216879D01*
G01*
X74500001Y-86645342D02*
G75*
G02*
X74450513Y-86862217I-499701J-58D01*
G01*
X75153289Y-87510796D02*
G75*
G02*
X74450520Y-86862221I-252259J431696D01*
G01*
X75153290Y-87510798D02*
G75*
G02*
X75405548Y-87442500I252260J-431712D01*
G01*
X75405547Y-84442499D02*
G75*
G02*
X75153289Y-84374200I3J500009D01*
G01*
X76994452Y-87442499D02*
G75*
G02*
X77246711Y-87510798I-2J-500009D01*
G01*
X77246711Y-84374201D02*
G75*
G02*
X76994453Y-84442500I-252261J431710D01*
G01*
X77246711Y-84374201D02*
G75*
G02*
X77949483Y-85022779I252258J-431700D01*
G01*
X77899999Y-85239656D02*
G75*
G02*
X77949484Y-85022779I499990J1D01*
G01*
X77949484Y-86862218D02*
G75*
G02*
X77246711Y-87510798I-450514J-216880D01*
G01*
X77949484Y-86862219D02*
G75*
G02*
X77899999Y-86645341I450505J216876D01*
G01*
%TD*%
M02*
