M48
; DRILL file {KiCad 8.0.8} date 2025-02-24T20:51:04+0000
; FORMAT={-:-/ absolute / inch / decimal}
; #@! TF.CreationDate,2025-02-24T20:51:04+00:00
; #@! TF.GenerationSoftware,Kicad,Pcbnew,8.0.8
; #@! TF.FileFunction,Plated,1,2,PTH
FMAT,2
INCH
; #@! TA.AperFunction,Plated,PTH,ViaDrill
T1C0.0118
; #@! TA.AperFunction,Plated,PTH,ComponentDrill
T2C0.0236
; #@! TA.AperFunction,Plated,PTH,ComponentDrill
T3C0.0394
; #@! TA.AperFunction,Plated,PTH,ComponentDrill
T4C0.1260
%
G90
G05
T1
X2.5Y-1.7
X2.5Y-1.8
X2.5Y-1.9
X2.5Y-2.0
X2.6Y-1.7
X2.6Y-1.8
X2.6Y-1.9
X2.6Y-2.0
X2.7Y-1.7
X2.7Y-1.8
X2.7Y-1.9
X2.7Y-2.0
X2.8Y-1.4
X2.8Y-1.5
X2.8Y-2.35
X2.9Y-1.4
X2.9Y-1.5
X2.9Y-2.35
X3.0Y-1.4
X3.0Y-1.5
X3.0Y-2.35
X3.1Y-1.4
X3.1Y-1.5
X3.1Y-2.35
X3.2Y-1.4
X3.2Y-1.5
X3.2Y-2.35
X3.3Y-1.4
X3.3Y-1.5
X3.3Y-2.35
X3.4Y-1.4
X3.4Y-1.5
X3.4Y-2.35
X3.5Y-1.4
X3.5Y-1.5
X3.5Y-2.35
X3.6Y-1.4
X3.6Y-1.5
X3.6Y-2.35
X3.7Y-1.4
X3.7Y-1.5
X3.7Y-2.35
X3.8Y-1.4
X3.8Y-1.5
X3.8Y-2.35
X3.9Y-2.35
X3.925Y-1.58
X4.0Y-2.35
X4.05Y-1.5
X4.1Y-2.35
X4.2Y-2.35
X4.225Y-1.58
X4.3Y-2.35
X4.35Y-1.65
X4.35Y-1.8
X4.35Y-1.85
X4.4Y-2.25
X4.4Y-2.35
X4.46Y-1.9
X4.5Y-2.25
X4.5Y-2.35
X4.5374Y-1.9
X4.6Y-2.25
X4.6Y-2.35
X4.7Y-1.9315
X4.7Y-2.05
X4.7Y-2.15
X4.7Y-2.25
X4.7Y-2.35
X4.7374Y-1.9
X4.75Y-1.6
X4.8Y-1.95
X4.85Y-1.5
X4.9Y-1.95
X4.9374Y-1.9
X4.95Y-1.5
X4.96Y-1.7
X5.0Y-1.95
T2
X3.25Y-1.6
X3.25Y-2.2
X3.35Y-1.6
X3.35Y-2.2
X3.45Y-1.6
X3.45Y-2.2
X3.55Y-1.6
X3.55Y-2.2
X3.65Y-1.6
X3.65Y-2.2
X3.75Y-1.6
X3.75Y-2.2
T3
X3.9Y-1.43
X4.0Y-1.43
X4.1Y-1.43
X4.2Y-1.43
X4.3Y-1.43
X4.4Y-1.43
X4.5Y-1.43
X4.6Y-1.43
T4
X2.6Y-1.5
X2.6Y-2.2
X4.9Y-2.2
M30
