%TF.GenerationSoftware,KiCad,Pcbnew,8.0.8*%
%TF.CreationDate,2025-02-24T20:51:07+00:00*%
%TF.ProjectId,7-segment,372d7365-676d-4656-9e74-2e6b69636164,rev?*%
%TF.SameCoordinates,Original*%
%TF.FileFunction,Legend,Bot*%
%TF.FilePolarity,Positive*%
%FSLAX46Y46*%
G04 Gerber Fmt 4.6, Leading zero omitted, Abs format (unit mm)*
G04 Created by KiCad (PCBNEW 8.0.8) date 2025-02-24 20:51:07*
%MOMM*%
%LPD*%
G01*
G04 APERTURE LIST*
%ADD10C,0.150000*%
%ADD11C,0.100000*%
G04 APERTURE END LIST*
D10*
X109553332Y-33413819D02*
X108934285Y-33413819D01*
X108934285Y-33413819D02*
X109267618Y-33794771D01*
X109267618Y-33794771D02*
X109124761Y-33794771D01*
X109124761Y-33794771D02*
X109029523Y-33842390D01*
X109029523Y-33842390D02*
X108981904Y-33890009D01*
X108981904Y-33890009D02*
X108934285Y-33985247D01*
X108934285Y-33985247D02*
X108934285Y-34223342D01*
X108934285Y-34223342D02*
X108981904Y-34318580D01*
X108981904Y-34318580D02*
X109029523Y-34366200D01*
X109029523Y-34366200D02*
X109124761Y-34413819D01*
X109124761Y-34413819D02*
X109410475Y-34413819D01*
X109410475Y-34413819D02*
X109505713Y-34366200D01*
X109505713Y-34366200D02*
X109553332Y-34318580D01*
X101885713Y-34366200D02*
X101742856Y-34413819D01*
X101742856Y-34413819D02*
X101504761Y-34413819D01*
X101504761Y-34413819D02*
X101409523Y-34366200D01*
X101409523Y-34366200D02*
X101361904Y-34318580D01*
X101361904Y-34318580D02*
X101314285Y-34223342D01*
X101314285Y-34223342D02*
X101314285Y-34128104D01*
X101314285Y-34128104D02*
X101361904Y-34032866D01*
X101361904Y-34032866D02*
X101409523Y-33985247D01*
X101409523Y-33985247D02*
X101504761Y-33937628D01*
X101504761Y-33937628D02*
X101695237Y-33890009D01*
X101695237Y-33890009D02*
X101790475Y-33842390D01*
X101790475Y-33842390D02*
X101838094Y-33794771D01*
X101838094Y-33794771D02*
X101885713Y-33699533D01*
X101885713Y-33699533D02*
X101885713Y-33604295D01*
X101885713Y-33604295D02*
X101838094Y-33509057D01*
X101838094Y-33509057D02*
X101790475Y-33461438D01*
X101790475Y-33461438D02*
X101695237Y-33413819D01*
X101695237Y-33413819D02*
X101457142Y-33413819D01*
X101457142Y-33413819D02*
X101314285Y-33461438D01*
X99821904Y-33461438D02*
X99917142Y-33413819D01*
X99917142Y-33413819D02*
X100059999Y-33413819D01*
X100059999Y-33413819D02*
X100202856Y-33461438D01*
X100202856Y-33461438D02*
X100298094Y-33556676D01*
X100298094Y-33556676D02*
X100345713Y-33651914D01*
X100345713Y-33651914D02*
X100393332Y-33842390D01*
X100393332Y-33842390D02*
X100393332Y-33985247D01*
X100393332Y-33985247D02*
X100345713Y-34175723D01*
X100345713Y-34175723D02*
X100298094Y-34270961D01*
X100298094Y-34270961D02*
X100202856Y-34366200D01*
X100202856Y-34366200D02*
X100059999Y-34413819D01*
X100059999Y-34413819D02*
X99964761Y-34413819D01*
X99964761Y-34413819D02*
X99821904Y-34366200D01*
X99821904Y-34366200D02*
X99774285Y-34318580D01*
X99774285Y-34318580D02*
X99774285Y-33985247D01*
X99774285Y-33985247D02*
X99964761Y-33985247D01*
X99345713Y-34413819D02*
X99345713Y-33413819D01*
X99345713Y-33413819D02*
X98774285Y-34413819D01*
X98774285Y-34413819D02*
X98774285Y-33413819D01*
X98298094Y-34413819D02*
X98298094Y-33413819D01*
X98298094Y-33413819D02*
X98059999Y-33413819D01*
X98059999Y-33413819D02*
X97917142Y-33461438D01*
X97917142Y-33461438D02*
X97821904Y-33556676D01*
X97821904Y-33556676D02*
X97774285Y-33651914D01*
X97774285Y-33651914D02*
X97726666Y-33842390D01*
X97726666Y-33842390D02*
X97726666Y-33985247D01*
X97726666Y-33985247D02*
X97774285Y-34175723D01*
X97774285Y-34175723D02*
X97821904Y-34270961D01*
X97821904Y-34270961D02*
X97917142Y-34366200D01*
X97917142Y-34366200D02*
X98059999Y-34413819D01*
X98059999Y-34413819D02*
X98298094Y-34413819D01*
X112045713Y-33509057D02*
X111998094Y-33461438D01*
X111998094Y-33461438D02*
X111902856Y-33413819D01*
X111902856Y-33413819D02*
X111664761Y-33413819D01*
X111664761Y-33413819D02*
X111569523Y-33461438D01*
X111569523Y-33461438D02*
X111521904Y-33509057D01*
X111521904Y-33509057D02*
X111474285Y-33604295D01*
X111474285Y-33604295D02*
X111474285Y-33699533D01*
X111474285Y-33699533D02*
X111521904Y-33842390D01*
X111521904Y-33842390D02*
X112093332Y-34413819D01*
X112093332Y-34413819D02*
X111474285Y-34413819D01*
X107465713Y-34366200D02*
X107322856Y-34413819D01*
X107322856Y-34413819D02*
X107084761Y-34413819D01*
X107084761Y-34413819D02*
X106989523Y-34366200D01*
X106989523Y-34366200D02*
X106941904Y-34318580D01*
X106941904Y-34318580D02*
X106894285Y-34223342D01*
X106894285Y-34223342D02*
X106894285Y-34128104D01*
X106894285Y-34128104D02*
X106941904Y-34032866D01*
X106941904Y-34032866D02*
X106989523Y-33985247D01*
X106989523Y-33985247D02*
X107084761Y-33937628D01*
X107084761Y-33937628D02*
X107275237Y-33890009D01*
X107275237Y-33890009D02*
X107370475Y-33842390D01*
X107370475Y-33842390D02*
X107418094Y-33794771D01*
X107418094Y-33794771D02*
X107465713Y-33699533D01*
X107465713Y-33699533D02*
X107465713Y-33604295D01*
X107465713Y-33604295D02*
X107418094Y-33509057D01*
X107418094Y-33509057D02*
X107370475Y-33461438D01*
X107370475Y-33461438D02*
X107275237Y-33413819D01*
X107275237Y-33413819D02*
X107037142Y-33413819D01*
X107037142Y-33413819D02*
X106894285Y-33461438D01*
X105894285Y-34413819D02*
X106227618Y-33937628D01*
X106465713Y-34413819D02*
X106465713Y-33413819D01*
X106465713Y-33413819D02*
X106084761Y-33413819D01*
X106084761Y-33413819D02*
X105989523Y-33461438D01*
X105989523Y-33461438D02*
X105941904Y-33509057D01*
X105941904Y-33509057D02*
X105894285Y-33604295D01*
X105894285Y-33604295D02*
X105894285Y-33747152D01*
X105894285Y-33747152D02*
X105941904Y-33842390D01*
X105941904Y-33842390D02*
X105989523Y-33890009D01*
X105989523Y-33890009D02*
X106084761Y-33937628D01*
X106084761Y-33937628D02*
X106465713Y-33937628D01*
X103830476Y-34318580D02*
X103878095Y-34366200D01*
X103878095Y-34366200D02*
X104020952Y-34413819D01*
X104020952Y-34413819D02*
X104116190Y-34413819D01*
X104116190Y-34413819D02*
X104259047Y-34366200D01*
X104259047Y-34366200D02*
X104354285Y-34270961D01*
X104354285Y-34270961D02*
X104401904Y-34175723D01*
X104401904Y-34175723D02*
X104449523Y-33985247D01*
X104449523Y-33985247D02*
X104449523Y-33842390D01*
X104449523Y-33842390D02*
X104401904Y-33651914D01*
X104401904Y-33651914D02*
X104354285Y-33556676D01*
X104354285Y-33556676D02*
X104259047Y-33461438D01*
X104259047Y-33461438D02*
X104116190Y-33413819D01*
X104116190Y-33413819D02*
X104020952Y-33413819D01*
X104020952Y-33413819D02*
X103878095Y-33461438D01*
X103878095Y-33461438D02*
X103830476Y-33509057D01*
X114014285Y-34413819D02*
X114585713Y-34413819D01*
X114299999Y-34413819D02*
X114299999Y-33413819D01*
X114299999Y-33413819D02*
X114395237Y-33556676D01*
X114395237Y-33556676D02*
X114490475Y-33651914D01*
X114490475Y-33651914D02*
X114585713Y-33699533D01*
X117030476Y-33413819D02*
X117506666Y-33413819D01*
X117506666Y-33413819D02*
X117554285Y-33890009D01*
X117554285Y-33890009D02*
X117506666Y-33842390D01*
X117506666Y-33842390D02*
X117411428Y-33794771D01*
X117411428Y-33794771D02*
X117173333Y-33794771D01*
X117173333Y-33794771D02*
X117078095Y-33842390D01*
X117078095Y-33842390D02*
X117030476Y-33890009D01*
X117030476Y-33890009D02*
X116982857Y-33985247D01*
X116982857Y-33985247D02*
X116982857Y-34223342D01*
X116982857Y-34223342D02*
X117030476Y-34318580D01*
X117030476Y-34318580D02*
X117078095Y-34366200D01*
X117078095Y-34366200D02*
X117173333Y-34413819D01*
X117173333Y-34413819D02*
X117411428Y-34413819D01*
X117411428Y-34413819D02*
X117506666Y-34366200D01*
X117506666Y-34366200D02*
X117554285Y-34318580D01*
X116697142Y-33413819D02*
X116363809Y-34413819D01*
X116363809Y-34413819D02*
X116030476Y-33413819D01*
D11*
X89661904Y-47217419D02*
X89661904Y-48026942D01*
X89661904Y-48026942D02*
X89614285Y-48122180D01*
X89614285Y-48122180D02*
X89566666Y-48169800D01*
X89566666Y-48169800D02*
X89471428Y-48217419D01*
X89471428Y-48217419D02*
X89280952Y-48217419D01*
X89280952Y-48217419D02*
X89185714Y-48169800D01*
X89185714Y-48169800D02*
X89138095Y-48122180D01*
X89138095Y-48122180D02*
X89090476Y-48026942D01*
X89090476Y-48026942D02*
X89090476Y-47217419D01*
X88090476Y-48217419D02*
X88661904Y-48217419D01*
X88376190Y-48217419D02*
X88376190Y-47217419D01*
X88376190Y-47217419D02*
X88471428Y-47360276D01*
X88471428Y-47360276D02*
X88566666Y-47455514D01*
X88566666Y-47455514D02*
X88661904Y-47503133D01*
%TO.C,U1*%
X107650000Y-38760000D02*
X70150000Y-38760000D01*
X70150000Y-57760000D01*
X107650000Y-57760000D01*
X107650000Y-38760000D01*
%TD*%
M02*
