<?xml version="1.0" encoding="UTF-8"?>
<svg id="Layer_1" data-name="Layer 1" xmlns="http://www.w3.org/2000/svg" xmlns:xlink="http://www.w3.org/1999/xlink" viewBox="0 0 254.25 147.94">
  <defs>
    <style>
      .cls-1 {
        clip-path: url(#clippath-76);
      }

      .cls-2 {
        clip-path: url(#clippath-51);
      }

      .cls-3 {
        clip-path: url(#clippath-34);
      }

      .cls-4 {
        clip-path: url(#clippath-38);
      }

      .cls-5 {
        clip-path: url(#clippath-21);
      }

      .cls-6 {
        clip-path: url(#clippath-6);
      }

      .cls-7 {
        clip-path: url(#clippath-7);
      }

      .cls-8 {
        clip-path: url(#clippath-17);
      }

      .cls-9 {
        clip-path: url(#clippath-80);
      }

      .cls-10 {
        clip-path: url(#clippath-31);
      }

      .cls-11 {
        clip-path: url(#clippath-79);
      }

      .cls-12 {
        clip-path: url(#clippath-75);
      }

      .cls-13 {
        clip-path: url(#clippath-15);
      }

      .cls-14 {
        clip-path: url(#clippath-33);
      }

      .cls-15 {
        clip-path: url(#clippath-61);
      }

      .cls-16 {
        clip-path: url(#clippath-18);
      }

      .cls-17 {
        clip-path: url(#clippath-47);
      }

      .cls-18 {
        clip-path: url(#clippath-4);
      }

      .cls-19 {
        clip-path: url(#clippath-71);
      }

      .cls-20 {
        clip-path: url(#clippath-22);
      }

      .cls-21 {
        clip-path: url(#clippath-23);
      }

      .cls-22 {
        fill-rule: evenodd;
        opacity: .1;
      }

      .cls-23 {
        clip-path: url(#clippath-82);
      }

      .cls-24 {
        clip-path: url(#clippath-54);
      }

      .cls-25 {
        clip-path: url(#clippath-66);
      }

      .cls-26 {
        clip-path: url(#clippath-9);
      }

      .cls-27 {
        clip-path: url(#clippath-70);
      }

      .cls-28 {
        clip-path: url(#clippath-10);
      }

      .cls-29 {
        clip-path: url(#clippath-42);
      }

      .cls-30 {
        clip-path: url(#clippath-59);
      }

      .cls-31 {
        fill: #fff;
      }

      .cls-32 {
        clip-path: url(#clippath-43);
      }

      .cls-33 {
        clip-path: url(#clippath-64);
      }

      .cls-34 {
        clip-path: url(#clippath-25);
      }

      .cls-35 {
        clip-path: url(#clippath-27);
      }

      .cls-36 {
        clip-path: url(#clippath-60);
      }

      .cls-37 {
        clip-path: url(#clippath-11);
      }

      .cls-38 {
        clip-path: url(#clippath-57);
      }

      .cls-39 {
        clip-path: url(#clippath-88);
      }

      .cls-40, .cls-41, .cls-42 {
        fill: none;
      }

      .cls-43 {
        clip-path: url(#clippath-85);
      }

      .cls-44 {
        clip-path: url(#clippath-36);
      }

      .cls-45 {
        clip-path: url(#clippath-35);
      }

      .cls-46 {
        clip-path: url(#clippath-48);
      }

      .cls-47 {
        clip-path: url(#clippath-28);
      }

      .cls-48 {
        clip-path: url(#clippath-1);
      }

      .cls-49 {
        clip-path: url(#clippath-56);
      }

      .cls-50 {
        clip-path: url(#clippath-90);
      }

      .cls-51 {
        clip-path: url(#clippath-45);
      }

      .cls-52 {
        isolation: isolate;
      }

      .cls-53 {
        clip-path: url(#clippath-89);
      }

      .cls-54 {
        clip-path: url(#clippath-46);
      }

      .cls-55 {
        clip-path: url(#clippath-40);
      }

      .cls-56 {
        clip-path: url(#clippath-5);
      }

      .cls-57 {
        clip-path: url(#clippath-20);
      }

      .cls-58 {
        clip-path: url(#clippath-8);
      }

      .cls-59 {
        font-size: 6.75px;
      }

      .cls-59, .cls-60 {
        fill: #080808;
        font-family: ArialMT, Arial;
      }

      .cls-61 {
        clip-path: url(#clippath-52);
      }

      .cls-62 {
        clip-path: url(#clippath-41);
      }

      .cls-63 {
        clip-path: url(#clippath-67);
      }

      .cls-64 {
        clip-path: url(#clippath-74);
      }

      .cls-65 {
        clip-path: url(#clippath-3);
      }

      .cls-66 {
        clip-path: url(#clippath-26);
      }

      .cls-67 {
        clip-path: url(#clippath-91);
      }

      .cls-68 {
        clip-path: url(#clippath-12);
      }

      .cls-69 {
        clip-path: url(#clippath-50);
      }

      .cls-70 {
        clip-path: url(#clippath-14);
      }

      .cls-71 {
        clip-path: url(#clippath-30);
      }

      .cls-72 {
        clip-path: url(#clippath-77);
      }

      .cls-73 {
        clip-path: url(#clippath-19);
      }

      .cls-41 {
        stroke: #000;
      }

      .cls-41, .cls-42 {
        stroke-width: .56px;
      }

      .cls-74 {
        clip-path: url(#clippath-78);
      }

      .cls-75 {
        clip-path: url(#clippath-72);
      }

      .cls-76 {
        clip-path: url(#clippath-84);
      }

      .cls-77 {
        clip-path: url(#clippath-32);
      }

      .cls-78 {
        clip-path: url(#clippath-55);
      }

      .cls-79 {
        clip-path: url(#clippath-73);
      }

      .cls-80 {
        clip-path: url(#clippath-53);
      }

      .cls-81 {
        clip-path: url(#clippath-39);
      }

      .cls-82 {
        clip-path: url(#clippath-81);
      }

      .cls-83 {
        clip-path: url(#clippath-16);
      }

      .cls-84 {
        clip-path: url(#clippath-2);
      }

      .cls-85 {
        clip-path: url(#clippath-29);
      }

      .cls-86 {
        clip-path: url(#clippath-49);
      }

      .cls-87 {
        clip-path: url(#clippath-37);
      }

      .cls-88 {
        clip-path: url(#clippath-58);
      }

      .cls-89 {
        clip-path: url(#clippath-13);
      }

      .cls-42 {
        stroke: #ddd;
      }

      .cls-90 {
        clip-path: url(#clippath-86);
      }

      .cls-60 {
        font-size: 4.5px;
      }

      .cls-91 {
        clip-path: url(#clippath-63);
      }

      .cls-92 {
        clip-path: url(#clippath-24);
      }

      .cls-93 {
        clip-path: url(#clippath);
      }

      .cls-94 {
        clip-path: url(#clippath-87);
      }

      .cls-95 {
        clip-path: url(#clippath-68);
      }

      .cls-96 {
        clip-path: url(#clippath-83);
      }

      .cls-97 {
        clip-path: url(#clippath-65);
      }

      .cls-98 {
        clip-path: url(#clippath-44);
      }

      .cls-99 {
        clip-path: url(#clippath-62);
      }

      .cls-100 {
        clip-path: url(#clippath-69);
      }
    </style>
    <clipPath id="clippath">
      <path class="cls-40" d="M127.69,33.19V8.44c0-.62.22-1.15.66-1.59s.97-.66,1.59-.66h24.75c.62,0,1.15.22,1.59.66.44.44.66.97.66,1.59v24.75c0,.62-.22,1.15-.66,1.59-.44.44-.97.66-1.59.66h-24.75c-.62,0-1.15-.22-1.59-.66s-.66-.97-.66-1.59Z"/>
    </clipPath>
    <clipPath id="clippath-1">
      <path class="cls-40" d="M130.5,29.25V9c0-.47.16-.86.49-1.19.33-.33.73-.49,1.19-.49h20.25c.47,0,.86.16,1.19.49.33.33.49.73.49,1.19v20.25c0,.47-.16.86-.49,1.19s-.73.49-1.19.49h-20.25c-.47,0-.86-.16-1.19-.49-.33-.33-.49-.73-.49-1.19Z"/>
    </clipPath>
    <clipPath id="clippath-2">
      <rect class="cls-40" x="130.43" y="7.14" width="23.76" height="24"/>
    </clipPath>
    <clipPath id="clippath-3">
      <path class="cls-40" d="M131.06,29.25V9c0-.31.11-.58.33-.8.22-.22.48-.33.8-.33h20.25c.31,0,.58.11.8.33.22.22.33.48.33.8v20.25c0,.31-.11.58-.33.8-.22.22-.48.33-.8.33h-20.25c-.31,0-.58-.11-.8-.33-.22-.22-.33-.48-.33-.8Z"/>
    </clipPath>
    <clipPath id="clippath-4">
      <path class="cls-40" d="M158.06,33.19V8.44c0-.62.22-1.15.66-1.59.44-.44.97-.66,1.59-.66h24.75c.62,0,1.15.22,1.59.66.44.44.66.97.66,1.59v24.75c0,.62-.22,1.15-.66,1.59-.44.44-.97.66-1.59.66h-24.75c-.62,0-1.15-.22-1.59-.66-.44-.44-.66-.97-.66-1.59Z"/>
    </clipPath>
    <clipPath id="clippath-5">
      <path class="cls-40" d="M160.88,29.25V9c0-.47.16-.86.49-1.19.33-.33.73-.49,1.19-.49h20.25c.47,0,.86.16,1.19.49.33.33.49.73.49,1.19v20.25c0,.47-.16.86-.49,1.19-.33.33-.73.49-1.19.49h-20.25c-.47,0-.86-.16-1.19-.49s-.49-.73-.49-1.19Z"/>
    </clipPath>
    <clipPath id="clippath-6">
      <rect class="cls-40" x="160.66" y="7.14" width="24" height="24"/>
    </clipPath>
    <clipPath id="clippath-7">
      <path class="cls-40" d="M161.44,29.25V9c0-.31.11-.58.33-.8s.48-.33.8-.33h20.25c.31,0,.58.11.8.33s.33.48.33.8v20.25c0,.31-.11.58-.33.8-.22.22-.48.33-.8.33h-20.25c-.31,0-.58-.11-.8-.33-.22-.22-.33-.48-.33-.8Z"/>
    </clipPath>
    <clipPath id="clippath-8">
      <path class="cls-40" d="M188.44,33.19V8.44c0-.62.22-1.15.66-1.59s.97-.66,1.59-.66h24.75c.62,0,1.15.22,1.59.66.44.44.66.97.66,1.59v24.75c0,.62-.22,1.15-.66,1.59-.44.44-.97.66-1.59.66h-24.75c-.62,0-1.15-.22-1.59-.66s-.66-.97-.66-1.59Z"/>
    </clipPath>
    <clipPath id="clippath-9">
      <path class="cls-40" d="M191.25,29.25V9c0-.47.16-.86.49-1.19.33-.33.73-.49,1.19-.49h20.25c.47,0,.86.16,1.19.49.33.33.49.73.49,1.19v20.25c0,.47-.16.86-.49,1.19-.33.33-.73.49-1.19.49h-20.25c-.47,0-.86-.16-1.19-.49-.33-.33-.49-.73-.49-1.19Z"/>
    </clipPath>
    <clipPath id="clippath-10">
      <rect class="cls-40" x="191.14" y="7.14" width="23.76" height="24"/>
    </clipPath>
    <clipPath id="clippath-11">
      <path class="cls-40" d="M191.81,29.25V9c0-.31.11-.58.33-.8.22-.22.48-.33.8-.33h20.25c.31,0,.58.11.8.33.22.22.33.48.33.8v20.25c0,.31-.11.58-.33.8-.22.22-.48.33-.8.33h-20.25c-.31,0-.58-.11-.8-.33-.22-.22-.33-.48-.33-.8Z"/>
    </clipPath>
    <clipPath id="clippath-12">
      <path class="cls-40" d="M218.81,33.19V8.44c0-.62.22-1.15.66-1.59.44-.44.97-.66,1.59-.66h24.75c.62,0,1.15.22,1.59.66.44.44.66.97.66,1.59v24.75c0,.62-.22,1.15-.66,1.59-.44.44-.97.66-1.59.66h-24.75c-.62,0-1.15-.22-1.59-.66-.44-.44-.66-.97-.66-1.59Z"/>
    </clipPath>
    <clipPath id="clippath-13">
      <path class="cls-40" d="M221.62,29.25V9c0-.47.16-.86.49-1.19.33-.33.73-.49,1.19-.49h20.25c.47,0,.86.16,1.19.49.33.33.49.73.49,1.19v20.25c0,.47-.16.86-.49,1.19-.33.33-.73.49-1.19.49h-20.25c-.47,0-.86-.16-1.19-.49s-.49-.73-.49-1.19Z"/>
    </clipPath>
    <clipPath id="clippath-14">
      <rect class="cls-40" x="221.62" y="7.14" width="23.76" height="24"/>
    </clipPath>
    <clipPath id="clippath-15">
      <path class="cls-40" d="M222.19,29.25V9c0-.31.11-.58.33-.8.22-.22.48-.33.8-.33h20.25c.31,0,.58.11.8.33.22.22.33.48.33.8v20.25c0,.31-.11.58-.33.8-.22.22-.48.33-.8.33h-20.25c-.31,0-.58-.11-.8-.33-.22-.22-.33-.48-.33-.8Z"/>
    </clipPath>
    <clipPath id="clippath-16">
      <path class="cls-40" d="M6.19,71.44v-24.75c0-.62.22-1.15.66-1.59s.97-.66,1.59-.66h24.75c.62,0,1.15.22,1.59.66s.66.97.66,1.59v24.75c0,.62-.22,1.15-.66,1.59-.44.44-.97.66-1.59.66H8.44c-.62,0-1.15-.22-1.59-.66-.44-.44-.66-.97-.66-1.59Z"/>
    </clipPath>
    <clipPath id="clippath-17">
      <path class="cls-40" d="M9,67.5v-20.25c0-.47.16-.86.49-1.19.33-.33.73-.49,1.19-.49h20.25c.47,0,.86.16,1.19.49.33.33.49.73.49,1.19v20.25c0,.47-.16.86-.49,1.19-.33.33-.73.49-1.19.49H10.69c-.47,0-.86-.16-1.19-.49-.33-.33-.49-.73-.49-1.19Z"/>
    </clipPath>
    <clipPath id="clippath-18">
      <rect class="cls-40" x="8.98" y="45.54" width="23.76" height="23.76"/>
    </clipPath>
    <clipPath id="clippath-19">
      <path class="cls-40" d="M9.56,67.5v-20.25c0-.31.11-.58.33-.8.22-.22.48-.33.8-.33h20.25c.31,0,.58.11.8.33s.33.48.33.8v20.25c0,.31-.11.58-.33.8s-.48.33-.8.33H10.69c-.31,0-.58-.11-.8-.33-.22-.22-.33-.48-.33-.8Z"/>
    </clipPath>
    <clipPath id="clippath-20">
      <path class="cls-40" d="M36.56,71.44v-24.75c0-.62.22-1.15.66-1.59.44-.44.97-.66,1.59-.66h24.75c.62,0,1.15.22,1.59.66.44.44.66.97.66,1.59v24.75c0,.62-.22,1.15-.66,1.59-.44.44-.97.66-1.59.66h-24.75c-.62,0-1.15-.22-1.59-.66-.44-.44-.66-.97-.66-1.59Z"/>
    </clipPath>
    <clipPath id="clippath-21">
      <path class="cls-40" d="M39.38,67.5v-20.25c0-.47.16-.86.49-1.19.33-.33.73-.49,1.19-.49h20.25c.47,0,.86.16,1.19.49.33.33.49.73.49,1.19v20.25c0,.47-.16.86-.49,1.19-.33.33-.73.49-1.19.49h-20.25c-.47,0-.86-.16-1.19-.49s-.49-.73-.49-1.19Z"/>
    </clipPath>
    <clipPath id="clippath-22">
      <rect class="cls-40" x="39.22" y="45.54" width="24" height="23.76"/>
    </clipPath>
    <clipPath id="clippath-23">
      <path class="cls-40" d="M39.94,67.5v-20.25c0-.31.11-.58.33-.8s.48-.33.8-.33h20.25c.31,0,.58.11.8.33s.33.48.33.8v20.25c0,.31-.11.58-.33.8s-.48.33-.8.33h-20.25c-.31,0-.58-.11-.8-.33s-.33-.48-.33-.8Z"/>
    </clipPath>
    <clipPath id="clippath-24">
      <path class="cls-40" d="M66.94,71.44v-24.75c0-.62.22-1.15.66-1.59.44-.44.97-.66,1.59-.66h24.75c.62,0,1.15.22,1.59.66.44.44.66.97.66,1.59v24.75c0,.62-.22,1.15-.66,1.59-.44.44-.97.66-1.59.66h-24.75c-.62,0-1.15-.22-1.59-.66-.44-.44-.66-.97-.66-1.59Z"/>
    </clipPath>
    <clipPath id="clippath-25">
      <path class="cls-40" d="M69.75,67.5v-20.25c0-.47.16-.86.49-1.19.33-.33.73-.49,1.19-.49h20.25c.47,0,.86.16,1.19.49.33.33.49.73.49,1.19v20.25c0,.47-.16.86-.49,1.19-.33.33-.73.49-1.19.49h-20.25c-.47,0-.86-.16-1.19-.49-.33-.33-.49-.73-.49-1.19Z"/>
    </clipPath>
    <clipPath id="clippath-26">
      <rect class="cls-40" x="69.71" y="45.54" width="23.76" height="23.76"/>
    </clipPath>
    <clipPath id="clippath-27">
      <path class="cls-40" d="M70.31,67.5v-20.25c0-.31.11-.58.33-.8.22-.22.48-.33.8-.33h20.25c.31,0,.58.11.8.33s.33.48.33.8v20.25c0,.31-.11.58-.33.8s-.48.33-.8.33h-20.25c-.31,0-.58-.11-.8-.33-.22-.22-.33-.48-.33-.8Z"/>
    </clipPath>
    <clipPath id="clippath-28">
      <path class="cls-40" d="M97.31,71.44v-24.75c0-.62.22-1.15.66-1.59s.97-.66,1.59-.66h24.75c.62,0,1.15.22,1.59.66.44.44.66.97.66,1.59v24.75c0,.62-.22,1.15-.66,1.59-.44.44-.97.66-1.59.66h-24.75c-.62,0-1.15-.22-1.59-.66-.44-.44-.66-.97-.66-1.59Z"/>
    </clipPath>
    <clipPath id="clippath-29">
      <path class="cls-40" d="M100.12,67.5v-20.25c0-.47.16-.86.49-1.19.33-.33.73-.49,1.19-.49h20.25c.47,0,.86.16,1.19.49.33.33.49.73.49,1.19v20.25c0,.47-.16.86-.49,1.19s-.73.49-1.19.49h-20.25c-.47,0-.86-.16-1.19-.49s-.49-.73-.49-1.19Z"/>
    </clipPath>
    <clipPath id="clippath-30">
      <rect class="cls-40" x="99.94" y="45.54" width="24" height="23.76"/>
    </clipPath>
    <clipPath id="clippath-31">
      <path class="cls-40" d="M100.69,67.5v-20.25c0-.31.11-.58.33-.8.22-.22.48-.33.8-.33h20.25c.31,0,.58.11.8.33s.33.48.33.8v20.25c0,.31-.11.58-.33.8s-.48.33-.8.33h-20.25c-.31,0-.58-.11-.8-.33-.22-.22-.33-.48-.33-.8Z"/>
    </clipPath>
    <clipPath id="clippath-32">
      <path class="cls-40" d="M127.69,71.44v-24.75c0-.62.22-1.15.66-1.59s.97-.66,1.59-.66h24.75c.62,0,1.15.22,1.59.66.44.44.66.97.66,1.59v24.75c0,.62-.22,1.15-.66,1.59s-.97.66-1.59.66h-24.75c-.62,0-1.15-.22-1.59-.66-.44-.44-.66-.97-.66-1.59Z"/>
    </clipPath>
    <clipPath id="clippath-33">
      <path class="cls-40" d="M130.5,67.5v-20.25c0-.47.16-.86.49-1.19.33-.33.73-.49,1.19-.49h20.25c.47,0,.86.16,1.19.49.33.33.49.73.49,1.19v20.25c0,.47-.16.86-.49,1.19s-.73.49-1.19.49h-20.25c-.47,0-.86-.16-1.19-.49-.33-.33-.49-.73-.49-1.19Z"/>
    </clipPath>
    <clipPath id="clippath-34">
      <rect class="cls-40" x="130.43" y="45.54" width="23.76" height="23.76"/>
    </clipPath>
    <clipPath id="clippath-35">
      <path class="cls-40" d="M131.06,67.5v-20.25c0-.31.11-.58.33-.8.22-.22.48-.33.8-.33h20.25c.31,0,.58.11.8.33.22.22.33.48.33.8v20.25c0,.31-.11.58-.33.8-.22.22-.48.33-.8.33h-20.25c-.31,0-.58-.11-.8-.33-.22-.22-.33-.48-.33-.8Z"/>
    </clipPath>
    <clipPath id="clippath-36">
      <path class="cls-40" d="M158.06,71.44v-24.75c0-.62.22-1.15.66-1.59.44-.44.97-.66,1.59-.66h24.75c.62,0,1.15.22,1.59.66.44.44.66.97.66,1.59v24.75c0,.62-.22,1.15-.66,1.59-.44.44-.97.66-1.59.66h-24.75c-.62,0-1.15-.22-1.59-.66-.44-.44-.66-.97-.66-1.59Z"/>
    </clipPath>
    <clipPath id="clippath-37">
      <path class="cls-40" d="M160.88,67.5v-20.25c0-.47.16-.86.49-1.19.33-.33.73-.49,1.19-.49h20.25c.47,0,.86.16,1.19.49.33.33.49.73.49,1.19v20.25c0,.47-.16.86-.49,1.19-.33.33-.73.49-1.19.49h-20.25c-.47,0-.86-.16-1.19-.49s-.49-.73-.49-1.19Z"/>
    </clipPath>
    <clipPath id="clippath-38">
      <rect class="cls-40" x="160.66" y="45.54" width="24" height="23.76"/>
    </clipPath>
    <clipPath id="clippath-39">
      <path class="cls-40" d="M161.44,67.5v-20.25c0-.31.11-.58.33-.8s.48-.33.8-.33h20.25c.31,0,.58.11.8.33s.33.48.33.8v20.25c0,.31-.11.58-.33.8s-.48.33-.8.33h-20.25c-.31,0-.58-.11-.8-.33s-.33-.48-.33-.8Z"/>
    </clipPath>
    <clipPath id="clippath-40">
      <path class="cls-40" d="M188.44,71.44v-24.75c0-.62.22-1.15.66-1.59s.97-.66,1.59-.66h24.75c.62,0,1.15.22,1.59.66.44.44.66.97.66,1.59v24.75c0,.62-.22,1.15-.66,1.59s-.97.66-1.59.66h-24.75c-.62,0-1.15-.22-1.59-.66-.44-.44-.66-.97-.66-1.59Z"/>
    </clipPath>
    <clipPath id="clippath-41">
      <path class="cls-40" d="M191.25,67.5v-20.25c0-.47.16-.86.49-1.19.33-.33.73-.49,1.19-.49h20.25c.47,0,.86.16,1.19.49.33.33.49.73.49,1.19v20.25c0,.47-.16.86-.49,1.19-.33.33-.73.49-1.19.49h-20.25c-.47,0-.86-.16-1.19-.49-.33-.33-.49-.73-.49-1.19Z"/>
    </clipPath>
    <clipPath id="clippath-42">
      <rect class="cls-40" x="191.14" y="45.54" width="23.76" height="23.76"/>
    </clipPath>
    <clipPath id="clippath-43">
      <path class="cls-40" d="M191.81,67.5v-20.25c0-.31.11-.58.33-.8.22-.22.48-.33.8-.33h20.25c.31,0,.58.11.8.33.22.22.33.48.33.8v20.25c0,.31-.11.58-.33.8-.22.22-.48.33-.8.33h-20.25c-.31,0-.58-.11-.8-.33-.22-.22-.33-.48-.33-.8Z"/>
    </clipPath>
    <clipPath id="clippath-44">
      <path class="cls-40" d="M218.81,71.44v-24.75c0-.62.22-1.15.66-1.59.44-.44.97-.66,1.59-.66h24.75c.62,0,1.15.22,1.59.66.44.44.66.97.66,1.59v24.75c0,.62-.22,1.15-.66,1.59-.44.44-.97.66-1.59.66h-24.75c-.62,0-1.15-.22-1.59-.66-.44-.44-.66-.97-.66-1.59Z"/>
    </clipPath>
    <clipPath id="clippath-45">
      <path class="cls-40" d="M221.62,67.5v-20.25c0-.47.16-.86.49-1.19.33-.33.73-.49,1.19-.49h20.25c.47,0,.86.16,1.19.49.33.33.49.73.49,1.19v20.25c0,.47-.16.86-.49,1.19-.33.33-.73.49-1.19.49h-20.25c-.47,0-.86-.16-1.19-.49s-.49-.73-.49-1.19Z"/>
    </clipPath>
    <clipPath id="clippath-46">
      <rect class="cls-40" x="221.62" y="45.54" width="23.76" height="23.76"/>
    </clipPath>
    <clipPath id="clippath-47">
      <path class="cls-40" d="M222.19,67.5v-20.25c0-.31.11-.58.33-.8.22-.22.48-.33.8-.33h20.25c.31,0,.58.11.8.33.22.22.33.48.33.8v20.25c0,.31-.11.58-.33.8-.22.22-.48.33-.8.33h-20.25c-.31,0-.58-.11-.8-.33-.22-.22-.33-.48-.33-.8Z"/>
    </clipPath>
    <clipPath id="clippath-48">
      <path class="cls-40" d="M6.19,101.81v-24.75c0-.62.22-1.15.66-1.59.44-.44.97-.66,1.59-.66h24.75c.62,0,1.15.22,1.59.66.44.44.66.97.66,1.59v24.75c0,.62-.22,1.15-.66,1.59-.44.44-.97.66-1.59.66H8.44c-.62,0-1.15-.22-1.59-.66-.44-.44-.66-.97-.66-1.59Z"/>
    </clipPath>
    <clipPath id="clippath-49">
      <path class="cls-40" d="M9,97.88v-20.25c0-.47.16-.86.49-1.19.33-.33.73-.49,1.19-.49h20.25c.47,0,.86.16,1.19.49.33.33.49.73.49,1.19v20.25c0,.47-.16.86-.49,1.19-.33.33-.73.49-1.19.49H10.69c-.47,0-.86-.16-1.19-.49-.33-.33-.49-.73-.49-1.19Z"/>
    </clipPath>
    <clipPath id="clippath-50">
      <rect class="cls-40" x="8.98" y="75.78" width="23.76" height="24"/>
    </clipPath>
    <clipPath id="clippath-51">
      <path class="cls-40" d="M9.56,97.88v-20.25c0-.31.11-.58.33-.8.22-.22.48-.33.8-.33h20.25c.31,0,.58.11.8.33s.33.48.33.8v20.25c0,.31-.11.58-.33.8s-.48.33-.8.33H10.69c-.31,0-.58-.11-.8-.33-.22-.22-.33-.48-.33-.8Z"/>
    </clipPath>
    <clipPath id="clippath-52">
      <path class="cls-40" d="M36.56,101.81v-24.75c0-.62.22-1.15.66-1.59.44-.44.97-.66,1.59-.66h24.75c.62,0,1.15.22,1.59.66.44.44.66.97.66,1.59v24.75c0,.62-.22,1.15-.66,1.59-.44.44-.97.66-1.59.66h-24.75c-.62,0-1.15-.22-1.59-.66-.44-.44-.66-.97-.66-1.59Z"/>
    </clipPath>
    <clipPath id="clippath-53">
      <path class="cls-40" d="M39.38,97.88v-20.25c0-.47.16-.86.49-1.19.33-.33.73-.49,1.19-.49h20.25c.47,0,.86.16,1.19.49.33.33.49.73.49,1.19v20.25c0,.47-.16.86-.49,1.19-.33.33-.73.49-1.19.49h-20.25c-.47,0-.86-.16-1.19-.49s-.49-.73-.49-1.19Z"/>
    </clipPath>
    <clipPath id="clippath-54">
      <rect class="cls-40" x="39.22" y="75.78" width="24" height="24"/>
    </clipPath>
    <clipPath id="clippath-55">
      <path class="cls-40" d="M39.94,97.88v-20.25c0-.31.11-.58.33-.8s.48-.33.8-.33h20.25c.31,0,.58.11.8.33s.33.48.33.8v20.25c0,.31-.11.58-.33.8s-.48.33-.8.33h-20.25c-.31,0-.58-.11-.8-.33s-.33-.48-.33-.8Z"/>
    </clipPath>
    <clipPath id="clippath-56">
      <path class="cls-40" d="M66.94,101.81v-24.75c0-.62.22-1.15.66-1.59.44-.44.97-.66,1.59-.66h24.75c.62,0,1.15.22,1.59.66.44.44.66.97.66,1.59v24.75c0,.62-.22,1.15-.66,1.59-.44.44-.97.66-1.59.66h-24.75c-.62,0-1.15-.22-1.59-.66-.44-.44-.66-.97-.66-1.59Z"/>
    </clipPath>
    <clipPath id="clippath-57">
      <path class="cls-40" d="M69.75,97.88v-20.25c0-.47.16-.86.49-1.19.33-.33.73-.49,1.19-.49h20.25c.47,0,.86.16,1.19.49.33.33.49.73.49,1.19v20.25c0,.47-.16.86-.49,1.19-.33.33-.73.49-1.19.49h-20.25c-.47,0-.86-.16-1.19-.49-.33-.33-.49-.73-.49-1.19Z"/>
    </clipPath>
    <clipPath id="clippath-58">
      <rect class="cls-40" x="69.71" y="75.78" width="23.76" height="24"/>
    </clipPath>
    <clipPath id="clippath-59">
      <path class="cls-40" d="M70.31,97.88v-20.25c0-.31.11-.58.33-.8.22-.22.48-.33.8-.33h20.25c.31,0,.58.11.8.33s.33.48.33.8v20.25c0,.31-.11.58-.33.8s-.48.33-.8.33h-20.25c-.31,0-.58-.11-.8-.33-.22-.22-.33-.48-.33-.8Z"/>
    </clipPath>
    <clipPath id="clippath-60">
      <path class="cls-40" d="M97.31,101.81v-24.75c0-.62.22-1.15.66-1.59.44-.44.97-.66,1.59-.66h24.75c.62,0,1.15.22,1.59.66.44.44.66.97.66,1.59v24.75c0,.62-.22,1.15-.66,1.59-.44.44-.97.66-1.59.66h-24.75c-.62,0-1.15-.22-1.59-.66-.44-.44-.66-.97-.66-1.59Z"/>
    </clipPath>
    <clipPath id="clippath-61">
      <path class="cls-40" d="M100.12,97.88v-20.25c0-.47.16-.86.49-1.19.33-.33.73-.49,1.19-.49h20.25c.47,0,.86.16,1.19.49.33.33.49.73.49,1.19v20.25c0,.47-.16.86-.49,1.19s-.73.49-1.19.49h-20.25c-.47,0-.86-.16-1.19-.49s-.49-.73-.49-1.19Z"/>
    </clipPath>
    <clipPath id="clippath-62">
      <rect class="cls-40" x="99.94" y="75.78" width="24" height="24"/>
    </clipPath>
    <clipPath id="clippath-63">
      <path class="cls-40" d="M100.69,97.88v-20.25c0-.31.11-.58.33-.8.22-.22.48-.33.8-.33h20.25c.31,0,.58.11.8.33s.33.48.33.8v20.25c0,.31-.11.58-.33.8s-.48.33-.8.33h-20.25c-.31,0-.58-.11-.8-.33-.22-.22-.33-.48-.33-.8Z"/>
    </clipPath>
    <clipPath id="clippath-64">
      <path class="cls-40" d="M127.69,101.81v-24.75c0-.62.22-1.15.66-1.59.44-.44.97-.66,1.59-.66h24.75c.62,0,1.15.22,1.59.66s.66.97.66,1.59v24.75c0,.62-.22,1.15-.66,1.59-.44.44-.97.66-1.59.66h-24.75c-.62,0-1.15-.22-1.59-.66-.44-.44-.66-.97-.66-1.59Z"/>
    </clipPath>
    <clipPath id="clippath-65">
      <path class="cls-40" d="M130.5,97.88v-20.25c0-.47.16-.86.49-1.19.33-.33.73-.49,1.19-.49h20.25c.47,0,.86.16,1.19.49.33.33.49.73.49,1.19v20.25c0,.47-.16.86-.49,1.19s-.73.49-1.19.49h-20.25c-.47,0-.86-.16-1.19-.49-.33-.33-.49-.73-.49-1.19Z"/>
    </clipPath>
    <clipPath id="clippath-66">
      <rect class="cls-40" x="130.43" y="75.78" width="23.76" height="24"/>
    </clipPath>
    <clipPath id="clippath-67">
      <path class="cls-40" d="M131.06,97.88v-20.25c0-.31.11-.58.33-.8.22-.22.48-.33.8-.33h20.25c.31,0,.58.11.8.33.22.22.33.48.33.8v20.25c0,.31-.11.58-.33.8-.22.22-.48.33-.8.33h-20.25c-.31,0-.58-.11-.8-.33-.22-.22-.33-.48-.33-.8Z"/>
    </clipPath>
    <clipPath id="clippath-68">
      <path class="cls-40" d="M158.06,101.81v-24.75c0-.62.22-1.15.66-1.59.44-.44.97-.66,1.59-.66h24.75c.62,0,1.15.22,1.59.66.44.44.66.97.66,1.59v24.75c0,.62-.22,1.15-.66,1.59-.44.44-.97.66-1.59.66h-24.75c-.62,0-1.15-.22-1.59-.66s-.66-.97-.66-1.59Z"/>
    </clipPath>
    <clipPath id="clippath-69">
      <path class="cls-40" d="M160.88,97.88v-20.25c0-.47.16-.86.49-1.19.33-.33.73-.49,1.19-.49h20.25c.47,0,.86.16,1.19.49.33.33.49.73.49,1.19v20.25c0,.47-.16.86-.49,1.19-.33.33-.73.49-1.19.49h-20.25c-.47,0-.86-.16-1.19-.49s-.49-.73-.49-1.19Z"/>
    </clipPath>
    <clipPath id="clippath-70">
      <rect class="cls-40" x="160.66" y="75.78" width="24" height="24"/>
    </clipPath>
    <clipPath id="clippath-71">
      <path class="cls-40" d="M161.44,97.88v-20.25c0-.31.11-.58.33-.8s.48-.33.8-.33h20.25c.31,0,.58.11.8.33s.33.48.33.8v20.25c0,.31-.11.58-.33.8s-.48.33-.8.33h-20.25c-.31,0-.58-.11-.8-.33s-.33-.48-.33-.8Z"/>
    </clipPath>
    <clipPath id="clippath-72">
      <path class="cls-40" d="M188.44,101.81v-24.75c0-.62.22-1.15.66-1.59.44-.44.97-.66,1.59-.66h24.75c.62,0,1.15.22,1.59.66s.66.97.66,1.59v24.75c0,.62-.22,1.15-.66,1.59-.44.44-.97.66-1.59.66h-24.75c-.62,0-1.15-.22-1.59-.66-.44-.44-.66-.97-.66-1.59Z"/>
    </clipPath>
    <clipPath id="clippath-73">
      <path class="cls-40" d="M191.25,97.88v-20.25c0-.47.16-.86.49-1.19.33-.33.73-.49,1.19-.49h20.25c.47,0,.86.16,1.19.49.33.33.49.73.49,1.19v20.25c0,.47-.16.86-.49,1.19-.33.33-.73.49-1.19.49h-20.25c-.47,0-.86-.16-1.19-.49-.33-.33-.49-.73-.49-1.19Z"/>
    </clipPath>
    <clipPath id="clippath-74">
      <rect class="cls-40" x="191.14" y="75.78" width="23.76" height="24"/>
    </clipPath>
    <clipPath id="clippath-75">
      <path class="cls-40" d="M191.81,97.88v-20.25c0-.31.11-.58.33-.8.22-.22.48-.33.8-.33h20.25c.31,0,.58.11.8.33.22.22.33.48.33.8v20.25c0,.31-.11.58-.33.8-.22.22-.48.33-.8.33h-20.25c-.31,0-.58-.11-.8-.33-.22-.22-.33-.48-.33-.8Z"/>
    </clipPath>
    <clipPath id="clippath-76">
      <path class="cls-40" d="M218.81,101.81v-24.75c0-.62.22-1.15.66-1.59.44-.44.97-.66,1.59-.66h24.75c.62,0,1.15.22,1.59.66.44.44.66.97.66,1.59v24.75c0,.62-.22,1.15-.66,1.59s-.97.66-1.59.66h-24.75c-.62,0-1.15-.22-1.59-.66-.44-.44-.66-.97-.66-1.59Z"/>
    </clipPath>
    <clipPath id="clippath-77">
      <path class="cls-40" d="M221.62,97.88v-20.25c0-.47.16-.86.49-1.19.33-.33.73-.49,1.19-.49h20.25c.47,0,.86.16,1.19.49.33.33.49.73.49,1.19v20.25c0,.47-.16.86-.49,1.19-.33.33-.73.49-1.19.49h-20.25c-.47,0-.86-.16-1.19-.49s-.49-.73-.49-1.19Z"/>
    </clipPath>
    <clipPath id="clippath-78">
      <rect class="cls-40" x="221.62" y="75.78" width="23.76" height="24"/>
    </clipPath>
    <clipPath id="clippath-79">
      <path class="cls-40" d="M222.19,97.88v-20.25c0-.31.11-.58.33-.8.22-.22.48-.33.8-.33h20.25c.31,0,.58.11.8.33.22.22.33.48.33.8v20.25c0,.31-.11.58-.33.8-.22.22-.48.33-.8.33h-20.25c-.31,0-.58-.11-.8-.33-.22-.22-.33-.48-.33-.8Z"/>
    </clipPath>
    <clipPath id="clippath-80">
      <path class="cls-40" d="M6.19,139.5v-24.75c0-.62.22-1.15.66-1.59s.97-.66,1.59-.66h55.12c.62,0,1.15.22,1.59.66.44.44.66.97.66,1.59v24.75c0,.62-.22,1.15-.66,1.59-.44.44-.97.66-1.59.66H8.44c-.62,0-1.15-.22-1.59-.66s-.66-.97-.66-1.59Z"/>
    </clipPath>
    <clipPath id="clippath-81">
      <path class="cls-40" d="M9,135.56v-20.25c0-.47.16-.86.49-1.19.33-.33.73-.49,1.19-.49h50.62c.47,0,.86.16,1.19.49.33.33.49.73.49,1.19v20.25c0,.47-.16.86-.49,1.19-.33.33-.73.49-1.19.49H10.69c-.47,0-.86-.16-1.19-.49-.33-.33-.49-.73-.49-1.19Z"/>
    </clipPath>
    <clipPath id="clippath-82">
      <rect class="cls-40" x="8.98" y="113.46" width="54.24" height="24"/>
    </clipPath>
    <clipPath id="clippath-83">
      <path class="cls-40" d="M9.56,135.56v-20.25c0-.31.11-.58.33-.8.22-.22.48-.33.8-.33h50.62c.31,0,.58.11.8.33s.33.48.33.8v20.25c0,.31-.11.58-.33.8-.22.22-.48.33-.8.33H10.69c-.31,0-.58-.11-.8-.33-.22-.22-.33-.48-.33-.8Z"/>
    </clipPath>
    <clipPath id="clippath-84">
      <path class="cls-40" d="M66.94,139.5v-24.75c0-.62.22-1.15.66-1.59.44-.44.97-.66,1.59-.66h55.12c.62,0,1.15.22,1.59.66.44.44.66.97.66,1.59v24.75c0,.62-.22,1.15-.66,1.59-.44.44-.97.66-1.59.66h-55.12c-.62,0-1.15-.22-1.59-.66-.44-.44-.66-.97-.66-1.59Z"/>
    </clipPath>
    <clipPath id="clippath-85">
      <path class="cls-40" d="M69.75,135.56v-20.25c0-.47.16-.86.49-1.19.33-.33.73-.49,1.19-.49h50.62c.47,0,.86.16,1.19.49.33.33.49.73.49,1.19v20.25c0,.47-.16.86-.49,1.19-.33.33-.73.49-1.19.49h-50.62c-.47,0-.86-.16-1.19-.49-.33-.33-.49-.73-.49-1.19Z"/>
    </clipPath>
    <clipPath id="clippath-86">
      <rect class="cls-40" x="69.71" y="113.46" width="54.24" height="24"/>
    </clipPath>
    <clipPath id="clippath-87">
      <path class="cls-40" d="M70.31,135.56v-20.25c0-.31.11-.58.33-.8.22-.22.48-.33.8-.33h50.62c.31,0,.58.11.8.33s.33.48.33.8v20.25c0,.31-.11.58-.33.8-.22.22-.48.33-.8.33h-50.62c-.31,0-.58-.11-.8-.33-.22-.22-.33-.48-.33-.8Z"/>
    </clipPath>
    <clipPath id="clippath-88">
      <path class="cls-40" d="M218.81,139.5v-24.75c0-.62.22-1.15.66-1.59.44-.44.97-.66,1.59-.66h24.75c.62,0,1.15.22,1.59.66.44.44.66.97.66,1.59v24.75c0,.62-.22,1.15-.66,1.59-.44.44-.97.66-1.59.66h-24.75c-.62,0-1.15-.22-1.59-.66-.44-.44-.66-.97-.66-1.59Z"/>
    </clipPath>
    <clipPath id="clippath-89">
      <path class="cls-40" d="M221.62,135.56v-20.25c0-.47.16-.86.49-1.19.33-.33.73-.49,1.19-.49h20.25c.47,0,.86.16,1.19.49.33.33.49.73.49,1.19v20.25c0,.47-.16.86-.49,1.19-.33.33-.73.49-1.19.49h-20.25c-.47,0-.86-.16-1.19-.49-.33-.33-.49-.73-.49-1.19Z"/>
    </clipPath>
    <clipPath id="clippath-90">
      <rect class="cls-40" x="221.62" y="113.46" width="23.76" height="24"/>
    </clipPath>
    <clipPath id="clippath-91">
      <path class="cls-40" d="M222.19,135.56v-20.25c0-.31.11-.58.33-.8.22-.22.48-.33.8-.33h20.25c.31,0,.58.11.8.33.22.22.33.48.33.8v20.25c0,.31-.11.58-.33.8-.22.22-.48.33-.8.33h-20.25c-.31,0-.58-.11-.8-.33-.22-.22-.33-.48-.33-.8Z"/>
    </clipPath>
  </defs>
  <g>
    <path class="cls-31" d="M.28,144.56V3.38c0-.41.08-.8.24-1.18.16-.38.38-.71.67-1s.62-.51,1-.67c.38-.16.77-.24,1.18-.24h247.5c.41,0,.8.08,1.18.24.38.16.71.38,1,.67s.51.62.67,1c.16.38.24.77.24,1.18v141.19c0,.41-.08.8-.24,1.18s-.38.71-.67,1c-.29.29-.62.51-1,.67-.38.16-.77.24-1.18.24H3.38c-.41,0-.8-.08-1.18-.24-.38-.16-.71-.38-1-.67-.29-.29-.51-.62-.67-1-.16-.38-.24-.77-.24-1.18Z"/>
    <path class="cls-42" d="M.28,144.56V3.38c0-.41.08-.8.24-1.18.16-.38.38-.71.67-1s.62-.51,1-.67c.38-.16.77-.24,1.18-.24h247.5c.41,0,.8.08,1.18.24.38.16.71.38,1,.67s.51.62.67,1c.16.38.24.77.24,1.18v141.19c0,.41-.08.8-.24,1.18s-.38.71-.67,1c-.29.29-.62.51-1,.67-.38.16-.77.24-1.18.24H3.38c-.41,0-.8-.08-1.18-.24-.38-.16-.71-.38-1-.67-.29-.29-.51-.62-.67-1-.16-.38-.24-.77-.24-1.18Z"/>
  </g>
  <g class="cls-93">
    <rect class="cls-31" x="127.12" y="5.62" width="30.38" height="30.38"/>
  </g>
  <path class="cls-41" d="M127.41,33.19V8.44c0-.34.06-.66.19-.97.13-.31.31-.58.55-.82.24-.24.51-.42.82-.55.31-.13.63-.19.97-.19h24.75c.34,0,.66.06.97.19.31.13.58.31.82.55s.42.51.55.82.19.63.19.97v24.75c0,.34-.06.66-.19.97-.13.31-.31.58-.55.82s-.51.42-.82.55c-.31.13-.63.19-.97.19h-24.75c-.34,0-.66-.06-.97-.19-.31-.13-.58-.31-.82-.55-.24-.24-.42-.51-.55-.82-.13-.31-.19-.63-.19-.97Z"/>
  <g class="cls-48">
    <g class="cls-52">
      <g class="cls-84">
        <g class="cls-65">
          <rect class="cls-31" x="130.5" y="7.31" width="23.62" height="23.62"/>
        </g>
        <path class="cls-22" d="M131.06,9v20.25c0,.15.03.29.09.43.06.14.14.26.24.36.11.11.23.19.36.24s.28.09.43.09h20.25c.15,0,.29-.03.43-.09.14-.06.26-.14.36-.24.11-.11.19-.23.24-.36.06-.14.09-.28.09-.43V9c0-.15-.03-.29-.09-.43-.06-.14-.14-.26-.24-.36-.11-.11-.23-.19-.36-.24-.14-.06-.28-.09-.43-.09h-20.25c-.15,0-.29.03-.43.09-.14.06-.26.14-.36.24-.11.11-.19.23-.24.36-.06.14-.09.28-.09.43ZM154.75,6.58h-24.88v25.12h24.88V6.58Z"/>
      </g>
    </g>
  </g>
  <text class="cls-59" transform="translate(132.19 21.38)"><tspan x="0" y="0">SHIFT</tspan></text>
  <g class="cls-18">
    <rect class="cls-31" x="157.5" y="5.62" width="30.38" height="30.38"/>
  </g>
  <path class="cls-41" d="M157.78,33.19V8.44c0-.34.06-.66.19-.97s.31-.58.55-.82c.24-.24.51-.42.82-.55.31-.13.63-.19.97-.19h24.75c.34,0,.66.06.97.19.31.13.58.31.82.55s.42.51.55.82.19.63.19.97v24.75c0,.34-.06.66-.19.97-.13.31-.31.58-.55.82s-.51.42-.82.55c-.31.13-.63.19-.97.19h-24.75c-.34,0-.66-.06-.97-.19-.31-.13-.58-.31-.82-.55-.24-.24-.42-.51-.55-.82-.13-.31-.19-.63-.19-.97Z"/>
  <g class="cls-56">
    <g class="cls-52">
      <g class="cls-6">
        <g class="cls-7">
          <rect class="cls-31" x="160.88" y="7.31" width="23.62" height="23.62"/>
        </g>
        <path class="cls-22" d="M161.44,9v20.25c0,.15.03.29.09.43.06.14.14.26.24.36.11.11.23.19.36.24.14.06.28.09.43.09h20.25c.15,0,.29-.03.43-.09s.26-.14.36-.24c.11-.11.19-.23.24-.36.06-.14.09-.28.09-.43V9c0-.15-.03-.29-.09-.43-.06-.14-.14-.26-.24-.36-.11-.11-.23-.19-.36-.24-.14-.06-.28-.09-.43-.09h-20.25c-.15,0-.29.03-.43.09-.14.06-.26.14-.36.24-.11.11-.19.23-.24.36-.06.14-.09.28-.09.43ZM185.23,6.58h-25.12v25.12h25.12V6.58Z"/>
      </g>
    </g>
  </g>
  <text class="cls-59" transform="translate(162.56 21.38)"><tspan x="0" y="0">LOAD</tspan></text>
  <g class="cls-58">
    <rect class="cls-31" x="187.88" y="5.62" width="30.38" height="30.38"/>
  </g>
  <path class="cls-41" d="M188.16,33.19V8.44c0-.34.06-.66.19-.97.13-.31.31-.58.55-.82s.51-.42.82-.55c.31-.13.63-.19.97-.19h24.75c.34,0,.66.06.97.19.31.13.58.31.82.55.24.24.42.51.55.82s.19.63.19.97v24.75c0,.34-.06.66-.19.97-.13.31-.31.58-.55.82-.24.24-.51.42-.82.55-.31.13-.63.19-.97.19h-24.75c-.34,0-.66-.06-.97-.19-.31-.13-.58-.31-.82-.55s-.42-.51-.55-.82c-.13-.31-.19-.63-.19-.97Z"/>
  <g class="cls-26">
    <g class="cls-52">
      <g class="cls-28">
        <g class="cls-37">
          <rect class="cls-31" x="191.25" y="7.31" width="23.62" height="23.62"/>
        </g>
        <path class="cls-22" d="M191.81,9v20.25c0,.15.03.29.09.43.06.14.14.26.24.36.11.11.23.19.36.24.14.06.28.09.43.09h20.25c.15,0,.29-.03.43-.09s.26-.14.36-.24c.11-.11.19-.23.24-.36.06-.14.09-.28.09-.43V9c0-.15-.03-.29-.09-.43-.06-.14-.14-.26-.24-.36-.11-.11-.23-.19-.36-.24-.14-.06-.28-.09-.43-.09h-20.25c-.15,0-.29.03-.43.09-.14.06-.26.14-.36.24-.11.11-.19.23-.24.36-.06.14-.09.28-.09.43ZM215.47,6.58h-24.88v25.12h24.88V6.58Z"/>
      </g>
    </g>
  </g>
  <g>
    <text class="cls-59" transform="translate(192.94 21.38)"><tspan x="0" y="0">PLA</tspan></text>
    <text class="cls-59" transform="translate(205.19 21.38)"><tspan x="0" y="0">Y</tspan></text>
  </g>
  <g class="cls-68">
    <rect class="cls-31" x="218.25" y="5.62" width="30.38" height="30.38"/>
  </g>
  <path class="cls-41" d="M218.53,33.19V8.44c0-.34.06-.66.19-.97.13-.31.31-.58.55-.82.24-.24.51-.42.82-.55.31-.13.63-.19.97-.19h24.75c.34,0,.66.06.97.19.31.13.58.31.82.55.24.24.42.51.55.82.13.31.19.63.19.97v24.75c0,.34-.06.66-.19.97-.13.31-.31.58-.55.82-.24.24-.51.42-.82.55-.31.13-.63.19-.97.19h-24.75c-.34,0-.66-.06-.97-.19-.31-.13-.58-.31-.82-.55-.24-.24-.42-.51-.55-.82-.13-.31-.19-.63-.19-.97Z"/>
  <g class="cls-89">
    <g class="cls-52">
      <g class="cls-70">
        <g class="cls-13">
          <rect class="cls-31" x="221.62" y="7.31" width="23.62" height="23.62"/>
        </g>
        <path class="cls-22" d="M222.19,9v20.25c0,.15.03.29.09.43.06.14.14.26.24.36.11.11.23.19.36.24.14.06.28.09.43.09h20.25c.15,0,.29-.03.43-.09.14-.06.26-.14.36-.24.11-.11.19-.23.24-.36s.09-.28.09-.43V9c0-.15-.03-.29-.09-.43-.06-.14-.14-.26-.24-.36-.11-.11-.23-.19-.36-.24-.14-.06-.28-.09-.43-.09h-20.25c-.15,0-.29.03-.43.09-.14.06-.26.14-.36.24-.11.11-.19.23-.24.36-.06.14-.09.28-.09.43ZM245.95,6.58h-24.88v25.12h24.88V6.58Z"/>
      </g>
    </g>
  </g>
  <g>
    <text class="cls-59" transform="translate(223.31 21.38)"><tspan x="0" y="0">SA</tspan></text>
    <text class="cls-59" transform="translate(231.82 21.38)"><tspan x="0" y="0">VE</tspan></text>
  </g>
  <g class="cls-83">
    <rect class="cls-31" x="5.62" y="43.88" width="30.38" height="30.38"/>
  </g>
  <path class="cls-41" d="M5.91,71.44v-24.75c0-.34.06-.66.19-.97.13-.31.31-.58.55-.82.24-.24.51-.42.82-.55.31-.13.63-.19.97-.19h24.75c.34,0,.66.06.97.19.31.13.58.31.82.55.24.24.42.51.55.82.13.31.19.63.19.97v24.75c0,.34-.06.66-.19.97-.13.31-.31.58-.55.82-.24.24-.51.42-.82.55-.31.13-.63.19-.97.19H8.44c-.34,0-.66-.06-.97-.19-.31-.13-.58-.31-.82-.55-.24-.24-.42-.51-.55-.82-.13-.31-.19-.63-.19-.97Z"/>
  <g class="cls-8">
    <g class="cls-52">
      <g class="cls-16">
        <g class="cls-73">
          <rect class="cls-31" x="9" y="45.56" width="23.62" height="23.62"/>
        </g>
        <path class="cls-22" d="M9.56,47.25v20.25c0,.15.03.29.09.43.06.14.14.26.24.36.11.11.23.19.36.24.14.06.28.09.43.09h20.25c.15,0,.29-.03.43-.09.14-.06.26-.14.36-.24.11-.11.19-.23.24-.36s.09-.28.09-.43v-20.25c0-.15-.03-.29-.09-.43s-.14-.26-.24-.36c-.11-.11-.23-.19-.36-.24-.14-.06-.28-.09-.43-.09H10.69c-.15,0-.29.03-.43.09-.14.06-.26.14-.36.24-.11.11-.19.23-.24.36-.06.14-.09.28-.09.43ZM33.31,44.98H8.42v24.88h24.88v-24.88Z"/>
      </g>
    </g>
  </g>
  <text class="cls-59" transform="translate(10.69 59.62)"><tspan x="0" y="0">1</tspan></text>
  <g class="cls-57">
    <rect class="cls-31" x="36" y="43.88" width="30.38" height="30.38"/>
  </g>
  <path class="cls-41" d="M36.28,71.44v-24.75c0-.34.06-.66.19-.97s.31-.58.55-.82c.24-.24.51-.42.82-.55.31-.13.63-.19.97-.19h24.75c.34,0,.66.06.97.19.31.13.58.31.82.55.24.24.42.51.55.82.13.31.19.63.19.97v24.75c0,.34-.06.66-.19.97-.13.31-.31.58-.55.82-.24.24-.51.42-.82.55-.31.13-.63.19-.97.19h-24.75c-.34,0-.66-.06-.97-.19-.31-.13-.58-.31-.82-.55-.24-.24-.42-.51-.55-.82s-.19-.63-.19-.97Z"/>
  <g class="cls-5">
    <g class="cls-52">
      <g class="cls-20">
        <g class="cls-21">
          <rect class="cls-31" x="39.38" y="45.56" width="23.62" height="23.62"/>
        </g>
        <path class="cls-22" d="M39.94,47.25v20.25c0,.15.03.29.09.43s.14.26.24.36c.11.11.23.19.36.24.14.06.28.09.43.09h20.25c.15,0,.29-.03.43-.09.14-.06.26-.14.36-.24.11-.11.19-.23.24-.36.06-.14.09-.28.09-.43v-20.25c0-.15-.03-.29-.09-.43-.06-.14-.14-.26-.24-.36-.11-.11-.23-.19-.36-.24-.14-.06-.28-.09-.43-.09h-20.25c-.15,0-.29.03-.43.09-.14.06-.26.14-.36.24-.11.11-.19.23-.24.36s-.09.28-.09.43ZM63.79,44.98h-25.12v24.88h25.12v-24.88Z"/>
      </g>
    </g>
  </g>
  <text class="cls-59" transform="translate(41.06 59.62)"><tspan x="0" y="0">2</tspan></text>
  <g class="cls-92">
    <rect class="cls-31" x="66.38" y="43.88" width="30.38" height="30.38"/>
  </g>
  <path class="cls-41" d="M66.66,71.44v-24.75c0-.34.06-.66.19-.97.13-.31.31-.58.55-.82.24-.24.51-.42.82-.55.31-.13.63-.19.97-.19h24.75c.34,0,.66.06.97.19.31.13.58.31.82.55.24.24.42.51.55.82.13.31.19.63.19.97v24.75c0,.34-.06.66-.19.97-.13.31-.31.58-.55.82-.24.24-.51.42-.82.55-.31.13-.63.19-.97.19h-24.75c-.34,0-.66-.06-.97-.19-.31-.13-.58-.31-.82-.55-.24-.24-.42-.51-.55-.82-.13-.31-.19-.63-.19-.97Z"/>
  <g class="cls-34">
    <g class="cls-52">
      <g class="cls-66">
        <g class="cls-35">
          <rect class="cls-31" x="69.75" y="45.56" width="23.62" height="23.62"/>
        </g>
        <path class="cls-22" d="M70.31,47.25v20.25c0,.15.03.29.09.43.06.14.14.26.24.36s.23.19.36.24c.14.06.28.09.43.09h20.25c.15,0,.29-.03.43-.09.14-.06.26-.14.36-.24.11-.11.19-.23.24-.36.06-.14.09-.28.09-.43v-20.25c0-.15-.03-.29-.09-.43-.06-.14-.14-.26-.24-.36-.11-.11-.23-.19-.36-.24-.14-.06-.28-.09-.43-.09h-20.25c-.15,0-.29.03-.43.09-.14.06-.26.14-.36.24-.11.11-.19.23-.24.36-.06.14-.09.28-.09.43ZM94.03,44.98h-24.89v24.88h24.89v-24.88Z"/>
      </g>
    </g>
  </g>
  <text class="cls-59" transform="translate(71.44 59.62)"><tspan x="0" y="0">3</tspan></text>
  <g class="cls-47">
    <rect class="cls-31" x="96.75" y="43.88" width="30.38" height="30.38"/>
  </g>
  <path class="cls-41" d="M97.03,71.44v-24.75c0-.34.06-.66.19-.97.13-.31.31-.58.55-.82.24-.24.51-.42.82-.55.31-.13.63-.19.97-.19h24.75c.34,0,.66.06.97.19.31.13.58.31.82.55.24.24.42.51.55.82.13.31.19.63.19.97v24.75c0,.34-.06.66-.19.97-.13.31-.31.58-.55.82-.24.24-.51.42-.82.55-.31.13-.63.19-.97.19h-24.75c-.34,0-.66-.06-.97-.19-.31-.13-.58-.31-.82-.55-.24-.24-.42-.51-.55-.82-.13-.31-.19-.63-.19-.97Z"/>
  <g class="cls-85">
    <g class="cls-52">
      <g class="cls-71">
        <g class="cls-10">
          <rect class="cls-31" x="100.12" y="45.56" width="23.62" height="23.62"/>
        </g>
        <path class="cls-22" d="M100.69,47.25v20.25c0,.15.03.29.09.43.06.14.14.26.24.36.11.11.23.19.36.24.14.06.28.09.43.09h20.25c.15,0,.29-.03.43-.09.14-.06.26-.14.36-.24.11-.11.19-.23.24-.36.06-.14.09-.28.09-.43v-20.25c0-.15-.03-.29-.09-.43-.06-.14-.14-.26-.24-.36-.11-.11-.23-.19-.36-.24-.14-.06-.28-.09-.43-.09h-20.25c-.15,0-.29.03-.43.09-.14.06-.26.14-.36.24-.11.11-.19.23-.24.36-.06.14-.09.28-.09.43ZM124.51,44.98h-25.12v24.88h25.12v-24.88Z"/>
      </g>
    </g>
  </g>
  <text class="cls-59" transform="translate(101.81 59.62)"><tspan x="0" y="0">4</tspan></text>
  <g class="cls-77">
    <rect class="cls-31" x="127.12" y="43.88" width="30.38" height="30.38"/>
  </g>
  <path class="cls-41" d="M127.41,71.44v-24.75c0-.34.06-.66.19-.97.13-.31.31-.58.55-.82.24-.24.51-.42.82-.55.31-.13.63-.19.97-.19h24.75c.34,0,.66.06.97.19.31.13.58.31.82.55.24.24.42.51.55.82s.19.63.19.97v24.75c0,.34-.06.66-.19.97s-.31.58-.55.82c-.24.24-.51.42-.82.55-.31.13-.63.19-.97.19h-24.75c-.34,0-.66-.06-.97-.19-.31-.13-.58-.31-.82-.55-.24-.24-.42-.51-.55-.82-.13-.31-.19-.63-.19-.97Z"/>
  <g class="cls-14">
    <g class="cls-52">
      <g class="cls-3">
        <g class="cls-45">
          <rect class="cls-31" x="130.5" y="45.56" width="23.62" height="23.62"/>
        </g>
        <path class="cls-22" d="M131.06,47.25v20.25c0,.15.03.29.09.43.06.14.14.26.24.36s.23.19.36.24c.14.06.28.09.43.09h20.25c.15,0,.29-.03.43-.09.14-.06.26-.14.36-.24.11-.11.19-.23.24-.36.06-.14.09-.28.09-.43v-20.25c0-.15-.03-.29-.09-.43-.06-.14-.14-.26-.24-.36-.11-.11-.23-.19-.36-.24-.14-.06-.28-.09-.43-.09h-20.25c-.15,0-.29.03-.43.09-.14.06-.26.14-.36.24-.11.11-.19.23-.24.36-.06.14-.09.28-.09.43ZM154.75,44.98h-24.88v24.88h24.88v-24.88Z"/>
      </g>
    </g>
  </g>
  <text class="cls-59" transform="translate(132.19 59.62)"><tspan x="0" y="0">5</tspan></text>
  <g class="cls-44">
    <rect class="cls-31" x="157.5" y="43.88" width="30.38" height="30.38"/>
  </g>
  <path class="cls-41" d="M157.78,71.44v-24.75c0-.34.06-.66.19-.97s.31-.58.55-.82c.24-.24.51-.42.82-.55.31-.13.63-.19.97-.19h24.75c.34,0,.66.06.97.19.31.13.58.31.82.55.24.24.42.51.55.82s.19.63.19.97v24.75c0,.34-.06.66-.19.97s-.31.58-.55.82c-.24.24-.51.42-.82.55-.31.13-.63.19-.97.19h-24.75c-.34,0-.66-.06-.97-.19-.31-.13-.58-.31-.82-.55-.24-.24-.42-.51-.55-.82s-.19-.63-.19-.97Z"/>
  <g class="cls-87">
    <g class="cls-52">
      <g class="cls-4">
        <g class="cls-81">
          <rect class="cls-31" x="160.88" y="45.56" width="23.62" height="23.62"/>
        </g>
        <path class="cls-22" d="M161.44,47.25v20.25c0,.15.03.29.09.43.06.14.14.26.24.36s.23.19.36.24c.14.06.28.09.43.09h20.25c.15,0,.29-.03.43-.09.14-.06.26-.14.36-.24s.19-.23.24-.36c.06-.14.09-.28.09-.43v-20.25c0-.15-.03-.29-.09-.43-.06-.14-.14-.26-.24-.36-.11-.11-.23-.19-.36-.24-.14-.06-.28-.09-.43-.09h-20.25c-.15,0-.29.03-.43.09-.14.06-.26.14-.36.24-.11.11-.19.23-.24.36-.06.14-.09.28-.09.43ZM185.23,44.98h-25.12v24.88h25.12v-24.88Z"/>
      </g>
    </g>
  </g>
  <text class="cls-59" transform="translate(162.56 59.62)"><tspan x="0" y="0">6</tspan></text>
  <g class="cls-55">
    <rect class="cls-31" x="187.88" y="43.88" width="30.38" height="30.38"/>
  </g>
  <path class="cls-41" d="M188.16,71.44v-24.75c0-.34.06-.66.19-.97.13-.31.31-.58.55-.82.24-.24.51-.42.82-.55.31-.13.63-.19.97-.19h24.75c.34,0,.66.06.97.19.31.13.58.31.82.55.24.24.42.51.55.82s.19.63.19.97v24.75c0,.34-.06.66-.19.97s-.31.58-.55.82c-.24.24-.51.42-.82.55-.31.13-.63.19-.97.19h-24.75c-.34,0-.66-.06-.97-.19-.31-.13-.58-.31-.82-.55-.24-.24-.42-.51-.55-.82-.13-.31-.19-.63-.19-.97Z"/>
  <g class="cls-62">
    <g class="cls-52">
      <g class="cls-29">
        <g class="cls-32">
          <rect class="cls-31" x="191.25" y="45.56" width="23.62" height="23.62"/>
        </g>
        <path class="cls-22" d="M191.81,47.25v20.25c0,.15.03.29.09.43.06.14.14.26.24.36.11.11.23.19.36.24.14.06.28.09.43.09h20.25c.15,0,.29-.03.43-.09.14-.06.26-.14.36-.24.11-.11.19-.23.24-.36.06-.14.09-.28.09-.43v-20.25c0-.15-.03-.29-.09-.43-.06-.14-.14-.26-.24-.36-.11-.11-.23-.19-.36-.24-.14-.06-.28-.09-.43-.09h-20.25c-.15,0-.29.03-.43.09-.14.06-.26.14-.36.24-.11.11-.19.23-.24.36-.06.14-.09.28-.09.43ZM215.47,44.98h-24.88v24.88h24.88v-24.88Z"/>
      </g>
    </g>
  </g>
  <text class="cls-59" transform="translate(192.94 59.62)"><tspan x="0" y="0">7</tspan></text>
  <g class="cls-98">
    <rect class="cls-31" x="218.25" y="43.88" width="30.38" height="30.38"/>
  </g>
  <path class="cls-41" d="M218.53,71.44v-24.75c0-.34.06-.66.19-.97.13-.31.31-.58.55-.82.24-.24.51-.42.82-.55.31-.13.63-.19.97-.19h24.75c.34,0,.66.06.97.19.31.13.58.31.82.55s.42.51.55.82c.13.31.19.63.19.97v24.75c0,.34-.06.66-.19.97-.13.31-.31.58-.55.82-.24.24-.51.42-.82.55-.31.13-.63.19-.97.19h-24.75c-.34,0-.66-.06-.97-.19-.31-.13-.58-.31-.82-.55-.24-.24-.42-.51-.55-.82-.13-.31-.19-.63-.19-.97Z"/>
  <g class="cls-51">
    <g class="cls-52">
      <g class="cls-54">
        <g class="cls-17">
          <rect class="cls-31" x="221.62" y="45.56" width="23.62" height="23.62"/>
        </g>
        <path class="cls-22" d="M222.19,47.25v20.25c0,.15.03.29.09.43.06.14.14.26.24.36.11.11.23.19.36.24.14.06.28.09.43.09h20.25c.15,0,.29-.03.43-.09.14-.06.26-.14.36-.24.11-.11.19-.23.24-.36s.09-.28.09-.43v-20.25c0-.15-.03-.29-.09-.43s-.14-.26-.24-.36c-.11-.11-.23-.19-.36-.24-.14-.06-.28-.09-.43-.09h-20.25c-.15,0-.29.03-.43.09-.14.06-.26.14-.36.24-.11.11-.19.23-.24.36-.06.14-.09.28-.09.43ZM245.95,44.98h-24.88v24.88h24.88v-24.88Z"/>
      </g>
    </g>
  </g>
  <text class="cls-59" transform="translate(223.31 59.62)"><tspan x="0" y="0">8</tspan></text>
  <g class="cls-46">
    <rect class="cls-31" x="5.62" y="74.25" width="30.38" height="30.38"/>
  </g>
  <path class="cls-41" d="M5.91,101.81v-24.75c0-.34.06-.66.19-.97.13-.31.31-.58.55-.82.24-.24.51-.42.82-.55.31-.13.63-.19.97-.19h24.75c.34,0,.66.06.97.19.31.13.58.31.82.55.24.24.42.51.55.82.13.31.19.63.19.97v24.75c0,.34-.06.66-.19.97-.13.31-.31.58-.55.82-.24.24-.51.42-.82.55s-.63.19-.97.19H8.44c-.34,0-.66-.06-.97-.19-.31-.13-.58-.31-.82-.55-.24-.24-.42-.51-.55-.82-.13-.31-.19-.63-.19-.97Z"/>
  <g class="cls-86">
    <g class="cls-52">
      <g class="cls-69">
        <g class="cls-2">
          <rect class="cls-31" x="9" y="75.94" width="23.62" height="23.62"/>
        </g>
        <path class="cls-22" d="M9.56,77.62v20.25c0,.15.03.29.09.43.06.14.14.26.24.36.11.11.23.19.36.24.14.06.28.09.43.09h20.25c.15,0,.29-.03.43-.09.14-.06.26-.14.36-.24.11-.11.19-.23.24-.36.06-.14.09-.28.09-.43v-20.25c0-.15-.03-.29-.09-.43-.06-.14-.14-.26-.24-.36-.11-.11-.23-.19-.36-.24-.14-.06-.28-.09-.43-.09H10.69c-.15,0-.29.03-.43.09-.14.06-.26.14-.36.24-.11.11-.19.23-.24.36-.06.14-.09.28-.09.43ZM33.31,75.22H8.42v25.12h24.88v-25.12Z"/>
      </g>
    </g>
  </g>
  <text class="cls-59" transform="translate(10.69 90)"><tspan x="0" y="0">9</tspan></text>
  <g class="cls-61">
    <rect class="cls-31" x="36" y="74.25" width="30.38" height="30.38"/>
  </g>
  <path class="cls-41" d="M36.28,101.81v-24.75c0-.34.06-.66.19-.97s.31-.58.55-.82c.24-.24.51-.42.82-.55.31-.13.63-.19.97-.19h24.75c.34,0,.66.06.97.19.31.13.58.31.82.55.24.24.42.51.55.82.13.31.19.63.19.97v24.75c0,.34-.06.66-.19.97-.13.31-.31.58-.55.82-.24.24-.51.42-.82.55-.31.13-.63.19-.97.19h-24.75c-.34,0-.66-.06-.97-.19-.31-.13-.58-.31-.82-.55-.24-.24-.42-.51-.55-.82s-.19-.63-.19-.97Z"/>
  <g class="cls-80">
    <g class="cls-52">
      <g class="cls-24">
        <g class="cls-78">
          <rect class="cls-31" x="39.38" y="75.94" width="23.62" height="23.62"/>
        </g>
        <path class="cls-22" d="M39.94,77.62v20.25c0,.15.03.29.09.43.06.14.14.26.24.36.11.11.23.19.36.24.14.06.28.09.43.09h20.25c.15,0,.29-.03.43-.09.14-.06.26-.14.36-.24.11-.11.19-.23.24-.36.06-.14.09-.28.09-.43v-20.25c0-.15-.03-.29-.09-.43-.06-.14-.14-.26-.24-.36-.11-.11-.23-.19-.36-.24-.14-.06-.28-.09-.43-.09h-20.25c-.15,0-.29.03-.43.09-.14.06-.26.14-.36.24-.11.11-.19.23-.24.36-.06.14-.09.28-.09.43ZM63.79,75.22h-25.12v25.12h25.12v-25.12Z"/>
      </g>
    </g>
  </g>
  <text class="cls-59" transform="translate(41.06 90)"><tspan x="0" y="0">10</tspan></text>
  <g class="cls-49">
    <rect class="cls-31" x="66.38" y="74.25" width="30.38" height="30.38"/>
  </g>
  <path class="cls-41" d="M66.66,101.81v-24.75c0-.34.06-.66.19-.97.13-.31.31-.58.55-.82.24-.24.51-.42.82-.55.31-.13.63-.19.97-.19h24.75c.34,0,.66.06.97.19.31.13.58.31.82.55.24.24.42.51.55.82.13.31.19.63.19.97v24.75c0,.34-.06.66-.19.97-.13.31-.31.58-.55.82-.24.24-.51.42-.82.55-.31.13-.63.19-.97.19h-24.75c-.34,0-.66-.06-.97-.19-.31-.13-.58-.31-.82-.55-.24-.24-.42-.51-.55-.82-.13-.31-.19-.63-.19-.97Z"/>
  <g class="cls-38">
    <g class="cls-52">
      <g class="cls-88">
        <g class="cls-30">
          <rect class="cls-31" x="69.75" y="75.94" width="23.62" height="23.62"/>
        </g>
        <path class="cls-22" d="M70.31,77.62v20.25c0,.15.03.29.09.43.06.14.14.26.24.36.11.11.23.19.36.24.14.06.28.09.43.09h20.25c.15,0,.29-.03.43-.09.14-.06.26-.14.36-.24.11-.11.19-.23.24-.36.06-.14.09-.28.09-.43v-20.25c0-.15-.03-.29-.09-.43-.06-.14-.14-.26-.24-.36-.11-.11-.23-.19-.36-.24-.14-.06-.28-.09-.43-.09h-20.25c-.15,0-.29.03-.43.09-.14.06-.26.14-.36.24-.11.11-.19.23-.24.36-.06.14-.09.28-.09.43ZM94.03,75.22h-24.89v25.12h24.89v-25.12Z"/>
      </g>
    </g>
  </g>
  <g>
    <text class="cls-59" transform="translate(71.44 90)"><tspan x="0" y="0">1</tspan></text>
    <text class="cls-59" transform="translate(74.69 90)"><tspan x="0" y="0">1</tspan></text>
  </g>
  <g class="cls-36">
    <rect class="cls-31" x="96.75" y="74.25" width="30.38" height="30.38"/>
  </g>
  <path class="cls-41" d="M97.03,101.81v-24.75c0-.34.06-.66.19-.97.13-.31.31-.58.55-.82.24-.24.51-.42.82-.55.31-.13.63-.19.97-.19h24.75c.34,0,.66.06.97.19.31.13.58.31.82.55.24.24.42.51.55.82.13.31.19.63.19.97v24.75c0,.34-.06.66-.19.97-.13.31-.31.58-.55.82-.24.24-.51.42-.82.55-.31.13-.63.19-.97.19h-24.75c-.34,0-.66-.06-.97-.19-.31-.13-.58-.31-.82-.55-.24-.24-.42-.51-.55-.82-.13-.31-.19-.63-.19-.97Z"/>
  <g class="cls-15">
    <g class="cls-52">
      <g class="cls-99">
        <g class="cls-91">
          <rect class="cls-31" x="100.12" y="75.94" width="23.62" height="23.62"/>
        </g>
        <path class="cls-22" d="M100.69,77.62v20.25c0,.15.03.29.09.43.06.14.14.26.24.36.11.11.23.19.36.24.14.06.28.09.43.09h20.25c.15,0,.29-.03.43-.09.14-.06.26-.14.36-.24s.19-.23.24-.36c.06-.14.09-.28.09-.43v-20.25c0-.15-.03-.29-.09-.43-.06-.14-.14-.26-.24-.36s-.23-.19-.36-.24c-.14-.06-.28-.09-.43-.09h-20.25c-.15,0-.29.03-.43.09-.14.06-.26.14-.36.24-.11.11-.19.23-.24.36-.06.14-.09.28-.09.43ZM124.51,75.22h-25.12v25.12h25.12v-25.12Z"/>
      </g>
    </g>
  </g>
  <text class="cls-59" transform="translate(101.81 90)"><tspan x="0" y="0">12</tspan></text>
  <g class="cls-33">
    <rect class="cls-31" x="127.12" y="74.25" width="30.38" height="30.38"/>
  </g>
  <path class="cls-41" d="M127.41,101.81v-24.75c0-.34.06-.66.19-.97.13-.31.31-.58.55-.82.24-.24.51-.42.82-.55.31-.13.63-.19.97-.19h24.75c.34,0,.66.06.97.19.31.13.58.31.82.55.24.24.42.51.55.82s.19.63.19.97v24.75c0,.34-.06.66-.19.97s-.31.58-.55.82c-.24.24-.51.42-.82.55-.31.13-.63.19-.97.19h-24.75c-.34,0-.66-.06-.97-.19-.31-.13-.58-.31-.82-.55-.24-.24-.42-.51-.55-.82-.13-.31-.19-.63-.19-.97Z"/>
  <g class="cls-97">
    <g class="cls-52">
      <g class="cls-25">
        <g class="cls-63">
          <rect class="cls-31" x="130.5" y="75.94" width="23.62" height="23.62"/>
        </g>
        <path class="cls-22" d="M131.06,77.62v20.25c0,.15.03.29.09.43.06.14.14.26.24.36.11.11.23.19.36.24.14.06.28.09.43.09h20.25c.15,0,.29-.03.43-.09.14-.06.26-.14.36-.24.11-.11.19-.23.24-.36.06-.14.09-.28.09-.43v-20.25c0-.15-.03-.29-.09-.43-.06-.14-.14-.26-.24-.36-.11-.11-.23-.19-.36-.24-.14-.06-.28-.09-.43-.09h-20.25c-.15,0-.29.03-.43.09-.14.06-.26.14-.36.24-.11.11-.19.23-.24.36-.06.14-.09.28-.09.43ZM154.75,75.22h-24.88v25.12h24.88v-25.12Z"/>
      </g>
    </g>
  </g>
  <text class="cls-59" transform="translate(132.19 90)"><tspan x="0" y="0">13</tspan></text>
  <g class="cls-95">
    <rect class="cls-31" x="157.5" y="74.25" width="30.38" height="30.38"/>
  </g>
  <path class="cls-41" d="M157.78,101.81v-24.75c0-.34.06-.66.19-.97s.31-.58.55-.82c.24-.24.51-.42.82-.55.31-.13.63-.19.97-.19h24.75c.34,0,.66.06.97.19.31.13.58.31.82.55.24.24.42.51.55.82s.19.63.19.97v24.75c0,.34-.06.66-.19.97s-.31.58-.55.82c-.24.24-.51.42-.82.55-.31.13-.63.19-.97.19h-24.75c-.34,0-.66-.06-.97-.19-.31-.13-.58-.31-.82-.55-.24-.24-.42-.51-.55-.82s-.19-.63-.19-.97Z"/>
  <g class="cls-100">
    <g class="cls-52">
      <g class="cls-27">
        <g class="cls-19">
          <rect class="cls-31" x="160.88" y="75.94" width="23.62" height="23.62"/>
        </g>
        <path class="cls-22" d="M161.44,77.62v20.25c0,.15.03.29.09.43.06.14.14.26.24.36.11.11.23.19.36.24.14.06.28.09.43.09h20.25c.15,0,.29-.03.43-.09.14-.06.26-.14.36-.24.11-.11.19-.23.24-.36.06-.14.09-.28.09-.43v-20.25c0-.15-.03-.29-.09-.43-.06-.14-.14-.26-.24-.36-.11-.11-.23-.19-.36-.24-.14-.06-.28-.09-.43-.09h-20.25c-.15,0-.29.03-.43.09-.14.06-.26.14-.36.24-.11.11-.19.23-.24.36-.06.14-.09.28-.09.43ZM185.23,75.22h-25.12v25.12h25.12v-25.12Z"/>
      </g>
    </g>
  </g>
  <text class="cls-59" transform="translate(162.56 90)"><tspan x="0" y="0">14</tspan></text>
  <g class="cls-75">
    <rect class="cls-31" x="187.88" y="74.25" width="30.38" height="30.38"/>
  </g>
  <path class="cls-41" d="M188.16,101.81v-24.75c0-.34.06-.66.19-.97.13-.31.31-.58.55-.82.24-.24.51-.42.82-.55.31-.13.63-.19.97-.19h24.75c.34,0,.66.06.97.19.31.13.58.31.82.55.24.24.42.51.55.82s.19.63.19.97v24.75c0,.34-.06.66-.19.97s-.31.58-.55.82c-.24.24-.51.42-.82.55-.31.13-.63.19-.97.19h-24.75c-.34,0-.66-.06-.97-.19-.31-.13-.58-.31-.82-.55-.24-.24-.42-.51-.55-.82-.13-.31-.19-.63-.19-.97Z"/>
  <g class="cls-79">
    <g class="cls-52">
      <g class="cls-64">
        <g class="cls-12">
          <rect class="cls-31" x="191.25" y="75.94" width="23.62" height="23.62"/>
        </g>
        <path class="cls-22" d="M191.81,77.62v20.25c0,.15.03.29.09.43.06.14.14.26.24.36.11.11.23.19.36.24.14.06.28.09.43.09h20.25c.15,0,.29-.03.43-.09.14-.06.26-.14.36-.24.11-.11.19-.23.24-.36.06-.14.09-.28.09-.43v-20.25c0-.15-.03-.29-.09-.43-.06-.14-.14-.26-.24-.36-.11-.11-.23-.19-.36-.24-.14-.06-.28-.09-.43-.09h-20.25c-.15,0-.29.03-.43.09-.14.06-.26.14-.36.24-.11.11-.19.23-.24.36-.06.14-.09.28-.09.43ZM215.47,75.22h-24.88v25.12h24.88v-25.12Z"/>
      </g>
    </g>
  </g>
  <text class="cls-59" transform="translate(192.94 90)"><tspan x="0" y="0">15</tspan></text>
  <g class="cls-1">
    <rect class="cls-31" x="218.25" y="74.25" width="30.38" height="30.38"/>
  </g>
  <path class="cls-41" d="M218.53,101.81v-24.75c0-.34.06-.66.19-.97.13-.31.31-.58.55-.82.24-.24.51-.42.82-.55.31-.13.63-.19.97-.19h24.75c.34,0,.66.06.97.19.31.13.58.31.82.55.24.24.42.51.55.82.13.31.19.63.19.97v24.75c0,.34-.06.66-.19.97-.13.31-.31.58-.55.82-.24.24-.51.42-.82.55-.31.13-.63.19-.97.19h-24.75c-.34,0-.66-.06-.97-.19-.31-.13-.58-.31-.82-.55-.24-.24-.42-.51-.55-.82-.13-.31-.19-.63-.19-.97Z"/>
  <g class="cls-72">
    <g class="cls-52">
      <g class="cls-74">
        <g class="cls-11">
          <rect class="cls-31" x="221.62" y="75.94" width="23.62" height="23.62"/>
        </g>
        <path class="cls-22" d="M222.19,77.62v20.25c0,.15.03.29.09.43.06.14.14.26.24.36.11.11.23.19.36.24.14.06.28.09.43.09h20.25c.15,0,.29-.03.43-.09.14-.06.26-.14.36-.24.11-.11.19-.23.24-.36.06-.14.09-.28.09-.43v-20.25c0-.15-.03-.29-.09-.43-.06-.14-.14-.26-.24-.36-.11-.11-.23-.19-.36-.24-.14-.06-.28-.09-.43-.09h-20.25c-.15,0-.29.03-.43.09-.14.06-.26.14-.36.24-.11.11-.19.23-.24.36-.06.14-.09.28-.09.43ZM245.95,75.22h-24.88v25.12h24.88v-25.12Z"/>
      </g>
    </g>
  </g>
  <text class="cls-59" transform="translate(223.31 90)"><tspan x="0" y="0">16</tspan></text>
  <g class="cls-9">
    <rect class="cls-31" x="5.62" y="111.94" width="60.75" height="30.38"/>
  </g>
  <path class="cls-41" d="M5.91,139.5v-24.75c0-.34.06-.66.19-.97.13-.31.31-.58.55-.82.24-.24.51-.42.82-.55.31-.13.63-.19.97-.19h55.12c.34,0,.66.06.97.19.31.13.58.31.82.55s.42.51.55.82c.13.31.19.63.19.97v24.75c0,.34-.06.66-.19.97-.13.31-.31.58-.55.82s-.51.42-.82.55c-.31.13-.63.19-.97.19H8.44c-.34,0-.66-.06-.97-.19-.31-.13-.58-.31-.82-.55-.24-.24-.42-.51-.55-.82-.13-.31-.19-.63-.19-.97Z"/>
  <g class="cls-82">
    <g class="cls-52">
      <g class="cls-23">
        <g class="cls-96">
          <rect class="cls-31" x="9" y="113.62" width="54" height="23.62"/>
        </g>
        <path class="cls-22" d="M9.56,115.31v20.25c0,.15.03.29.09.43.06.14.14.26.24.36.11.11.23.19.36.24.14.06.28.09.43.09h50.62c.15,0,.29-.03.43-.09.14-.06.26-.14.36-.24.11-.11.19-.23.24-.36.06-.14.09-.28.09-.43v-20.25c0-.15-.03-.29-.09-.43-.06-.14-.14-.26-.24-.36-.11-.11-.23-.19-.36-.24-.14-.06-.28-.09-.43-.09H10.69c-.15,0-.29.03-.43.09-.14.06-.26.14-.36.24-.11.11-.19.23-.24.36-.06.14-.09.28-.09.43ZM63.79,112.9H8.42v25.12h55.36v-25.12Z"/>
      </g>
    </g>
  </g>
  <text class="cls-60" transform="translate(10.69 126.56)"><tspan x="0" y="0">RECORD</tspan></text>
  <g class="cls-76">
    <rect class="cls-31" x="66.38" y="111.94" width="60.75" height="30.38"/>
  </g>
  <path class="cls-41" d="M66.66,139.5v-24.75c0-.34.06-.66.19-.97.13-.31.31-.58.55-.82.24-.24.51-.42.82-.55.31-.13.63-.19.97-.19h55.12c.34,0,.66.06.97.19.31.13.58.31.82.55.24.24.42.51.55.82.13.31.19.63.19.97v24.75c0,.34-.06.66-.19.97-.13.31-.31.58-.55.82-.24.24-.51.42-.82.55-.31.13-.63.19-.97.19h-55.12c-.34,0-.66-.06-.97-.19-.31-.13-.58-.31-.82-.55-.24-.24-.42-.51-.55-.82-.13-.31-.19-.63-.19-.97Z"/>
  <g class="cls-43">
    <g class="cls-52">
      <g class="cls-90">
        <g class="cls-94">
          <rect class="cls-31" x="69.75" y="113.62" width="54" height="23.62"/>
        </g>
        <path class="cls-22" d="M70.31,115.31v20.25c0,.15.03.29.09.43.06.14.14.26.24.36.11.11.23.19.36.24.14.06.28.09.43.09h50.62c.15,0,.29-.03.43-.09.14-.06.26-.14.36-.24.11-.11.19-.23.24-.36.06-.14.09-.28.09-.43v-20.25c0-.15-.03-.29-.09-.43-.06-.14-.14-.26-.24-.36-.11-.11-.23-.19-.36-.24-.14-.06-.28-.09-.43-.09h-50.62c-.15,0-.29.03-.43.09-.14.06-.26.14-.36.24-.11.11-.19.23-.24.36-.06.14-.09.28-.09.43ZM124.51,112.9h-55.36v25.12h55.36v-25.12Z"/>
      </g>
    </g>
  </g>
  <g>
    <text class="cls-60" transform="translate(71.44 126.56)"><tspan x="0" y="0">MUT</tspan></text>
    <text class="cls-60" transform="translate(80.85 126.56)"><tspan x="0" y="0">A</tspan></text>
    <text class="cls-60" transform="translate(83.52 126.56)"><tspan x="0" y="0">TE</tspan></text>
    <text class="cls-60" transform="translate(71.44 134.44)"><tspan x="0" y="0">TYPE</tspan></text>
  </g>
  <g class="cls-39">
    <rect class="cls-31" x="218.25" y="111.94" width="30.38" height="30.38"/>
  </g>
  <path class="cls-41" d="M218.53,139.5v-24.75c0-.34.06-.66.19-.97.13-.31.31-.58.55-.82.24-.24.51-.42.82-.55.31-.13.63-.19.97-.19h24.75c.34,0,.66.06.97.19.31.13.58.31.82.55.24.24.42.51.55.82.13.31.19.63.19.97v24.75c0,.34-.06.66-.19.97-.13.31-.31.58-.55.82-.24.24-.51.42-.82.55-.31.13-.63.19-.97.19h-24.75c-.34,0-.66-.06-.97-.19-.31-.13-.58-.31-.82-.55-.24-.24-.42-.51-.55-.82-.13-.31-.19-.63-.19-.97Z"/>
  <g class="cls-53">
    <g class="cls-52">
      <g class="cls-50">
        <g class="cls-67">
          <rect class="cls-31" x="221.62" y="113.62" width="23.62" height="23.62"/>
        </g>
        <path class="cls-22" d="M222.19,115.31v20.25c0,.15.03.29.09.43.06.14.14.26.24.36.11.11.23.19.36.24.14.06.28.09.43.09h20.25c.15,0,.29-.03.43-.09.14-.06.26-.14.36-.24.11-.11.19-.23.24-.36s.09-.28.09-.43v-20.25c0-.15-.03-.29-.09-.43-.06-.14-.14-.26-.24-.36-.11-.11-.23-.19-.36-.24-.14-.06-.28-.09-.43-.09h-20.25c-.15,0-.29.03-.43.09-.14.06-.26.14-.36.24-.11.11-.19.23-.24.36-.06.14-.09.28-.09.43ZM245.95,112.9h-24.88v25.12h24.88v-25.12Z"/>
      </g>
    </g>
  </g>
  <g>
    <text class="cls-60" transform="translate(223.31 126.56)"><tspan x="0" y="0">GLIDE</tspan></text>
    <text class="cls-60" transform="translate(223.31 134.44)"><tspan x="0" y="0">G. </tspan></text>
    <text class="cls-60" transform="translate(229.23 134.44)"><tspan x="0" y="0">TYPE</tspan></text>
  </g>
</svg>